<svg width="23" height="28" viewBox="0 0 23 28" fill="none" xmlns="http://www.w3.org/2000/svg">
<path fill-rule="evenodd" clip-rule="evenodd" d="M8.97828 0.0551696C8.93787 0.0953514 8.9228 0.445126 8.9228 1.34108V2.57177L5.46707 2.58469L2.01133 2.59756L1.71084 2.71595C1.54556 2.781 1.31672 2.89277 1.2023 2.9643C0.88465 3.16282 0.453042 3.63282 0.288368 3.95952C-0.0200817 4.57158 0.000305811 3.85975 0.000305811 14.0223C0.000305811 24.1898 -0.0209142 23.4541 0.290171 24.0817C0.463813 24.4321 0.947986 24.9479 1.25375 25.1082C1.36531 25.1668 1.58139 25.2669 1.73395 25.3308L2.01133 25.4469L5.46633 25.4598L8.92132 25.4727L8.93362 26.7241L8.94592 27.9755L10.2288 27.9878L11.5117 28V14V0H10.2727C9.37073 0 9.01868 0.0149878 8.97828 0.0551696ZM14.0652 3.82739L14.0775 5.08019L17.2559 5.09201L20.4342 5.10382V13.3563V21.6088L20.054 21.1601C19.661 20.6966 18.5934 19.421 18.3374 19.1093C18.2574 19.0119 18.1587 18.8981 18.118 18.8564C18.0772 18.8147 17.7052 18.3669 17.2913 17.8611C16.8774 17.3554 16.505 16.9106 16.4639 16.8727C16.4227 16.8347 16.0992 16.452 15.745 16.0221C15.3908 15.5923 15.0888 15.2302 15.0741 15.2176C15.0592 15.2049 14.954 15.0808 14.8403 14.9417C14.7266 14.8027 14.6217 14.6785 14.6074 14.6659C14.5929 14.6533 14.4748 14.5147 14.3449 14.358C14.1725 14.15 14.1013 14.092 14.0815 14.1433C14.0666 14.182 14.0544 16.7471 14.0544 19.8435V25.4732L17.5332 25.4601L21.0121 25.4469L21.2783 25.34C21.7189 25.1631 21.9672 25.0045 22.2612 24.7122C22.566 24.409 22.733 24.1443 22.895 23.7074L23 23.4241V14.0223V4.62045L22.8861 4.32161C22.8235 4.15725 22.7202 3.92968 22.6565 3.81589C22.48 3.50051 21.9759 3.03377 21.6272 2.86284C21.0254 2.56786 21.1236 2.57458 17.4188 2.57458H14.0529L14.0652 3.82739ZM8.90736 21.6388C8.89853 21.6475 7.46991 21.6493 5.73266 21.6429L2.57396 21.631L2.82263 21.3322C2.95943 21.1679 3.09354 21.0106 3.12064 20.9827C3.14777 20.9548 3.50218 20.5323 3.90822 20.0437C4.31426 19.5552 4.68808 19.1089 4.73894 19.0521C4.78979 18.9951 4.89815 18.8694 4.97975 18.7727C5.13222 18.5919 5.89909 17.6751 5.9707 17.588C6.05114 17.4902 6.5674 16.8661 6.6232 16.7992C6.65478 16.7613 6.71307 16.6951 6.75269 16.6521C6.79236 16.6091 7.07256 16.2739 7.37542 15.9072C7.67823 15.5406 7.95783 15.206 7.99676 15.1637C8.03568 15.1214 8.25477 14.8628 8.48361 14.589L8.89968 14.0912L8.91152 17.857C8.91804 19.9282 8.91614 21.63 8.90736 21.6388Z" fill="#D2DEF2"/>
</svg>
