<svg width="30" height="27" viewBox="0 0 30 27" fill="none" xmlns="http://www.w3.org/2000/svg">
<path d="M9.66597 17.5789H9.66734C9.66849 17.5789 9.66963 17.5787 9.67078 17.5787H25.6062C25.9986 17.5787 26.3435 17.3184 26.4513 16.9412L29.967 4.63614C30.0428 4.37086 29.9897 4.08566 29.8237 3.86547C29.6576 3.64528 29.3978 3.51573 29.122 3.51573H7.63893L7.01063 0.688268C6.92114 0.286111 6.56453 0 6.15253 0H0.878933C0.39346 0 0 0.39346 0 0.878933C0 1.36441 0.39346 1.75787 0.878933 1.75787H5.44755C5.55879 2.2589 8.45423 15.2886 8.62086 16.0382C7.68677 16.4443 7.03146 17.3756 7.03146 18.4576C7.03146 19.9115 8.21436 21.0944 9.66826 21.0944H25.6062C26.0917 21.0944 26.4852 20.7009 26.4852 20.2155C26.4852 19.73 26.0917 19.3365 25.6062 19.3365H9.66826C9.1837 19.3365 8.78933 18.9421 8.78933 18.4576C8.78933 17.9737 9.18233 17.58 9.66597 17.5789ZM27.9567 5.2736L24.9431 15.8208H10.3732L8.02942 5.2736H27.9567Z" fill="#003DA6"/>
<path d="M8.78906 23.731C8.78906 25.1849 9.97195 26.3678 11.4258 26.3678C12.8797 26.3678 14.0626 25.1849 14.0626 23.731C14.0626 22.2771 12.8797 21.0942 11.4258 21.0942C9.97195 21.0942 8.78906 22.2771 8.78906 23.731ZM11.4258 22.8521C11.9104 22.8521 12.3048 23.2465 12.3048 23.731C12.3048 24.2156 11.9104 24.61 11.4258 24.61C10.9413 24.61 10.5469 24.2156 10.5469 23.731C10.5469 23.2465 10.9413 22.8521 11.4258 22.8521Z" fill="#003DA6"/>
<path d="M21.2109 23.731C21.2109 25.1849 22.3938 26.3678 23.8477 26.3678C25.3016 26.3678 26.4845 25.1849 26.4845 23.731C26.4845 22.2771 25.3016 21.0942 23.8477 21.0942C22.3938 21.0942 21.2109 22.2771 21.2109 23.731ZM23.8477 22.8521C24.3323 22.8521 24.7266 23.2465 24.7266 23.731C24.7266 24.2156 24.3323 24.61 23.8477 24.61C23.3632 24.61 22.9688 24.2156 22.9688 23.731C22.9688 23.2465 23.3632 22.8521 23.8477 22.8521Z" fill="#003DA6"/>
</svg>
