<svg width="64" height="64" viewBox="0 0 64 64" fill="none" xmlns="http://www.w3.org/2000/svg">
<path d="M54.572 6.80314L52.2746 4.52236C51.9775 4.22745 51.5324 4.13787 51.1431 4.29891C50.7558 4.45744 50.5023 4.83488 50.5023 5.25108V15.8558C48.2368 15.0119 45.7939 14.5272 43.2349 14.5272C35.6644 14.5272 28.5734 17.8623 23.7788 23.6806L21.6674 26.2432C21.5159 26.4274 21.4327 26.6584 21.4327 26.8954C21.4327 30.8727 24.6928 34.1102 28.7001 34.1102H43.2349C44.3248 34.1102 45.364 34.3256 46.3196 34.706C46.0018 41.8166 40.0924 47.509 32.8529 47.509H28.7001V46.4784C28.7001 42.5011 25.44 39.2636 21.4327 39.2636C20.8599 39.2636 20.3945 39.7241 20.3945 40.2943V45.4477C20.3945 48.0737 21.82 50.3691 23.938 51.6318C21.82 52.8945 20.3945 55.1898 20.3945 57.8159V62.9693C20.3945 63.5395 20.8599 63.9999 21.4327 63.9999C25.44 63.9999 28.7001 60.7625 28.7001 56.7852V55.7545H43.2349C54.684 55.7545 63.9989 46.507 63.9989 35.1409V29.3966C63.9989 20.8618 60.6506 12.8368 54.572 6.80314ZM24.0936 29.2461C25.1455 29.7268 26.2927 29.9874 27.4845 29.9874H30.7765V27.9261H27.4845C26.1837 27.9261 24.9493 27.5149 23.9192 26.7656L25.3863 24.9845C29.4828 20.0148 35.4079 17.0214 41.8125 16.6339L42.3118 17.1296C44.2463 19.051 45.3113 21.6031 45.3113 24.3187C45.3113 27.0343 44.2463 29.5863 42.3108 31.5078L41.7658 32.0488H28.7001C26.6932 32.0488 24.9574 30.9059 24.0936 29.2461ZM22.4709 45.4477V41.4291C24.8368 41.9082 26.6237 43.9892 26.6237 46.4784V50.4969C24.2579 50.0188 22.4709 47.9368 22.4709 45.4477ZM26.6237 56.7852C26.6237 59.2743 24.8368 61.3563 22.4709 61.8344V57.8159C22.4709 55.3267 24.2579 53.2447 26.6237 52.7666V56.7852ZM43.2349 53.6931H28.7001V49.5704H32.8529C40.8463 49.5704 47.446 43.5584 48.32 35.851C50.2747 37.3607 51.5405 39.712 51.5405 42.3556V43.3863H53.6169V42.3556C53.6169 37.1106 49.6466 32.7765 44.5347 32.1384C46.2583 30.0906 47.2372 27.5652 47.3598 24.8844C52.6122 25.3906 56.7315 29.7967 56.7315 35.1409V41.3249H58.8079V35.1409C58.8079 28.6342 53.7188 23.2981 47.2858 22.82C47.0085 20.5578 46.1128 18.4376 44.6685 16.6605C54.3033 17.3923 61.9225 25.3917 61.9225 35.1409C61.9225 45.3702 53.5389 53.6931 43.2349 53.6931ZM52.5787 16.7577V7.73921L53.1039 8.26059C57.9132 13.0345 60.8853 19.1416 61.6909 25.7399C59.6854 21.8738 56.4887 18.7239 52.5787 16.7577Z" fill="#0050DB"/>
<path d="M34.1101 20.3955V22.5054C34.6912 22.5054 35.1651 22.9783 35.1651 23.5603C35.1651 24.1424 34.6912 24.6153 34.1101 24.6153C33.5291 24.6153 33.0552 24.1424 33.0552 23.5603H30.9453C30.9453 25.305 32.3655 26.7252 34.1101 26.7252C35.8548 26.7252 37.275 25.305 37.275 23.5603C37.275 21.8157 35.8548 20.3955 34.1101 20.3955Z" fill="#0050DB"/>
<path d="M4.92188 30.9453H7.03177V33.0552H4.92188V30.9453Z" fill="#0050DB"/>
<path d="M9.14453 4.21973H11.2544V5.62632H9.14453V4.21973Z" fill="#0050DB"/>
<path d="M4.92188 11.9561H7.03177V14.0659H4.92188V11.9561Z" fill="#0050DB"/>
<path d="M13.3633 11.9561H15.4732V14.0659H13.3633V11.9561Z" fill="#0050DB"/>
<path d="M4.92188 21.0986H7.03177V23.2085H4.92188V21.0986Z" fill="#0050DB"/>
<path d="M13.3633 21.0986H15.4732V23.2085H13.3633V21.0986Z" fill="#0050DB"/>
<path d="M18.3122 27.9941C19.6094 26.8489 20.3956 25.1803 20.3956 23.4124C20.3956 21.5883 19.586 19.9525 18.3122 18.8327C19.6094 17.6865 20.3956 16.019 20.3956 14.251C20.3956 11.4333 18.4721 9.06146 15.8678 8.36014C16.1522 7.64888 16.3165 6.8924 16.3165 6.10758C16.3165 2.73916 13.5723 0 10.1978 0C6.82327 0 4.07912 2.73916 4.07912 6.10758C4.07912 6.8924 4.24344 7.64888 4.52776 8.36014C1.92354 9.06146 0 11.4333 0 14.251C0 16.019 0.786247 17.6865 2.08438 18.8327C0.80965 19.9525 0 21.5883 0 23.4124C0 25.1803 0.786247 26.8479 2.08338 27.9941C0.80965 29.1139 0 30.7496 0 32.5737C0 35.9422 2.74415 38.6813 6.11868 38.6813C7.6852 38.6813 9.1118 38.0859 10.1948 37.1157C11.3072 38.1172 12.7393 38.6813 14.2769 38.6813C17.6515 38.6813 20.3956 35.9422 20.3956 32.5737C20.3956 30.7496 19.586 29.1139 18.3122 27.9941ZM16.4285 26.8643C15.7588 26.6108 15.0358 26.4662 14.2769 26.4662C12.7393 26.4662 11.3072 27.0303 10.1948 28.0318C10.1804 28.0194 10.1674 28.0065 10.153 27.9941C11.4511 26.8479 12.2374 25.1803 12.2374 23.4124C12.2374 22.3487 11.962 21.3492 11.4815 20.4769C12.2344 19.7592 13.2123 19.3407 14.2769 19.3407C16.5266 19.3407 18.356 21.1668 18.356 23.4124C18.356 24.8404 17.6251 26.1232 16.4285 26.8643ZM18.356 14.251C18.356 15.679 17.6251 16.9618 16.4295 17.7029C15.7588 17.4494 15.0358 17.3048 14.2769 17.3048C12.7403 17.3048 11.3072 17.8699 10.1958 18.8715C10.1814 18.858 10.1674 18.8461 10.153 18.8327C11.4511 17.6865 12.2374 16.019 12.2374 14.251C12.2374 13.1874 11.962 12.1878 11.4815 11.3155C12.2344 10.5978 13.2123 10.1793 14.2769 10.1793C16.5266 10.1793 18.356 12.0054 18.356 14.251ZM10.1978 2.03586C12.4475 2.03586 14.2769 3.86197 14.2769 6.10758C14.2769 6.84667 14.0708 7.55097 13.6988 8.17723C12.3823 8.29901 11.1668 8.83581 10.1958 9.71009C9.24624 8.86016 8.03475 8.29801 6.6948 8.17276C6.32383 7.54799 6.11868 6.84567 6.11868 6.10758C6.11868 3.86197 7.94811 2.03586 10.1978 2.03586ZM2.03956 14.251C2.03956 12.0054 3.86899 10.1793 6.11868 10.1793C8.36837 10.1793 10.1978 12.0054 10.1978 14.251C10.1978 15.679 9.46683 16.9618 8.27028 17.7019C7.60055 17.4494 6.87655 17.3048 6.11868 17.3048C5.36082 17.3048 4.63681 17.4494 3.96708 17.7019C2.77054 16.9618 2.03956 15.679 2.03956 14.251ZM2.03956 23.4124C2.03956 21.1668 3.86899 19.3407 6.11868 19.3407C8.36837 19.3407 10.1978 21.1668 10.1978 23.4124C10.1978 24.8404 9.46683 26.1232 8.27127 26.8643C7.60055 26.6108 6.87754 26.4662 6.11868 26.4662C5.35982 26.4662 4.63681 26.6108 3.96609 26.8643C2.77054 26.1232 2.03956 24.8404 2.03956 23.4124ZM6.11868 36.6455C3.86899 36.6455 2.03956 34.8194 2.03956 32.5737C2.03956 30.3281 3.86899 28.502 6.11868 28.502C8.36837 28.502 10.1978 30.3281 10.1978 32.5737C10.1978 34.8194 8.36837 36.6455 6.11868 36.6455ZM14.2769 36.6455C13.2123 36.6455 12.2344 36.227 11.4815 35.5092C11.962 34.6379 12.2374 33.6374 12.2374 32.5737C12.2374 31.5101 11.962 30.5096 11.4815 29.6382C12.2344 28.9205 13.2123 28.502 14.2769 28.502C16.5266 28.502 18.356 30.3281 18.356 32.5737C18.356 34.8194 16.5266 36.6455 14.2769 36.6455Z" fill="#0050DB"/>
<path d="M13.3633 30.9453H15.4732V33.0552H13.3633V30.9453Z" fill="#0050DB"/>
</svg>
