<svg width="67" height="67" viewBox="0 0 67 67" fill="none" xmlns="http://www.w3.org/2000/svg">
<path d="M65.6729 50.3749C62.0049 48.1748 57.6875 47.4712 53.5139 48.4015L51.1147 48.9348L50.1418 42.1235L51.7512 38.9057C54.2324 33.9434 54.4017 28.1731 52.2164 23.0745L50.4931 19.0531C47.6021 12.3057 41.0846 7.89575 33.7837 7.66796C29.8783 5.12291 25.4854 3.41557 20.786 2.69283L3.36341 0.0125962C3.02599 -0.0395607 2.68857 0.0722042 2.44907 0.3117L0.3117 2.44907C0.0722042 2.68857 -0.0395607 3.02812 0.0125962 3.36341L2.69283 20.787C3.41344 25.4726 5.11227 29.8538 7.64561 33.7486V37.1388C7.64561 40.3342 9.36359 43.3146 12.13 44.9165L22.5029 50.922C23.9292 51.748 25.4865 52.1461 27.0246 52.1461C29.5835 52.1461 32.0827 51.0338 33.8444 48.9571L48.9348 51.1126L48.4015 53.5118C47.4733 57.6854 48.1737 62.0049 50.3749 65.6718C50.5676 65.9943 50.9146 66.1891 51.2871 66.1891C51.3084 66.1891 51.3308 66.1891 51.3521 66.187C51.7491 66.1636 52.0982 65.9198 52.26 65.5569L56.3517 56.3517L65.5569 52.26C65.9198 52.0993 66.1625 51.7491 66.187 51.3521C66.2115 50.955 66.0124 50.5782 65.6729 50.3749ZM37.6476 13.5042C42.3534 18.2101 45.4637 24.4306 46.4046 31.0183L48.9688 48.9678L31.0194 46.4035C24.4316 45.4626 18.2122 42.3523 13.5053 37.6465C9.69463 33.8348 7.0144 29.1864 5.59446 24.0633C6.94415 24.4593 8.34068 24.6765 9.77446 24.6765C17.9918 24.6765 24.6765 17.9918 24.6765 9.77446C24.6765 8.34068 24.4593 6.94415 24.0633 5.59339C29.1864 7.01334 33.8348 9.69357 37.6476 13.5042ZM22.1314 48.2482L17.0669 45.3157L16.1898 42.6834C17.9024 43.9011 19.7354 44.9357 21.645 45.8107L22.1314 48.2482ZM48.5345 19.8908L49.781 22.7999L45.536 21.0361C44.9985 19.9227 44.3992 18.8423 43.7414 17.7939L48.3621 19.5268C48.4185 19.6502 48.4813 19.7673 48.5345 19.8908ZM46.725 23.8356L50.8582 25.5525C51.1647 26.5403 51.3595 27.5493 51.4777 28.5648L47.733 27.0086C47.4488 25.9346 47.1146 24.8755 46.725 23.8356ZM49.8459 37.9531L49.6117 38.4203L48.5111 30.7171C48.4547 30.3243 48.3653 29.9379 48.295 29.5483L51.6022 30.9225C51.5394 33.3356 50.954 35.7359 49.8459 37.9531ZM46.6697 16.6187L41.5295 14.6911C40.7812 13.7565 40.001 12.8475 39.1527 11.9991C38.5598 11.4062 37.9445 10.8421 37.3155 10.3003C41.0686 11.2551 44.3811 13.4829 46.6697 16.6187ZM3.57204 2.19787L20.4624 4.79613C20.8509 4.85574 21.2298 4.94622 21.6141 5.01966C22.2229 6.53009 22.5476 8.1246 22.5476 9.77446C22.5476 16.8178 16.8178 22.5476 9.77446 22.5476C8.1246 22.5476 6.53009 22.2229 5.01966 21.6152C4.94622 21.2309 4.85574 20.852 4.79613 20.4634L3.70403 13.3658C6.29911 15.1754 9.37211 16.161 12.6026 16.161H15.0966V14.0322H12.6026C9.06981 14.0322 5.7488 12.675 3.22078 10.2173L2.19893 3.57204L3.57204 2.19787ZM9.77446 37.1388V36.6651C10.4759 37.522 11.2072 38.3597 11.9991 39.1516C12.3546 39.5071 12.7368 39.835 13.1083 40.1735L14.2855 43.7052L13.1966 43.074C11.0858 41.8521 9.77446 39.5784 9.77446 37.1388ZM24.5615 49.5415L24.0101 46.7867C26.1784 47.5851 28.4222 48.1833 30.7171 48.5111L31.1631 48.575C29.2844 50.0237 26.8021 50.4069 24.5615 49.5415ZM55.1127 54.572C54.8721 54.6784 54.6795 54.8711 54.573 55.1116L51.2265 62.6414C50.0971 59.9111 49.8299 56.902 50.4803 53.9738L51.1158 51.1136L53.9759 50.4782C56.9052 49.8268 59.9143 50.0961 62.6435 51.2243L55.1127 54.572Z" fill="#E2B061"/>
<path d="M11.9023 9.77431C13.078 9.77431 14.0311 8.82119 14.0311 7.64546C14.0311 6.46972 13.078 5.5166 11.9023 5.5166C10.7266 5.5166 9.77344 6.46972 9.77344 7.64546C9.77344 8.82119 10.7266 9.77431 11.9023 9.77431Z" fill="#E2B061"/>
<path d="M29.686 19.0424L31.8149 16.9136C32.015 16.7145 32.1268 16.4431 32.1268 16.161V11.9033H29.9979V15.7204L28.4928 17.2255H24.6758V19.3543H28.9335C29.2156 19.3543 29.487 19.2426 29.686 19.0424Z" fill="#E2B061"/>
<path d="M19.3533 28.9345V24.6768H17.2245V28.4938L15.7194 29.9989H11.9023V32.1278H16.1601C16.4421 32.1278 16.7136 32.016 16.9126 31.8159L19.0415 29.687C19.2416 29.488 19.3533 29.2165 19.3533 28.9345Z" fill="#E2B061"/>
<path d="M26.4946 28.6225L28.6235 26.4937C28.8236 26.2946 28.9354 26.0232 28.9354 25.7411V21.4834H26.8065V25.3004L25.3014 26.8055H21.4844V28.9344H25.7421C26.0242 28.9344 26.2956 28.8226 26.4946 28.6225Z" fill="#E2B061"/>
<path d="M31.0625 25.741H35.3202C35.6023 25.741 35.8737 25.6293 36.0728 25.4292L38.2016 23.3003C38.4017 23.1013 38.5135 22.8298 38.5135 22.5477V18.29H36.3846V22.1071L34.8795 23.6122H31.0625V25.741Z" fill="#E2B061"/>
<path d="M25.7401 31.063H23.6112V34.88L22.1061 36.3851H18.2891V38.514H22.5468C22.8288 38.514 23.1003 38.4022 23.2993 38.2021L25.4282 36.0733C25.6283 35.8742 25.7401 35.6028 25.7401 35.3207V31.063Z" fill="#E2B061"/>
<path d="M35.3182 32.1273V27.8696H33.1893V31.6867L31.6842 33.1918H27.8672V35.3206H32.1249C32.407 35.3206 32.6784 35.2089 32.8774 35.0087L35.0063 32.8799C35.2064 32.6808 35.3182 32.4094 35.3182 32.1273Z" fill="#E2B061"/>
<path d="M42.7733 28.4938L41.2682 29.9989H38.5156V32.1278H41.7089C41.991 32.1278 42.2624 32.016 42.4615 31.8159L44.5903 29.687C44.7904 29.488 44.9022 29.2166 44.9022 28.9345V25.7412H42.7733V28.4938Z" fill="#E2B061"/>
<path d="M29.9999 41.2668L28.4948 42.7719H25.7422V44.9007H28.9355C29.2175 44.9007 29.489 44.789 29.688 44.5889L31.8169 42.46C32.017 42.2609 32.1288 41.9895 32.1288 41.7074V38.5142H29.9999V41.2668Z" fill="#E2B061"/>
<path d="M39.58 38.0734L38.0748 39.5785H34.2578V41.7073H38.5155C38.7976 41.7073 39.069 41.5956 39.2681 41.3955L41.3969 39.2666C41.597 39.0676 41.7088 38.7961 41.7088 38.5141V34.2563H39.58V38.0734Z" fill="#E2B061"/>
</svg>
