<svg width="63" height="43" viewBox="0 0 63 43" fill="none" xmlns="http://www.w3.org/2000/svg">
<path d="M62.859 27.7815C62.8114 27.4775 62.7521 27.1689 62.6797 26.8589C61.9513 23.7445 59.7594 21.0058 56.6016 19.217V11.1535C56.62 10.8668 56.5391 10.5771 56.3611 10.3385C51.013 3.16993 37.2676 0 28.3008 0C24.9629 0 21.6969 0.372094 18.5936 1.10582C9.42871 3.27157 0 9.33384 0 18.457V30.2523C0 33.1445 1.36348 35.7782 3.64699 37.2972C8.4025 40.463 14.0139 42.1362 19.8745 42.1362C23.1366 42.1362 26.3672 41.6174 29.4767 40.5943C36.7687 38.194 47.9068 36.8213 59.2632 36.9227C59.2746 36.9227 59.2862 36.9228 59.2975 36.9228C61.3474 36.9228 63 35.2823 63 33.2374V28.3525C63 28.1462 62.9487 27.9523 62.859 27.7815ZM60.1981 27.0877C59.4951 27.0761 58.7863 27.0702 58.0781 27.0702C52.425 27.0702 46.6588 27.4361 41.2267 28.132L47.6601 19.6874H49.2028C53.8442 19.6875 58.9392 22.6058 60.1981 27.0877ZM37.7546 28.6288C33.3835 29.324 29.5647 30.2028 26.3996 31.2441C25.9188 31.4021 25.4323 31.5407 24.9423 31.6635L34.066 19.6875H44.5665L37.7546 28.6288ZM54.1406 18.0948C52.5322 17.5245 50.8512 17.2264 49.2028 17.2264H31.9922C30.6352 17.2264 29.5312 16.1225 29.5312 14.7655C29.5312 13.4085 30.6352 12.3046 31.9922 12.3046C34.6584 12.3046 51.8585 12.3046 54.1406 12.3046V18.0948ZM52.524 9.84375H41.5665L44.8688 5.5093C48.0146 6.72648 50.6371 8.21535 52.524 9.84375ZM19.5598 3.40951C22.3586 2.78049 25.2967 2.46094 28.3008 2.46094C28.6378 2.46094 28.9788 2.46647 29.3211 2.47472L22.694 11.174C22.2822 11.7146 22.3867 12.4867 22.9273 12.8985C23.4702 13.3122 24.2418 13.2034 24.6518 12.6652L32.2868 2.6428C35.7514 2.94931 39.2138 3.6369 42.4272 4.65351L38.4728 9.84375H31.9922C29.2783 9.84375 27.0703 12.0517 27.0703 14.7656C27.0703 17.1547 28.7818 19.1509 31.0428 19.5947L21.4138 32.2338C17.8521 32.4974 14.2923 31.8244 11.2043 30.3137L18.6975 20.4799C19.1094 19.9394 19.0051 19.1674 18.4644 18.7554C17.9236 18.3433 17.1518 18.4478 16.7399 18.9885L9.05416 29.0749C8.51472 28.7127 7.99448 28.3221 7.49971 27.906C5.68575 26.3826 4.3422 24.7066 3.49478 22.9158L19.5598 3.40951ZM15.3695 4.62632L2.60527 20.1252C2.51114 19.5722 2.46094 19.0154 2.46094 18.457C2.46094 11.7395 8.96089 6.94132 15.3695 4.62632ZM60.5391 33.2374C60.5391 33.9203 59.9889 34.4619 59.2969 34.4619C59.293 34.4619 59.289 34.4619 59.285 34.4617C47.6705 34.3595 36.2405 35.777 28.7072 38.2566C25.8465 39.1979 22.8747 39.6752 19.8744 39.6752C14.5006 39.6752 9.36079 38.1447 5.01022 35.2484C3.41394 34.1866 2.46094 32.3189 2.46094 30.2523V26.0338C5.9359 31.1091 12.408 34.7514 19.9047 34.7514C26.3302 34.7514 26.9128 32.7812 38.714 30.9689C44.8389 30.0284 51.535 29.5312 58.0781 29.5312C58.9016 29.5312 59.725 29.5399 60.5391 29.5559V33.2374Z" fill="#E2B061"/>
</svg>
