<svg width="75" height="75" viewBox="0 0 75 75" fill="none" xmlns="http://www.w3.org/2000/svg">
<path d="M67.3419 17.8972C65.1828 15.7265 62.6147 14.0057 59.7861 12.8343C56.9575 11.6628 53.9246 11.0641 50.863 11.0727H14.2399C13.9974 11.0718 13.7615 11.152 13.5699 11.3006C13.3782 11.4492 13.2417 11.6576 13.1821 11.8927H8.9195C8.13096 11.8927 7.37473 11.5794 6.81715 11.0218C6.25957 10.4643 5.94633 9.70803 5.94633 8.9195C5.94633 8.13096 6.25957 7.37473 6.81715 6.81715C7.37473 6.25957 8.13096 5.94633 8.9195 5.94633H22.9654C23.2559 5.94633 23.5345 5.83093 23.7399 5.6255C23.9453 5.42008 24.0607 5.14147 24.0607 4.85095C24.0607 4.56044 23.9453 4.28183 23.7399 4.07641C23.5345 3.87098 23.2559 3.75558 22.9654 3.75558H8.9195C7.54994 3.75558 6.23648 4.29963 5.26805 5.26805C4.29963 6.23648 3.75558 7.54994 3.75558 8.9195C3.75558 10.2891 4.29963 11.6025 5.26805 12.5709C6.23648 13.5394 7.54994 14.0834 8.9195 14.0834H13.4262L13.4969 14.5435C13.5539 14.9159 13.6221 15.2833 13.6966 15.6482H8.9195C7.13492 15.6482 5.42344 14.9393 4.16156 13.6774C2.89967 12.4156 2.19075 10.7041 2.19075 8.9195C2.19075 7.13492 2.89967 5.42344 4.16156 4.16156C5.42344 2.89967 7.13492 2.19075 8.9195 2.19075H27.3844C27.6749 2.19075 27.9535 2.07535 28.159 1.86992C28.3644 1.6645 28.4798 1.38589 28.4798 1.09538C28.4798 0.804865 28.3644 0.526251 28.159 0.320828C27.9535 0.115405 27.6749 0 27.3844 0H8.9195C6.5539 3.52501e-08 4.28519 0.93973 2.61246 2.61246C0.93973 4.28519 0 6.5539 0 8.9195C0 11.2851 0.93973 13.5538 2.61246 15.2265C4.28519 16.8993 6.5539 17.839 8.9195 17.839H14.2662C15.1311 20.6016 16.5437 23.1616 18.4198 25.3662C20.2959 27.5708 22.5969 29.3748 25.1855 30.6705C24.4206 32.8433 24.321 35.1947 24.8995 37.4243C24.9683 37.6477 25.107 37.8431 25.2952 37.9817C25.4833 38.1203 25.7111 38.1948 25.9448 38.1942C26.053 38.1929 26.1605 38.176 26.264 38.1441C26.5409 38.0589 26.7727 37.8675 26.9088 37.6118C27.0448 37.3561 27.0741 37.0569 26.9901 36.7796C26.575 35.0529 26.6487 33.2447 27.2029 31.5575C28.3846 32.0039 29.6032 32.3459 30.8446 32.5796C30.3855 34.5709 30.4615 36.6481 31.0649 38.6004C31.1424 38.8119 31.283 38.9944 31.4678 39.1232C31.6525 39.252 31.8725 39.3208 32.0977 39.3203C32.2238 39.3181 32.3486 39.2949 32.467 39.2514C32.6022 39.2034 32.7267 39.1292 32.8333 39.033C32.9398 38.9369 33.0264 38.8207 33.088 38.691C33.1496 38.5614 33.1851 38.4209 33.1924 38.2775C33.1997 38.1342 33.1786 37.9908 33.1305 37.8556C32.654 36.2364 32.6168 34.5196 33.0228 32.8813C33.6631 32.937 34.3103 32.9671 34.9632 32.9671H36.836C36.4715 35.1448 36.7432 37.3814 37.6184 39.4085C37.7064 39.5945 37.8456 39.7516 38.0196 39.8613C38.1936 39.971 38.3953 40.0289 38.6011 40.0282C38.7662 40.0281 38.9291 39.9895 39.0768 39.9155C39.2065 39.8538 39.3227 39.767 39.4186 39.66C39.5145 39.5531 39.5882 39.4281 39.6354 39.2924C39.6825 39.1567 39.7023 39.013 39.6934 38.8696C39.6846 38.7262 39.6473 38.586 39.5838 38.4571C38.864 36.721 38.6801 34.8092 39.0555 32.9677H47.5018C50.0085 32.9697 52.412 33.9659 54.1851 35.7378C55.9581 37.5097 56.9559 39.9126 56.9596 42.4192C56.9596 46.5247 54.3739 52.1837 50.4311 56.8563C46.1573 54.7369 40.1346 54.2274 34.7892 55.585C34.5465 55.6464 34.3322 55.7891 34.1819 55.9894C34.0317 56.1896 33.9546 56.4353 33.9636 56.6854C33.973 56.9489 34.2246 62.6048 38.2781 64.9796C36.6441 67.3571 35.4777 70.0238 34.8411 72.8375C34.8051 72.9977 34.8055 73.164 34.8424 73.324C34.8794 73.4841 34.9518 73.6337 35.0544 73.7619C35.157 73.8901 35.2872 73.9936 35.4352 74.0647C35.5832 74.1358 35.7454 74.1727 35.9096 74.1727C47.9975 74.1727 52.1631 67.074 53.4919 63.5074C53.5545 63.4786 53.6171 63.4549 53.6735 63.4223C59.837 60.0423 74.1727 50.4393 74.1727 34.3823C74.1808 31.3193 73.5812 28.2852 72.4087 25.4555C71.2362 22.6258 69.514 20.0568 67.3419 17.8972ZM15.6608 14.2117L15.5155 13.2634H46.5454C46.9554 17.0159 46.658 25.8503 45.2522 30.777H34.9644C30.2925 30.799 25.7692 29.1364 22.2237 26.0939C18.6782 23.0514 16.3482 18.8329 15.6608 14.2117ZM47.5156 30.7776C48.8419 25.5749 49.1186 17.2706 48.7386 13.2634H50.863C56.2668 13.2503 61.4669 15.3243 65.3783 19.0527C64.4545 23.8379 61.1658 31.1788 55.3772 33.8672C53.2383 31.8855 50.4314 30.7824 47.5156 30.7776ZM56.9045 35.5747C62.4753 32.636 65.8553 25.9886 67.1804 20.973C70.2969 24.7454 71.9956 29.4891 71.9819 34.3823C71.9816 37.2859 71.4527 40.1652 70.4208 42.8793C68.7165 43.8772 66.823 44.509 64.8609 44.7343C62.8988 44.9597 60.9113 44.7736 59.0252 44.1881C59.1048 43.6018 59.1466 43.0109 59.1503 42.4192C59.1496 39.9567 58.3626 37.5587 56.9039 35.5747H56.9045ZM37.3367 71.9437C38.053 69.5203 39.2279 67.2569 40.7975 65.2763C40.917 65.1406 41.0011 64.9775 41.0423 64.8014C41.0834 64.6253 41.0803 64.4417 41.0333 64.2671C40.9863 64.0925 40.8967 63.9323 40.7727 63.8007C40.6486 63.6691 40.4939 63.5703 40.3224 63.5131C37.3736 62.5304 36.5005 59.1266 36.2488 57.4941C40.5108 56.5545 44.9582 56.942 48.9934 58.6045C48.7243 59.0619 48.5633 59.5748 48.5229 60.1039C48.4825 60.6331 48.5636 61.1645 48.7601 61.6574C48.9566 62.1504 49.2633 62.5919 49.6566 62.9481C50.0499 63.3044 50.5196 63.5659 51.0295 63.7127C49.5949 66.7942 45.9983 71.4774 37.3367 71.9437ZM52.6169 61.5013C52.5356 61.5456 52.4498 61.5811 52.3609 61.6071L52.3152 61.619C52.1233 61.6678 51.9227 61.6721 51.7288 61.6314C51.535 61.5907 51.3531 61.5062 51.1969 61.3843C51.0408 61.2625 50.9147 61.1065 50.8281 60.9283C50.7416 60.7502 50.697 60.5546 50.6978 60.3565C50.7023 60.0189 50.8337 59.6953 51.0658 59.4502C54.7776 55.4273 57.4935 50.6246 58.5995 46.3501C59.6444 46.6444 60.7143 46.8414 61.7955 46.9385H61.8206C62.3338 46.9885 62.8283 47.0073 63.3103 47.0073C65.2548 47.0101 67.1841 46.6636 69.0062 45.9845C64.6898 54.0709 56.7311 59.2442 52.6194 61.5013H52.6169Z" fill="#E2B061"/>
<path d="M37.5564 27.0216H34.965C33.9207 27.0221 32.8789 26.9211 31.8542 26.7199C31.5691 26.6637 31.2734 26.7231 31.0322 26.8849C30.9127 26.965 30.8102 27.0679 30.7305 27.1876C30.6507 27.3073 30.5954 27.4416 30.5676 27.5828C30.5397 27.7239 30.54 27.8691 30.5683 28.0102C30.5966 28.1512 30.6524 28.2853 30.7325 28.4048C30.8943 28.646 31.1454 28.8132 31.4304 28.8694C32.5947 29.098 33.7785 29.2129 34.965 29.2124H37.5564C37.8469 29.2124 38.1255 29.097 38.3309 28.8915C38.5363 28.6861 38.6518 28.4075 38.6518 28.117C38.6518 27.8265 38.5363 27.5479 38.3309 27.3424C38.1255 27.137 37.8469 27.0216 37.5564 27.0216Z" fill="#E2B061"/>
<path d="M32.2393 17.1363C32.2393 16.5482 32.0649 15.9734 31.7382 15.4845C31.4115 14.9955 30.9472 14.6144 30.4039 14.3894C29.8606 14.1644 29.2628 14.1055 28.6861 14.2202C28.1094 14.3349 27.5796 14.6181 27.1638 15.0339C26.748 15.4497 26.4648 15.9795 26.3501 16.5562C26.2354 17.133 26.2943 17.7308 26.5193 18.274C26.7443 18.8173 27.1254 19.2817 27.6143 19.6083C28.1033 19.935 28.6781 20.1094 29.2661 20.1094C30.0544 20.1084 30.81 19.7949 31.3674 19.2375C31.9247 18.6801 32.2383 17.9245 32.2393 17.1363ZM29.2661 17.9187C29.1114 17.9187 28.9601 17.8728 28.8315 17.7868C28.7028 17.7008 28.6025 17.5786 28.5433 17.4357C28.4841 17.2927 28.4686 17.1354 28.4988 16.9836C28.5289 16.8318 28.6035 16.6924 28.7129 16.583C28.8223 16.4736 28.9617 16.3991 29.1135 16.3689C29.2653 16.3387 29.4226 16.3542 29.5656 16.4134C29.7085 16.4726 29.8307 16.5729 29.9167 16.7016C30.0027 16.8302 30.0485 16.9815 30.0485 17.1363C30.0484 17.3437 29.9659 17.5426 29.8192 17.6893C29.6725 17.836 29.4736 17.9185 29.2661 17.9187Z" fill="#E2B061"/>
</svg>
