<svg width="25" height="23" viewBox="0 0 25 23" fill="none" xmlns="http://www.w3.org/2000/svg">
<path fill-rule="evenodd" clip-rule="evenodd" d="M6.03783 0.0402535C4.82559 0.192619 3.69345 0.672874 2.69963 1.45634C2.34783 1.73368 1.68978 2.41895 1.43111 2.77741C0.309958 4.33092 -0.163608 6.14079 0.0499163 8.05593C0.209837 9.4901 0.786731 10.8457 1.7061 11.9476C1.80543 12.0667 2.80173 13.0993 3.92009 14.2423C5.03844 15.3853 6.14858 16.5206 6.38703 16.7652C7.52604 17.9335 7.77064 18.1841 8.22075 18.6437C8.48677 18.9154 9.5527 20.0051 10.5895 21.0653C11.6263 22.1256 12.483 22.9962 12.4935 22.9999C12.5106 23.0062 12.9672 22.5462 14.1604 21.3207C14.3924 21.0824 14.9563 20.5051 15.4135 20.0379C15.8707 19.5707 16.4293 18.9994 16.6547 18.7685C16.8802 18.5377 17.4661 17.9392 17.9565 17.4386C18.447 16.9381 19.0327 16.3388 19.2581 16.107C19.4834 15.8751 20.0474 15.2984 20.5114 14.8253C23.1948 12.0894 23.3868 11.883 23.7447 11.3507C25.2687 9.08431 25.4166 6.0946 24.1252 3.66264C23.4707 2.43032 22.4045 1.36426 21.2104 0.748512C20.7635 0.518074 20.4868 0.404262 20.0663 0.277997C19.4156 0.0826126 18.8493 -5.0706e-05 18.1616 2.33338e-08C16.6444 0.000101482 15.2471 0.491643 14.0352 1.4516C13.7439 1.68226 13.4634 1.9512 12.8546 2.58337L12.5008 2.9507L12.0712 2.50717C11.835 2.26322 11.5603 1.98395 11.4609 1.88657C10.572 1.01606 9.37374 0.377655 8.15886 0.127381C7.5432 0.000557741 6.64666 -0.0362717 6.03783 0.0402535Z" fill="#0050DB"/>
</svg>
