<svg width="25" height="23" viewBox="0 0 25 23" fill="none" xmlns="http://www.w3.org/2000/svg">
<path d="M6.16254 1.03245L6.03783 0.0402535L6.16254 1.03245C6.65993 0.969929 7.44617 1.00157 7.95709 1.10681C8.98339 1.31824 10.009 1.86433 10.7612 2.601C10.8502 2.68813 11.1166 2.95883 11.3529 3.20284L11.3529 3.20285L11.7824 3.64638L12.5027 4.39017L13.221 3.64442L13.5748 3.27709L13.5748 3.27706C14.183 2.64563 14.4227 2.42033 14.6561 2.2355L14.6561 2.23549C15.695 1.41258 16.8745 1.00009 18.1616 1C18.7531 0.999956 19.2224 1.06873 19.7787 1.23575C20.1325 1.342 20.3522 1.43109 20.7521 1.63729L21.2104 0.748512L20.7521 1.6373C21.7578 2.15592 22.6792 3.07189 23.242 4.13164C24.3621 6.24105 24.2308 8.83575 22.9149 10.7927C22.6227 11.2273 22.5213 11.3479 19.7975 14.1251L20.5114 14.8253L19.7975 14.1251C19.3333 14.5984 18.768 15.1764 18.541 15.4099L18.541 15.41C18.3171 15.6403 17.7327 16.2383 17.2423 16.7387C16.7517 17.2394 16.1654 17.8383 15.9393 18.0698L15.9393 18.0699C15.7142 18.3004 15.1559 18.8713 14.6987 19.3385L14.6987 19.3385C14.2414 19.8059 13.6768 20.3839 13.4439 20.6231C13.0533 21.0243 12.7429 21.3421 12.5017 21.5877C12.174 21.2543 11.7565 20.8284 11.3045 20.3662C10.2678 19.306 9.20155 18.216 8.93523 17.944L8.93522 17.944C8.48598 17.4853 8.2421 17.2355 7.10305 16.0671C6.86377 15.8217 5.75287 14.6856 4.63487 13.5429L4.63486 13.5429C4.07695 12.9727 3.54994 12.4305 3.1506 12.0166C2.95077 11.8095 2.78396 11.6356 2.66165 11.5069C2.54562 11.3847 2.49039 11.3248 2.47716 11.3104C2.47482 11.3079 2.47379 11.3068 2.47397 11.307L2.47394 11.307C1.68098 10.3566 1.18207 9.1855 1.04376 7.94512C0.857557 6.27505 1.26703 4.71356 2.242 3.36261L2.24202 3.36258C2.4456 3.08047 3.03882 2.46232 3.31872 2.24166C4.175 1.56662 5.1375 1.16128 6.16254 1.03245ZM13.1756 22.2691C13.1761 22.2696 13.1762 22.2697 13.1757 22.2692L13.1756 22.2691Z"  stroke-width="2"/>
</svg>
