<svg width="22" height="26" viewBox="0 0 22 26" fill="none" xmlns="http://www.w3.org/2000/svg">
<path d="M18.887 11.1812C15.7502 8.04435 11.3496 7.32473 8.94278 9.50152L6.37985 7.50835L7.0818 6.80636C7.10211 6.78228 7.11963 6.75593 7.13395 6.72785C7.40761 6.86094 7.70829 6.92925 8.01257 6.92737C8.70975 6.92737 9.65133 6.59262 10.8297 5.44329C12.0002 4.15238 12.8062 2.57323 13.1647 0.867901C13.1857 0.634663 13.1018 0.404218 12.9358 0.239077C12.7668 0.0690109 12.5311 -0.0174695 12.2922 0.00294453H12.2915C11.3274 0.0884093 9.5193 0.417624 8.24489 1.66054C7.00497 2.86995 6.23482 4.2673 6.23482 5.30745C6.22726 5.61818 6.31308 5.92408 6.48126 6.1855C6.47756 6.18896 6.47268 6.19002 6.46908 6.19358L5.6905 6.97216L5.20082 6.59135C5.07869 6.49603 4.91492 6.47318 4.77136 6.53143C4.6278 6.58967 4.52629 6.72018 4.50511 6.87369C4.48394 7.0272 4.5464 7.18026 4.66888 7.27522L8.35382 10.141C7.56742 11.2466 7.2247 12.6071 7.39355 13.9534L7.39502 13.9696C3.49416 14.4728 0.601563 16.9781 0.601563 19.9333C0.601512 23.2785 4.29498 26 8.83482 26C11.9426 26 14.7837 24.7032 16.1736 22.6806C16.3695 22.6974 16.5637 22.7089 16.7539 22.7089C18.1172 22.7491 19.4392 22.2384 20.4214 21.2921C22.7834 18.9253 22.0951 14.3897 18.887 11.1812ZM8.85005 2.28089C9.93235 1.2255 11.5624 0.946612 12.2909 0.873436C11.9357 2.33918 11.2262 3.69535 10.2245 4.82294C9.27017 5.75341 8.39252 6.16834 7.75201 6.02889L8.70787 5.07299C8.87448 4.90333 8.87321 4.63114 8.70512 4.46301C8.53699 4.29487 8.2648 4.29365 8.09514 4.46026L7.11938 5.43602C7.11024 5.39367 7.10425 5.35071 7.1015 5.30745C7.1015 4.64983 7.64212 3.45901 8.85005 2.28089ZM15.59 21.998C14.4155 23.9027 11.7638 25.1333 8.83482 25.1333C4.77278 25.1333 1.46814 22.8008 1.46814 19.9333C1.46814 17.3215 4.23425 15.1057 7.91121 14.7786C8.21803 14.7467 8.52632 14.7315 8.83482 14.7333C12.8969 14.7333 16.2015 17.0658 16.2015 19.9333C16.1978 20.6656 15.9857 21.3817 15.59 21.998ZM19.8082 20.6798C18.9604 21.4814 17.8207 21.8999 16.6555 21.8376C16.9272 21.2395 17.0679 20.5902 17.0682 19.9333C17.0682 16.5881 13.3747 13.8666 8.83487 13.8666C8.62946 13.8666 8.43903 13.8726 8.25744 13.8825L8.25662 13.8734C8.06939 12.5601 8.48514 11.2324 9.38798 10.2603C11.4169 8.23544 15.4032 8.92352 18.2743 11.7939C21.1448 14.6647 21.8327 18.6511 19.8082 20.6798Z" fill="#E2B061"/>
<path d="M19.4186 16.466C19.5563 16.466 19.6858 16.4006 19.7675 16.2898C19.8492 16.179 19.8734 16.036 19.8327 15.9045C19.398 14.582 18.6533 13.3828 17.6605 12.4069C17.4909 12.2387 17.2173 12.2395 17.0485 12.4085C16.8798 12.5776 16.8797 12.8513 17.0482 13.0205C17.9414 13.8964 18.6123 14.9731 19.0049 16.1609C19.0612 16.3422 19.2288 16.4659 19.4186 16.466Z" fill="#E2B061"/>
<path d="M19.9906 17.471C19.9122 17.387 19.8037 17.3375 19.6888 17.3335C19.5736 17.328 19.4611 17.3692 19.3767 17.4479C19.2923 17.5266 19.2432 17.6359 19.2405 17.7512C19.233 18.009 19.1937 18.2648 19.1237 18.5129C19.079 18.6621 19.1179 18.8238 19.2254 18.9364C19.3329 19.049 19.4926 19.0952 19.6437 19.0576C19.7948 19.0199 19.914 18.9041 19.9561 18.7541C20.0461 18.4374 20.0966 18.1108 20.1067 17.7817C20.1107 17.6668 20.069 17.555 19.9906 17.471Z" fill="#E2B061"/>
<path d="M13.9759 17.86C13.7887 18.0091 13.7578 18.2818 13.9069 18.469C14.0027 18.5883 14.0889 18.7149 14.1648 18.8477C14.2833 19.0557 14.548 19.1283 14.756 19.0098C14.9641 18.8913 15.0366 18.6266 14.9181 18.4186C14.8198 18.2471 14.7084 18.0834 14.5849 17.929C14.4357 17.7418 14.1631 17.7109 13.9759 17.86Z" fill="#E2B061"/>
<path d="M12.4822 16.3611C11.3347 15.8508 10.0915 15.5912 8.83566 15.5998C8.59633 15.5998 8.40234 15.7938 8.40234 16.0331C8.40234 16.2725 8.59633 16.4664 8.83566 16.4664C9.96706 16.4577 11.0873 16.6904 12.1216 17.149C12.2625 17.2142 12.4274 17.199 12.5541 17.1092C12.6807 17.0195 12.7496 16.8688 12.7347 16.7144C12.7199 16.5599 12.6235 16.4252 12.4822 16.3611Z" fill="#E2B061"/>
<path d="M4.50262 17.334C3.30799 17.334 2.33594 18.5003 2.33594 19.934C2.33594 21.3677 3.30799 22.534 4.50262 22.534C5.69725 22.534 6.6693 21.3677 6.6693 19.934C6.6693 18.5003 5.69725 17.334 4.50262 17.334ZM4.50262 21.6673C3.78574 21.6673 3.20262 20.8899 3.20262 19.934C3.20262 18.978 3.78574 18.2007 4.50262 18.2007C5.2195 18.2007 5.80262 18.978 5.80262 19.934C5.80262 20.8899 5.2195 21.6673 4.50262 21.6673Z" fill="#E2B061"/>
</svg>
