<svg width="26" height="26" viewBox="0 0 26 26" fill="none" xmlns="http://www.w3.org/2000/svg">
<path d="M17.3333 4.37473H15.5202C15.3373 3.83254 14.8489 3.46918 14.3 3.4668H11.7C11.151 3.46918 10.6627 3.83254 10.4797 4.37473C9.39946 4.32411 8.31705 4.36541 7.24316 4.49821C5.8051 4.7572 4.45156 5.38841 3.30546 6.33451C3.30104 6.3359 3.2967 6.33757 3.29246 6.3395C3.2812 6.34631 3.27513 6.35766 3.26473 6.36583C1.20621 8.08722 0.00521431 10.6948 0 13.4541V13.9081C0.00235284 15.2357 0.917234 16.3686 2.16666 16.591V17.5398C2.16905 19.7952 3.91374 21.623 6.06666 21.6255H10.4797C10.6627 22.1677 11.151 22.5311 11.7 22.5334H14.3C14.8489 22.5311 15.3373 22.1677 15.5202 21.6255H19.9333C22.0862 21.623 23.8309 19.7952 23.8333 17.5398V16.137C25.0827 15.9147 25.9976 14.7818 26 13.4541C25.9981 8.44053 22.119 4.37674 17.3333 4.37473ZM10.4 20.7176H6.06666C4.39219 20.7156 3.03524 19.294 3.03333 17.5398V15.536C3.10786 14.5373 3.60923 12.8353 6.11433 12.5434C7.54196 12.4031 8.98041 12.4392 10.4 12.651V20.7176ZM10.4 11.7354C8.94814 11.5254 7.47786 11.4937 6.01899 11.6409C3.54336 11.9297 2.2373 13.514 2.15756 15.664C1.39727 15.4526 0.867625 14.7321 0.866666 13.9081C0.809771 12.6168 1.04031 11.3293 1.54006 10.1474C1.75879 10.56 1.88338 11.0201 1.90406 11.4916C1.89127 11.736 2.06568 11.947 2.29838 11.9686C2.53107 11.9903 2.73827 11.8148 2.76683 11.5719C2.7768 11.4648 2.82143 10.5301 2.01976 9.19995C2.40146 8.54792 2.86819 7.95491 3.40643 7.43811C4.3485 9.29937 4.04083 10.4111 4.03173 10.4429C3.96164 10.6769 4.08166 10.927 4.30277 11.0076C4.52388 11.0882 4.76613 10.9702 4.84986 10.7412C4.87196 10.6767 5.33823 9.20994 4.08806 6.85294C4.94269 6.19927 5.916 5.73579 6.94806 5.49104C7.39656 8.9135 6.81806 10.0348 6.81806 10.0348C6.69002 10.2467 6.75016 10.5271 6.95239 10.6613C7.15462 10.7954 7.42235 10.7324 7.55039 10.5205C7.63186 10.3844 8.30222 9.12505 7.80086 5.33714C8.66551 5.26657 9.53333 5.24838 10.4 5.28267V11.7354ZM14.7333 21.1715C14.7333 21.4223 14.5393 21.6255 14.3 21.6255H13.4333V17.0858C13.4333 16.8351 13.2393 16.6319 13 16.6319C12.7607 16.6319 12.5667 16.8351 12.5667 17.0858V21.6255H11.7C11.4607 21.6255 11.2667 21.4223 11.2667 21.1715V4.8287C11.2667 4.57798 11.4607 4.37473 11.7 4.37473H12.5667V15.27C12.5667 15.5207 12.7607 15.7239 13 15.7239C13.2393 15.7239 13.4333 15.5207 13.4333 15.27V4.37473H14.3C14.5393 4.37473 14.7333 4.57798 14.7333 4.8287V21.1715ZM22.9666 17.5398C22.9647 19.294 21.6078 20.7156 19.9333 20.7176H15.6V13.3733C18.658 13.6357 21.5436 13.0451 22.4952 14.0288C23.0927 14.6462 22.9666 15.7693 22.9666 17.5398ZM23.8142 15.2173C23.5226 11.5234 19.864 12.839 15.6 12.4617V5.28267C17.3983 5.28267 18.3807 5.19187 19.8848 5.73664C19.6716 9.71657 18.7845 10.8333 18.7538 10.8665C18.5863 11.0456 18.5891 11.3331 18.7601 11.5086C18.9311 11.6841 19.2055 11.6812 19.373 11.502C19.4891 11.3804 20.4672 10.2309 20.7324 6.10253C21.7184 6.59952 22.5917 7.31149 23.2938 8.19078C23.0264 10.5968 22.3149 11.2378 22.2824 11.2655C22.0853 11.4078 22.0357 11.6905 22.1715 11.897C22.3073 12.1034 22.5772 12.1555 22.7742 12.0132C22.8704 11.9456 23.6171 11.3568 24.0144 9.24898C24.7478 10.517 25.1348 11.9715 25.1333 13.4541C25.1324 14.2894 24.5883 15.0167 23.8142 15.2173Z" fill="#0050DB"/>
</svg>
