<svg width="26" height="26" viewBox="0 0 26 26" fill="none" xmlns="http://www.w3.org/2000/svg">
<path d="M11.1441 21.6431C10.2504 21.6431 9.52344 22.3701 9.52344 23.2637V24.3795C9.52344 25.2731 10.2505 26.0001 11.1441 26.0001C12.0377 26.0001 12.7647 25.2731 12.7647 24.3795V23.2637C12.7647 22.3702 12.0377 21.6431 11.1441 21.6431ZM12.003 24.3795C12.003 24.8531 11.6177 25.2384 11.144 25.2384C10.6704 25.2384 10.285 24.8531 10.285 24.3795V23.2637C10.285 22.7901 10.6703 22.4047 11.144 22.4047C11.6177 22.4047 12.003 22.79 12.003 23.2637V24.3795Z" fill="#E2B061"/>
<path d="M25.2379 5.7317C25.3288 5.0329 25.3669 4.32099 25.3484 3.60102C25.3173 2.39323 24.7234 1.31286 23.7191 0.636905C22.7102 -0.0420927 21.4793 -0.185855 20.3421 0.242537L5.89792 5.68346C5.70104 5.7576 5.60161 5.97728 5.67575 6.17406C5.74989 6.37094 5.96977 6.47032 6.16635 6.39623L20.6106 0.955305C21.5143 0.614866 22.4922 0.729226 23.2938 1.26873C24.0909 1.80518 24.5623 2.66242 24.587 3.62057C24.7295 9.15655 21.3413 14.1884 16.1558 16.1417C10.9703 18.095 5.1043 16.549 1.5591 12.2946C0.94551 11.5584 0.734158 10.6032 0.979229 9.67412C1.22572 8.73984 1.88532 8.00874 2.78882 7.66835L4.75696 6.927C4.95379 6.85285 5.05322 6.63317 4.97913 6.4364C4.90499 6.23952 4.68515 6.14009 4.48853 6.21423L2.52039 6.95558C1.38314 7.38398 0.552969 8.30408 0.242847 9.47988C-0.0659543 10.6504 0.200597 11.8541 0.974049 12.7823C1.43479 13.3352 1.93326 13.8437 2.46215 14.3087C3.52419 17.2528 5.49415 18.5708 5.49415 18.5708V19.3452C5.49415 19.5556 5.66463 19.726 5.87496 19.726C6.08535 19.726 6.25577 19.5555 6.25577 19.3452V16.6751C7.08549 17.0206 7.94639 17.2843 8.82597 17.4626C8.33552 17.5961 7.97376 18.0451 7.97376 18.5772V21.5556C7.97376 22.0293 7.58843 22.4147 7.11474 22.4147C6.6411 22.4147 6.25572 22.0293 6.25572 21.5556V20.9041C6.25572 20.6937 6.08525 20.5233 5.87491 20.5233C5.66452 20.5233 5.4941 20.6937 5.4941 20.9041V21.5556C5.4941 22.4493 6.22114 23.1763 7.11474 23.1763C8.00839 23.1763 8.73538 22.4492 8.73538 21.5556V20.7427C10.0683 21.3394 11.7632 21.7662 13.711 21.8044C15.17 21.833 16.6074 21.5412 17.993 21.0192C20.9831 19.893 23.3755 17.6792 24.7293 14.7857C26.0674 11.9265 26.2465 8.71496 25.2379 5.7317ZM5.49405 17.5621C4.85111 16.8992 4.29673 16.1667 3.83533 15.3709C4.36736 15.7307 4.92185 16.0509 5.49405 16.3309V17.5621ZM8.73533 19.9022V18.7026C8.99218 18.8429 9.25533 18.9724 9.52264 19.0904V19.3537C9.52264 19.7465 9.6632 20.1071 9.89654 20.3879C9.50279 20.2481 9.11558 20.0859 8.73533 19.9022ZM10.2843 19.3537V18.5772C10.2843 18.1803 10.083 17.8295 9.77716 17.6214C10.3701 17.6991 11.1212 17.7598 12.0023 17.7316V19.3537C12.0023 19.8274 11.617 20.2127 11.1433 20.2127C10.6696 20.2127 10.2843 19.8274 10.2843 19.3537ZM24.0395 14.463C22.7703 17.1754 20.5276 19.2507 17.7246 20.3066C16.1975 20.8818 14.6041 21.1217 12.9892 21.0201C12.5612 20.9931 12.1379 20.9417 11.7198 20.8681C12.1535 20.7024 12.4984 20.3558 12.6614 19.9208C13.0031 19.9554 13.3466 19.9734 13.6903 19.9734C14.9332 19.9734 16.1779 19.7485 17.3483 19.3077C20.528 18.11 22.9186 15.4242 23.743 12.1234C23.794 11.9193 23.6699 11.7126 23.4658 11.6616C23.2617 11.6107 23.055 11.7347 23.004 11.9388C22.2402 14.997 20.0256 17.4854 17.0799 18.5949C15.7038 19.1132 14.2171 19.309 12.764 19.166V17.687C13.9964 17.5797 15.2277 17.3053 16.4243 16.8545C20.6813 15.251 23.7934 11.687 24.9055 7.43435C25.3718 9.79757 25.0781 12.2434 24.0395 14.463Z" fill="#E2B061"/>
<path d="M15.9979 5.9707C15.368 5.9707 14.8555 6.48324 14.8555 7.11318C14.8555 7.74313 15.368 8.25566 15.9979 8.25566C16.6279 8.25566 17.1404 7.74313 17.1404 7.11318C17.1404 6.48324 16.6279 5.9707 15.9979 5.9707ZM15.9979 7.49404C15.7879 7.49404 15.6171 7.32322 15.6171 7.11323C15.6171 6.9032 15.788 6.73242 15.9979 6.73242C16.208 6.73242 16.3788 6.90325 16.3788 7.11323C16.3788 7.32322 16.2079 7.49404 15.9979 7.49404Z" fill="#E2B061"/>
<path d="M18.5761 8.97363C17.9461 8.97363 17.4336 9.48617 17.4336 10.1161C17.4336 10.7461 17.9461 11.2586 18.5761 11.2586C19.206 11.2586 19.7186 10.7461 19.7186 10.1161C19.7186 9.48617 19.206 8.97363 18.5761 8.97363ZM18.5761 10.497C18.366 10.497 18.1953 10.3261 18.1953 10.1162C18.1953 9.90613 18.3661 9.73535 18.5761 9.73535C18.7861 9.73535 18.9569 9.90618 18.9569 10.1162C18.9569 10.3261 18.7861 10.497 18.5761 10.497Z" fill="#E2B061"/>
<path d="M19.3378 4.60938C18.7079 4.60938 18.1953 5.12191 18.1953 5.75186C18.1953 6.3818 18.7079 6.89433 19.3378 6.89433C19.9677 6.89433 20.4803 6.3818 20.4803 5.75186C20.4803 5.12191 19.9677 4.60938 19.3378 4.60938ZM19.3378 6.13272C19.1278 6.13272 18.957 5.96189 18.957 5.75191C18.957 5.54192 19.1278 5.3711 19.3378 5.3711C19.5478 5.3711 19.7186 5.54192 19.7186 5.75191C19.7186 5.96189 19.5478 6.13272 19.3378 6.13272Z" fill="#E2B061"/>
<path d="M14.6621 10.8778C14.8724 10.8778 15.0429 10.7073 15.0429 10.497C15.0429 10.2867 14.8724 10.1162 14.6621 10.1162C14.4517 10.1162 14.2812 10.2867 14.2812 10.497C14.2812 10.7073 14.4517 10.8778 14.6621 10.8778Z" fill="#E2B061"/>
<path d="M12.3847 6.49111C12.595 6.49111 12.7655 6.32062 12.7655 6.1103C12.7655 5.89999 12.595 5.72949 12.3847 5.72949C12.1744 5.72949 12.0039 5.89999 12.0039 6.1103C12.0039 6.32062 12.1744 6.49111 12.3847 6.49111Z" fill="#E2B061"/>
<path d="M11.7636 9.25185C11.9739 9.25185 12.1444 9.08136 12.1444 8.87104C12.1444 8.66073 11.9739 8.49023 11.7636 8.49023C11.5533 8.49023 11.3828 8.66073 11.3828 8.87104C11.3828 9.08136 11.5533 9.25185 11.7636 9.25185Z" fill="#E2B061"/>
</svg>
