<svg width="26" height="26" viewBox="0 0 26 26" fill="none" xmlns="http://www.w3.org/2000/svg">
<path d="M25.4201 15.2126C23.7911 12.009 21.6788 9.09559 19.1416 6.55327C16.6044 4.01085 13.6969 1.89409 10.5 0.261826C9.93244 -0.0278695 9.2862 -0.0791136 8.68018 0.117809C8.07341 0.314983 7.57979 0.737117 7.29025 1.30654C6.91609 2.04253 6.96038 2.88368 7.33404 3.55635L6.49768 5.88901C6.49753 5.88946 6.49727 5.88987 6.49712 5.89027L6.12231 6.93584L2.45931 17.1521C2.45921 17.1523 2.45911 17.1525 2.45901 17.1528L2.05137 18.2898L0.120961 23.6739C-0.108279 24.2448 0.0160561 24.8717 0.446345 25.312C0.878245 25.7556 1.50963 25.8882 2.07528 25.6724L9.25469 23.0972C9.45096 23.0268 9.55299 22.8106 9.48257 22.6144C9.41215 22.4181 9.19605 22.3162 8.99973 22.3865L1.81695 24.9629C1.52081 25.0786 1.20871 25.0122 0.986371 24.7842C0.76423 24.557 0.703321 24.2455 0.823377 23.9509C0.825441 23.9459 0.827354 23.9409 0.829166 23.9358L1.44545 22.2169C2.00773 22.7178 2.74105 23.0052 3.50654 23.0052C5.21355 23.0052 6.60233 21.6164 6.60233 19.9094C6.60233 18.2024 5.21355 16.8136 3.50654 16.8136C3.46486 16.8136 3.42333 16.8147 3.38181 16.8164L5.43509 11.0897C5.98131 11.533 6.6643 11.7798 7.38257 11.7798C9.08958 11.7798 10.4784 10.391 10.4784 8.68403C10.4784 6.98532 9.10297 5.60233 7.40744 5.58884L7.89415 4.23133C9.06013 4.97452 10.3526 5.56277 11.4728 6.37397C11.6455 6.4907 11.8803 6.4455 11.9971 6.27279C12.1139 6.10008 12.0686 5.86535 11.896 5.74857C10.8709 5.05511 9.78762 4.41572 8.67631 3.84831C7.87467 3.43901 7.55482 2.45223 7.96337 1.64864C8.1614 1.25927 8.49881 0.970585 8.91355 0.83583C9.32753 0.701427 9.76894 0.736312 10.1566 0.934241C13.2829 2.53041 16.1261 4.60036 18.6072 7.0866C21.0883 9.57285 23.1541 12.4219 24.7471 15.5548C25.1557 16.3584 24.8359 17.3451 24.0342 17.7545C23.2435 18.171 22.2286 17.8295 21.8409 17.04C19.7766 12.9804 16.9179 9.53247 13.344 6.79212C13.1786 6.66532 12.9416 6.69653 12.8147 6.86204C12.6878 7.02751 12.7191 7.2645 12.8846 7.3914C16.6028 10.1477 19.2919 13.8386 21.5197 17.8957L10.6583 21.7916C10.462 21.862 10.36 22.0782 10.4304 22.2745C10.5005 22.4727 10.7221 22.5724 10.9132 22.5024L22.2363 18.4409C22.9094 18.7754 23.7008 18.7728 24.3776 18.427C25.5494 17.8286 26.0171 16.3867 25.4201 15.2126ZM3.50654 17.5687C4.79721 17.5687 5.84726 18.6187 5.84726 19.9094C5.84726 21.2001 4.79721 22.2501 3.50654 22.2501C2.8218 22.2501 2.17017 21.9469 1.72755 21.4306L2.7559 18.5621L3.09946 17.6039C3.23291 17.5805 3.36917 17.5687 3.50654 17.5687ZM7.38257 6.34331C8.67323 6.34331 9.72329 7.39331 9.72329 8.68403C9.72329 9.97474 8.67323 11.0247 7.38257 11.0247C6.74831 11.0247 6.14974 10.771 5.71059 10.3221L6.71896 7.50904L7.13219 6.3565C7.21474 6.34774 7.29845 6.34331 7.38257 6.34331Z" fill="#E2B061"/>
<path d="M9.50985 16.739C9.30301 16.7322 9.12799 16.8979 9.1224 17.1063C9.07216 18.8421 10.4803 20.2901 12.2171 20.2873C13.9241 20.2873 15.3129 18.8985 15.3129 17.1915C15.3129 15.4845 13.9241 14.0957 12.2171 14.0957C11.2877 14.0957 10.4158 14.5078 9.82496 15.2262C9.69253 15.3873 9.71573 15.6252 9.87676 15.7577C10.0378 15.8902 10.2757 15.867 10.4082 15.7059C10.855 15.1625 11.5144 14.8508 12.2171 14.8508C13.5077 14.8508 14.5578 15.9008 14.5578 17.1915C14.5578 18.4823 13.5077 19.5323 12.2171 19.5323C10.9037 19.5344 9.83876 18.4391 9.87727 17.1264C9.8828 16.9179 9.7183 16.7444 9.50985 16.739Z" fill="#E2B061"/>
<path d="M11.9108 12.7037C11.947 12.7037 11.9836 12.6985 12.0195 12.6877C12.0765 12.6705 13.421 12.2553 13.7876 11.1998C14.1526 10.1493 13.3721 8.96033 13.3387 8.91024C13.2465 8.77206 13.0748 8.7105 12.9159 8.75812C12.8588 8.77534 11.5144 9.19057 11.1477 10.246C10.7828 11.2966 11.5632 12.4855 11.5967 12.5356C11.668 12.6425 11.7869 12.7037 11.9108 12.7037ZM11.861 10.4937C12.0121 10.0585 12.504 9.75013 12.8567 9.58895C13.0326 9.94564 13.2274 10.5115 13.0744 10.952C12.9233 11.3872 12.4314 11.6955 12.0787 11.8567C11.9028 11.5001 11.708 10.9341 11.861 10.4937Z" fill="#E2B061"/>
<path d="M16.5906 13.606C16.7864 13.6778 17.0032 13.5771 17.0749 13.3812C17.1466 13.1854 17.0459 12.9686 16.8501 12.8969C16.2488 12.6768 15.6459 12.6873 15.6204 12.6877C15.4544 12.6913 15.3101 12.803 15.2651 12.9628C15.2491 13.0198 14.8803 14.3678 15.5696 15.238C16.2348 16.0616 17.4854 16.0806 17.7279 16.0825C17.8939 16.079 18.0382 15.9673 18.0832 15.8074C18.0897 15.7839 18.2441 15.226 18.1823 14.6077C18.1615 14.4003 17.9764 14.2487 17.769 14.2696C17.5615 14.2903 17.4102 14.4754 17.4309 14.6828C17.4542 14.9154 17.4366 15.1414 17.4128 15.3112C17.0211 15.2681 16.4473 15.1298 16.1615 14.7691C15.8794 14.4128 15.8822 13.8405 15.9345 13.4599C16.1155 13.4794 16.3564 13.5203 16.5906 13.606Z" fill="#E2B061"/>
<path d="M6.46649 13.179C6.30646 13.1342 6.13612 13.1994 6.04667 13.3394C6.01496 13.3891 5.27388 14.5681 5.67981 15.5971C6.08387 16.6215 7.4365 17.0102 7.49389 17.0262C7.65099 17.0709 7.82436 17.0067 7.91371 16.8659C7.94542 16.8162 8.6865 15.6372 8.28057 14.6081C7.87651 13.5838 6.52387 13.1951 6.46649 13.179ZM7.41747 16.1955C7.08685 16.055 6.55926 15.7688 6.38222 15.32C6.21661 14.9002 6.38363 14.3571 6.54295 14.0097C6.87357 14.1502 7.40117 14.4364 7.5782 14.8852C7.74382 15.3051 7.57679 15.8481 7.41747 16.1955Z" fill="#E2B061"/>
</svg>
