<svg width="26" height="26" viewBox="0 0 26 26" fill="none" xmlns="http://www.w3.org/2000/svg">
<path d="M21.0892 9.84403C20.2616 8.74065 19.1422 7.96167 17.9374 7.65056C17.1361 7.4438 16.1674 7.46119 15.0578 7.70241L15.0578 7.70214C15.0528 7.70333 15.0424 7.70571 15.0256 7.70945C14.9966 7.71526 14.968 7.7219 14.94 7.72842C14.8703 7.74466 14.763 7.77027 14.648 7.80011C14.4972 7.83906 14.3439 7.87299 14.1911 7.90133C14.1887 7.78739 14.1844 7.67028 14.1777 7.55053C14.3084 6.09956 14.8991 4.85245 15.9387 3.83639C16.8384 2.95702 17.7565 2.58654 17.7648 2.58324C17.9916 2.49434 18.1033 2.23886 18.0142 2.01265C17.925 1.7864 17.6688 1.67514 17.4419 1.76399C17.3988 1.78094 16.3741 2.18918 15.3487 3.18068C14.8055 3.70594 14.2026 4.45842 13.7861 5.46837C13.5636 4.83986 13.2288 4.23829 12.7324 3.74392C10.7316 1.75128 6.98194 2.37173 6.76101 2.41041C6.76083 2.41046 6.76066 2.41046 6.76048 2.4105C6.59875 2.43629 6.46288 2.54896 6.41499 2.70511C6.40793 2.72812 6.40228 2.7496 6.39905 2.76751C6.37367 2.90966 5.85969 5.90873 7.15462 7.98465C5.36262 8.84143 3.46875 10.9612 3.46875 14.4842C3.46875 15.7339 3.85066 17.2613 4.5442 18.7851C5.22367 20.278 6.14136 21.6422 7.12813 22.6263C8.20328 23.6995 9.30799 24.2667 10.3228 24.2667C10.917 24.2667 11.5293 24.1771 12.0936 24.0073C12.6494 23.8398 13.2397 23.8291 13.801 23.9765C13.803 23.977 13.805 23.9775 13.8069 23.978C13.8416 23.9872 13.8762 23.9969 13.9109 24.0074C14.4749 24.177 15.0872 24.2667 15.6814 24.2667C16.6524 24.2667 17.7106 23.7447 18.7416 22.7574C20.869 20.7229 22.5354 17.0889 22.5354 14.4842C22.5352 12.7096 22.0352 11.105 21.0892 9.84403ZM12.1083 4.36671C12.9522 5.20721 13.2275 6.48958 13.2908 7.56761C13.2752 7.76552 13.267 8.63014 13.267 8.63014L9.91891 5.29554C9.7464 5.12377 9.4669 5.12386 9.29466 5.29589C9.12238 5.46784 9.12251 5.74651 9.29497 5.91833L12.6663 9.27608C11.5134 9.33765 9.51846 9.25033 8.36104 8.09757C6.97086 6.71302 7.12367 4.12945 7.22538 3.23547C8.12281 3.13416 10.7178 2.98171 12.1083 4.36671ZM18.1301 22.1224C17.2665 22.9494 16.4197 23.3865 15.6812 23.3865C15.1794 23.3865 14.6412 23.3077 14.1659 23.1648C14.1218 23.1515 14.0776 23.139 14.0332 23.1273C14.0325 23.1272 14.0318 23.1269 14.0312 23.1268C13.3103 22.9365 12.5519 22.9496 11.8382 23.1647C11.3626 23.3077 10.8243 23.3865 10.3225 23.3865C9.54719 23.3865 8.6585 22.9085 7.75238 22.0041C5.84526 20.1021 4.35139 16.799 4.35139 14.4842C4.35139 11.2496 6.11955 9.37312 7.71459 8.6977C7.72205 8.70527 7.7296 8.71284 7.73715 8.72036C8.9471 9.9254 10.8057 10.1731 12.1296 10.173C12.9694 10.173 13.5952 10.0782 13.7014 10.0551C14.054 9.97817 14.0453 9.81432 14.0673 9.71319C14.0675 9.71191 14.0679 9.71063 14.0681 9.70936C14.0684 9.70795 14.0687 9.7065 14.069 9.70509C14.0694 9.70328 14.0697 9.70148 14.0701 9.69963C14.0702 9.69884 14.0704 9.69809 14.0705 9.6973C14.0788 9.65135 14.1383 9.30684 14.1713 8.79144C14.1972 8.79161 14.2234 8.78955 14.2498 8.78506C14.4566 8.74967 14.665 8.705 14.8697 8.65215C14.9485 8.63168 15.0247 8.61307 15.088 8.59806C16.9089 9.23119 18.7097 11.2732 18.7097 14.4843C18.7097 15.4249 18.4664 16.5466 18.0059 17.7282C17.9177 17.9547 18.0303 18.2097 18.2576 18.2978C18.3101 18.3181 18.3642 18.3278 18.4173 18.3278C18.5941 18.3278 18.761 18.2211 18.8289 18.0469C19.3285 16.7647 19.5926 15.5328 19.5926 14.4843C19.5926 11.5593 18.2434 9.47769 16.6148 8.38835C17.0201 8.37994 17.3881 8.41806 17.7162 8.50269C19.612 8.99221 21.6525 11.0728 21.6525 14.4842C21.6524 16.8385 20.0724 20.2649 18.1301 22.1224Z" fill="#E2B061"/>
</svg>
