<svg width="23" height="23" viewBox="0 0 23 23" fill="none" xmlns="http://www.w3.org/2000/svg">
<path d="M5.03987 9.70174C4.9602 9.62207 4.84969 9.57666 4.73699 9.57666C4.6239 9.57666 4.51377 9.62207 4.43367 9.70174C4.354 9.78184 4.30859 9.89193 4.30859 10.0051C4.30859 10.1177 4.354 10.2283 4.43367 10.3079C4.51377 10.3876 4.6239 10.4334 4.73699 10.4334C4.84964 10.4334 4.9602 10.3876 5.03987 10.3079C5.11955 10.2278 5.16538 10.1178 5.16538 10.0051C5.16538 9.89235 5.11959 9.78184 5.03987 9.70174Z" fill="#E2B061"/>
<path d="M21.0833 5.09065C21.2937 5.01042 21.4754 4.94112 21.6139 4.85326C21.7696 4.75448 21.9007 4.65125 22.0144 4.53753C22.8833 3.66866 22.8831 2.25459 22.014 1.3853C21.1447 0.516263 19.7307 0.516048 18.8618 1.38496C18.7483 1.49843 18.645 1.62937 18.546 1.78542C18.4582 1.92386 18.3889 2.10553 18.3087 2.31585C18.2316 2.5182 18.0534 2.98519 17.9251 3.06464C17.9142 3.061 17.8935 3.05235 17.8623 3.032C17.2551 2.63659 15.9163 2.00653 14.8778 2.20696L14.5336 1.86274C14.2316 1.56075 13.8301 1.39447 13.403 1.39447C12.976 1.39447 12.5745 1.56075 12.2725 1.86274C11.9705 2.16472 11.8042 2.56622 11.8042 2.99328C11.8042 3.21105 11.8476 3.42206 11.9301 3.61674C11.1153 3.56671 10.2835 3.85165 9.66224 4.47289L5.42411 8.71102C5.25684 8.87829 5.25684 9.14957 5.42411 9.31688C5.59138 9.48415 5.86265 9.48415 6.02997 9.31688L8.43472 6.91213L9.95875 8.43611C10.0424 8.51976 10.152 8.56157 10.2617 8.56157C10.3713 8.56157 10.481 8.51972 10.5646 8.43611C10.7319 8.26884 10.7319 7.99756 10.5646 7.83029L9.04062 6.30631L10.2681 5.07879C10.6634 4.68355 11.1888 4.46591 11.7478 4.46591C12.3067 4.46591 12.8321 4.68355 13.2274 5.07879L18.3204 10.1718C18.7156 10.567 18.9333 11.0925 18.9333 11.6514C18.9333 12.2103 18.7156 12.7358 18.3204 13.131L10.0443 21.4073C9.50932 21.9423 8.63875 21.9424 8.10365 21.4073L1.99204 15.2957C1.45699 14.7607 1.45699 13.8901 1.99204 13.355L3.96309 11.384C4.13036 11.2167 4.13036 10.9454 3.96309 10.7781C3.79582 10.6108 3.52455 10.6108 3.35724 10.7781L1.38618 12.7492C0.517105 13.6183 0.517105 15.0324 1.38618 15.9015L7.49784 22.0131C7.9324 22.4477 8.50317 22.6649 9.07399 22.6649C9.64481 22.6649 10.2156 22.4477 10.6502 22.0131L18.9263 13.737C19.5476 13.1157 19.8325 12.284 19.7825 11.4692C19.9771 11.5516 20.1882 11.5951 20.4059 11.5951C20.833 11.5951 21.2345 11.4288 21.5365 11.1268C22.1599 10.5035 22.1599 9.48908 21.5365 8.86574L21.1923 8.52152C21.3927 7.48299 20.7627 6.14422 20.3673 5.53699C20.3469 5.50577 20.3383 5.48516 20.3346 5.47428C20.4141 5.34586 20.881 5.16784 21.0833 5.09065ZM20.4116 8.95253C20.4118 8.95265 20.4119 8.95278 20.4121 8.95291L20.9307 9.47152C21.22 9.76091 21.22 10.2317 20.9306 10.521C20.7905 10.6611 20.6041 10.7383 20.4059 10.7383C20.2077 10.7383 20.0214 10.6611 19.8813 10.5209L12.8784 3.51805C12.7383 3.37794 12.6611 3.19156 12.6611 2.99337C12.6611 2.79517 12.7383 2.60879 12.8785 2.46868C13.0231 2.32403 13.2131 2.25172 13.4032 2.25172C13.5932 2.25172 13.7832 2.32403 13.9278 2.46868L14.4467 2.98754C14.4467 2.98758 14.4468 2.98767 14.4469 2.98771L20.4116 8.95253ZM19.6493 6.00454C19.9617 6.48433 20.2294 7.11323 20.3315 7.66071L15.7386 3.06786C16.2861 3.16985 16.915 3.43761 17.3948 3.75009C17.7252 3.96516 18.0054 3.9416 18.1824 3.88408C18.6907 3.71865 18.9228 3.11013 19.1092 2.62122C19.1648 2.47528 19.2279 2.30976 19.2694 2.24444C19.3342 2.14232 19.399 2.05939 19.4676 1.99086C20.0024 1.45606 20.8729 1.45619 21.408 1.9912C21.9431 2.52638 21.9433 3.39687 21.4085 3.93175C21.3399 4.00033 21.257 4.0651 21.155 4.12974C21.0894 4.17133 20.9239 4.23442 20.7779 4.29011C20.289 4.47657 19.6806 4.70865 19.5152 5.21689C19.4577 5.39388 19.4342 5.67419 19.6493 6.00454Z" fill="#E2B061"/>
<path d="M16.7519 12.6119L14.9657 10.8256C14.7984 10.6584 14.5271 10.6584 14.3598 10.8256C14.1926 10.9929 14.1926 11.2642 14.3598 11.4315L16.1461 13.2178C16.2297 13.3014 16.3394 13.3432 16.4491 13.3432C16.5587 13.3432 16.6684 13.3014 16.752 13.2178C16.9192 13.0505 16.9192 12.7792 16.7519 12.6119Z" fill="#E2B061"/>
<path d="M14.7167 14.6495L12.9305 12.8633C12.7633 12.696 12.492 12.696 12.3247 12.8633C12.1574 13.0305 12.1574 13.3018 12.3247 13.4691L14.1109 15.2554C14.1946 15.3391 14.3042 15.3809 14.4139 15.3809C14.5235 15.3809 14.6332 15.3391 14.7168 15.2554C14.884 15.0881 14.884 14.8169 14.7167 14.6495Z" fill="#E2B061"/>
<path d="M12.6777 16.6866L10.8914 14.9004C10.7242 14.7331 10.4529 14.7331 10.2856 14.9004C10.1183 15.0676 10.1183 15.3389 10.2856 15.5062L12.0719 17.2925C12.1555 17.3761 12.2651 17.4179 12.3748 17.4179C12.4844 17.4179 12.5941 17.3761 12.6777 17.2925C12.845 17.1252 12.845 16.854 12.6777 16.6866Z" fill="#E2B061"/>
<path d="M10.6386 18.7242L8.85236 16.938C8.68509 16.7707 8.41382 16.7707 8.24655 16.938C8.07928 17.1052 8.07928 17.3765 8.24655 17.5438L10.0328 19.3301C10.1165 19.4137 10.2261 19.4555 10.3357 19.4555C10.4454 19.4555 10.5551 19.4137 10.6387 19.3301C10.8059 19.1628 10.8059 18.8916 10.6386 18.7242Z" fill="#E2B061"/>
<path d="M12.0008 9.26814C11.9211 9.18847 11.8106 9.14307 11.6979 9.14307C11.5853 9.14307 11.4747 9.18847 11.395 9.26814C11.3149 9.34782 11.2695 9.45833 11.2695 9.57146C11.2695 9.68412 11.3149 9.79467 11.395 9.87435C11.4747 9.95402 11.5852 9.99985 11.6979 9.99985C11.8106 9.99985 11.9212 9.95406 12.0008 9.87435C12.0805 9.79467 12.1263 9.68416 12.1263 9.57146C12.1263 9.45837 12.0805 9.34825 12.0008 9.26814Z" fill="#E2B061"/>
</svg>
