<svg width="26" height="26" viewBox="0 0 26 26" fill="none" xmlns="http://www.w3.org/2000/svg">
<path d="M25.9991 13.0005C25.9947 12.0125 25.5361 11.0815 24.7554 10.476C25.2155 9.97917 25.4724 9.3279 25.4756 8.65084C25.4312 7.18644 24.3108 5.98047 22.8536 5.82864C22.7136 4.04077 21.3051 2.61419 19.5192 2.45137C18.9469 0.946455 17.489 -0.0350091 15.8794 0.000956256C14.8875 -0.00483936 13.9294 0.360231 13.1928 1.02445C12.5781 0.667723 11.8795 0.481234 11.1688 0.484105C9.55904 0.448302 8.10114 1.42993 7.52889 2.93495C5.73014 3.0976 4.31595 4.54283 4.19235 6.34472C3.98945 6.30437 3.78308 6.28406 3.57617 6.28406C1.94798 6.23217 0.584058 7.50601 0.524748 9.13399C0.527564 9.81088 0.784088 10.4621 1.24362 10.9591C0.463 11.5647 0.00438734 12.4957 0 13.4836C0.0204201 14.7479 0.75901 15.8902 1.90356 16.4276C1.68468 16.864 1.57072 17.3455 1.57078 17.8337C1.64179 19.7393 3.2397 21.2292 5.14565 21.1668C6.46867 21.1801 7.69339 20.47 8.3392 19.3152C9.54924 20.8396 10.1013 22.7836 9.87314 24.7165L9.77695 25.5151C9.74846 25.7527 9.91799 25.9684 10.1556 25.9969C10.1727 25.999 10.19 26 10.2072 26H15.7918C16.0311 26 16.2251 25.806 16.2252 25.5667C16.2252 25.5495 16.2242 25.5322 16.2221 25.5151L16.1532 24.9427C15.9029 22.8783 16.5497 20.8057 17.9298 19.2502C18.6275 20.1582 19.7092 20.6882 20.8543 20.6832C22.7597 20.7441 24.3567 19.2551 24.4291 17.3501C24.4291 16.862 24.3152 16.3807 24.0964 15.9444C25.2405 15.4067 25.9788 14.2645 25.9991 13.0005ZM15.2926 25.0467L15.303 25.1334H14.6708C14.3969 23.2869 14.5601 21.402 15.1475 19.6302C15.214 19.4004 15.0815 19.1601 14.8516 19.0936C14.6279 19.0288 14.393 19.1526 14.3198 19.3737C13.7072 21.2283 13.5274 23.1985 13.7942 25.1334H12.2109C12.4705 23.3375 12.2874 21.5055 11.6775 19.7966C11.6019 19.5693 11.3562 19.4463 11.1289 19.5219C10.9016 19.5975 10.7786 19.8432 10.8542 20.0705C11.4356 21.6913 11.6001 23.4323 11.3326 25.1334H10.6956L10.7333 24.8196C11.0741 21.9421 9.86659 19.099 7.55923 17.3462L6.79355 16.7669C7.64898 16.1762 8.2813 15.3154 8.58922 14.3225L11.297 17.0303C11.4672 17.1986 11.7416 17.1969 11.9098 17.0268C11.9981 16.9374 12.0433 16.8142 12.0337 16.6889L11.7351 13.0031C12.7205 13.1873 13.7341 13.1545 14.7055 12.9069L14.4295 16.6923C14.4121 16.931 14.5915 17.1386 14.8302 17.156C14.9674 17.166 15.1013 17.1102 15.1908 17.0056L17.5229 14.2853C17.9822 15.2905 18.7148 16.1463 19.6371 16.7552L18.7566 17.3618C16.2607 19.0783 14.9258 22.0398 15.2926 25.0467ZM23.329 15.3226C23.1013 15.3964 22.9766 15.6408 23.0503 15.8684C23.0644 15.9119 23.0853 15.9529 23.1123 15.9899C23.4032 16.3839 23.5607 16.8604 23.5621 17.3501C23.4901 18.7766 22.2808 19.8779 20.8538 19.8166C19.9361 19.8262 19.0726 19.3826 18.546 18.631C18.7684 18.4321 19.0029 18.247 19.248 18.0768L20.5783 17.1603C20.7238 17.2119 20.872 17.2583 21.0241 17.2964L21.1277 17.3224C21.1621 17.3301 21.1973 17.3339 21.2326 17.3337C21.4719 17.3341 21.6663 17.1405 21.6667 16.9011C21.6671 16.7014 21.5309 16.5273 21.337 16.4796L21.2326 16.4545C19.4485 16.0094 18.1972 14.4059 18.1993 12.5672C18.1993 12.3279 18.0053 12.1338 17.766 12.1338C17.5267 12.1338 17.3327 12.3279 17.3327 12.5672C17.3341 12.7596 17.3467 12.9517 17.3704 13.1426C17.3542 13.1561 17.3389 13.1706 17.3245 13.1859L15.3897 15.4431L15.5968 12.6213C15.979 12.4708 16.3467 12.2862 16.6957 12.0697C16.8991 11.9429 16.9612 11.6752 16.8344 11.4717C16.7075 11.2683 16.4399 11.2062 16.2364 11.3331C14.2534 12.562 11.7456 12.562 9.76265 11.3331C9.5592 11.2062 9.29152 11.2683 9.16467 11.4717C9.03781 11.6752 9.09994 11.9429 9.30333 12.0697C9.78713 12.3702 10.3063 12.6095 10.849 12.7821L11.076 15.5857L8.68109 13.1907C8.69257 12.9674 8.68677 12.7436 8.66375 12.5212C8.63743 12.2833 8.42326 12.1119 8.18537 12.1382C7.94748 12.1645 7.77599 12.3787 7.80232 12.6166C8.01394 14.5325 6.63431 16.2579 4.71883 16.4731C4.48256 16.5112 4.32196 16.7337 4.3601 16.9699C4.3927 17.1719 4.56213 17.3235 4.76649 17.3337C4.78258 17.3337 4.79861 17.3328 4.81459 17.3311C5.15003 17.2925 5.47984 17.215 5.79736 17.1001L7.03664 18.0378C7.27085 18.2157 7.49385 18.4078 7.70439 18.6132C7.28477 19.6515 6.26745 20.3228 5.14781 20.3001C3.72084 20.3615 2.51156 19.2602 2.43958 17.8337C2.44066 17.3439 2.59823 16.8673 2.88936 16.4735C3.03024 16.2801 2.98767 16.0091 2.79419 15.8682C2.7572 15.8413 2.7162 15.8203 2.6727 15.8062C1.62992 15.5067 0.900001 14.568 0.866635 13.4836C0.880772 12.6017 1.37492 11.7978 2.15532 11.3868C2.36407 11.2698 2.43844 11.0057 2.32139 10.797C2.29144 10.7435 2.25049 10.697 2.20125 10.6606C1.70267 10.3098 1.40135 9.7422 1.39008 9.13269C1.45058 7.98418 2.42593 7.09935 3.57487 7.15069C3.89119 7.15134 4.20416 7.21607 4.4948 7.34092C4.7152 7.43425 4.96945 7.33122 5.06277 7.11083C5.09462 7.03565 5.10454 6.95305 5.09148 6.8725C5.06862 6.74143 5.0566 6.60867 5.05552 6.47558C5.12311 4.96645 6.36533 3.7771 7.87598 3.77515C8.06691 3.76643 8.22957 3.63373 8.27637 3.44843C8.64712 2.17063 9.83723 1.30697 11.167 1.35074C11.8237 1.34706 12.4648 1.55023 12.9995 1.93139C13.1795 2.06057 13.4278 2.03327 13.5754 1.86812C14.1661 1.22199 15.004 0.858112 15.8794 0.867591C17.2093 0.823501 18.3995 1.68726 18.77 2.96528C18.817 3.15042 18.9796 3.2829 19.1704 3.29157C20.6811 3.29395 21.9231 4.4833 21.9909 5.99244C21.9909 6.0622 21.9848 6.13066 21.9792 6.19913C21.9687 6.31986 22.0096 6.4394 22.0918 6.52845C22.1785 6.62963 22.3095 6.68163 22.442 6.66754C23.5849 6.62508 24.5501 7.50856 24.6085 8.65084C24.5973 9.26024 24.2959 9.82767 23.7974 10.1783C23.6053 10.3211 23.5653 10.5925 23.7081 10.7845C23.7443 10.8333 23.7904 10.8739 23.8433 10.9037C24.6239 11.3145 25.1182 12.1185 25.1324 13.0005C25.0993 14.084 24.3706 15.0223 23.329 15.3226Z" fill="#E2B061"/>
<path d="M8.66612 6.93408H8.2328C6.98474 6.99079 6.01676 8.04473 6.06621 9.29306V9.38883C5.02121 9.66268 4.30288 10.6207 4.33294 11.7006C4.33294 11.9399 4.52696 12.1339 4.76626 12.1339C5.00556 12.1339 5.19958 11.9399 5.19958 11.7006C5.15115 10.9311 5.73066 10.2658 6.49953 10.2082C6.73883 10.2082 6.93285 10.0142 6.93285 9.77491V9.29306C6.88442 8.5236 7.46393 7.85829 8.2328 7.80072H8.66612C8.90542 7.80072 9.09943 7.6067 9.09943 7.3674C9.09943 7.1281 8.90542 6.93408 8.66612 6.93408Z" fill="#E2B061"/>
<path d="M17.9412 5.66333C17.6709 4.59997 16.698 3.86723 15.6013 3.90102C15.362 3.90102 15.168 4.09504 15.168 4.33434C15.168 4.57364 15.362 4.76766 15.6013 4.76766C16.3772 4.71349 17.0527 5.29257 17.1179 6.06761C17.1179 6.30691 17.3119 6.50093 17.5512 6.50093C18.3271 6.44676 19.0027 7.02584 19.0678 7.80088C19.0678 8.04018 19.2618 8.2342 19.5011 8.2342C19.7404 8.2342 19.9345 8.04018 19.9345 7.80088C19.889 6.69392 19.0423 5.78585 17.9412 5.66333Z" fill="#E2B061"/>
<path d="M15.1532 7.91375C15.1464 7.9079 15.1394 7.90232 15.1323 7.8969C14.1482 7.14244 12.7802 7.14244 11.7962 7.8969C11.604 8.03952 11.5639 8.31094 11.7065 8.50311C11.8491 8.69529 12.1205 8.73542 12.3127 8.59281C12.322 8.58593 12.3309 8.57873 12.3396 8.57114C13.0089 8.08057 13.9191 8.08057 14.5885 8.57114C14.77 8.72708 15.0436 8.70634 15.1995 8.52478C15.3555 8.34327 15.3347 8.06969 15.1532 7.91375Z" fill="#E2B061"/>
</svg>
