<svg width="15" height="15" viewBox="0 0 15 15" fill="none" xmlns="http://www.w3.org/2000/svg">
<path d="M7.7453 2.04912C9.60325 2.04912 9.8168 2.05979 10.5536 2.09183C11.2263 2.12386 11.6 2.23064 11.8456 2.32674C12.1659 2.45487 12.4009 2.60437 12.6465 2.84996C12.892 3.09555 13.0415 3.31978 13.1697 3.6508C13.2658 3.89639 13.3832 4.25944 13.4046 4.94282C13.4366 5.67959 13.4473 5.89315 13.4473 7.7511C13.4473 9.60905 13.4366 9.82261 13.4046 10.5594C13.3725 11.2321 13.2658 11.6058 13.1697 11.8514C13.0415 12.1717 12.892 12.4067 12.6465 12.6522C12.4009 12.8978 12.1766 13.0473 11.8456 13.1755C11.6 13.2716 11.237 13.389 10.5536 13.4104C9.8168 13.4424 9.60325 13.4531 7.7453 13.4531C5.88735 13.4531 5.67379 13.4424 4.93702 13.4104C4.26431 13.3783 3.89059 13.2716 3.645 13.1755C3.32466 13.0473 3.08975 12.8978 2.84416 12.6522C2.59857 12.4067 2.44907 12.1824 2.32094 11.8514C2.22484 11.6058 2.10739 11.2428 2.08603 10.5594C2.054 9.82261 2.04332 9.60905 2.04332 7.7511C2.04332 5.89315 2.054 5.67959 2.08603 4.94282C2.11807 4.27011 2.22484 3.89639 2.32094 3.6508C2.44907 3.33046 2.59857 3.09555 2.84416 2.84996C3.08975 2.60437 3.31398 2.45487 3.645 2.32674C3.89059 2.23064 4.25364 2.11318 4.93702 2.09183C5.66311 2.05979 5.88735 2.04912 7.7453 2.04912ZM7.7453 0.799805C5.85532 0.799805 5.6204 0.810483 4.88363 0.842516C4.14686 0.87455 3.63433 0.992006 3.19653 1.16285C2.73739 1.34438 2.35298 1.57929 1.96858 1.96369C1.58417 2.3481 1.34926 2.7325 1.16774 3.19165C0.996892 3.62944 0.879435 4.14198 0.847402 4.87875C0.815368 5.61552 0.804688 5.86112 0.804688 7.74042C0.804688 9.6304 0.815368 9.86532 0.847402 10.6021C0.879435 11.3389 0.996892 11.8514 1.16774 12.2892C1.34926 12.7483 1.58417 13.1327 1.96858 13.5171C2.35298 13.9016 2.73739 14.1365 3.19653 14.318C3.63433 14.4888 4.14686 14.6063 4.88363 14.6383C5.6204 14.6704 5.866 14.681 7.7453 14.681C9.63529 14.681 9.87019 14.6704 10.607 14.6383C11.3437 14.6063 11.8563 14.4888 12.2941 14.318C12.7532 14.1365 13.1376 13.9016 13.522 13.5171C13.9064 13.1327 14.1413 12.7483 14.3229 12.2892C14.4937 11.8514 14.6112 11.3389 14.6432 10.6021C14.6752 9.86532 14.6859 9.61973 14.6859 7.74042C14.6859 5.86112 14.6752 5.61552 14.6432 4.87875C14.6112 4.14198 14.4937 3.62944 14.3229 3.19165C14.1413 2.7325 13.9064 2.3481 13.522 1.96369C13.1376 1.57929 12.7532 1.34438 12.2941 1.16285C11.8563 0.992006 11.3437 0.87455 10.607 0.842516C9.87019 0.810483 9.62461 0.799805 7.7453 0.799805Z" fill="#9BB8E9"/>
<path d="M7.7461 4.18457C5.77069 4.18457 4.17969 5.78625 4.17969 7.75098C4.17969 9.71571 5.78137 11.3174 7.7461 11.3174C9.71083 11.3174 11.3125 9.71571 11.3125 7.75098C11.3125 5.78625 9.71083 4.18457 7.7461 4.18457ZM7.7461 10.0681C6.46475 10.0681 5.42899 9.03233 5.42899 7.75098C5.42899 6.46964 6.46475 5.43388 7.7461 5.43388C9.02744 5.43388 10.0632 6.46964 10.0632 7.75098C10.0632 9.03233 9.02744 10.0681 7.7461 10.0681Z" fill="#9BB8E9"/>
<path d="M11.4501 4.8679C11.91 4.8679 12.2829 4.49501 12.2829 4.03502C12.2829 3.57504 11.91 3.20215 11.4501 3.20215C10.9901 3.20215 10.6172 3.57504 10.6172 4.03502C10.6172 4.49501 10.9901 4.8679 11.4501 4.8679Z" fill="#9BB8E9"/>
</svg>
