<svg width="16" height="18" viewBox="0 0 16 18" fill="none" xmlns="http://www.w3.org/2000/svg">
<path fill-rule="evenodd" clip-rule="evenodd" d="M10.149 0.330552C12.291 0.962837 14.0399 2.64348 14.7131 4.71671C15.4295 6.92273 15.0343 9.21245 13.6287 10.9987L13.6215 11.0076L7.87007 18L2.11144 10.9987C1.17221 9.80519 0.675781 8.38368 0.675781 6.88786C0.675781 5.7913 0.953964 4.69878 1.48031 3.72837C1.98957 2.78945 2.73117 1.9612 3.62488 1.33328C5.49006 0.0227596 7.86804 -0.342724 10.149 0.330552ZM7.87007 16.2907L12.7467 10.3614C13.9341 8.84947 14.2655 6.90603 13.6559 5.02862C13.089 3.28315 11.6198 1.86909 9.82163 1.33831C7.88006 0.765259 5.86082 1.07291 4.28165 2.18248C2.71682 3.28195 1.78261 5.04099 1.78261 6.88786C1.78261 8.15176 2.20132 9.3528 2.99342 10.3614L7.87007 16.2907ZM3.99573 6.88788C3.99573 4.85195 5.73354 3.19556 7.86957 3.19556C10.0056 3.19556 11.7434 4.85195 11.7434 6.88788C11.7434 8.92381 10.0056 10.5802 7.86957 10.5802C5.73354 10.5802 3.99573 8.92381 3.99573 6.88788ZM5.10252 6.88788C5.10252 8.34215 6.34384 9.52527 7.86957 9.52527C9.3953 9.52527 10.6366 8.34212 10.6366 6.88788C10.6366 5.43361 9.39534 4.2505 7.86957 4.2505C6.3438 4.2505 5.10252 5.43364 5.10252 6.88788Z" fill="#58595B"/>
</svg>
