<svg id="Слой_1" data-name="Слой 1" xmlns="http://www.w3.org/2000/svg" viewBox="0 0 91.67 92.17">
  <defs>
    <style>
      .cls-1 {
        fill: #141515;
      }
    </style>
  </defs>
  <title>find</title>
  <path class="cls-1" d="M160.06,157L189,185.94a4.8,4.8,0,1,1-6.82,6.76l-29.3-29.3a35.35,35.35,0,0,1-43.92-4,32.82,32.82,0,0,1,0-47.68,35.32,35.32,0,0,1,48.85,0A33,33,0,0,1,160.06,157h0Zm-8.9-38.39a25.82,25.82,0,0,0-35.67,0,23.39,23.39,0,0,0,0,33.91,25.82,25.82,0,0,0,35.67,0,23.39,23.39,0,0,0,0-33.91h0Z" transform="translate(-98.67 -101.94)"/>
</svg>
