<svg width="37" height="35" viewBox="0 0 37 35" fill="none" xmlns="http://www.w3.org/2000/svg">
<path d="M34.6875 9.20462H27.3708C27.8957 8.84618 28.3466 8.49006 28.6611 8.17093C30.525 6.29549 30.525 3.24299 28.6611 1.36755C26.8504 -0.454695 23.6916 -0.457008 21.8786 1.36755C20.8773 2.37349 18.2156 6.46893 18.5833 9.20462H18.4167C18.7821 6.46893 16.1227 2.37349 15.1214 1.36755C13.3084 -0.457008 10.1496 -0.454695 8.33887 1.36755C6.475 3.24299 6.475 6.29549 8.33656 8.17093C8.65337 8.49006 9.10431 8.84618 9.62925 9.20462H2.3125C1.03831 9.20462 0 10.2429 0 11.5171V17.2984C0 17.9366 0.518 18.4546 1.15625 18.4546H2.3125V32.3296C2.3125 33.6038 3.35081 34.6421 4.625 34.6421H32.375C33.6492 34.6421 34.6875 33.6038 34.6875 32.3296V18.4546H35.8438C36.482 18.4546 37 17.9366 37 17.2984V11.5171C37 10.2429 35.9617 9.20462 34.6875 9.20462ZM9.97844 2.99787C10.4479 2.52612 11.0699 2.26712 11.7313 2.26712C12.3904 2.26712 13.0124 2.52612 13.4819 2.99787C15.0405 4.56574 16.5899 8.57099 16.0511 9.12831C16.0511 9.12831 15.9539 9.20462 15.6233 9.20462C14.0253 9.20462 10.9751 7.54424 9.97844 6.54062C9.0095 5.56474 9.0095 3.97374 9.97844 2.99787ZM17.3438 32.3296H4.625V18.4546H17.3438V32.3296ZM17.3438 16.1421H2.3125V11.5171H15.6233H17.3438V16.1421ZM23.5181 2.99787C24.457 2.05668 26.085 2.05899 27.0216 2.99787C27.9905 3.97374 27.9905 5.56474 27.0216 6.54062C26.0249 7.54424 22.9747 9.20462 21.3768 9.20462C21.0461 9.20462 20.9489 9.13062 20.9466 9.12831C20.4101 8.57099 21.9595 4.56574 23.5181 2.99787ZM32.375 32.3296H19.6562V18.4546H32.375V32.3296ZM34.6875 16.1421H19.6562V11.5171H21.3768H34.6875V16.1421Z" fill="#003DA6"/>
</svg>
