<svg width="33" height="34" viewBox="0 0 33 34" fill="none" xmlns="http://www.w3.org/2000/svg">
<path d="M31.0943 17.4405C30.9575 17.1606 30.9575 16.8396 31.0943 16.5598L32.3624 13.9656C33.0684 12.5212 32.509 10.7997 31.0889 10.0462L28.5382 8.6928C28.263 8.54684 28.0744 8.28706 28.0205 7.98033L27.5217 5.13623C27.2439 3.55271 25.7791 2.48862 24.1876 2.7138L21.3286 3.11822C21.02 3.16178 20.7149 3.06257 20.491 2.84602L18.4158 0.838433C17.2602 -0.279445 15.45 -0.279511 14.2946 0.838433L12.2192 2.84622C11.9953 3.06283 11.6902 3.16185 11.3817 3.11842L8.52268 2.714C6.9306 2.48869 5.46634 3.55291 5.18857 5.13643L4.68973 7.98039C4.63587 8.28719 4.44721 8.5469 4.17209 8.69293L1.62144 10.0463C0.201281 10.7997 -0.358123 12.5214 0.347905 13.9658L1.61593 16.5599C1.75272 16.8398 1.75272 17.1608 1.61593 17.4407L0.347839 20.0347C-0.358189 21.4791 0.201215 23.2007 1.62137 23.9542L4.17203 25.3076C4.44721 25.4535 4.63587 25.7133 4.68973 26.02L5.18857 28.8641C5.44144 30.3057 6.67752 31.3166 8.09815 31.3165C8.23806 31.3165 8.38004 31.3067 8.52275 31.2865L11.3817 30.8821C11.69 30.8383 11.9954 30.9377 12.2193 31.1543L14.2946 33.1619C14.8724 33.7209 15.6136 34.0003 16.3551 34.0002C17.0964 34.0002 17.8381 33.7207 18.4157 33.1619L20.491 31.1543C20.7149 30.9377 21.0201 30.8388 21.3286 30.8821L24.1876 31.2865C25.7799 31.5117 27.2439 30.4476 27.5217 28.8641L28.0206 26.0201C28.0745 25.7133 28.2631 25.4536 28.5382 25.3076L31.0889 23.9542C32.509 23.2008 33.0684 21.4791 32.3624 20.0347L31.0943 17.4405ZM30.1698 22.2219L27.6191 23.5752C26.8059 24.0068 26.2482 24.7743 26.0891 25.6812L25.5903 28.5252C25.4963 29.061 25.001 29.4208 24.4622 29.3448L21.6033 28.9404C20.6915 28.8112 19.7893 29.1047 19.1276 29.7447L17.0523 31.7523C16.6614 32.1304 16.0489 32.1304 15.6579 31.7523L13.5827 29.7447C13.0234 29.2037 12.2923 28.9105 11.529 28.9105C11.3892 28.9105 11.2482 28.9203 11.107 28.9403L8.24802 29.3447C7.70974 29.4208 7.21402 29.0609 7.11999 28.5251L6.62108 25.681C6.46197 24.7742 5.90429 24.0066 5.09102 23.5752L2.54036 22.2218C2.05985 21.9669 1.87059 21.3844 2.10946 20.8958L3.37754 18.3016C3.78182 17.4745 3.78182 16.5258 3.37754 15.6986L2.10946 13.1045C1.87059 12.6158 2.05985 12.0333 2.54036 11.7784L5.09102 10.4251C5.90423 9.99349 6.46197 9.22597 6.62101 8.31913L7.11985 5.4751C7.21388 4.93933 7.70914 4.57941 8.24789 4.65551L11.1069 5.05993C12.0183 5.18895 12.9208 4.89564 13.5825 4.25555L15.6579 2.24797C16.0487 1.86985 16.6612 1.86985 17.0522 2.24797L19.1274 4.25555C19.7892 4.8957 20.6916 5.18895 21.6031 5.05993L24.4621 4.65551C25.0005 4.57935 25.4962 4.93933 25.5901 5.4751L26.089 8.3192C26.2481 9.22604 26.8058 9.99362 27.619 10.4251L30.1697 11.7784C30.6502 12.0333 30.8395 12.6158 30.6006 13.1045L29.3325 15.6986C28.9282 16.5256 28.9282 17.4745 29.3325 18.3015L30.6006 20.8956C30.8395 21.3844 30.6503 21.9669 30.1698 22.2219Z" fill="#58595B"/>
<path d="M23.5179 9.83551C23.1351 9.45262 22.5142 9.45262 22.1313 9.83551L9.18952 22.7774C8.80662 23.1603 8.80662 23.7811 9.18952 24.164C9.38096 24.3554 9.63191 24.4512 9.88279 24.4512C10.1337 24.4512 10.3847 24.3555 10.5761 24.164L23.5179 11.2222C23.9009 10.8392 23.9009 10.2185 23.5179 9.83551Z" fill="#58595B"/>
<path d="M12.435 8.17578C10.4526 8.17578 8.83984 9.78858 8.83984 11.7709C8.83984 13.7533 10.4526 15.3661 12.435 15.3661C14.4173 15.3661 16.0301 13.7533 16.0301 11.7709C16.0301 9.78858 14.4173 8.17578 12.435 8.17578ZM12.435 13.4051C11.5339 13.4051 10.8009 12.672 10.8009 11.7709C10.8009 10.8698 11.5339 10.1367 12.435 10.1367C13.3361 10.1367 14.0692 10.8698 14.0692 11.7709C14.0691 12.672 13.3361 13.4051 12.435 13.4051Z" fill="#58595B"/>
<path d="M20.2787 18.6348C18.2964 18.6348 16.6836 20.2476 16.6836 22.2299C16.6836 24.2123 18.2964 25.8251 20.2787 25.8251C22.2611 25.8251 23.8739 24.2123 23.8739 22.2299C23.8739 20.2476 22.2611 18.6348 20.2787 18.6348ZM20.2787 23.864C19.3777 23.864 18.6446 23.131 18.6446 22.2299C18.6446 21.3289 19.3776 20.5958 20.2787 20.5958C21.1798 20.5958 21.9129 21.3289 21.9129 22.2299C21.9129 23.131 21.1798 23.864 20.2787 23.864Z" fill="#58595B"/>
</svg>
