<svg width="25" height="24" viewBox="0 0 25 24" fill="none" xmlns="http://www.w3.org/2000/svg">
<path d="M21.3389 15.4039C19.9774 14.1062 18.3569 13.1456 16.5888 12.5641C18.4825 11.3209 19.7266 9.24045 19.7266 6.88794C19.7266 3.08994 16.4847 0 12.5 0C8.51528 0 5.27344 3.08994 5.27344 6.88794C5.27344 9.24045 6.51753 11.3209 8.41123 12.5641C6.64316 13.1456 5.02266 14.1062 3.66118 15.4039C1.30024 17.6542 0 20.6461 0 23.8286H1.95312C1.95312 18.2855 6.68442 13.7759 12.5 13.7759C18.3156 13.7759 23.0469 18.2855 23.0469 23.8286H25C25 20.6461 23.6998 17.6542 21.3389 15.4039ZM12.5 11.9143C9.59224 11.9143 7.22656 9.6595 7.22656 6.88794C7.22656 4.11638 9.59224 1.86161 12.5 1.86161C15.4078 1.86161 17.7734 4.11638 17.7734 6.88794C17.7734 9.6595 15.4078 11.9143 12.5 11.9143Z" fill="#58595B"/>
</svg>
