<svg width="20" height="20" viewBox="0 0 20 20" fill="none" xmlns="http://www.w3.org/2000/svg">
<path d="M13.9492 11.794L13.9419 11.8524C12.232 10.9993 12.0533 10.8862 11.8309 11.218C11.6778 11.4477 11.233 11.969 11.0981 12.1222C10.9632 12.2753 10.8283 12.2862 10.595 12.1805C10.3617 12.0638 9.61427 11.8196 8.72468 11.0248C8.03562 10.405 7.56895 9.64665 7.43406 9.41331C7.20437 9.01956 7.68197 8.96488 8.11583 8.14092C8.19239 7.97686 8.15229 7.84925 8.0976 7.73259C8.03927 7.61592 7.57625 6.47113 7.37937 6.0154C7.19343 5.56696 7.00385 5.62529 6.85802 5.62529C6.40958 5.58519 6.08145 5.59248 5.79343 5.89144C4.53927 7.26956 4.85645 8.69509 5.92833 10.2081C8.03927 12.9716 9.16218 13.4784 11.2221 14.1857C11.7762 14.3607 12.283 14.3388 12.6841 14.2805C13.1288 14.2112 14.0585 13.719 14.2518 13.1722C14.4486 12.6253 14.4486 12.1696 14.3903 12.0638C14.3356 11.9581 14.1825 11.8998 13.9492 11.794Z" fill="#9BB8E9"/>
<path d="M16.2974 3.3502C10.3146 -2.43209 0.419792 1.76062 0.416146 9.91635C0.416146 11.546 0.842708 13.1356 1.65573 14.5393L0.335938 19.3335L5.26146 18.0502C11.4083 21.3716 18.999 16.9601 19.0026 9.92364C19.0026 7.45176 18.0365 5.12937 16.2828 3.38302L16.2974 3.3502ZM17.4495 9.89812C17.4422 15.8335 10.9271 19.5413 5.77187 16.5117L5.49115 16.344L2.57448 17.1023L3.35833 14.2658L3.1724 13.9742C-0.0359374 8.86999 3.65 2.19812 9.72396 2.19812C11.7911 2.19812 13.7271 3.0002 15.1854 4.45854C16.6437 5.90593 17.4495 7.84187 17.4495 9.89812Z" fill="#9BB8E9"/>
</svg>
