<svg xmlns="http://www.w3.org/2000/svg" display="none">
    <style>:root>svg{display:none}:root>svg:target{display:block}</style>

    <symbol id="cabinet-menu-icon1" viewBox="0 0 69 68">
        <g>
            <path d="M20.3169 27.6334V25.6004H18.7969V23.7574H20.3169V22.2754H18.7969V19.9194H20.3169V14.0674H24.6489C26.3969 14.0674 27.6699 14.422 28.4679 15.1314C29.2785 15.8407 29.6839 16.816 29.6839 18.0574C29.6839 18.7921 29.5192 19.4824 29.1899 20.1284C28.8605 20.7744 28.3095 21.2937 27.5369 21.6864C26.7769 22.0791 25.7382 22.2754 24.4209 22.2754H23.1859V23.7574H26.1119V25.6004H23.1859V27.6334H20.3169ZM23.1859 19.9194H24.1359C24.9465 19.9194 25.5862 19.7801 26.0549 19.5014C26.5362 19.2227 26.7769 18.773 26.7769 18.1524C26.7769 16.9997 26.0169 16.4234 24.4969 16.4234H23.1859V19.9194Z"
            />
            <path d="M1.60767 12.9069C1.05424 12.9069 0.605804 12.4583 0.605804 11.905V7.06267C0.605804 6.96475 0.620094 6.86737 0.648415 6.7736C0.681541 6.66366 0.999069 5.66112 1.92974 4.34868C2.78159 3.14683 4.34371 1.43578 6.94763 0.109304C7.23336 -0.036301 7.57146 -0.0361674 7.85746 0.109304C10.6821 1.54892 12.3075 3.42963 13.1975 4.82677C14.0879 3.42976 15.7138 1.54906 18.5386 0.109304C18.8243 -0.0364346 19.1625 -0.0364346 19.4485 0.109304C22.2727 1.54879 23.8983 3.42936 24.7884 4.82637C25.6783 3.42936 27.304 1.54879 30.1283 0.109304C30.4141 -0.0364346 30.7523 -0.0364346 31.0383 0.109304C33.8627 1.54892 35.4883 3.42949 36.3782 4.82677C37.2683 3.42963 38.8939 1.54906 41.7178 0.109437C42.0038 -0.036301 42.342 -0.0364346 42.6279 0.109437C47.6398 2.66393 48.8781 6.60675 48.9283 6.77333C48.9566 6.86724 48.9711 6.96462 48.9711 7.06267V27.3926H67.9981C68.5514 27.3926 69 27.8411 69 28.3944V34.1331C69 34.6864 68.5514 35.135 67.9981 35.135C67.4448 35.135 66.9963 34.6864 66.9963 34.1331V29.3963H48.9707V56.3305C48.9707 61.3002 53.0138 65.3433 57.9835 65.3433C62.9531 65.3433 66.9963 61.3002 66.9963 56.3305V38.1406C66.9963 37.5873 67.4448 37.1387 67.9981 37.1387C68.5514 37.1387 69 37.5873 69 38.1406V56.3305C69 62.4051 64.058 67.3471 57.9835 67.3471H11.6223C5.54782 67.3471 0.605804 62.4051 0.605804 56.3305V15.9125C0.605804 15.3592 1.05424 14.9106 1.60767 14.9106C2.1611 14.9106 2.60954 15.3592 2.60954 15.9125V56.3305C2.60954 61.3002 6.65268 65.3433 11.6223 65.3433H51.6601C48.8248 63.348 46.9669 60.0532 46.9669 56.3305V7.23085C46.7406 6.62639 45.6093 4.05239 42.1726 2.13722C38.3414 4.2728 37.376 7.22764 37.337 7.35201C37.2099 7.77306 36.8223 8.05933 36.3824 8.06173C35.939 8.06667 35.5516 7.77667 35.4201 7.35695C35.3794 7.22751 34.415 4.27267 30.5829 2.13708C26.7507 4.27267 25.7865 7.22724 25.7473 7.35161C25.6206 7.77279 25.2328 8.05919 24.7929 8.06173H24.7873C24.3497 8.06173 23.9615 7.77493 23.8304 7.35695C23.7898 7.22751 22.8254 4.27267 18.9933 2.13708C15.1609 4.2728 14.1953 7.22764 14.1563 7.35201C14.0292 7.77306 13.6414 8.05933 13.2017 8.06173C12.7631 8.06013 12.3712 7.77667 12.2395 7.35695C12.1989 7.22751 11.2347 4.2728 7.40248 2.13722C5.43441 3.2362 4.23591 4.56 3.56439 5.5075C2.99052 6.31674 2.70853 6.97477 2.60954 7.23339V11.905C2.60954 12.4583 2.1611 12.9069 1.60767 12.9069Z"
            />
            <path d="M38.3606 32.6719H41.6681C42.2214 32.6719 42.6699 33.1204 42.6699 33.6737C42.6699 34.227 42.2214 34.6756 41.6681 34.6756H38.3606C37.8073 34.6756 37.3587 34.227 37.3587 33.6737C37.3587 33.1204 37.8073 32.6719 38.3606 32.6719Z"
            />
            <path d="M7.72337 32.6719H34.0255C34.5789 32.6719 35.0273 33.1204 35.0273 33.6737C35.0273 34.227 34.5789 34.6756 34.0255 34.6756H7.7235C7.17006 34.6756 6.72163 34.227 6.72163 33.6737C6.72163 33.1204 7.17007 32.6719 7.72337 32.6719Z"
            />
            <path d="M38.3606 38.438H41.6681C42.2214 38.438 42.6699 38.8866 42.6699 39.4399C42.6699 39.9932 42.2214 40.4417 41.6681 40.4417H38.3606C37.8073 40.4417 37.3587 39.9932 37.3587 39.4399C37.3587 38.8866 37.8073 38.438 38.3606 38.438Z"
            />
            <path d="M7.72337 38.438H34.0255C34.5789 38.438 35.0273 38.8866 35.0273 39.4399C35.0273 39.9932 34.5789 40.4417 34.0255 40.4417H7.7235C7.17006 40.4417 6.72163 39.9932 6.72163 39.4399C6.72163 38.8866 7.17007 38.438 7.72337 38.438Z"
            />
            <path d="M38.3606 50.4258H41.6681C42.2214 50.4258 42.6699 50.8744 42.6699 51.4276C42.6699 51.9809 42.2214 52.4295 41.6681 52.4295H38.3606C37.8073 52.4295 37.3587 51.9809 37.3587 51.4276C37.3587 50.8744 37.8073 50.4258 38.3606 50.4258Z"
            />
            <path d="M7.72337 50.4258H34.0255C34.5789 50.4258 35.0273 50.8744 35.0273 51.4276C35.0273 51.9809 34.5789 52.4295 34.0255 52.4295H7.7235C7.17006 52.4295 6.72163 51.9809 6.72163 51.4276C6.72163 50.8744 7.17007 50.4258 7.72337 50.4258Z"
            />
            <path d="M38.3606 56.0811H41.6681C42.2214 56.0811 42.6699 56.5296 42.6699 57.0829C42.6699 57.6362 42.2214 58.0848 41.6681 58.0848H38.3606C37.8073 58.0848 37.3587 57.6362 37.3587 57.0829C37.3587 56.5296 37.8073 56.0811 38.3606 56.0811Z"
            />
            <path d="M7.72337 56.0811H34.0255C34.5789 56.0811 35.0273 56.5296 35.0273 57.0829C35.0273 57.6362 34.5789 58.0848 34.0255 58.0848H7.7235C7.17006 58.0848 6.72163 57.6362 6.72163 57.0829C6.72163 56.5296 7.17007 56.0811 7.72337 56.0811Z"
            />

        </g>
    </symbol>

    <symbol id="cabinet-menu-icon2" viewBox="0 0 68 68">
        <g>
            <path d="M27.1625 24.0324L27.0378 23.0403L27.1625 24.0324C27.6599 23.9699 28.4462 24.0016 28.9571 24.1068C29.9834 24.3182 31.009 24.8643 31.7612 25.601C31.8502 25.6881 32.1166 25.9588 32.3529 26.2028L32.3529 26.2029L32.7824 26.6464L33.5027 27.3902L34.221 26.6444L34.5748 26.2771L34.5748 26.2771C35.183 25.6456 35.4227 25.4203 35.6561 25.2355L35.6561 25.2355C36.695 24.4126 37.8745 24.0001 39.1616 24C39.7531 24 40.2224 24.0687 40.7787 24.2357C41.1325 24.342 41.3522 24.4311 41.7521 24.6373L42.2104 23.7485L41.7521 24.6373C42.7578 25.1559 43.6792 26.0719 44.242 27.1316C45.3621 29.241 45.2308 31.8358 43.9149 33.7927C43.6227 34.2273 43.5213 34.3479 40.7975 37.1251L41.5114 37.8253L40.7975 37.1251C40.3333 37.5984 39.768 38.1764 39.541 38.4099L39.541 38.41C39.3171 38.6403 38.7327 39.2383 38.2423 39.7387C37.7517 40.2394 37.1654 40.8383 36.9393 41.0698L36.9393 41.0699C36.7142 41.3004 36.1559 41.8713 35.6987 42.3385L35.6987 42.3385C35.2414 42.8059 34.6768 43.3839 34.4439 43.6231C34.0533 44.0243 33.7429 44.3421 33.5017 44.5877C33.174 44.2543 32.7565 43.8284 32.3045 43.3662C31.2678 42.306 30.2016 41.216 29.9352 40.944L29.9352 40.944C29.486 40.4853 29.2421 40.2355 28.1031 39.0671C27.8638 38.8217 26.7529 37.6856 25.6349 36.5429L25.6349 36.5429C25.0769 35.9727 24.5499 35.4305 24.1506 35.0166C23.9508 34.8095 23.784 34.6356 23.6616 34.5069C23.5456 34.3847 23.4904 34.3248 23.4772 34.3104C23.4748 34.3079 23.4738 34.3068 23.474 34.307L23.4739 34.307C22.681 33.3566 22.1821 32.1855 22.0438 30.9451C21.8576 29.2751 22.267 27.7136 23.242 26.3626L23.242 26.3626C23.4456 26.0805 24.0388 25.4623 24.3187 25.2417C25.175 24.5666 26.1375 24.1613 27.1625 24.0324ZM34.1756 45.2691C34.1761 45.2696 34.1762 45.2697 34.1757 45.2692L34.1756 45.2691Z"
                  stroke-width="2"/>
            <circle cx="34" cy="34" r="33" stroke-width="2"/>
        </g>
    </symbol>

    <symbol id="cabinet-menu-icon3" viewBox="0 0 56 67">
        <g>
            <path d="M46.5862 19.8906H27.7422C27.0195 19.8906 26.4336 20.4765 26.4336 21.1992C26.4336 21.922 27.0195 22.5078 27.7422 22.5078H46.5862C47.3089 22.5078 47.8947 21.922 47.8947 21.1992C47.8947 20.4765 47.3089 19.8906 46.5862 19.8906Z"
            />
            <path d="M42.0072 26.5553C41.7638 26.3119 41.4262 26.1719 41.082 26.1719C40.7379 26.1719 40.4003 26.3119 40.1569 26.5553C39.9135 26.7987 39.7734 27.1363 39.7734 27.4805C39.7734 27.8246 39.9135 28.1622 40.1569 28.4056C40.4003 28.649 40.7379 28.7891 41.082 28.7891C41.4262 28.7891 41.7638 28.649 42.0072 28.4056C42.2506 28.1622 42.3906 27.8246 42.3906 27.4805C42.3906 27.1363 42.2506 26.7987 42.0072 26.5553Z"
            />
            <path d="M28.6654 6.01037C28.422 5.76697 28.0844 5.62695 27.7402 5.62695C27.3961 5.62695 27.0585 5.76697 26.8151 6.01037C26.5717 6.25377 26.4316 6.59138 26.4316 6.93554C26.4316 7.2797 26.5717 7.61732 26.8151 7.86072C27.0585 8.10412 27.3961 8.24414 27.7402 8.24414C28.0844 8.24414 28.422 8.10412 28.6654 7.86072C28.9088 7.61732 29.0488 7.2797 29.0488 6.93554C29.0488 6.59138 28.9088 6.25377 28.6654 6.01037Z"
            />
            <path d="M35.5776 26.1719H27.7422C27.0195 26.1719 26.4336 26.7577 26.4336 27.4805C26.4336 28.2032 27.0195 28.7891 27.7422 28.7891H35.5776C36.3004 28.7891 36.8862 28.2032 36.8862 27.4805C36.8862 26.7577 36.3004 26.1719 35.5776 26.1719Z"
            />
            <path d="M46.5862 34.0234H27.7422C27.0195 34.0234 26.4336 34.6093 26.4336 35.332C26.4336 36.0548 27.0195 36.6406 27.7422 36.6406H46.5862C47.3089 36.6406 47.8947 36.0548 47.8947 35.332C47.8947 34.6093 47.3089 34.0234 46.5862 34.0234Z"
            />
            <path d="M42.0072 40.6881C41.7638 40.4447 41.4262 40.3047 41.082 40.3047C40.7379 40.3047 40.4003 40.4447 40.1569 40.6881C39.9135 40.9315 39.7734 41.2691 39.7734 41.6133C39.7734 41.9574 39.9135 42.2951 40.1569 42.5385C40.4003 42.7819 40.7379 42.9219 41.082 42.9219C41.4262 42.9219 41.7638 42.7819 42.0072 42.5385C42.2506 42.2951 42.3906 41.9574 42.3906 41.6133C42.3906 41.2691 42.2506 40.9315 42.0072 40.6881Z"
            />
            <path d="M35.5776 40.3047H27.7422C27.0195 40.3047 26.4336 40.8905 26.4336 41.6133C26.4336 42.336 27.0195 42.9219 27.7422 42.9219H35.5776C36.3004 42.9219 36.8862 42.336 36.8862 41.6133C36.8862 40.8905 36.3004 40.3047 35.5776 40.3047Z"
            />
            <path d="M46.5862 48.1562H27.7422C27.0195 48.1562 26.4336 48.7421 26.4336 49.4648C26.4336 50.1876 27.0195 50.7734 27.7422 50.7734H46.5862C47.3089 50.7734 47.8947 50.1876 47.8947 49.4648C47.8947 48.7421 47.3089 48.1562 46.5862 48.1562Z"
            />
            <path d="M42.0072 54.8209C41.7638 54.5775 41.4262 54.4375 41.082 54.4375C40.7379 54.4375 40.4003 54.5775 40.1569 54.8209C39.9135 55.0643 39.7734 55.4019 39.7734 55.7461C39.7734 56.0903 39.9135 56.4279 40.1569 56.6713C40.4003 56.9147 40.7379 57.0547 41.082 57.0547C41.4262 57.0547 41.7638 56.9147 42.0072 56.6713C42.2506 56.4279 42.3906 56.0903 42.3906 55.7461C42.3906 55.4019 42.2506 55.0643 42.0072 54.8209Z"
            />
            <path d="M35.5776 54.437H27.7422C27.0195 54.437 26.4336 55.0229 26.4336 55.7456C26.4336 56.4683 27.0195 57.0542 27.7422 57.0542H35.5776C36.3004 57.0542 36.8862 56.4683 36.8862 55.7456C36.8862 55.0229 36.3004 54.437 35.5776 54.437Z"
            />
            <path d="M49.1038 5.10364H39.109C37.6641 3.72687 35.7111 2.8789 33.5625 2.8789H32.4162C31.5398 1.14397 29.7393 0 27.742 0C25.7447 0 23.9443 1.14397 23.0678 2.8789H21.9188C19.7702 2.8789 17.8173 3.72687 16.3724 5.10364H6.38043C2.86228 5.10364 0 7.96592 0 11.4841V60.6196C0 64.1377 2.86228 67 6.38043 67H49.1037C52.6219 67 55.4841 64.1377 55.4841 60.6196V11.4841C55.4843 7.96592 52.622 5.10364 49.1038 5.10364ZM21.9189 5.49608H23.9585C24.5471 5.49608 25.0632 5.10311 25.2198 4.53584C25.5319 3.40613 26.5691 2.61718 27.7421 2.61718C28.9152 2.61718 29.9523 3.40613 30.2643 4.53584C30.4209 5.10311 30.9372 5.49608 31.5257 5.49608H33.5625C36.4028 5.49608 38.7407 7.68797 38.974 10.4689H16.5074C16.7407 7.68797 19.0787 5.49608 21.9189 5.49608ZM52.8671 60.6197C52.8671 62.6947 51.1789 64.3829 49.1038 64.3829H6.38043C4.3054 64.3829 2.61718 62.6947 2.61718 60.6197V11.4841C2.61718 9.40903 4.3054 7.72082 6.38043 7.72082H14.5391C14.1104 8.70383 13.8711 9.78761 13.8711 10.9269V11.7775C13.8711 12.5002 14.4569 13.086 15.1797 13.086H40.3019C41.0246 13.086 41.6105 12.5002 41.6105 11.7775V10.9269C41.6105 9.78774 41.3711 8.70383 40.9424 7.72082H49.1038C51.1789 7.72082 52.8671 9.40903 52.8671 11.4841V60.6197Z"
            />
            <path d="M19.4198 19.5757C18.9088 19.0646 18.0802 19.0646 17.5692 19.5755L11.9734 25.1715L10.2496 23.4475C9.73861 22.9366 8.91001 22.9366 8.39888 23.4475C7.88787 23.9585 7.88787 24.7871 8.39888 25.2983L11.0481 27.9475C11.3037 28.2031 11.6386 28.3308 11.9734 28.3308C12.3083 28.3308 12.6433 28.2031 12.8987 27.9475L19.4198 21.4264C19.9308 20.9154 19.9308 20.0868 19.4198 19.5757Z"
            />
            <path d="M16.2265 48.1562H9.94531C9.22258 48.1562 8.63672 48.7421 8.63672 49.4648V55.7461C8.63672 56.4688 9.22258 57.0547 9.94531 57.0547H16.2265C16.9493 57.0547 17.5351 56.4688 17.5351 55.7461V49.4648C17.5351 48.7421 16.9493 48.1562 16.2265 48.1562ZM14.918 54.4375H11.2539V50.7734H14.918V54.4375Z"
            />
            <path d="M16.2265 34.0234H9.94531C9.22258 34.0234 8.63672 34.6093 8.63672 35.332V41.6133C8.63672 42.336 9.22258 42.9219 9.94531 42.9219H16.2265C16.9493 42.9219 17.5351 42.336 17.5351 41.6133V35.332C17.5351 34.6093 16.9493 34.0234 16.2265 34.0234ZM14.918 40.3047H11.2539V36.6406H14.918V40.3047Z"
            />
        </g>
    </symbol>

    <symbol id="cabinet-menu-icon4" viewBox="0 0 57 53">
        <g>
            <path d="M28.5 12.0273C27.8855 12.0273 27.3867 12.5261 27.3867 13.1406C27.3867 13.7551 27.8855 14.2539 28.5 14.2539C29.1145 14.2539 29.6133 13.7551 29.6133 13.1406C29.6133 12.5261 29.1145 12.0273 28.5 12.0273Z"
            />
            <path d="M10.0195 32.0664C10.634 32.0664 11.1328 31.5676 11.1328 30.9531C11.1328 30.3386 10.634 29.8398 10.0195 29.8398C9.40505 29.8398 8.90625 30.3386 8.90625 30.9531C8.90625 31.5676 9.40505 32.0664 10.0195 32.0664Z"
            />
            <path d="M37.4064 0.894531C27.3838 0.894531 19.1577 7.80474 18.5214 16.5088C8.97631 16.9876 0 23.8704 0 33.1799C0 37.0703 1.53947 40.8398 4.34182 43.8265C4.89629 46.1123 4.2231 48.535 2.55273 50.2053C2.2344 50.5237 2.13916 51.0025 2.31138 51.4186C2.48359 51.8344 2.88933 52.1057 3.33986 52.1057C6.5149 52.1057 9.57471 50.8607 11.8482 48.6667C14.0631 49.4217 16.9528 49.8792 19.5939 49.8792C29.6152 49.8792 37.8405 42.9707 38.4784 34.2684C40.8094 34.1649 43.2338 33.7343 45.1521 33.0807C47.4256 35.2747 50.4854 36.5197 53.6604 36.5197C54.111 36.5197 54.5167 36.2484 54.6889 35.8326C54.8611 35.4164 54.7659 34.9376 54.4476 34.6193C52.7772 32.9489 52.104 30.5262 52.6585 28.2405C55.4608 25.2538 57.0003 21.4843 57.0003 17.5938C57.0003 7.92085 47.3325 0.894531 37.4064 0.894531ZM19.5939 47.6526C16.9663 47.6526 13.9722 47.1368 11.9665 46.3388C11.5369 46.1675 11.0459 46.2801 10.7332 46.6215C9.38901 48.091 7.64124 49.1155 5.73691 49.5865C6.78627 47.5761 7.05415 45.206 6.41575 42.9603C6.36531 42.7833 6.27181 42.6215 6.14352 42.4897C3.61775 39.8883 2.22657 36.5819 2.22657 33.1799C2.22657 25.3347 10.1796 18.7071 19.5939 18.7071C28.4836 18.7071 36.2932 24.8889 36.2932 33.1799C36.2932 41.1603 28.802 47.6526 19.5939 47.6526ZM50.8568 26.9037C50.7285 27.0359 50.635 27.1977 50.5846 27.3742C49.9462 29.62 50.214 31.99 51.2634 34.0005C49.3591 33.5299 47.6113 32.5049 46.2671 31.0355C45.9544 30.6945 45.4634 30.5815 45.0338 30.7528C43.2956 31.4443 40.8159 31.9231 38.4749 32.0387C38.1497 27.8287 36.0496 23.8717 32.4593 20.9337H46.9807C47.5956 20.9337 48.094 20.4353 48.094 19.8204C48.094 19.2055 47.5956 18.7071 46.9807 18.7071H29.039C26.5119 17.4208 23.6743 16.6706 20.7537 16.5132C21.3934 9.03588 28.618 3.12111 37.4064 3.12111C46.8207 3.12111 54.7737 9.74864 54.7737 17.5938C54.7737 20.9959 53.3826 24.3023 50.8568 26.9037Z"
            />
            <path d="M28.5001 29.8398H14.4727C13.8577 29.8398 13.3594 30.3382 13.3594 30.9531C13.3594 31.568 13.8577 32.0664 14.4727 32.0664H28.5001C29.115 32.0664 29.6134 31.568 29.6134 30.9531C29.6134 30.3382 29.115 29.8398 28.5001 29.8398Z"
            />
            <path d="M28.5001 36.5195H10.0195C9.40462 36.5195 8.90625 37.0179 8.90625 37.6328C8.90625 38.2477 9.40462 38.7461 10.0195 38.7461H28.5001C29.115 38.7461 29.6134 38.2477 29.6134 37.6328C29.6134 37.0179 29.115 36.5195 28.5001 36.5195Z"
            />
            <path d="M46.9805 12.0273H32.9531C32.3382 12.0273 31.8398 12.5257 31.8398 13.1406C31.8398 13.7555 32.3382 14.2539 32.9531 14.2539H46.9805C47.5955 14.2539 48.0938 13.7555 48.0938 13.1406C48.0938 12.5257 47.5955 12.0273 46.9805 12.0273Z"
            />
        </g>
    </symbol>

    <symbol id="cabinet-menu-icon5" viewBox="0 0 29 29">
        <g>
            <path d="M14.5 0C6.50485 0 0 6.50485 0 14.5C0 22.4951 6.50485 29 14.5 29C22.4951 29 29 22.4951 29 14.5C29 6.50485 22.4952 0 14.5 0ZM14.5 27.7391C7.19956 27.7391 1.26085 21.8004 1.26085 14.5C1.26085 7.19956 7.19956 1.26085 14.5 1.26085C21.8004 1.26085 27.7391 7.19956 27.7391 14.5C27.7391 21.8004 21.8004 27.7391 14.5 27.7391Z"/>
            <path d="M14.5004 13.8696C9.98139 13.8696 6.30469 17.5463 6.30469 22.0653C6.30469 22.4133 6.58714 22.6958 6.93514 22.6958C7.28314 22.6958 7.5656 22.4133 7.5656 22.0653C7.5656 18.241 10.6761 15.1305 14.5004 15.1305C18.3246 15.1305 21.4351 18.241 21.4351 22.0653C21.4351 22.4133 21.7176 22.6957 22.0656 22.6957C22.4136 22.6957 22.6961 22.4133 22.6961 22.0653C22.6961 17.5463 19.0194 13.8696 14.5004 13.8696Z"/>
            <path d="M14.501 3.78271C12.0675 3.78271 10.0879 5.76226 10.0879 8.19578C10.0879 10.6293 12.0674 12.6089 14.501 12.6089C16.9345 12.6089 18.914 10.6292 18.914 8.19578C18.914 5.76232 16.9345 3.78271 14.501 3.78271ZM14.501 11.3479C12.7635 11.3479 11.3488 9.93325 11.3488 8.19578C11.3488 6.45832 12.7635 5.04363 14.501 5.04363C16.2384 5.04363 17.6531 6.45832 17.6531 8.19578C17.6531 9.93325 16.2385 11.3479 14.501 11.3479Z"/>
        </g>
    </symbol>
</svg>