<svg xmlns="http://www.w3.org/2000/svg" display="none">
    <style>:root>svg{display:none}:root>svg:target{display:block}</style>

    <symbol id="cabinet-menu-icon1" viewBox="0 0 69 68">
        <g>
            <path d="M20.3169 27.6334V25.6004H18.7969V23.7574H20.3169V22.2754H18.7969V19.9194H20.3169V14.0674H24.6489C26.3969 14.0674 27.6699 14.422 28.4679 15.1314C29.2785 15.8407 29.6839 16.816 29.6839 18.0574C29.6839 18.7921 29.5192 19.4824 29.1899 20.1284C28.8605 20.7744 28.3095 21.2937 27.5369 21.6864C26.7769 22.0791 25.7382 22.2754 24.4209 22.2754H23.1859V23.7574H26.1119V25.6004H23.1859V27.6334H20.3169ZM23.1859 19.9194H24.1359C24.9465 19.9194 25.5862 19.7801 26.0549 19.5014C26.5362 19.2227 26.7769 18.773 26.7769 18.1524C26.7769 16.9997 26.0169 16.4234 24.4969 16.4234H23.1859V19.9194Z"
            />
            <path d="M1.60767 12.9069C1.05424 12.9069 0.605804 12.4583 0.605804 11.905V7.06267C0.605804 6.96475 0.620094 6.86737 0.648415 6.7736C0.681541 6.66366 0.999069 5.66112 1.92974 4.34868C2.78159 3.14683 4.34371 1.43578 6.94763 0.109304C7.23336 -0.036301 7.57146 -0.0361674 7.85746 0.109304C10.6821 1.54892 12.3075 3.42963 13.1975 4.82677C14.0879 3.42976 15.7138 1.54906 18.5386 0.109304C18.8243 -0.0364346 19.1625 -0.0364346 19.4485 0.109304C22.2727 1.54879 23.8983 3.42936 24.7884 4.82637C25.6783 3.42936 27.304 1.54879 30.1283 0.109304C30.4141 -0.0364346 30.7523 -0.0364346 31.0383 0.109304C33.8627 1.54892 35.4883 3.42949 36.3782 4.82677C37.2683 3.42963 38.8939 1.54906 41.7178 0.109437C42.0038 -0.036301 42.342 -0.0364346 42.6279 0.109437C47.6398 2.66393 48.8781 6.60675 48.9283 6.77333C48.9566 6.86724 48.9711 6.96462 48.9711 7.06267V27.3926H67.9981C68.5514 27.3926 69 27.8411 69 28.3944V34.1331C69 34.6864 68.5514 35.135 67.9981 35.135C67.4448 35.135 66.9963 34.6864 66.9963 34.1331V29.3963H48.9707V56.3305C48.9707 61.3002 53.0138 65.3433 57.9835 65.3433C62.9531 65.3433 66.9963 61.3002 66.9963 56.3305V38.1406C66.9963 37.5873 67.4448 37.1387 67.9981 37.1387C68.5514 37.1387 69 37.5873 69 38.1406V56.3305C69 62.4051 64.058 67.3471 57.9835 67.3471H11.6223C5.54782 67.3471 0.605804 62.4051 0.605804 56.3305V15.9125C0.605804 15.3592 1.05424 14.9106 1.60767 14.9106C2.1611 14.9106 2.60954 15.3592 2.60954 15.9125V56.3305C2.60954 61.3002 6.65268 65.3433 11.6223 65.3433H51.6601C48.8248 63.348 46.9669 60.0532 46.9669 56.3305V7.23085C46.7406 6.62639 45.6093 4.05239 42.1726 2.13722C38.3414 4.2728 37.376 7.22764 37.337 7.35201C37.2099 7.77306 36.8223 8.05933 36.3824 8.06173C35.939 8.06667 35.5516 7.77667 35.4201 7.35695C35.3794 7.22751 34.415 4.27267 30.5829 2.13708C26.7507 4.27267 25.7865 7.22724 25.7473 7.35161C25.6206 7.77279 25.2328 8.05919 24.7929 8.06173H24.7873C24.3497 8.06173 23.9615 7.77493 23.8304 7.35695C23.7898 7.22751 22.8254 4.27267 18.9933 2.13708C15.1609 4.2728 14.1953 7.22764 14.1563 7.35201C14.0292 7.77306 13.6414 8.05933 13.2017 8.06173C12.7631 8.06013 12.3712 7.77667 12.2395 7.35695C12.1989 7.22751 11.2347 4.2728 7.40248 2.13722C5.43441 3.2362 4.23591 4.56 3.56439 5.5075C2.99052 6.31674 2.70853 6.97477 2.60954 7.23339V11.905C2.60954 12.4583 2.1611 12.9069 1.60767 12.9069Z"
            />
            <path d="M38.3606 32.6719H41.6681C42.2214 32.6719 42.6699 33.1204 42.6699 33.6737C42.6699 34.227 42.2214 34.6756 41.6681 34.6756H38.3606C37.8073 34.6756 37.3587 34.227 37.3587 33.6737C37.3587 33.1204 37.8073 32.6719 38.3606 32.6719Z"
            />
            <path d="M7.72337 32.6719H34.0255C34.5789 32.6719 35.0273 33.1204 35.0273 33.6737C35.0273 34.227 34.5789 34.6756 34.0255 34.6756H7.7235C7.17006 34.6756 6.72163 34.227 6.72163 33.6737C6.72163 33.1204 7.17007 32.6719 7.72337 32.6719Z"
            />
            <path d="M38.3606 38.438H41.6681C42.2214 38.438 42.6699 38.8866 42.6699 39.4399C42.6699 39.9932 42.2214 40.4417 41.6681 40.4417H38.3606C37.8073 40.4417 37.3587 39.9932 37.3587 39.4399C37.3587 38.8866 37.8073 38.438 38.3606 38.438Z"
            />
            <path d="M7.72337 38.438H34.0255C34.5789 38.438 35.0273 38.8866 35.0273 39.4399C35.0273 39.9932 34.5789 40.4417 34.0255 40.4417H7.7235C7.17006 40.4417 6.72163 39.9932 6.72163 39.4399C6.72163 38.8866 7.17007 38.438 7.72337 38.438Z"
            />
            <path d="M38.3606 50.4258H41.6681C42.2214 50.4258 42.6699 50.8744 42.6699 51.4276C42.6699 51.9809 42.2214 52.4295 41.6681 52.4295H38.3606C37.8073 52.4295 37.3587 51.9809 37.3587 51.4276C37.3587 50.8744 37.8073 50.4258 38.3606 50.4258Z"
            />
            <path d="M7.72337 50.4258H34.0255C34.5789 50.4258 35.0273 50.8744 35.0273 51.4276C35.0273 51.9809 34.5789 52.4295 34.0255 52.4295H7.7235C7.17006 52.4295 6.72163 51.9809 6.72163 51.4276C6.72163 50.8744 7.17007 50.4258 7.72337 50.4258Z"
            />
            <path d="M38.3606 56.0811H41.6681C42.2214 56.0811 42.6699 56.5296 42.6699 57.0829C42.6699 57.6362 42.2214 58.0848 41.6681 58.0848H38.3606C37.8073 58.0848 37.3587 57.6362 37.3587 57.0829C37.3587 56.5296 37.8073 56.0811 38.3606 56.0811Z"
            />
            <path d="M7.72337 56.0811H34.0255C34.5789 56.0811 35.0273 56.5296 35.0273 57.0829C35.0273 57.6362 34.5789 58.0848 34.0255 58.0848H7.7235C7.17006 58.0848 6.72163 57.6362 6.72163 57.0829C6.72163 56.5296 7.17007 56.0811 7.72337 56.0811Z"
            />

        </g>
    </symbol>

    <symbol id="cabinet-menu-icon2" viewBox="0 0 68 68">
        <g>
            <path d="M27.1625 24.0324L27.0378 23.0403L27.1625 24.0324C27.6599 23.9699 28.4462 24.0016 28.9571 24.1068C29.9834 24.3182 31.009 24.8643 31.7612 25.601C31.8502 25.6881 32.1166 25.9588 32.3529 26.2028L32.3529 26.2029L32.7824 26.6464L33.5027 27.3902L34.221 26.6444L34.5748 26.2771L34.5748 26.2771C35.183 25.6456 35.4227 25.4203 35.6561 25.2355L35.6561 25.2355C36.695 24.4126 37.8745 24.0001 39.1616 24C39.7531 24 40.2224 24.0687 40.7787 24.2357C41.1325 24.342 41.3522 24.4311 41.7521 24.6373L42.2104 23.7485L41.7521 24.6373C42.7578 25.1559 43.6792 26.0719 44.242 27.1316C45.3621 29.241 45.2308 31.8358 43.9149 33.7927C43.6227 34.2273 43.5213 34.3479 40.7975 37.1251L41.5114 37.8253L40.7975 37.1251C40.3333 37.5984 39.768 38.1764 39.541 38.4099L39.541 38.41C39.3171 38.6403 38.7327 39.2383 38.2423 39.7387C37.7517 40.2394 37.1654 40.8383 36.9393 41.0698L36.9393 41.0699C36.7142 41.3004 36.1559 41.8713 35.6987 42.3385L35.6987 42.3385C35.2414 42.8059 34.6768 43.3839 34.4439 43.6231C34.0533 44.0243 33.7429 44.3421 33.5017 44.5877C33.174 44.2543 32.7565 43.8284 32.3045 43.3662C31.2678 42.306 30.2016 41.216 29.9352 40.944L29.9352 40.944C29.486 40.4853 29.2421 40.2355 28.1031 39.0671C27.8638 38.8217 26.7529 37.6856 25.6349 36.5429L25.6349 36.5429C25.0769 35.9727 24.5499 35.4305 24.1506 35.0166C23.9508 34.8095 23.784 34.6356 23.6616 34.5069C23.5456 34.3847 23.4904 34.3248 23.4772 34.3104C23.4748 34.3079 23.4738 34.3068 23.474 34.307L23.4739 34.307C22.681 33.3566 22.1821 32.1855 22.0438 30.9451C21.8576 29.2751 22.267 27.7136 23.242 26.3626L23.242 26.3626C23.4456 26.0805 24.0388 25.4623 24.3187 25.2417C25.175 24.5666 26.1375 24.1613 27.1625 24.0324ZM34.1756 45.2691C34.1761 45.2696 34.1762 45.2697 34.1757 45.2692L34.1756 45.2691Z"
                  stroke-width="2"/>
            <circle cx="34" cy="34" r="33" stroke-width="2"/>
        </g>
    </symbol>

    <symbol id="cabinet-menu-icon3" viewBox="0 0 56 67">
        <g>
            <path d="M46.5862 19.8906H27.7422C27.0195 19.8906 26.4336 20.4765 26.4336 21.1992C26.4336 21.922 27.0195 22.5078 27.7422 22.5078H46.5862C47.3089 22.5078 47.8947 21.922 47.8947 21.1992C47.8947 20.4765 47.3089 19.8906 46.5862 19.8906Z"
            />
            <path d="M42.0072 26.5553C41.7638 26.3119 41.4262 26.1719 41.082 26.1719C40.7379 26.1719 40.4003 26.3119 40.1569 26.5553C39.9135 26.7987 39.7734 27.1363 39.7734 27.4805C39.7734 27.8246 39.9135 28.1622 40.1569 28.4056C40.4003 28.649 40.7379 28.7891 41.082 28.7891C41.4262 28.7891 41.7638 28.649 42.0072 28.4056C42.2506 28.1622 42.3906 27.8246 42.3906 27.4805C42.3906 27.1363 42.2506 26.7987 42.0072 26.5553Z"
            />
            <path d="M28.6654 6.01037C28.422 5.76697 28.0844 5.62695 27.7402 5.62695C27.3961 5.62695 27.0585 5.76697 26.8151 6.01037C26.5717 6.25377 26.4316 6.59138 26.4316 6.93554C26.4316 7.2797 26.5717 7.61732 26.8151 7.86072C27.0585 8.10412 27.3961 8.24414 27.7402 8.24414C28.0844 8.24414 28.422 8.10412 28.6654 7.86072C28.9088 7.61732 29.0488 7.2797 29.0488 6.93554C29.0488 6.59138 28.9088 6.25377 28.6654 6.01037Z"
            />
            <path d="M35.5776 26.1719H27.7422C27.0195 26.1719 26.4336 26.7577 26.4336 27.4805C26.4336 28.2032 27.0195 28.7891 27.7422 28.7891H35.5776C36.3004 28.7891 36.8862 28.2032 36.8862 27.4805C36.8862 26.7577 36.3004 26.1719 35.5776 26.1719Z"
            />
            <path d="M46.5862 34.0234H27.7422C27.0195 34.0234 26.4336 34.6093 26.4336 35.332C26.4336 36.0548 27.0195 36.6406 27.7422 36.6406H46.5862C47.3089 36.6406 47.8947 36.0548 47.8947 35.332C47.8947 34.6093 47.3089 34.0234 46.5862 34.0234Z"
            />
            <path d="M42.0072 40.6881C41.7638 40.4447 41.4262 40.3047 41.082 40.3047C40.7379 40.3047 40.4003 40.4447 40.1569 40.6881C39.9135 40.9315 39.7734 41.2691 39.7734 41.6133C39.7734 41.9574 39.9135 42.2951 40.1569 42.5385C40.4003 42.7819 40.7379 42.9219 41.082 42.9219C41.4262 42.9219 41.7638 42.7819 42.0072 42.5385C42.2506 42.2951 42.3906 41.9574 42.3906 41.6133C42.3906 41.2691 42.2506 40.9315 42.0072 40.6881Z"
            />
            <path d="M35.5776 40.3047H27.7422C27.0195 40.3047 26.4336 40.8905 26.4336 41.6133C26.4336 42.336 27.0195 42.9219 27.7422 42.9219H35.5776C36.3004 42.9219 36.8862 42.336 36.8862 41.6133C36.8862 40.8905 36.3004 40.3047 35.5776 40.3047Z"
            />
            <path d="M46.5862 48.1562H27.7422C27.0195 48.1562 26.4336 48.7421 26.4336 49.4648C26.4336 50.1876 27.0195 50.7734 27.7422 50.7734H46.5862C47.3089 50.7734 47.8947 50.1876 47.8947 49.4648C47.8947 48.7421 47.3089 48.1562 46.5862 48.1562Z"
            />
            <path d="M42.0072 54.8209C41.7638 54.5775 41.4262 54.4375 41.082 54.4375C40.7379 54.4375 40.4003 54.5775 40.1569 54.8209C39.9135 55.0643 39.7734 55.4019 39.7734 55.7461C39.7734 56.0903 39.9135 56.4279 40.1569 56.6713C40.4003 56.9147 40.7379 57.0547 41.082 57.0547C41.4262 57.0547 41.7638 56.9147 42.0072 56.6713C42.2506 56.4279 42.3906 56.0903 42.3906 55.7461C42.3906 55.4019 42.2506 55.0643 42.0072 54.8209Z"
            />
            <path d="M35.5776 54.437H27.7422C27.0195 54.437 26.4336 55.0229 26.4336 55.7456C26.4336 56.4683 27.0195 57.0542 27.7422 57.0542H35.5776C36.3004 57.0542 36.8862 56.4683 36.8862 55.7456C36.8862 55.0229 36.3004 54.437 35.5776 54.437Z"
            />
            <path d="M49.1038 5.10364H39.109C37.6641 3.72687 35.7111 2.8789 33.5625 2.8789H32.4162C31.5398 1.14397 29.7393 0 27.742 0C25.7447 0 23.9443 1.14397 23.0678 2.8789H21.9188C19.7702 2.8789 17.8173 3.72687 16.3724 5.10364H6.38043C2.86228 5.10364 0 7.96592 0 11.4841V60.6196C0 64.1377 2.86228 67 6.38043 67H49.1037C52.6219 67 55.4841 64.1377 55.4841 60.6196V11.4841C55.4843 7.96592 52.622 5.10364 49.1038 5.10364ZM21.9189 5.49608H23.9585C24.5471 5.49608 25.0632 5.10311 25.2198 4.53584C25.5319 3.40613 26.5691 2.61718 27.7421 2.61718C28.9152 2.61718 29.9523 3.40613 30.2643 4.53584C30.4209 5.10311 30.9372 5.49608 31.5257 5.49608H33.5625C36.4028 5.49608 38.7407 7.68797 38.974 10.4689H16.5074C16.7407 7.68797 19.0787 5.49608 21.9189 5.49608ZM52.8671 60.6197C52.8671 62.6947 51.1789 64.3829 49.1038 64.3829H6.38043C4.3054 64.3829 2.61718 62.6947 2.61718 60.6197V11.4841C2.61718 9.40903 4.3054 7.72082 6.38043 7.72082H14.5391C14.1104 8.70383 13.8711 9.78761 13.8711 10.9269V11.7775C13.8711 12.5002 14.4569 13.086 15.1797 13.086H40.3019C41.0246 13.086 41.6105 12.5002 41.6105 11.7775V10.9269C41.6105 9.78774 41.3711 8.70383 40.9424 7.72082H49.1038C51.1789 7.72082 52.8671 9.40903 52.8671 11.4841V60.6197Z"
            />
            <path d="M19.4198 19.5757C18.9088 19.0646 18.0802 19.0646 17.5692 19.5755L11.9734 25.1715L10.2496 23.4475C9.73861 22.9366 8.91001 22.9366 8.39888 23.4475C7.88787 23.9585 7.88787 24.7871 8.39888 25.2983L11.0481 27.9475C11.3037 28.2031 11.6386 28.3308 11.9734 28.3308C12.3083 28.3308 12.6433 28.2031 12.8987 27.9475L19.4198 21.4264C19.9308 20.9154 19.9308 20.0868 19.4198 19.5757Z"
            />
            <path d="M16.2265 48.1562H9.94531C9.22258 48.1562 8.63672 48.7421 8.63672 49.4648V55.7461C8.63672 56.4688 9.22258 57.0547 9.94531 57.0547H16.2265C16.9493 57.0547 17.5351 56.4688 17.5351 55.7461V49.4648C17.5351 48.7421 16.9493 48.1562 16.2265 48.1562ZM14.918 54.4375H11.2539V50.7734H14.918V54.4375Z"
            />
            <path d="M16.2265 34.0234H9.94531C9.22258 34.0234 8.63672 34.6093 8.63672 35.332V41.6133C8.63672 42.336 9.22258 42.9219 9.94531 42.9219H16.2265C16.9493 42.9219 17.5351 42.336 17.5351 41.6133V35.332C17.5351 34.6093 16.9493 34.0234 16.2265 34.0234ZM14.918 40.3047H11.2539V36.6406H14.918V40.3047Z"
            />
        </g>
    </symbol>

    <symbol id="cabinet-menu-icon4" viewBox="0 0 57 53">
        <g>
            <path d="M28.5 12.0273C27.8855 12.0273 27.3867 12.5261 27.3867 13.1406C27.3867 13.7551 27.8855 14.2539 28.5 14.2539C29.1145 14.2539 29.6133 13.7551 29.6133 13.1406C29.6133 12.5261 29.1145 12.0273 28.5 12.0273Z"
            />
            <path d="M10.0195 32.0664C10.634 32.0664 11.1328 31.5676 11.1328 30.9531C11.1328 30.3386 10.634 29.8398 10.0195 29.8398C9.40505 29.8398 8.90625 30.3386 8.90625 30.9531C8.90625 31.5676 9.40505 32.0664 10.0195 32.0664Z"
            />
            <path d="M37.4064 0.894531C27.3838 0.894531 19.1577 7.80474 18.5214 16.5088C8.97631 16.9876 0 23.8704 0 33.1799C0 37.0703 1.53947 40.8398 4.34182 43.8265C4.89629 46.1123 4.2231 48.535 2.55273 50.2053C2.2344 50.5237 2.13916 51.0025 2.31138 51.4186C2.48359 51.8344 2.88933 52.1057 3.33986 52.1057C6.5149 52.1057 9.57471 50.8607 11.8482 48.6667C14.0631 49.4217 16.9528 49.8792 19.5939 49.8792C29.6152 49.8792 37.8405 42.9707 38.4784 34.2684C40.8094 34.1649 43.2338 33.7343 45.1521 33.0807C47.4256 35.2747 50.4854 36.5197 53.6604 36.5197C54.111 36.5197 54.5167 36.2484 54.6889 35.8326C54.8611 35.4164 54.7659 34.9376 54.4476 34.6193C52.7772 32.9489 52.104 30.5262 52.6585 28.2405C55.4608 25.2538 57.0003 21.4843 57.0003 17.5938C57.0003 7.92085 47.3325 0.894531 37.4064 0.894531ZM19.5939 47.6526C16.9663 47.6526 13.9722 47.1368 11.9665 46.3388C11.5369 46.1675 11.0459 46.2801 10.7332 46.6215C9.38901 48.091 7.64124 49.1155 5.73691 49.5865C6.78627 47.5761 7.05415 45.206 6.41575 42.9603C6.36531 42.7833 6.27181 42.6215 6.14352 42.4897C3.61775 39.8883 2.22657 36.5819 2.22657 33.1799C2.22657 25.3347 10.1796 18.7071 19.5939 18.7071C28.4836 18.7071 36.2932 24.8889 36.2932 33.1799C36.2932 41.1603 28.802 47.6526 19.5939 47.6526ZM50.8568 26.9037C50.7285 27.0359 50.635 27.1977 50.5846 27.3742C49.9462 29.62 50.214 31.99 51.2634 34.0005C49.3591 33.5299 47.6113 32.5049 46.2671 31.0355C45.9544 30.6945 45.4634 30.5815 45.0338 30.7528C43.2956 31.4443 40.8159 31.9231 38.4749 32.0387C38.1497 27.8287 36.0496 23.8717 32.4593 20.9337H46.9807C47.5956 20.9337 48.094 20.4353 48.094 19.8204C48.094 19.2055 47.5956 18.7071 46.9807 18.7071H29.039C26.5119 17.4208 23.6743 16.6706 20.7537 16.5132C21.3934 9.03588 28.618 3.12111 37.4064 3.12111C46.8207 3.12111 54.7737 9.74864 54.7737 17.5938C54.7737 20.9959 53.3826 24.3023 50.8568 26.9037Z"
            />
            <path d="M28.5001 29.8398H14.4727C13.8577 29.8398 13.3594 30.3382 13.3594 30.9531C13.3594 31.568 13.8577 32.0664 14.4727 32.0664H28.5001C29.115 32.0664 29.6134 31.568 29.6134 30.9531C29.6134 30.3382 29.115 29.8398 28.5001 29.8398Z"
            />
            <path d="M28.5001 36.5195H10.0195C9.40462 36.5195 8.90625 37.0179 8.90625 37.6328C8.90625 38.2477 9.40462 38.7461 10.0195 38.7461H28.5001C29.115 38.7461 29.6134 38.2477 29.6134 37.6328C29.6134 37.0179 29.115 36.5195 28.5001 36.5195Z"
            />
            <path d="M46.9805 12.0273H32.9531C32.3382 12.0273 31.8398 12.5257 31.8398 13.1406C31.8398 13.7555 32.3382 14.2539 32.9531 14.2539H46.9805C47.5955 14.2539 48.0938 13.7555 48.0938 13.1406C48.0938 12.5257 47.5955 12.0273 46.9805 12.0273Z"
            />
        </g>
    </symbol>

    <symbol id="cabinet-menu-icon5" viewBox="0 0 29 29">
        <g>
            <path d="M14.5 0C6.50485 0 0 6.50485 0 14.5C0 22.4951 6.50485 29 14.5 29C22.4951 29 29 22.4951 29 14.5C29 6.50485 22.4952 0 14.5 0ZM14.5 27.7391C7.19956 27.7391 1.26085 21.8004 1.26085 14.5C1.26085 7.19956 7.19956 1.26085 14.5 1.26085C21.8004 1.26085 27.7391 7.19956 27.7391 14.5C27.7391 21.8004 21.8004 27.7391 14.5 27.7391Z"/>
            <path d="M14.5004 13.8696C9.98139 13.8696 6.30469 17.5463 6.30469 22.0653C6.30469 22.4133 6.58714 22.6958 6.93514 22.6958C7.28314 22.6958 7.5656 22.4133 7.5656 22.0653C7.5656 18.241 10.6761 15.1305 14.5004 15.1305C18.3246 15.1305 21.4351 18.241 21.4351 22.0653C21.4351 22.4133 21.7176 22.6957 22.0656 22.6957C22.4136 22.6957 22.6961 22.4133 22.6961 22.0653C22.6961 17.5463 19.0194 13.8696 14.5004 13.8696Z"/>
            <path d="M14.501 3.78271C12.0675 3.78271 10.0879 5.76226 10.0879 8.19578C10.0879 10.6293 12.0674 12.6089 14.501 12.6089C16.9345 12.6089 18.914 10.6292 18.914 8.19578C18.914 5.76232 16.9345 3.78271 14.501 3.78271ZM14.501 11.3479C12.7635 11.3479 11.3488 9.93325 11.3488 8.19578C11.3488 6.45832 12.7635 5.04363 14.501 5.04363C16.2384 5.04363 17.6531 6.45832 17.6531 8.19578C17.6531 9.93325 16.2385 11.3479 14.501 11.3479Z"/>
        </g>
    </symbol>

    <symbol id="orders-icon1" viewBox="0 0 37 44" xmlns="http://www.w3.org/2000/svg">
        <path d="M24.7254 5.39489C24.2866 2.31947 21.6097 0 18.4989 0C16.4983 0 14.5984 0.965379 13.4171 2.5833C13.1758 2.91326 13.248 3.37612 13.5779 3.61741C13.9068 3.85783 14.3707 3.7865 14.6116 3.45611C15.5158 2.21888 16.9688 1.48004 18.4987 1.48004C20.8778 1.48004 22.9245 3.25298 23.2601 5.60366C23.313 5.97286 23.6297 6.2393 23.992 6.2393C24.0265 6.2393 24.062 6.2367 24.0974 6.23193C24.5019 6.17404 24.7831 5.79921 24.7254 5.39489Z"/>
        <path d="M35.4134 13.6789L33.1935 9.97885C33.0599 9.75577 32.8191 9.61963 32.5589 9.61963H30.4315C30.0231 9.61963 29.6916 9.9511 29.6916 10.3595C29.6916 10.768 30.0231 11.0995 30.4315 11.0995H32.1401L33.472 13.3194H3.52623L4.85821 11.0995H5.64192C6.05035 11.0995 6.38183 10.768 6.38183 10.3595C6.38183 9.9511 6.05035 9.61963 5.64192 9.61963H4.43937C4.17921 9.61963 3.93836 9.75577 3.80481 9.97885L1.58485 13.6789C1.44762 13.9078 1.44437 14.1924 1.57553 14.4244C1.70669 14.6564 1.95254 14.7999 2.21941 14.7999H34.7789C35.0457 14.7999 35.2914 14.6564 35.4228 14.4244C35.5541 14.1924 35.5507 13.9074 35.4134 13.6789Z"/>
        <path d="M31.7251 6.85574C31.6215 6.68859 31.4561 6.57 31.2649 6.52534L21.1773 4.16599C20.9863 4.12111 20.7851 4.1545 20.6182 4.25769C20.4517 4.36132 20.3329 4.52673 20.2882 4.71794L19.5275 7.96984C19.4343 8.36765 19.6814 8.76568 20.0794 8.85847C20.4772 8.95169 20.8757 8.70455 20.9685 8.30651L21.5608 5.77546L30.2071 7.79792L28.8485 13.6069C28.7553 14.0047 29.0024 14.4027 29.4004 14.4955C29.4575 14.5087 29.514 14.515 29.57 14.515C29.906 14.515 30.2102 14.2848 30.2893 13.9438L31.8166 7.41441C31.8617 7.22342 31.8287 7.02223 31.7251 6.85574Z"/>
        <path d="M18.89 8.60457L18.2158 2.90183C18.1928 2.70694 18.0933 2.52895 17.9389 2.40755C17.7846 2.28614 17.5897 2.23064 17.3939 2.25362L5.01721 3.71654C4.61159 3.76467 4.32152 4.13235 4.36943 4.5384L5.4935 14.0498C5.53816 14.4263 5.8575 14.7032 6.22757 14.7032C6.2564 14.7032 6.2861 14.7012 6.31558 14.698C6.72099 14.6498 7.01105 14.2822 6.96336 13.8761L5.92601 5.09903L16.8331 3.80998L17.4201 8.77779C17.4683 9.18362 17.8342 9.47196 18.242 9.426C18.6476 9.3783 18.9377 9.01041 18.89 8.60457Z"/>
        <path d="M24.7428 13.7783L23.274 7.67039C23.2281 7.47983 23.1082 7.31485 22.941 7.2123C22.7739 7.11063 22.5734 7.07876 22.3815 7.12429L10.4607 9.99116C10.0633 10.0865 9.81879 10.4863 9.91418 10.8837L10.6482 13.9366C10.7436 14.3344 11.1434 14.5791 11.5406 14.4831C11.9379 14.3877 12.1825 13.9879 12.0871 13.5906L11.5258 11.257L22.0078 8.73658L23.3035 14.1247C23.3848 14.464 23.6883 14.6917 24.0224 14.6917C24.0799 14.6917 24.138 14.6849 24.1963 14.6708C24.5937 14.5752 24.8382 14.1757 24.7428 13.7783Z"/>
        <path d="M35.519 14.0218C35.4986 13.6285 35.1739 13.3198 34.7798 13.3198H2.22028C1.82615 13.3198 1.5014 13.6283 1.48102 14.0218L0.00097472 42.8813C-0.00943134 43.0838 0.0638449 43.2819 0.203459 43.4289C0.343291 43.5757 0.537103 43.6591 0.740022 43.6591H36.2594C36.4621 43.6591 36.6561 43.5759 36.7966 43.4289C36.936 43.2819 37.0093 43.084 36.9991 42.8813L35.519 14.0218ZM1.51874 42.1791L2.92291 14.7997H34.0763L35.4804 42.1791H1.51874Z"/>
        <path d="M24.0491 16.2793C22.8248 16.2793 21.8291 17.275 21.8291 18.4993C21.8291 19.7235 22.8248 20.7192 24.0491 20.7192C25.2733 20.7192 26.269 19.7235 26.269 18.4993C26.269 17.275 25.2733 16.2793 24.0491 16.2793ZM24.0491 19.2394C23.6408 19.2394 23.3091 18.9075 23.3091 18.4995C23.3091 18.0915 23.6411 17.7596 24.0491 17.7596C24.4571 17.7596 24.789 18.0915 24.789 18.4995C24.789 18.9075 24.4571 19.2394 24.0491 19.2394Z"/>
        <path d="M12.9495 16.2793C11.7252 16.2793 10.7295 17.275 10.7295 18.4993C10.7295 19.7235 11.7252 20.7192 12.9495 20.7192C14.1737 20.7192 15.1694 19.7235 15.1694 18.4993C15.1694 17.275 14.1737 16.2793 12.9495 16.2793ZM12.9495 19.2394C12.5414 19.2394 12.2095 18.9075 12.2095 18.4995C12.2095 18.0915 12.5414 17.7596 12.9495 17.7596C13.3575 17.7596 13.6894 18.0915 13.6894 18.4995C13.6894 18.9075 13.3575 19.2394 12.9495 19.2394Z"/>
        <path d="M24.0497 18.4995H23.9927C23.5842 18.4995 23.2527 18.831 23.2527 19.2394C23.2527 19.3405 23.2727 19.4369 23.3098 19.5247V23.3093C23.3098 25.9613 21.152 28.1193 18.4998 28.1193C15.8475 28.1193 13.6898 25.9615 13.6898 23.3093V19.2396C13.6898 18.8312 13.3583 18.4997 12.9499 18.4997C12.5414 18.4997 12.21 18.8312 12.21 19.2396V23.3095C12.21 26.7777 15.0315 29.5993 18.4998 29.5993C21.968 29.5993 24.7896 26.7777 24.7896 23.3095V19.2396C24.7896 18.8312 24.4581 18.4995 24.0497 18.4995Z"/>
    </symbol>

    <symbol id="orders-icon2" viewBox="0 0 44 24" xmlns="http://www.w3.org/2000/svg">
        <path d="M43.1406 10.5703C43.6152 10.5703 44 10.1856 44 9.71094C44 9.23632 43.6152 8.85156 43.1406 8.85156C42.666 8.85156 42.2812 9.23632 42.2812 9.71094C42.2812 10.1856 42.666 10.5703 43.1406 10.5703Z"/>
        <path d="M43.7419 0.257727C43.5843 0.100203 43.3695 0 43.1406 0C43.1406 0 0.860148 0 0.859375 0C0.402789 0 0 0.38543 0 0.859375V22.3438C0 22.812 0.391102 23.2031 0.859375 23.2031H43.1406C43.6091 23.2031 44 22.812 44 22.3438V13.5781C44 13.1037 43.6141 12.7188 43.1406 12.7188C42.6671 12.7188 42.2812 13.1037 42.2812 13.5781V21.4844H1.71875V1.71875H42.2812V5.84375C42.2812 6.31727 42.6671 6.70312 43.1406 6.70312C43.6141 6.70312 44 6.31727 44 5.84375C44 5.84375 44 0.872609 44 0.859375C44 0.630094 43.8995 0.41525 43.7419 0.257727Z"/>
        <path d="M26.6406 9.02344H4.29687C3.82224 9.02344 3.4375 9.40827 3.4375 9.88281C3.4375 10.3574 3.82224 10.7422 4.29687 10.7422H26.6406C27.1153 10.7422 27.5 10.3574 27.5 9.88281C27.5 9.40827 27.1153 9.02344 26.6406 9.02344Z"/>
        <path d="M24.0625 12.4609H4.29688C3.82224 12.4609 3.4375 12.8458 3.4375 13.3203C3.4375 13.7949 3.82224 14.1797 4.29688 14.1797H24.0625C24.5371 14.1797 24.9219 13.7949 24.9219 13.3203C24.9219 12.8458 24.5371 12.4609 24.0625 12.4609Z"/>
        <path d="M4.29687 5.58594H9.45312C9.92776 5.58594 10.3125 5.20111 10.3125 4.72656C10.3125 4.25202 9.92776 3.86719 9.45312 3.86719H4.29687C3.82224 3.86719 3.4375 4.25202 3.4375 4.72656C3.4375 5.20111 3.82224 5.58594 4.29687 5.58594Z"/>
        <path d="M35.4062 9.02344H37.9844C38.459 9.02344 38.8437 8.63861 38.8437 8.16406C38.8437 7.68952 38.459 7.30469 37.9844 7.30469H36.6953V6.44531C36.6953 5.97077 36.3106 5.58594 35.8359 5.58594C35.3613 5.58594 34.9766 5.97077 34.9766 6.44531V7.34121C33.7589 7.54643 32.8281 8.60767 32.8281 9.88281C32.8281 11.3044 33.9847 12.4609 35.4062 12.4609H36.2656C36.7395 12.4609 37.125 12.8465 37.125 13.3203C37.125 13.7942 36.7395 14.1797 36.2656 14.1797H33.6875C33.2129 14.1797 32.8281 14.5645 32.8281 15.0391C32.8281 15.5136 33.2129 15.8984 33.6875 15.8984H34.9766V16.7578C34.9766 17.2324 35.3613 17.6172 35.8359 17.6172C36.3106 17.6172 36.6953 17.2324 36.6953 16.7578V15.8619C37.913 15.6567 38.8437 14.5955 38.8437 13.3203C38.8437 11.8987 37.6872 10.7422 36.2656 10.7422H35.4062C34.9324 10.7422 34.5469 10.3567 34.5469 9.88281C34.5469 9.40895 34.9323 9.02344 35.4062 9.02344Z"/>
    </symbol>

    <symbol id="orders-icon3" viewBox="0 0 42 37" xmlns="http://www.w3.org/2000/svg">
        <path d="M37.2016 24.0806C37.3695 22.594 37.5524 19.9659 37.1852 17.3141C37.1386 16.9768 36.8268 16.7408 36.4901 16.7882C36.1528 16.8347 35.9174 17.146 35.9642 17.4832C36.3061 19.9538 36.1328 22.4665 35.9952 23.7692C35.609 23.7049 35.2128 23.6707 34.8085 23.6707C33.8404 23.6707 32.9165 23.8635 32.0728 24.2118C32.6805 22.378 33.0465 20.3106 33.0963 18.3516C33.1649 15.6571 32.6502 13.1722 31.6014 11.0957H32.1174L32.5562 11.1835C33.7772 11.8293 34.7037 13.0127 35.3114 14.7088C35.4262 15.0295 35.779 15.1961 36.0996 15.0813C36.42 14.9665 36.5869 14.6136 36.472 14.293C36.1038 13.2651 35.6268 12.3944 35.0474 11.6817L35.3452 11.7413C35.721 11.8164 36.0825 11.5195 36.0825 11.1369V7.19175C36.0825 6.80891 35.7209 6.51212 35.3452 6.58734L32.795 7.09741V3.90402C32.795 3.65202 32.6415 3.42537 32.4075 3.33169L29.4705 2.15693C29.2642 0.934334 28.1986 0 26.9183 0C25.4907 0 24.3293 1.1614 24.3293 2.58898C24.3293 4.01657 25.4907 5.17797 26.9183 5.17797C28.0472 5.17797 29.009 4.45142 29.3623 3.44153L31.562 4.3214V7.23268H25.6032C25.2627 7.23268 24.9868 7.50855 24.9868 7.84906C24.9868 8.18957 25.2626 8.46553 25.6032 8.46553H29.5894V10.4791C29.5894 10.8174 29.8617 11.0915 30.199 11.0952C33.0213 15.937 31.6944 22.121 30.4376 25.059C30.42 25.1003 30.4075 25.1424 30.3992 25.1848C30.2131 25.3296 30.0341 25.4834 29.8632 25.6455C29.8473 25.6443 29.8315 25.6432 29.8154 25.6432H24.2418C24.7645 24.0291 25.1323 22.1339 24.8529 20.386C24.5332 18.3871 23.4437 16.8964 21.617 15.9509V12.4517C21.617 12.1112 21.3411 11.8354 21.0006 11.8354H13.7679C11.6153 11.8354 9.86392 13.5867 9.86392 15.7394V15.7825C9.8503 15.7816 9.83668 15.7805 9.82282 15.7805H9.78172V11.7532H10.4803C10.8208 11.7532 11.0967 11.4773 11.0967 11.1367V7.84914C11.0967 7.50863 10.8208 7.23276 10.4803 7.23276H0.617535C0.277024 7.23276 0.00107111 7.50863 0.00107111 7.84914V11.1367C0.00107111 11.4772 0.276942 11.7532 0.617535 11.7532H1.31611V15.7805H0.617535C0.277024 15.7805 0.00107111 16.0564 0.00107111 16.3969C0.00107111 16.7375 0.276942 17.0133 0.617535 17.0133H7.54941C7.07633 17.2518 6.62484 17.5114 6.19729 17.7916C-0.129686 21.9391 -0.0275577 28.1578 0.00607501 30.2013C0.00845391 30.3467 0.0124734 30.4926 0.00919219 30.638C0.00664923 30.7497 -0.0068859 30.8564 0.0238758 30.9663C0.0976217 31.2292 0.344207 31.4164 0.617453 31.4164H2.0005C2.2808 34.3978 4.79677 36.7389 7.85022 36.7389C10.9037 36.7389 13.4196 34.3978 13.6999 31.4164H21.0006C21.1633 31.4164 21.3193 31.3523 21.4346 31.2377C21.6113 31.0625 22.0482 30.4129 22.548 29.5062H27.7456C27.6615 29.9455 27.6168 30.3988 27.6168 30.8623C27.6168 31.2028 27.8927 31.4788 28.2333 31.4788H28.9644C29.2735 34.4304 31.7764 36.7389 34.8084 36.7389C37.8405 36.7389 40.3433 34.4305 40.6524 31.4788H41.3835C41.724 31.4788 42 31.2029 42 30.8623C41.9999 27.7355 39.994 25.0689 37.2016 24.0806ZM32.7946 8.35445L34.8494 7.94348V10.3848L32.9608 10.0071C32.9057 9.98015 32.8508 9.95275 32.7946 9.9274V8.35445ZM26.9181 3.94512C26.1703 3.94512 25.562 3.33678 25.562 2.58898C25.562 1.84119 26.1703 1.23285 26.9181 1.23285C27.6659 1.23285 28.2742 1.84119 28.2742 2.58898C28.2742 3.33678 27.6659 3.94512 26.9181 3.94512ZM31.5618 9.86276H30.8221V8.46553H30.8632H31.5618V9.86276ZM11.0966 15.7394C11.0966 14.2664 12.2948 13.0682 13.7678 13.0682H20.3841V15.7805H11.0966V15.7394ZM1.23383 10.5203V8.46561H9.86375V10.5203H1.23383ZM2.54887 15.7805V11.7532H8.54871V15.7805H2.54887ZM7.85013 35.506C5.47714 35.506 3.51553 33.7166 3.24064 31.4164H4.65199C4.9158 32.9434 6.24905 34.1088 7.85013 34.1088C9.45122 34.1088 10.7845 32.9434 11.0483 31.4164H12.4595C12.1847 33.7165 10.223 35.506 7.85013 35.506ZM5.91461 31.4163H9.78557C9.54424 32.258 8.76823 32.8758 7.85005 32.8758C6.93188 32.8758 6.15595 32.258 5.91461 31.4163ZM22.5239 26.73C21.8236 28.4048 21.0274 29.703 20.6968 30.1835H1.23884C1.23876 30.1827 1.23876 30.1818 1.23876 30.181C1.20463 28.107 1.11415 22.5978 6.87306 18.8227C7.92388 18.1339 9.13753 17.5786 10.4803 17.1724C10.5834 17.1412 10.6722 17.0853 10.7425 17.0132H20.99C22.4568 17.7527 23.313 18.8654 23.6066 20.4149C24.0081 22.5341 23.2395 25.0188 22.5239 26.73ZM28.0992 28.2732H23.1821C23.3205 27.9844 23.4575 27.6839 23.5896 27.3753C23.6581 27.2152 23.727 27.0483 23.7957 26.876H28.8256C28.535 27.3109 28.2906 27.7789 28.0992 28.2732ZM34.8083 35.506C32.2996 35.506 30.2505 33.506 30.1686 31.0168C30.7812 29.9429 31.4916 29.1951 32.3546 28.7401C31.8613 29.3096 31.5618 30.0514 31.5618 30.8623C31.5618 32.6524 33.0182 34.1088 34.8083 34.1088C36.5983 34.1088 38.0547 32.6524 38.0547 30.8623C38.0547 30.1367 37.8153 29.4658 37.4114 28.9247C38.3098 29.4789 38.9757 30.2672 39.4483 31.0047C39.3727 33.4994 37.3211 35.506 34.8083 35.506ZM32.7946 30.8622C32.7946 29.7519 33.6979 28.8486 34.8083 28.8486C35.9186 28.8486 36.8219 29.7519 36.8219 30.8622C36.8219 31.9726 35.9186 32.8758 34.8083 32.8758C33.6979 32.8758 32.7946 31.9726 32.7946 30.8622ZM40.426 30.2458C39.0295 28.1226 37.0461 26.9583 34.8083 26.9583C31.6127 26.9583 30.0711 28.7484 29.1894 30.2458H28.8813C29.1908 27.2488 31.7309 24.9035 34.8083 24.9035C37.8858 24.9035 40.426 27.2488 40.7354 30.2458H40.426Z"/>
        <path d="M20.3426 19.7251H14.425C14.0845 19.7251 13.8086 20.001 13.8086 20.3416C13.8086 20.6821 14.0845 20.9579 14.425 20.9579H20.3426C20.6831 20.9579 20.9591 20.6821 20.9591 20.3416C20.9591 20.001 20.6831 19.7251 20.3426 19.7251Z"/>
        <path d="M19.0275 23.6704H10.4797C10.1392 23.6704 9.86328 23.9463 9.86328 24.2868C9.86328 24.6273 10.1392 24.9033 10.4797 24.9033H19.0275C19.368 24.9033 19.6439 24.6273 19.6439 24.2868C19.6439 23.9463 19.3681 23.6704 19.0275 23.6704Z"/>
        <path d="M17.0556 27.6157H6.53533C6.19482 27.6157 5.91895 27.8916 5.91895 28.2322C5.91895 28.5727 6.19482 28.8486 6.53533 28.8486H17.0556C17.3961 28.8486 17.672 28.5727 17.672 28.2322C17.672 27.8916 17.3961 27.6157 17.0556 27.6157Z"/>
    </symbol>

</svg>