<?xml version="1.0" encoding="utf-8"?><svg viewBox="0 0 140 139" xmlns="http://www.w3.org/2000/svg" xmlns:xlink="http://www.w3.org/1999/xlink"><style>:root>svg{display:none}:root>svg:target{display:block}</style><svg viewBox="0 0 12 8" id="arrow-down" xmlns="http://www.w3.org/2000/svg"><path d="M10.678.839l-4.84 4.839L1 .838" stroke="#58595B" stroke-width="2"/></svg><svg viewBox="0 0 29 16" id="arrow-pagi" xmlns="http://www.w3.org/2000/svg"><path d="M28.707 8.707a1 1 0 000-1.414L22.343.929a1 1 0 10-1.414 1.414L26.586 8l-5.657 5.657a1 1 0 001.414 1.414l6.364-6.364zM0 9h28V7H0v2z"/></svg><svg viewBox="0 0 18 18" id="arrow-right" xmlns="http://www.w3.org/2000/svg"><path d="M8.156.842l8 8-8 8" stroke="#003DA6" stroke-width="2"/></svg><svg viewBox="0 0 12 8" id="arrow-right-2" xmlns="http://www.w3.org/2000/svg"><path d="M11.354 4.354a.5.5 0 000-.708L8.172.464a.5.5 0 10-.708.708L10.293 4 7.464 6.828a.5.5 0 10.708.708l3.182-3.182zM0 4.5h11v-1H0v1z"/></svg><svg viewBox="0 0 26 14" id="burger" xmlns="http://www.w3.org/2000/svg"><path d="M0 0h26v2H0zm0 6h26v2H0zm0 6h26v2H0z"/></svg><svg viewBox="0 0 23 28" id="card-ico-2" xmlns="http://www.w3.org/2000/svg"><path fill-rule="evenodd" clip-rule="evenodd" d="M8.978.055c-.04.04-.055.39-.055 1.286v1.23l-3.456.014-3.456.013-.3.118a3.787 3.787 0 00-.509.248c-.317.199-.749.669-.914.996C-.02 4.572 0 3.86 0 14.022c0 10.168-.02 9.432.29 10.06.174.35.658.866.964 1.026.111.059.327.159.48.223l.277.116 3.455.013 3.455.013.013 1.251.012 1.252 1.283.012 1.283.012V0h-1.24c-.9 0-1.252.015-1.293.055zm5.087 3.772l.013 1.253 3.178.012 3.178.012v16.505l-.38-.449c-.393-.463-1.46-1.739-1.717-2.05a5.358 5.358 0 00-.219-.254 54.82 54.82 0 01-.827-.995 33.77 33.77 0 00-.827-.988 27.037 27.037 0 01-.719-.85 48.194 48.194 0 00-.905-1.081 6.884 6.884 0 00-.233-.276 8.498 8.498 0 01-.262-.308c-.173-.208-.244-.266-.264-.215-.014.039-.027 2.604-.027 5.7v5.63l3.48-.013 3.478-.013.266-.107c.44-.177.69-.335.983-.628.305-.303.472-.568.634-1.005l.105-.283V4.62l-.114-.298a4.68 4.68 0 00-.23-.506c-.176-.315-.68-.782-1.029-.953-.602-.295-.503-.288-4.208-.288h-3.366l.012 1.252zM8.907 21.64c-.008.009-1.437.01-3.174.004l-3.159-.012.249-.299a75.53 75.53 0 001.086-1.288 100.502 100.502 0 011.07-1.271A415.826 415.826 0 006.623 16.8c.032-.038.09-.104.13-.147.04-.043.32-.378.622-.745.303-.366.583-.701.622-.743.039-.043.258-.301.487-.575l.416-.498.012 3.766c.006 2.071.004 3.773-.005 3.782z"/></svg><svg viewBox="0 0 9 8" id="carret-down" xmlns="http://www.w3.org/2000/svg"><path d="M4.5 8L.603.5h7.794L4.5 8z" fill-opacity=".7"/></svg><svg viewBox="0 0 30 27" id="cart" xmlns="http://www.w3.org/2000/svg"><path d="M9.666 17.579h15.94a.88.88 0 00.845-.638l3.516-12.305a.879.879 0 00-.845-1.12H7.639L7.01.688A.88.88 0 006.153 0H.879a.879.879 0 100 1.758h4.569c.11.5 3.006 13.53 3.173 14.28a2.64 2.64 0 00-1.59 2.42 2.64 2.64 0 002.637 2.636h15.938a.879.879 0 100-1.758H9.668a.88.88 0 01-.002-1.757zm18.29-12.305L24.944 15.82h-14.57L8.03 5.274h19.928zM8.79 23.731a2.64 2.64 0 002.636 2.637 2.64 2.64 0 002.637-2.637 2.64 2.64 0 00-2.637-2.637 2.64 2.64 0 00-2.637 2.637zm2.636-.879a.88.88 0 010 1.758.88.88 0 010-1.758zm9.784.879a2.64 2.64 0 002.638 2.637 2.64 2.64 0 002.637-2.637 2.64 2.64 0 00-2.637-2.637 2.64 2.64 0 00-2.637 2.637zm2.638-.879a.88.88 0 010 1.758.88.88 0 010-1.758z"/></svg><svg viewBox="0 0 52.24 52.24" id="close_big" xmlns="http://www.w3.org/2000/svg"><path d="M1.16 6.67a3.896 3.896 0 015.51-5.51l19.45 19.45L45.57 1.16a3.896 3.896 0 115.51 5.51L31.63 26.12l19.45 19.45a3.896 3.896 0 11-5.51 5.51L26.12 31.63 6.67 51.08a3.896 3.896 0 11-5.51-5.51l19.45-19.45z"/></svg><svg viewBox="0 0 31 7" id="dots" xmlns="http://www.w3.org/2000/svg"><circle cx="3.5" cy="3.5" r="3.5"/><circle cx="15.5" cy="3.5" r="3.5"/><circle cx="27.5" cy="3.5" r="3.5"/></svg><svg viewBox="0 0 64 64" id="f-1" xmlns="http://www.w3.org/2000/svg"><path d="M54.572 6.803l-2.297-2.28a1.04 1.04 0 00-1.773.728v10.605a20.768 20.768 0 00-7.267-1.329c-7.57 0-14.662 3.335-19.456 9.154l-2.112 2.562a1.028 1.028 0 00-.234.652c0 3.978 3.26 7.215 7.267 7.215h14.535a8.33 8.33 0 013.085.596c-.318 7.11-6.228 12.803-13.467 12.803H28.7v-1.03c0-3.978-3.26-7.215-7.267-7.215-.573 0-1.038.46-1.038 1.03v5.154c0 2.626 1.425 4.921 3.543 6.184-2.118 1.263-3.543 3.558-3.543 6.184v5.153c0 .57.465 1.03 1.038 1.03 4.007 0 7.267-3.236 7.267-7.214v-1.03h14.535c11.449 0 20.764-9.248 20.764-20.614v-5.744c0-8.535-3.348-16.56-9.427-22.594zM24.094 29.246a8.14 8.14 0 003.39.741h3.292v-2.06h-3.291a6.038 6.038 0 01-3.566-1.161l1.467-1.781a23.022 23.022 0 0116.427-8.351l.499.496c1.934 1.921 3 4.473 3 7.189 0 2.715-1.066 5.267-3.001 7.189l-.545.54H28.7a5.193 5.193 0 01-4.606-2.802zM22.47 45.448v-4.019c2.366.48 4.153 2.56 4.153 5.05v4.018c-2.366-.478-4.153-2.56-4.153-5.05zm4.153 11.337c0 2.49-1.787 4.571-4.153 5.05v-4.02c0-2.488 1.787-4.57 4.153-5.048v4.018zm16.61-3.092H28.7V49.57h4.153c7.993 0 14.593-6.012 15.467-13.719 1.955 1.51 3.22 3.861 3.22 6.505v1.03h2.077v-1.03c0-5.245-3.97-9.58-9.082-10.218a12.057 12.057 0 002.825-7.254c5.252.507 9.371 4.913 9.371 10.257v6.184h2.077V35.14c0-6.507-5.09-11.843-11.522-12.321a12.05 12.05 0 00-2.617-6.16c9.634.732 17.254 8.732 17.254 18.48 0 10.23-8.384 18.553-18.688 18.553zm9.345-36.935V7.739l.525.522c4.81 4.774 7.781 10.88 8.587 17.479a20.79 20.79 0 00-9.112-8.982z"/><path d="M34.11 20.395v2.11c.581 0 1.055.473 1.055 1.055s-.474 1.055-1.055 1.055a1.056 1.056 0 01-1.055-1.055h-2.11a3.169 3.169 0 003.165 3.165 3.169 3.169 0 003.165-3.165 3.169 3.169 0 00-3.165-3.165zM4.922 30.945h2.11v2.11h-2.11v-2.11zM9.145 4.22h2.11v1.406h-2.11V4.22zm-4.223 7.736h2.11v2.11h-2.11v-2.11zm8.441 0h2.11v2.11h-2.11v-2.11zm-8.441 9.143h2.11v2.11h-2.11v-2.11zm8.441 0h2.11v2.11h-2.11v-2.11z"/><path d="M18.312 27.994a6.14 6.14 0 002.084-4.582c0-1.824-.81-3.46-2.084-4.58a6.14 6.14 0 002.084-4.581c0-2.818-1.924-5.19-4.528-5.89a6.05 6.05 0 00.449-2.253c0-3.369-2.745-6.108-6.12-6.108C6.824 0 4.08 2.74 4.08 6.108c0 .784.164 1.54.449 2.252C1.924 9.061 0 11.433 0 14.251a6.14 6.14 0 002.084 4.582A6.083 6.083 0 000 23.413a6.14 6.14 0 002.083 4.581A6.086 6.086 0 000 32.574c0 3.368 2.744 6.107 6.119 6.107a6.09 6.09 0 004.076-1.565 6.063 6.063 0 004.082 1.565c3.374 0 6.119-2.739 6.119-6.107 0-1.824-.81-3.46-2.084-4.58zm-1.884-1.13a6.063 6.063 0 00-6.234 1.168l-.041-.038a6.139 6.139 0 002.084-4.582 6.065 6.065 0 00-.755-2.935 4.027 4.027 0 012.795-1.136 4.08 4.08 0 014.079 4.071c0 1.428-.73 2.711-1.928 3.452zm1.928-12.613c0 1.428-.73 2.71-1.927 3.452a6.07 6.07 0 00-6.233 1.169l-.043-.04a6.139 6.139 0 002.084-4.581 6.065 6.065 0 00-.755-2.935 4.027 4.027 0 012.795-1.137 4.08 4.08 0 014.079 4.072zM10.198 2.036a4.08 4.08 0 014.079 4.072c0 .739-.206 1.443-.578 2.07a6.042 6.042 0 00-3.503 1.532 6.093 6.093 0 00-3.501-1.537 4.024 4.024 0 01-.576-2.065 4.08 4.08 0 014.079-4.072zM2.04 14.25a4.08 4.08 0 018.158 0A4.03 4.03 0 018.27 17.7a6.086 6.086 0 00-2.151-.396c-.758 0-1.482.144-2.152.397A4.032 4.032 0 012.04 14.25zm0 9.161a4.08 4.08 0 018.158 0 4.036 4.036 0 01-1.927 3.452 6.07 6.07 0 00-2.152-.398 6.07 6.07 0 00-2.153.398 4.037 4.037 0 01-1.926-3.452zm4.079 13.233a4.08 4.08 0 01-4.08-4.071 4.08 4.08 0 018.159 0 4.08 4.08 0 01-4.08 4.072zm8.158 0a4.026 4.026 0 01-2.795-1.136c.48-.871.755-1.872.755-2.935a6.062 6.062 0 00-.755-2.936 4.027 4.027 0 012.795-1.136 4.08 4.08 0 014.079 4.072 4.08 4.08 0 01-4.08 4.072z"/><path d="M13.363 30.945h2.11v2.11h-2.11v-2.11z"/></svg><svg viewBox="0 0 67 67" id="f-2" xmlns="http://www.w3.org/2000/svg"><path d="M65.673 50.375a16.545 16.545 0 00-12.16-1.974l-2.398.534-.973-6.812 1.61-3.217a18.786 18.786 0 00.464-15.831l-1.723-4.022a18.79 18.79 0 00-16.71-11.385 32.886 32.886 0 00-12.997-4.975L3.363.013a1.06 1.06 0 00-.914.299L.312 2.449c-.24.24-.352.58-.3.914l2.68 17.424a32.855 32.855 0 004.954 12.962v3.39a9.014 9.014 0 004.484 7.777l10.373 6.006a9.003 9.003 0 004.522 1.224c2.559 0 5.058-1.112 6.82-3.189l15.09 2.156-.534 2.399a16.552 16.552 0 001.974 12.16c.193.322.54.517.912.517.021 0 .044 0 .065-.002.397-.023.746-.267.908-.63l4.092-9.205 9.205-4.092a1.064 1.064 0 00.116-1.885zm-28.025-36.87a31.155 31.155 0 018.757 17.513l2.564 17.95-17.95-2.565a31.158 31.158 0 01-17.514-8.756 30.725 30.725 0 01-7.91-13.584c1.35.396 2.746.614 4.18.614 8.217 0 14.902-6.685 14.902-14.903 0-1.433-.218-2.83-.614-4.18a30.735 30.735 0 0113.585 7.91zM22.13 48.247l-5.064-2.932-.877-2.633a33.416 33.416 0 005.455 3.128l.486 2.437zM48.534 19.89l1.246 2.91-4.245-1.764a33.504 33.504 0 00-1.795-3.242l4.621 1.733c.056.123.12.24.172.364zm-1.81 3.945l4.133 1.716c.307.988.502 1.997.62 3.013l-3.745-1.556a33.373 33.373 0 00-1.008-3.173zm3.12 14.117l-.233.467-1.1-7.703c-.057-.393-.147-.78-.217-1.169l3.307 1.375a16.687 16.687 0 01-1.756 7.03zM46.67 16.62l-5.14-1.928A32.587 32.587 0 0039.152 12a33.66 33.66 0 00-1.837-1.699 16.66 16.66 0 019.354 6.319zM3.572 2.198l16.89 2.598c.389.06.768.15 1.152.224.609 1.51.934 3.105.934 4.754 0 7.044-5.73 12.774-12.774 12.774-1.65 0-3.244-.325-4.754-.933-.074-.384-.164-.763-.224-1.152l-1.092-7.097a15.488 15.488 0 008.899 2.795h2.494v-2.129h-2.494a13.375 13.375 0 01-9.382-3.815L2.199 3.572l1.373-1.374zm6.202 34.94v-.473A33.523 33.523 0 0012 39.152c.356.355.738.683 1.11 1.021l1.177 3.532-1.09-.631a6.877 6.877 0 01-3.422-5.935zm14.787 12.404l-.55-2.755c2.167.798 4.411 1.396 6.706 1.724l.446.064a6.775 6.775 0 01-6.602.966zm30.552 5.03c-.24.106-.434.3-.54.54l-3.346 7.53a14.428 14.428 0 01-.747-8.668l.636-2.86 2.86-.636a14.428 14.428 0 018.668.746l-7.531 3.348z"/><path d="M11.902 9.774a2.129 2.129 0 100-4.257 2.129 2.129 0 000 4.257zm17.784 9.268l2.129-2.128c.2-.2.312-.47.312-.753v-4.258h-2.13v3.817l-1.504 1.505h-3.817v2.13h4.258c.282 0 .553-.112.752-.313zm-10.333 9.892v-4.257h-2.129v3.817l-1.505 1.505h-3.817v2.129h4.258c.282 0 .554-.112.753-.312l2.128-2.129c.2-.199.312-.47.312-.753zm7.142-.312l2.128-2.128c.2-.2.312-.47.312-.753v-4.258h-2.128V25.3L25.3 26.805h-3.817v2.13h4.258c.282 0 .554-.112.753-.313zm4.568-2.881h4.257c.282 0 .554-.112.753-.312l2.129-2.129c.2-.199.312-.47.312-.752V18.29h-2.13v3.817l-1.505 1.505h-3.816v2.129zm-5.323 5.322h-2.129v3.817l-1.505 1.505H18.29v2.129h4.258c.282 0 .553-.112.752-.312l2.13-2.129c.2-.199.311-.47.311-.752v-4.258zm9.578 1.064V27.87H33.19v3.817l-1.505 1.505h-3.817v2.129h4.258c.282 0 .553-.112.752-.312l2.13-2.13c.2-.198.311-.47.311-.752zm7.455-3.633l-1.505 1.505h-2.752v2.129h3.193c.282 0 .553-.112.752-.312l2.13-2.129c.2-.199.311-.47.311-.753v-3.193h-2.129v2.753zM30 41.267l-1.505 1.505h-2.753V44.9h3.194c.282 0 .553-.112.752-.312l2.129-2.129c.2-.2.312-.47.312-.753v-3.193h-2.13v2.753zm9.58-3.194l-1.505 1.505h-3.817v2.13h4.258c.282 0 .553-.112.752-.313l2.129-2.128c.2-.2.312-.47.312-.753v-4.258H39.58v3.817z"/></svg><svg viewBox="0 0 63 43" id="f-3" xmlns="http://www.w3.org/2000/svg"><path d="M62.859 27.782a12.695 12.695 0 00-.18-.923c-.728-3.115-2.92-5.853-6.077-7.642v-8.063a1.23 1.23 0 00-.24-.816C51.012 3.17 37.267 0 28.3 0c-3.338 0-6.604.372-9.707 1.106C9.429 3.272 0 9.334 0 18.457v11.795c0 2.893 1.363 5.526 3.647 7.045 4.755 3.166 10.367 4.84 16.228 4.84 3.262 0 6.492-.52 9.602-1.543 7.292-2.4 18.43-3.773 29.786-3.671h.035c2.05 0 3.702-1.64 3.702-3.686v-4.885c0-.206-.051-.4-.141-.57zm-2.66-.694a134.271 134.271 0 00-18.971 1.044l6.432-8.445h1.543c4.641 0 9.736 2.919 10.995 7.4zm-22.444 1.54c-4.372.696-8.19 1.575-11.355 2.616a21.25 21.25 0 01-1.458.42l9.124-11.977h10.5l-6.811 8.942zM54.14 18.096a14.84 14.84 0 00-4.938-.869h-17.21a2.464 2.464 0 01-2.462-2.46 2.464 2.464 0 012.461-2.461H54.14v5.79zm-1.617-8.251H41.566l3.303-4.335c3.146 1.217 5.768 2.706 7.655 4.335zM19.56 3.41a39.913 39.913 0 019.761-.935l-6.627 8.699a1.23 1.23 0 001.958 1.491l7.635-10.022c3.464.306 6.927.994 10.14 2.01l-3.954 5.19h-6.48a4.927 4.927 0 00-4.923 4.923 4.93 4.93 0 003.973 4.829l-9.63 12.639c-3.56.263-7.12-.41-10.209-1.92l7.494-9.834a1.23 1.23 0 10-1.958-1.492L9.054 29.075c-.54-.362-1.06-.753-1.554-1.169-1.814-1.523-3.158-3.2-4.005-4.99L19.56 3.41zm-4.19 1.216l-12.765 15.5a9.934 9.934 0 01-.144-1.669c0-6.718 6.5-11.516 12.909-13.83zm45.17 28.611c0 .683-.551 1.225-1.243 1.225h-.012c-11.614-.103-23.044 1.315-30.578 3.795a28.214 28.214 0 01-8.833 1.418c-5.373 0-10.513-1.53-14.864-4.427-1.596-1.061-2.55-2.93-2.55-4.996v-4.218c3.476 5.075 9.948 8.717 17.445 8.717 6.425 0 7.008-1.97 18.809-3.782 6.125-.94 12.821-1.438 19.364-1.438.824 0 1.647.009 2.461.025v3.681z"/></svg><svg viewBox="0 0 75 75" id="f-4" xmlns="http://www.w3.org/2000/svg"><path d="M67.342 17.897a23.15 23.15 0 00-16.479-6.824H14.24a1.087 1.087 0 00-1.058.82H8.92a2.973 2.973 0 010-5.947h14.046a1.095 1.095 0 100-2.19H8.92a5.164 5.164 0 100 10.327h4.507l.07.46c.058.373.126.74.2 1.105H8.92a6.729 6.729 0 110-13.457h18.465a1.096 1.096 0 000-2.191H8.92a8.92 8.92 0 100 17.839h5.347a21.548 21.548 0 0010.92 12.832 11.58 11.58 0 00-.287 6.753 1.091 1.091 0 002.01.188c.136-.256.165-.555.081-.832a9.568 9.568 0 01.213-5.223c1.182.447 2.4.789 3.642 1.023a11.58 11.58 0 00.22 6.02 1.097 1.097 0 001.033.72 1.128 1.128 0 00.99-.629 1.093 1.093 0 00.042-.835 9.514 9.514 0 01-.107-4.975c.64.056 1.287.086 1.94.086h1.873a11.472 11.472 0 00.782 6.441 1.083 1.083 0 001.459.508 1.085 1.085 0 00.507-1.459 9.42 9.42 0 01-.529-5.49h8.447a9.465 9.465 0 019.458 9.452c0 4.106-2.586 9.765-6.529 14.437-4.274-2.12-10.296-2.629-15.642-1.271a1.095 1.095 0 00-.825 1.1c.009.264.26 5.92 4.314 8.295a22.728 22.728 0 00-3.437 7.858 1.096 1.096 0 001.069 1.335c12.088 0 16.253-7.099 17.582-10.666.063-.028.125-.052.181-.085 6.164-3.38 20.5-12.983 20.5-29.04a23.16 23.16 0 00-6.831-16.485zM15.66 14.212l-.146-.949h31.03c.41 3.753.113 12.587-1.293 17.514H34.964a19.424 19.424 0 01-19.303-16.565zm31.855 16.566c1.326-5.203 1.603-13.507 1.223-17.515h2.124a20.964 20.964 0 0114.515 5.79c-.924 4.785-4.212 12.126-10 14.814a11.595 11.595 0 00-7.862-3.09zm9.389 4.797c5.57-2.939 8.95-9.586 10.275-14.602a20.962 20.962 0 014.802 13.41c0 2.903-.53 5.782-1.561 8.496a14.212 14.212 0 01-11.396 1.31c.08-.587.122-1.178.125-1.77 0-2.462-.787-4.86-2.246-6.844zM37.337 71.944a19.747 19.747 0 013.46-6.668 1.096 1.096 0 00-.475-1.763c-2.948-.983-3.822-4.386-4.073-6.019 4.262-.94 8.71-.552 12.744 1.11a3.48 3.48 0 002.036 5.109c-1.434 3.081-5.03 7.764-13.692 8.23zM52.617 61.5c-.081.045-.167.08-.256.106l-.046.012a1.298 1.298 0 01-1.617-1.263c.004-.337.136-.66.368-.906 3.712-4.023 6.427-8.825 7.533-13.1a17.61 17.61 0 003.197.588h.025a16.243 16.243 0 007.186-.954C64.69 54.07 56.731 59.243 52.619 61.5h-.002z"/><path d="M37.556 27.022h-2.591c-1.044 0-2.086-.1-3.11-.302a1.095 1.095 0 00-.425 2.15c1.165.228 2.349.343 3.535.342h2.591a1.095 1.095 0 100-2.19zm-5.316-9.886a2.973 2.973 0 10-5.947 0 2.973 2.973 0 005.946 0zm-2.974.783a.782.782 0 110-1.564.782.782 0 010 1.564z"/></svg><svg viewBox="0 0 25 23" id="fav" xmlns="http://www.w3.org/2000/svg"><path d="M6.163 1.032L6.038.04l.125.992a6.468 6.468 0 011.794.075A5.791 5.791 0 0110.761 2.6c.09.087.356.358.592.602l.43.443.72.744.718-.746.354-.367c.608-.631.848-.857 1.081-1.042C15.695 1.413 16.875 1 18.162 1c.591 0 1.06.069 1.617.236.354.106.573.195.973.401L21.21.75l-.458.888c1.006.519 1.927 1.435 2.49 2.495 1.12 2.11.989 4.704-.327 6.66-.292.435-.394.556-3.117 3.333l.713.7-.713-.7c-.465.473-1.03 1.051-1.257 1.285l-1.299 1.329-1.303 1.33-1.24 1.27a987.96 987.96 0 00-2.197 2.249l-1.197-1.222-2.37-2.422-1.832-1.877-2.468-2.524a318.554 318.554 0 01-1.973-2.036 17.317 17.317 0 01-.188-.2 6.349 6.349 0 01-1.43-3.362c-.186-1.67.223-3.231 1.198-4.582.204-.283.797-.9 1.077-1.121a5.703 5.703 0 012.844-1.21zm7.013 21.237z"/></svg><svg viewBox="0 0 25 23" id="fav-2" xmlns="http://www.w3.org/2000/svg"><path fill-rule="evenodd" clip-rule="evenodd" d="M6.038.04A6.703 6.703 0 002.7 1.456c-.352.278-1.01.963-1.269 1.321C.31 4.331-.164 6.141.05 8.056a7.349 7.349 0 001.656 3.892c.1.119 1.096 1.151 2.214 2.294a3776.453 3776.453 0 014.3 4.402c.267.271 1.333 1.361 2.37 2.421A229.217 229.217 0 0012.493 23c.018.006.474-.454 1.667-1.68l1.254-1.282 1.24-1.27 1.302-1.33c.491-.5 1.077-1.1 1.302-1.331.225-.232.79-.809 1.253-1.282 2.684-2.736 2.876-2.942 3.234-3.474 1.524-2.267 1.672-5.256.38-7.688-.654-1.233-1.72-2.299-2.915-2.914a5.918 5.918 0 00-1.144-.471A6.252 6.252 0 0018.162 0c-1.518 0-2.915.492-4.127 1.452-.291.23-.572.5-1.18 1.131l-.354.368-.43-.444c-.236-.244-.51-.523-.61-.62A6.79 6.79 0 008.159.127 7.441 7.441 0 006.038.04z"/></svg><svg viewBox="0 0 8 17" id="fb" xmlns="http://www.w3.org/2000/svg"><path d="M5.19 17V9.34h2.36l.35-2.985H5.19V4.45c0-.861.22-1.45 1.36-1.45H8V.32C7.75.288 6.89.2 5.89.2 3.8.2 2.37 1.595 2.37 4.145v2.2H0V9.33h2.37v7.659h2.82v.01z"/></svg><svg viewBox="0 0 22 26" id="i-1" xmlns="http://www.w3.org/2000/svg"><path d="M18.887 11.181c-3.137-3.137-7.537-3.856-9.944-1.68L6.38 7.509l.702-.702a.412.412 0 00.052-.078c.274.133.574.201.879.2.697 0 1.638-.335 2.817-1.485A9.819 9.819 0 0013.165.868a.787.787 0 00-.23-.629.81.81 0 00-.643-.236c-.965.085-2.773.415-4.047 1.658-1.24 1.209-2.01 2.606-2.01 3.646-.008.311.078.617.246.878-.003.004-.008.005-.012.009l-.779.778-.49-.38a.433.433 0 10-.531.683l3.685 2.866a5.415 5.415 0 00-.96 3.812l.001.017c-3.9.503-6.793 3.008-6.793 5.963C.602 23.28 4.295 26 8.835 26c3.108 0 5.949-1.297 7.339-3.32.195.017.39.029.58.029a5.07 5.07 0 003.667-1.417c2.362-2.367 1.674-6.902-1.534-10.11zM8.85 2.281C9.932 1.225 11.562.947 12.29.873a9.214 9.214 0 01-2.065 3.95c-.955.93-1.832 1.345-2.473 1.206l.956-.956a.433.433 0 00-.613-.613l-.976.976a.871.871 0 01-.018-.129c0-.657.541-1.848 1.749-3.026zm6.74 19.717c-1.175 1.905-3.826 3.135-6.755 3.135-4.062 0-7.367-2.332-7.367-5.2 0-2.611 2.766-4.827 6.443-5.154.307-.032.615-.047.924-.046 4.062 0 7.366 2.333 7.366 5.2a3.858 3.858 0 01-.611 2.065zm4.218-1.318a4.258 4.258 0 01-3.152 1.158 4.61 4.61 0 00.412-1.905c0-3.345-3.693-6.066-8.233-6.066-.206 0-.396.006-.578.015v-.009a4.397 4.397 0 011.131-3.613c2.029-2.025 6.015-1.336 8.886 1.534 2.87 2.87 3.559 6.857 1.534 8.886z"/><path d="M19.419 16.466a.433.433 0 00.414-.562 8.724 8.724 0 00-2.172-3.497.433.433 0 00-.613.614 7.848 7.848 0 011.957 3.14.434.434 0 00.414.305zm.571 1.005a.433.433 0 00-.301-.137.428.428 0 00-.448.417 3.141 3.141 0 01-.117.762.433.433 0 10.832.241c.09-.317.14-.643.15-.972a.433.433 0 00-.115-.311zm-6.014.389a.433.433 0 00-.07.609c.097.12.183.246.259.379a.433.433 0 00.753-.43 3.845 3.845 0 00-.333-.489.433.433 0 00-.61-.069zm-1.494-1.499a8.825 8.825 0 00-3.646-.761.433.433 0 100 .866 7.956 7.956 0 013.286.683.433.433 0 10.36-.788zm-7.979.973c-1.195 0-2.167 1.166-2.167 2.6 0 1.434.972 2.6 2.167 2.6 1.194 0 2.166-1.166 2.166-2.6 0-1.434-.972-2.6-2.166-2.6zm0 4.333c-.717 0-1.3-.777-1.3-1.733 0-.956.583-1.733 1.3-1.733.716 0 1.3.777 1.3 1.733 0 .956-.583 1.733-1.3 1.733z"/></svg><svg viewBox="0 0 26 26" id="i-2" xmlns="http://www.w3.org/2000/svg"><path d="M17.333 4.375H15.52a1.305 1.305 0 00-1.22-.908h-2.6a1.306 1.306 0 00-1.22.908c-1.08-.05-2.163-.01-3.237.123a8.573 8.573 0 00-3.938 1.837.114.114 0 00-.013.005c-.01.006-.017.018-.027.026C1.206 8.087.005 10.695 0 13.454v.454c.002 1.328.917 2.46 2.167 2.683v.949c.002 2.255 1.747 4.083 3.9 4.085h4.413c.183.543.671.906 1.22.908h2.6a1.305 1.305 0 001.22-.908h4.413c2.153-.002 3.898-1.83 3.9-4.085v-1.403c1.25-.222 2.165-1.355 2.167-2.683-.002-5.013-3.881-9.077-8.667-9.08zM10.4 20.718H6.067c-1.675-.002-3.032-1.424-3.034-3.178v-2.004c.075-.999.576-2.7 3.081-2.993a17.46 17.46 0 014.286.108v8.067zm0-8.983a17.983 17.983 0 00-4.381-.094c-2.476.289-3.782 1.873-3.861 4.023-.76-.211-1.29-.932-1.291-1.756a8.684 8.684 0 01.673-3.76c.219.412.343.872.364 1.344a.448.448 0 00.394.477.439.439 0 00.469-.397c.01-.107.054-1.042-.747-2.372a8.147 8.147 0 011.386-1.762c.942 1.861.635 2.973.626 3.005a.46.46 0 00.27.565.428.428 0 00.548-.267c.022-.064.488-1.531-.762-3.888a7.592 7.592 0 012.86-1.362c.449 3.423-.13 4.544-.13 4.544a.467.467 0 00.134.626c.203.134.47.071.598-.14.082-.137.752-1.396.25-5.184a21.5 21.5 0 012.6-.054v6.452zm4.333 9.437c0 .25-.194.453-.433.453h-.867v-4.54a.444.444 0 00-.433-.453.444.444 0 00-.433.454v4.54H11.7a.444.444 0 01-.433-.454V4.829c0-.251.194-.454.433-.454h.867V15.27c0 .25.194.454.433.454.24 0 .433-.203.433-.454V4.375h.867c.24 0 .433.203.433.454v16.343zm8.234-3.632c-.002 1.754-1.36 3.176-3.034 3.178H15.6v-7.345c3.058.263 5.944-.328 6.895.656.598.617.472 1.74.472 3.51zm.847-2.323c-.291-3.694-3.95-2.378-8.214-2.755v-7.18c1.798 0 2.78-.09 4.285.455-.213 3.98-1.1 5.096-1.131 5.13a.47.47 0 00.006.642.42.42 0 00.613-.007c.116-.122 1.094-1.271 1.36-5.4a7.742 7.742 0 012.56 2.089c-.267 2.406-.978 3.047-1.01 3.074a.468.468 0 00-.111.632.421.421 0 00.602.116c.096-.067.843-.656 1.24-2.764a8.39 8.39 0 011.12 4.205c-.002.835-.546 1.563-1.32 1.763z"/></svg><svg viewBox="0 0 26 26" id="i-3" xmlns="http://www.w3.org/2000/svg"><path d="M11.144 21.643c-.894 0-1.62.727-1.62 1.62v1.116c0 .894.727 1.621 1.62 1.621.894 0 1.62-.727 1.62-1.62v-1.116a1.62 1.62 0 00-1.62-1.62zm.859 2.736a.86.86 0 01-1.718 0v-1.115a.86.86 0 011.718 0v1.116z"/><path d="M25.238 5.732c.09-.7.129-1.411.11-2.131A3.647 3.647 0 0023.72.637a3.665 3.665 0 00-3.377-.394L5.898 5.683a.38.38 0 10.268.713L20.611.956a2.912 2.912 0 012.683.313 2.894 2.894 0 011.293 2.352 13.034 13.034 0 01-8.431 12.52 13.033 13.033 0 01-14.597-3.846 2.893 2.893 0 01-.58-2.62 2.913 2.913 0 011.81-2.007l1.968-.741a.38.38 0 00-.268-.713l-1.969.742A3.665 3.665 0 00.243 9.48a3.647 3.647 0 00.731 3.302c.46.553.96 1.062 1.488 1.527 1.062 2.944 3.032 4.262 3.032 4.262v.774a.38.38 0 10.762 0v-2.67c.83.346 1.69.61 2.57.788-.49.133-.852.582-.852 1.114v2.979a.86.86 0 01-1.718 0v-.652a.38.38 0 10-.762 0v.652c0 .893.727 1.62 1.62 1.62.894 0 1.621-.727 1.621-1.62v-.813c1.333.596 3.028 1.023 4.976 1.061 1.459.029 2.896-.263 4.282-.785a12.11 12.11 0 006.736-6.233 12.105 12.105 0 00.509-9.054zM5.494 17.562a11.233 11.233 0 01-1.659-2.191c.532.36 1.087.68 1.659.96v1.231zm3.241 2.34v-1.2c.257.14.52.27.788.388v.264c0 .393.14.753.374 1.034-.394-.14-.781-.302-1.162-.486zm1.55-.548v-.777c0-.397-.202-.748-.508-.956a13.56 13.56 0 002.225.11v1.623a.86.86 0 01-1.718 0zm13.755-4.891a11.353 11.353 0 01-6.315 5.844 11.331 11.331 0 01-6.005.561 1.63 1.63 0 00.941-.947 10.4 10.4 0 004.687-.613 10.358 10.358 0 006.395-7.185.38.38 0 10-.739-.184 9.595 9.595 0 01-10.24 7.227v-1.479A13.801 13.801 0 0024.906 7.434a11.346 11.346 0 01-.866 7.029z"/><path d="M15.998 5.97a1.144 1.144 0 000 2.285 1.143 1.143 0 000-2.284zm0 1.524a.381.381 0 110-.762.381.381 0 010 .762zm2.578 1.48a1.143 1.143 0 000 2.285 1.144 1.144 0 000-2.285zm0 1.523a.381.381 0 110-.762.381.381 0 010 .762zm.762-5.887c-.63 0-1.143.512-1.143 1.142a1.144 1.144 0 002.285 0c0-.63-.512-1.143-1.142-1.143zm0 1.523a.381.381 0 110-.763.381.381 0 010 .763zm-4.676 4.745a.38.38 0 100-.762.38.38 0 000 .762zm-2.277-4.387a.38.38 0 100-.762.38.38 0 000 .762zm-.621 2.761a.38.38 0 100-.762.38.38 0 000 .762z"/></svg><svg viewBox="0 0 26 26" id="i-4" xmlns="http://www.w3.org/2000/svg"><path d="M25.42 15.213A34.155 34.155 0 0010.5.262 2.367 2.367 0 008.68.118a2.394 2.394 0 00-1.346 3.439l-.836 2.332v.001l-.376 1.046L2.46 17.152l-.408 1.138-1.93 5.384c-.23.57-.105 1.198.325 1.638a1.505 1.505 0 001.63.36l7.179-2.575a.377.377 0 10-.255-.71l-7.183 2.576a.75.75 0 01-.83-.179.754.754 0 01-.158-.848l.616-1.72c.563.502 1.296.79 2.062.79a3.1 3.1 0 003.095-3.097 3.1 3.1 0 00-3.22-3.093l2.053-5.726c.546.443 1.23.69 1.948.69a3.1 3.1 0 003.095-3.096 3.1 3.1 0 00-3.07-3.095l.486-1.358c1.166.744 2.459 1.332 3.579 2.143a.378.378 0 00.423-.625 30.606 30.606 0 00-3.22-1.9 1.639 1.639 0 01-.713-2.2c.198-.39.536-.678.95-.813.415-.135.856-.1 1.244.098a33.403 33.403 0 0114.59 14.62 1.638 1.638 0 01-.713 2.2c-.79.417-1.805.075-2.193-.714-2.064-4.06-4.923-7.508-8.497-10.248a.378.378 0 00-.46.6c3.719 2.756 6.408 6.447 8.636 10.504l-10.862 3.896a.378.378 0 00.255.71l11.323-4.061a2.374 2.374 0 002.142-.014 2.395 2.395 0 001.042-3.214zM3.507 17.569c1.29 0 2.34 1.05 2.34 2.34a2.343 2.343 0 01-2.34 2.341 2.35 2.35 0 01-1.78-.82l1.029-2.868.343-.958c.134-.023.27-.035.408-.035zM7.383 6.343c1.29 0 2.34 1.05 2.34 2.341 0 1.29-1.05 2.34-2.34 2.34a2.332 2.332 0 01-1.672-.702L6.719 7.51l.413-1.153a2.6 2.6 0 01.25-.013z"/><path d="M9.51 16.739a.378.378 0 00-.388.367 3.1 3.1 0 003.095 3.181 3.1 3.1 0 003.096-3.095 3.1 3.1 0 00-3.096-3.096c-.93 0-1.801.412-2.392 1.13a.378.378 0 00.583.48 2.334 2.334 0 011.81-.855c1.29 0 2.34 1.05 2.34 2.34a2.343 2.343 0 01-2.34 2.341 2.344 2.344 0 01-2.34-2.406.377.377 0 00-.368-.387zm2.4-4.035a.377.377 0 00.11-.016c.056-.018 1.401-.433 1.768-1.488.365-1.05-.416-2.24-.45-2.29a.378.378 0 00-.422-.152c-.057.017-1.402.433-1.768 1.488-.365 1.05.415 2.24.449 2.29.071.107.19.168.314.168zm-.049-2.21c.151-.435.643-.744.996-.905.176.357.37.922.217 1.363-.15.435-.643.743-.995.905-.176-.357-.371-.923-.218-1.363zm4.729 3.112a.377.377 0 10.26-.71 3.72 3.72 0 00-1.23-.208.378.378 0 00-.355.275c-.016.057-.385 1.405.305 2.275.665.824 1.915.843 2.158.845a.377.377 0 00.355-.276c.007-.023.161-.581.1-1.2a.378.378 0 00-.752.076 2.69 2.69 0 01-.018.628c-.392-.043-.966-.181-1.252-.542-.282-.356-.279-.928-.227-1.31.182.02.422.061.657.147zm-10.124-.427a.377.377 0 00-.42.16c-.031.05-.772 1.23-.366 2.258.404 1.025 1.756 1.413 1.814 1.43a.38.38 0 00.42-.161c.031-.05.773-1.229.367-2.258-.404-1.024-1.757-1.413-1.815-1.429zm.951 3.016c-.33-.14-.858-.426-1.035-.875-.165-.42.002-.963.161-1.31.33.14.858.426 1.035.875.166.42-.001.963-.16 1.31z"/></svg><svg viewBox="0 0 26 26" id="i-5" xmlns="http://www.w3.org/2000/svg"><path d="M21.09 9.844c-.828-1.103-1.948-1.882-3.153-2.193-.8-.207-1.77-.19-2.88.051a2.675 2.675 0 01-.117.026c-.07.017-.177.042-.292.072-.15.04-.304.073-.457.101a10.08 10.08 0 00-.013-.35 5.778 5.778 0 011.76-3.715c.9-.879 1.818-1.25 1.827-1.253a.44.44 0 10-.323-.819c-.043.017-1.068.425-2.093 1.417a6.787 6.787 0 00-1.563 2.287c-.222-.628-.557-1.23-1.054-1.724-2-1.993-5.75-1.372-5.971-1.334a.43.43 0 00-.362.358c-.025.142-.54 3.14.756 5.217-1.792.856-3.686 2.976-3.686 6.5 0 1.249.382 2.776 1.075 4.3.68 1.493 1.597 2.857 2.584 3.841 1.075 1.073 2.18 1.64 3.195 1.64.594 0 1.206-.089 1.77-.259a3.145 3.145 0 011.818 0 6.23 6.23 0 001.77.26c.971 0 2.03-.522 3.06-1.51 2.128-2.034 3.794-5.668 3.794-8.273 0-1.774-.5-3.379-1.446-4.64zm-8.982-5.477c.844.84 1.12 2.123 1.183 3.2-.016.199-.024 1.063-.024 1.063L9.919 5.296a.442.442 0 00-.624 0 .44.44 0 000 .622l3.371 3.358c-1.153.062-3.148-.026-4.305-1.178-1.39-1.385-1.237-3.969-1.136-4.863.898-.1 3.493-.253 4.883 1.132zm6.022 17.755c-.863.827-1.71 1.265-2.449 1.265a5.41 5.41 0 01-1.515-.222 3.91 3.91 0 00-.133-.038h-.002a4.03 4.03 0 00-2.193.038 5.41 5.41 0 01-1.515.222c-.776 0-1.665-.479-2.57-1.383-1.908-1.902-3.402-5.205-3.402-7.52 0-3.234 1.769-5.11 3.364-5.786l.022.022c1.21 1.205 3.069 1.453 4.393 1.453.84 0 1.465-.095 1.571-.118.353-.077.344-.24.366-.342l.001-.004.001-.004.001-.005v-.003c.009-.046.068-.39.101-.906a.45.45 0 00.079-.006c.207-.035.415-.08.62-.133l.218-.054c1.82.633 3.622 2.675 3.622 5.886 0 .94-.244 2.063-.704 3.244a.44.44 0 00.411.6.442.442 0 00.412-.281c.5-1.282.764-2.514.764-3.563 0-2.925-1.35-5.006-2.978-6.096.405-.008.773.03 1.101.115 1.896.49 3.936 2.57 3.936 5.981 0 2.354-1.58 5.78-3.522 7.638z"/></svg><svg viewBox="0 0 23 23" id="i-6" xmlns="http://www.w3.org/2000/svg"><path d="M5.04 9.702a.431.431 0 00-.606 0 .432.432 0 000 .606.432.432 0 00.732-.303.433.433 0 00-.126-.303z"/><path d="M21.083 5.09c.21-.08.392-.149.53-.237.157-.099.288-.202.401-.315a2.232 2.232 0 000-3.153 2.232 2.232 0 00-3.468.4c-.088.139-.157.32-.237.53-.077.203-.256.67-.384.75a.284.284 0 01-.063-.033c-.607-.395-1.946-1.025-2.984-.825l-.344-.344a1.588 1.588 0 00-1.131-.469c-.427 0-.829.167-1.13.469a1.588 1.588 0 00-.469 1.13c0 .218.044.43.126.624a2.943 2.943 0 00-2.268.856L5.424 8.71a.428.428 0 00.606.606l2.405-2.405 1.524 1.524a.427.427 0 00.606 0 .428.428 0 000-.606L9.04 6.306l1.227-1.227c.395-.395.92-.613 1.48-.613.559 0 1.084.218 1.48.613l5.092 5.093c.396.395.613.92.613 1.48 0 .558-.217 1.084-.613 1.479l-8.276 8.276a1.374 1.374 0 01-1.94 0l-6.112-6.111a1.374 1.374 0 010-1.941l1.971-1.971a.429.429 0 00-.606-.606l-1.97 1.971a2.23 2.23 0 000 3.152l6.11 6.112a2.222 2.222 0 001.577.652 2.22 2.22 0 001.576-.652l8.276-8.276a2.942 2.942 0 00.857-2.268 1.596 1.596 0 001.753-.342 1.6 1.6 0 000-2.261l-.344-.344c.2-1.039-.43-2.378-.825-2.985a.287.287 0 01-.032-.063c.08-.128.546-.306.748-.383zm-.671 3.863l.519.519a.743.743 0 01-1.05 1.049l-7.003-7.003a.737.737 0 01-.217-.525.74.74 0 011.267-.525l.519.52 5.965 5.965zm-.763-2.948c.313.48.58 1.108.682 1.656L15.74 3.068c.547.102 1.176.37 1.656.682.33.215.61.192.787.134.509-.165.74-.774.927-1.263.056-.146.119-.311.16-.377a1.374 1.374 0 012.139-.253 1.374 1.374 0 01-.253 2.139c-.066.041-.231.104-.377.16-.489.187-1.097.419-1.263.927-.057.177-.08.457.134.788z"/><path d="M16.752 12.612l-1.786-1.786a.429.429 0 00-.606.605l1.786 1.787a.427.427 0 00.606 0 .429.429 0 000-.606zm-2.035 2.038l-1.787-1.787a.428.428 0 10-.605.606l1.786 1.786a.427.427 0 00.606 0 .429.429 0 000-.606zm-2.039 2.037L10.89 14.9a.428.428 0 10-.605.606l1.786 1.787a.427.427 0 00.606 0 .428.428 0 000-.606zm-2.039 2.037l-1.787-1.786a.428.428 0 10-.605.606l1.786 1.786a.427.427 0 00.606 0 .429.429 0 000-.606zM12 9.268a.431.431 0 00-.605 0 .43.43 0 00.303.732.431.431 0 00.428-.429.433.433 0 00-.125-.303z"/></svg><svg viewBox="0 0 26 26" id="i-7" xmlns="http://www.w3.org/2000/svg"><path d="M26 13a3.213 3.213 0 00-1.245-2.524c.46-.497.717-1.148.72-1.825a2.927 2.927 0 00-2.621-2.822 3.68 3.68 0 00-3.335-3.378 3.803 3.803 0 00-3.64-2.45 3.977 3.977 0 00-2.686 1.023 4 4 0 00-2.024-.54 3.804 3.804 0 00-3.64 2.451 3.676 3.676 0 00-3.337 3.41 3.184 3.184 0 00-.616-.06A2.96 2.96 0 00.525 9.133c.003.677.26 1.328.719 1.825A3.213 3.213 0 000 13.484a3.311 3.311 0 001.904 2.944 3.136 3.136 0 00-.333 1.406 3.464 3.464 0 003.575 3.333 3.617 3.617 0 003.193-1.852 7.31 7.31 0 011.534 5.401l-.096.8a.433.433 0 00.43.484h5.585a.433.433 0 00.43-.485l-.069-.572a7.26 7.26 0 011.777-5.693 3.668 3.668 0 002.924 1.433 3.467 3.467 0 003.575-3.333c0-.488-.114-.97-.333-1.406A3.312 3.312 0 0026 13zM15.292 25.047l.01.086h-.632a11.927 11.927 0 01.477-5.503.433.433 0 00-.828-.256 12.792 12.792 0 00-.526 5.76H12.21a11.13 11.13 0 00-.534-5.337.434.434 0 00-.823.273 10.27 10.27 0 01.479 5.063h-.637l.037-.313a8.178 8.178 0 00-3.174-7.474l-.765-.58a4.641 4.641 0 001.795-2.443l2.708 2.707a.433.433 0 00.737-.341l-.299-3.686a6.896 6.896 0 002.97-.096l-.275 3.785a.433.433 0 00.76.314l2.333-2.72a5.896 5.896 0 002.114 2.47l-.88.606a8.132 8.132 0 00-3.464 7.685zm8.036-9.724a.433.433 0 00-.217.667c.291.394.449.87.45 1.36a2.6 2.6 0 01-2.708 2.467 2.782 2.782 0 01-2.308-1.186c.222-.199.457-.384.702-.554l1.33-.917c.146.052.294.098.446.136l.104.026a.433.433 0 10.21-.843l-.105-.024a4.002 4.002 0 01-3.034-3.888.433.433 0 10-.866 0c.001.193.014.385.037.576a.522.522 0 00-.046.043l-1.934 2.257.207-2.822c.382-.15.75-.335 1.099-.551a.434.434 0 00-.46-.737 6.145 6.145 0 01-6.473 0 .434.434 0 10-.46.737c.484.3 1.003.54 1.546.712l.227 2.804-2.395-2.395a4.339 4.339 0 00-.017-.67.433.433 0 10-.862.096 3.495 3.495 0 01-3.083 3.856.433.433 0 00.047.86c.017 0 .033 0 .049-.002a4.35 4.35 0 00.982-.23l1.24.937c.234.178.457.37.667.575A2.699 2.699 0 015.148 20.3a2.6 2.6 0 01-2.708-2.466c0-.49.158-.967.45-1.36a.433.433 0 00-.217-.668 2.496 2.496 0 01-1.806-2.322 2.414 2.414 0 011.288-2.097.433.433 0 00.046-.726 1.91 1.91 0 01-.81-1.528A2.094 2.094 0 013.574 7.15c.316 0 .63.065.92.19a.433.433 0 00.596-.469 2.425 2.425 0 01-.035-.396 2.827 2.827 0 012.82-2.7.433.433 0 00.4-.328 2.91 2.91 0 012.891-2.097c.657-.004 1.298.2 1.832.58.18.13.429.102.576-.063a3.076 3.076 0 012.304-1 2.91 2.91 0 012.891 2.097c.047.185.21.318.4.327a2.828 2.828 0 012.82 2.7c0 .07-.005.139-.01.207-.011.12.03.24.112.33a.405.405 0 00.35.139 2.092 2.092 0 012.166 1.983 1.91 1.91 0 01-.81 1.527.433.433 0 00.045.726A2.413 2.413 0 0125.133 13a2.496 2.496 0 01-1.804 2.322z"/><path d="M8.666 6.934h-.433a2.271 2.271 0 00-2.167 2.36v.095A2.323 2.323 0 004.333 11.7a.433.433 0 00.867 0 1.408 1.408 0 011.3-1.493.433.433 0 00.433-.433v-.482a1.408 1.408 0 011.3-1.492h.433a.433.433 0 000-.867zm9.275-1.271a2.34 2.34 0 00-2.34-1.762.433.433 0 000 .867 1.423 1.423 0 011.517 1.3c0 .239.194.433.433.433a1.423 1.423 0 011.517 1.3.433.433 0 00.866 0 2.243 2.243 0 00-1.993-2.138zm-2.788 2.251a2.742 2.742 0 00-3.357-.017.433.433 0 10.544.674c.669-.49 1.58-.49 2.248 0a.433.433 0 10.565-.657z"/></svg><svg viewBox="0 0 15 15" id="inst" xmlns="http://www.w3.org/2000/svg"><path d="M7.745 2.05c1.858 0 2.072.01 2.809.042.672.032 1.046.139 1.292.235.32.128.555.277.8.523.246.246.395.47.524.8.096.246.213.61.235 1.293.032.737.042.95.042 2.808 0 1.858-.01 2.072-.042 2.808-.032.673-.14 1.047-.235 1.292-.129.32-.278.556-.524.801-.245.246-.47.395-.8.524-.246.096-.609.213-1.292.234-.737.032-.95.043-2.809.043-1.858 0-2.071-.01-2.808-.043-.673-.032-1.046-.138-1.292-.235a2.218 2.218 0 01-.8-.523 2.13 2.13 0 01-.524-.8c-.096-.246-.214-.61-.235-1.293-.032-.736-.043-.95-.043-2.808 0-1.858.011-2.071.043-2.808.032-.673.139-1.047.235-1.292a2.23 2.23 0 01.523-.801 2.13 2.13 0 01.801-.523c.246-.096.609-.214 1.292-.235.726-.032.95-.043 2.808-.043zm0-1.25C5.855.8 5.62.81 4.884.843c-.737.032-1.25.149-1.687.32-.46.181-.844.416-1.228.8-.385.385-.62.77-.801 1.229-.171.437-.289.95-.32 1.687-.033.737-.043.982-.043 2.861 0 1.89.01 2.125.042 2.862.032.737.15 1.25.32 1.687.182.46.417.844.802 1.228.384.385.768.62 1.228.801.437.17.95.288 1.687.32.736.032.982.043 2.861.043 1.89 0 2.125-.01 2.862-.043.737-.032 1.25-.15 1.687-.32.46-.181.844-.416 1.228-.8.384-.385.62-.77.8-1.229.172-.438.29-.95.321-1.687.032-.737.043-.982.043-2.862 0-1.879-.01-2.124-.043-2.861-.032-.737-.15-1.25-.32-1.687a3.438 3.438 0 00-.801-1.228 3.437 3.437 0 00-1.228-.801c-.438-.171-.95-.288-1.687-.32C9.87.81 9.625.8 7.745.8z"/><path d="M7.746 4.185a3.566 3.566 0 100 7.131 3.566 3.566 0 000-7.131zm0 5.883A2.315 2.315 0 015.43 7.751a2.315 2.315 0 012.317-2.317 2.315 2.315 0 012.317 2.317 2.315 2.315 0 01-2.317 2.317zm3.704-5.2a.833.833 0 100-1.666.833.833 0 000 1.666z"/></svg><svg viewBox="0 0 16 18" id="localion" xmlns="http://www.w3.org/2000/svg"><path fill-rule="evenodd" clip-rule="evenodd" d="M10.149.33c2.142.633 3.89 2.313 4.564 4.387.717 2.206.321 4.495-1.084 6.282l-.008.009L7.871 18l-5.76-7.001A6.592 6.592 0 01.676 6.888c0-1.097.278-2.19.804-3.16a7.068 7.068 0 012.145-2.395C5.49.023 7.868-.343 10.149.331zM7.87 16.29l4.877-5.929c1.187-1.512 1.518-3.455.909-5.332-.567-1.746-2.036-3.16-3.834-3.69-1.942-.574-3.961-.266-5.54.843-1.565 1.1-2.5 2.859-2.5 4.706 0 1.264.42 2.465 1.211 3.473l4.877 5.93zM3.996 6.889c0-2.036 1.738-3.692 3.874-3.692s3.873 1.656 3.873 3.692c0 2.036-1.737 3.692-3.873 3.692S3.996 8.924 3.996 6.888zm1.107 0c0 1.454 1.24 2.637 2.767 2.637 1.525 0 2.767-1.183 2.767-2.637S9.395 4.25 7.87 4.25c-1.526 0-2.767 1.184-2.767 2.638z"/></svg><svg data-name="Слой 1" viewBox="0 0 91.67 92.17" id="loop" xmlns="http://www.w3.org/2000/svg"><path d="M61.39 55.06L90.33 84a4.801 4.801 0 11-6.82 6.76l-29.3-29.3a35.35 35.35 0 01-43.92-4 32.82 32.82 0 010-47.68 35.32 35.32 0 0148.85 0 33 33 0 012.25 45.28zm-8.9-38.39a25.82 25.82 0 00-35.67 0 23.39 23.39 0 000 33.91 25.82 25.82 0 0035.67 0 23.39 23.39 0 000-33.91z"/></svg><svg viewBox="0 0 37 35" id="present" xmlns="http://www.w3.org/2000/svg"><path d="M34.688 9.205H27.37c.525-.359.976-.715 1.29-1.034a4.838 4.838 0 000-6.803c-1.81-1.823-4.97-1.825-6.782 0-1.002 1.005-3.663 5.1-3.296 7.837h-.166c.365-2.736-2.294-6.832-3.296-7.837-1.813-1.825-4.971-1.823-6.782 0a4.84 4.84 0 00-.002 6.803c.316.32.767.675 1.292 1.034H2.313A2.316 2.316 0 000 11.517v5.781c0 .639.518 1.157 1.156 1.157h1.157V32.33a2.316 2.316 0 002.312 2.312h27.75a2.316 2.316 0 002.313-2.312V18.455h1.156c.638 0 1.156-.518 1.156-1.157v-5.78a2.316 2.316 0 00-2.313-2.313zM9.977 2.998a2.456 2.456 0 011.753-.73c.66 0 1.281.258 1.75.73 1.56 1.568 3.109 5.573 2.57 6.13 0 0-.097.077-.428.077-1.598 0-4.648-1.66-5.645-2.664a2.522 2.522 0 010-3.543zm7.366 29.332H4.625V18.455h12.719V32.33zm0-16.188H2.312v-4.625h15.031v4.625zm6.174-13.144c.939-.941 2.567-.939 3.504 0a2.522 2.522 0 010 3.543c-.997 1.003-4.047 2.664-5.645 2.664-.33 0-.428-.074-.43-.077-.537-.557 1.012-4.562 2.571-6.13zm8.857 29.332H19.656V18.455h12.719V32.33zm2.313-16.188H19.655v-4.625h15.031v4.625z"/></svg><svg viewBox="0 0 33 34" id="procent" xmlns="http://www.w3.org/2000/svg"><path d="M31.094 17.44a.996.996 0 010-.88l1.268-2.594a2.952 2.952 0 00-1.273-3.92l-2.55-1.353a.996.996 0 01-.519-.713l-.498-2.844a2.952 2.952 0 00-3.334-2.422l-2.86.404a.996.996 0 01-.837-.272L18.416.838a2.951 2.951 0 00-4.121 0l-2.076 2.008a.997.997 0 01-.837.272l-2.86-.404A2.951 2.951 0 005.19 5.136l-.5 2.844a.997.997 0 01-.517.713l-2.55 1.353a2.952 2.952 0 00-1.274 3.92l1.268 2.594c.137.28.137.6 0 .88L.348 20.036a2.952 2.952 0 001.273 3.92l2.551 1.353a.996.996 0 01.518.712l.499 2.844a2.95 2.95 0 003.334 2.422l2.859-.404a.996.996 0 01.837.272l2.076 2.008a2.954 2.954 0 004.12 0l2.076-2.008a.997.997 0 01.838-.272l2.859.404a2.951 2.951 0 003.334-2.422l.499-2.844a.997.997 0 01.517-.712l2.55-1.354a2.952 2.952 0 001.274-3.92l-1.268-2.593zm-.924 4.782l-2.55 1.353a2.945 2.945 0 00-1.53 2.106l-.5 2.844a.999.999 0 01-1.128.82l-2.859-.405a2.944 2.944 0 00-2.475.805l-2.076 2.007a.999.999 0 01-1.394 0l-2.075-2.007a2.942 2.942 0 00-2.476-.805l-2.859.405a.999.999 0 01-1.128-.82l-.499-2.844a2.945 2.945 0 00-1.53-2.106l-2.55-1.353a.999.999 0 01-.432-1.326l1.269-2.594a2.945 2.945 0 000-2.603l-1.269-2.595a.999.999 0 01.431-1.326l2.551-1.353a2.945 2.945 0 001.53-2.106l.499-2.844a.999.999 0 011.128-.82l2.859.405a2.945 2.945 0 002.476-.804l2.075-2.008a.999.999 0 011.394 0l2.075 2.008c.662.64 1.565.933 2.476.804l2.86-.404a.999.999 0 011.127.82l.499 2.843c.16.907.717 1.675 1.53 2.106l2.55 1.353a1 1 0 01.432 1.326L29.333 15.7a2.945 2.945 0 000 2.603l1.268 2.594a.999.999 0 01-.431 1.326z"/><path d="M23.518 9.836a.98.98 0 00-1.387 0L9.19 22.777a.98.98 0 001.386 1.387l12.942-12.942a.98.98 0 000-1.386zm-11.083-1.66A3.6 3.6 0 008.84 11.77a3.6 3.6 0 003.595 3.595 3.6 3.6 0 003.595-3.595 3.6 3.6 0 00-3.595-3.595zm0 5.23a1.636 1.636 0 01-1.634-1.635c0-.901.733-1.634 1.634-1.634.901 0 1.634.733 1.634 1.634 0 .901-.733 1.634-1.634 1.634zm7.844 5.229a3.6 3.6 0 00-3.595 3.595 3.6 3.6 0 003.595 3.595 3.6 3.6 0 003.595-3.595 3.6 3.6 0 00-3.595-3.595zm0 5.229a1.636 1.636 0 01-1.634-1.634c0-.901.733-1.634 1.634-1.634.9 0 1.634.733 1.634 1.634 0 .901-.733 1.634-1.634 1.634z"/></svg><svg viewBox="0 0 140 139" id="sale" xmlns="http://www.w3.org/2000/svg"><path d="M68.284 1.197a3 3 0 013.432 0l8.749 6.1a3 3 0 002.427.455l10.362-2.53a3 3 0 013.2 1.24l5.955 8.85a3 3 0 002.099 1.3l10.576 1.386a3 3 0 012.537 2.312l2.355 10.403c.19.84.732 1.557 1.488 1.97l9.361 5.113a2.999 2.999 0 011.53 3.072l-1.562 10.551a3 3 0 00.676 2.375l6.883 8.149a3 3 0 01.316 3.417l-5.268 9.275a3.003 3.003 0 00-.228 2.459l3.474 10.084a2.998 2.998 0 01-.939 3.301l-8.262 6.746a3.002 3.002 0 00-1.101 2.21l-.404 10.659a3 3 0 01-2.068 2.739l-10.141 3.305a3 3 0 00-1.825 1.663l-4.227 9.793a3 3 0 01-2.918 1.807l-10.65-.581a3 3 0 00-2.303.892l-7.479 7.605a3 3 0 01-3.373.63l-9.721-4.389a2.996 2.996 0 00-2.47 0l-9.72 4.389a3 3 0 01-3.374-.63l-7.48-7.605a3 3 0 00-2.302-.892l-10.65.581a3 3 0 01-2.918-1.807l-4.227-9.793a3.002 3.002 0 00-1.825-1.663l-10.141-3.305a3 3 0 01-2.068-2.739l-.404-10.659a3 3 0 00-1.1-2.21l-8.263-6.746a3 3 0 01-.94-3.3l3.475-10.085a3 3 0 00-.228-2.459L1.332 65.36a3 3 0 01.317-3.417l6.882-8.149a3 3 0 00.676-2.375L7.645 40.868a3 3 0 011.53-3.072l9.361-5.113a3 3 0 001.488-1.97l2.355-10.403a3 3 0 012.537-2.312l10.576-1.386a3 3 0 002.099-1.3l5.954-8.85a3 3 0 013.2-1.24l10.363 2.53a3 3 0 002.427-.454l8.749-6.101z"/></svg><svg viewBox="0 0 16 15" id="star-1" xmlns="http://www.w3.org/2000/svg"><path d="M7.912 0l2.208 4.787 5.235.62-3.87 3.58 1.027 5.17-4.6-2.574-4.6 2.575 1.027-5.171-3.87-3.58 5.235-.62L7.912 0z"/></svg><svg viewBox="0 0 16 15" id="star-2" xmlns="http://www.w3.org/2000/svg"><path d="M8.174 1.194l1.754 3.802.117.255.278.033 4.159.493-3.075 2.843-.206.19.055.274.816 4.108-3.654-2.046-.244-.136-.244.136-3.655 2.046.816-4.108.055-.274-.205-.19-3.075-2.843 4.159-.493.278-.033.117-.255 1.754-3.802z" stroke="#E2B061"/></svg><svg viewBox="0 0 25 24" id="user" xmlns="http://www.w3.org/2000/svg"><path d="M21.339 15.404a12.554 12.554 0 00-4.75-2.84c1.894-1.243 3.138-3.324 3.138-5.676C19.727 3.09 16.485 0 12.5 0 8.515 0 5.273 3.09 5.273 6.888c0 2.352 1.245 4.433 3.138 5.676a12.554 12.554 0 00-4.75 2.84C1.301 17.654 0 20.646 0 23.829h1.953c0-5.544 4.731-10.053 10.547-10.053 5.816 0 10.547 4.51 10.547 10.053H25c0-3.183-1.3-6.175-3.661-8.425zm-8.839-3.49c-2.908 0-5.273-2.255-5.273-5.026 0-2.772 2.365-5.026 5.273-5.026 2.908 0 5.273 2.254 5.273 5.026 0 2.771-2.365 5.026-5.273 5.026z"/></svg><svg viewBox="0 0 20 20" id="whatsap" xmlns="http://www.w3.org/2000/svg"><path d="M13.95 11.794l-.008.058c-1.71-.853-1.889-.966-2.111-.634-.153.23-.598.751-.733.904-.135.153-.27.164-.503.059-.233-.117-.98-.361-1.87-1.156a6.996 6.996 0 01-1.29-1.612c-.23-.393.247-.448.68-1.272.077-.164.037-.292-.017-.408-.059-.117-.522-1.262-.719-1.718-.186-.448-.375-.39-.521-.39-.448-.04-.777-.033-1.065.266-1.254 1.379-.937 2.804.135 4.317 2.111 2.764 3.234 3.27 5.294 3.978a3.233 3.233 0 001.462.095c.445-.07 1.375-.562 1.568-1.109.197-.547.197-1.002.138-1.108-.054-.106-.208-.164-.44-.27z"/><path d="M16.297 3.35C10.315-2.432.42 1.76.417 9.916c0 1.63.426 3.22 1.239 4.623l-1.32 4.795L5.26 18.05c6.148 3.322 13.74-1.09 13.743-8.126a9.169 9.169 0 00-2.72-6.541l.014-.033zm1.152 6.548c-.007 5.936-6.522 9.643-11.677 6.614l-.28-.168-2.918.758.784-2.836-.186-.292C-.036 8.87 3.65 2.198 9.724 2.198c2.067 0 4.003.802 5.461 2.26a7.619 7.619 0 012.264 5.44z"/></svg></svg>