<svg width="27" height="22" viewBox="0 0 27 22" fill="none" xmlns="http://www.w3.org/2000/svg">
    <path d="M12.7033 21.5881L4.71523 4.25374V18.0207C4.71523 19.2896 4.85916 20.0797 5.12303 20.391C5.50684 20.8219 6.08256 21.0374 6.89816 21.0374H7.61781V21.5881H0.469301V21.0374H1.18895C2.05253 21.0374 2.67622 20.7741 3.03605 20.2473C3.25194 19.9121 3.37188 19.1939 3.37188 18.0207V4.565C3.37188 3.65518 3.27593 2.98479 3.06004 2.57776C2.91611 2.29045 2.65224 2.02709 2.26842 1.83555C1.88461 1.64401 1.2849 1.54824 0.445312 1.54824V0.997559H6.29845L13.7828 17.1109L21.1472 0.997559H27.0003V1.54824H26.2807C25.3931 1.54824 24.7694 1.8116 24.4096 2.33834C24.1937 2.67353 24.0738 3.39181 24.0738 4.565V18.0207C24.0738 19.2896 24.2177 20.0797 24.5056 20.391C24.8894 20.8219 25.4651 21.0374 26.2807 21.0374H27.0003V21.5881H18.2446V21.0374H18.9643C19.8518 21.0374 20.4755 20.7741 20.8114 20.2473C21.0273 19.9121 21.1472 19.1939 21.1472 18.0207V4.25374L13.1831 21.5881H12.7033Z" fill="white"/>
</svg>
