<svg width="60" height="60" viewBox="0 0 60 60" fill="none" xmlns="http://www.w3.org/2000/svg">
<path d="M30.002 17.9568C30.3741 17.9568 30.6758 17.6551 30.6758 17.283V16.294C30.6758 15.9218 30.3741 15.6201 30.002 15.6201C29.6298 15.6201 29.3281 15.9218 29.3281 16.294V17.283C29.3281 17.6551 29.6298 17.9568 30.002 17.9568Z" fill="#58595B"/>
<path d="M40.1309 19.8478C39.8678 19.5846 39.4411 19.5845 39.178 19.8478L38.4787 20.547C38.2155 20.8102 38.2154 21.2369 38.4786 21.5C38.6102 21.6316 38.7826 21.6974 38.9551 21.6974C39.1275 21.6974 39.3001 21.6316 39.4316 21.5001L40.1309 20.8008C40.394 20.5376 40.394 20.1109 40.1309 19.8478Z" fill="#58595B"/>
<path d="M42.6426 29.3267C42.2704 29.3267 41.9688 29.6284 41.9688 30.0005C41.9688 30.3726 42.2704 30.6743 42.6426 30.6743H43.6316C44.0038 30.6743 44.3054 30.3727 44.3054 30.0005C44.3054 29.6283 44.0038 29.3267 43.6316 29.3267H42.6426Z" fill="#58595B"/>
<path d="M39.3808 38.4795C39.1176 38.2165 38.691 38.2165 38.4278 38.4795C38.1647 38.7428 38.1647 39.1694 38.4278 39.4325L39.1271 40.1318C39.2587 40.2633 39.4312 40.3291 39.6036 40.3291C39.776 40.3291 39.9485 40.2633 40.0802 40.1318C40.3433 39.8685 40.3433 39.4419 40.0802 39.1788L39.3808 38.4795Z" fill="#58595B"/>
<path d="M29.2539 42.6436V43.6326C29.2539 44.0048 29.5556 44.3064 29.9277 44.3064C30.2999 44.3064 30.6016 44.0048 30.6016 43.6326V42.6436C30.6016 42.2713 30.3 41.9697 29.9277 41.9697C29.5555 41.9697 29.2539 42.2713 29.2539 42.6436Z" fill="#58595B"/>
<path d="M20.4944 38.4277L19.795 39.127C19.5319 39.3901 19.5319 39.8168 19.795 40.0799C19.9266 40.2115 20.0991 40.2773 20.2715 40.2773C20.4439 40.2773 20.6164 40.2115 20.7479 40.08L21.4473 39.3807C21.7104 39.1175 21.7104 38.6909 21.4473 38.4278C21.1842 38.1647 20.7575 38.1647 20.4944 38.4277Z" fill="#58595B"/>
<path d="M16.2949 29.2529C15.9228 29.2529 15.6211 29.5546 15.6211 29.9268C15.6211 30.299 15.9228 30.6006 16.2949 30.6006H17.2839C17.6561 30.6006 17.9578 30.299 17.9578 29.9268C17.9578 29.5546 17.6561 29.2529 17.2839 29.2529H16.2949Z" fill="#58595B"/>
<path d="M21.4981 20.4948L20.7987 19.7955C20.5355 19.5323 20.109 19.5324 19.8458 19.7955C19.5826 20.0586 19.5827 20.4853 19.8458 20.7485L20.5451 21.4477C20.6767 21.5793 20.8492 21.6451 21.0216 21.6451C21.194 21.6451 21.3665 21.5793 21.4981 21.4477C21.7613 21.1846 21.7612 20.758 21.4981 20.4948Z" fill="#58595B"/>
<path d="M31.8077 31.6862L36.6074 34.1542C36.9403 34.3255 37.3455 34.1922 37.5148 33.8632C37.6851 33.5322 37.5546 33.126 37.2237 32.9557L32.4257 30.4885C32.4575 30.3305 32.4744 30.1671 32.4744 29.9999C32.4744 28.8703 31.7126 27.9159 30.676 27.6218V20.7534C30.676 20.3813 30.3743 20.0796 30.0021 20.0796C29.63 20.0796 29.3283 20.3813 29.3283 20.7534V27.6218C28.506 27.8551 27.8573 28.5038 27.6239 29.3261H24.2793C23.9072 29.3261 23.6055 29.6278 23.6055 29.9999C23.6055 30.3721 23.9072 30.6738 24.2793 30.6738H27.6239C27.9181 31.7104 28.8725 32.4723 30.0021 32.4723C30.714 32.4724 31.3563 32.1695 31.8077 31.6862ZM30.002 31.1247C29.3819 31.1247 28.8774 30.6202 28.8774 30C28.8774 29.3799 29.3818 28.8754 30.002 28.8754C30.6221 28.8754 31.1266 29.3798 31.1266 30C31.1267 30.6202 30.6221 31.1247 30.002 31.1247Z" fill="#58595B"/>
<path d="M47.399 29.3252C47.77 29.2968 48.0478 28.973 48.0195 28.6018C47.6727 24.0743 45.6447 19.8715 42.3088 16.7675C38.9554 13.6472 34.5846 11.9287 30.0013 11.9287C20.0366 11.9287 11.9297 20.0355 11.9297 30.0003C11.9297 39.965 20.0366 48.0718 30.0013 48.0718C39.4256 48.0718 47.2984 40.8119 48.0194 31.3989C48.0477 31.0278 47.77 30.704 47.3989 30.6755C47.0294 30.6478 46.704 30.9249 46.6756 31.296C46.0101 39.9874 38.7407 46.7242 30.0013 46.7242C20.7796 46.7242 13.2774 39.2219 13.2774 30.0003C13.2774 20.7787 20.7796 13.2764 30.0013 13.2764C34.2426 13.2764 38.2875 14.8666 41.3907 17.7541C44.478 20.6268 46.3549 24.5158 46.6756 28.7048C46.704 29.0757 47.0266 29.3542 47.399 29.3252Z" fill="#E2B061"/>
<path d="M46.2628 13.7366C41.9186 9.39238 36.1428 7 29.9992 7C25.584 7 21.2948 8.25459 17.5952 10.6283C17.282 10.8293 17.191 11.246 17.3919 11.5593C17.5929 11.8724 18.0096 11.9635 18.323 11.7626C21.8049 9.52849 25.8425 8.34767 29.9992 8.34767C35.7828 8.34767 41.2202 10.5999 45.3098 14.6895C49.3994 18.7791 51.6517 24.2165 51.6517 30.0002C51.6517 41.9668 41.9675 51.6526 29.9992 51.6526C27.8606 51.6526 25.7455 51.3403 23.7126 50.7246C23.3564 50.6166 22.9802 50.8179 22.8724 51.1742C22.7645 51.5304 22.9657 51.9065 23.3219 52.0145C25.4816 52.6686 27.7282 53.0003 29.9992 53.0003C42.7107 53.0003 52.9993 42.7134 52.9993 30.0002C52.9993 23.8566 50.6069 18.0808 46.2628 13.7366Z" fill="#58595B"/>
<path d="M21.2633 49.816C13.4174 46.3515 8.34767 38.5733 8.34767 30C8.34767 23.5215 11.2147 17.4359 16.2135 13.3035C16.5003 13.0664 16.5407 12.6417 16.3035 12.3548C16.0665 12.0681 15.6418 12.0278 15.3548 12.2648C10.0453 16.6541 7 23.1183 7 30C7 39.1067 12.385 47.3688 20.7189 51.049C20.8074 51.088 20.8998 51.1065 20.9907 51.1065C21.2495 51.1065 21.4962 50.9567 21.6075 50.7047C21.7578 50.3643 21.6038 49.9664 21.2633 49.816Z" fill="#58595B"/>
</svg>
