<svg width="60" height="60" viewBox="0 0 60 60" fill="none" xmlns="http://www.w3.org/2000/svg">
<path d="M44.4744 17.5184C44.048 16.5903 43.5304 15.6966 42.9354 14.8621C42.3457 14.0354 41.6751 13.2585 40.9417 12.5538C40.2067 11.8483 39.4037 11.2089 38.5525 10.6529C37.6927 10.0909 36.7763 9.60875 35.8297 9.21945C33.8601 8.41078 31.7717 8 29.6241 8C27.4189 8 25.2798 8.43227 23.2655 9.28305C22.2975 9.69297 21.3646 10.1991 20.4911 10.7887C19.6263 11.373 18.813 12.0434 18.0735 12.7824C17.3341 13.5215 16.6636 14.3345 16.0789 15.199C15.4891 16.0721 14.9828 17.0054 14.5727 17.9722C13.7215 19.9857 13.2891 22.1238 13.2891 24.3281C13.2925 25.5545 13.5289 26.9398 13.9914 28.4462C14.4058 29.7972 14.9956 31.2487 15.7952 32.8841C16.8071 34.9448 18.1293 37.2162 19.7259 39.6336C20.9949 41.556 22.4487 43.5876 24.0453 45.6724C25.5319 47.6125 26.8497 49.2153 27.7494 50.2812H22.5743C22.0995 50.2812 21.7145 50.666 21.7145 51.1406C21.7145 51.6153 22.0995 52 22.5743 52H36.674C37.1488 52 37.5338 51.6153 37.5338 51.1406C37.5338 50.666 37.1488 50.2812 36.674 50.2812H31.4978C32.4895 49.1055 33.9858 47.283 35.6354 45.1044C37.3505 42.8373 38.8843 40.6494 40.1938 38.6006C41.8445 36.0182 43.1624 33.6205 44.1116 31.4738C44.2045 31.2641 44.2096 31.0304 44.1262 30.8164C44.0437 30.6024 43.882 30.4331 43.6723 30.3412C43.5613 30.2922 43.4453 30.2673 43.3249 30.2673C42.9844 30.2673 42.6758 30.4684 42.5382 30.7803C40.4732 35.4613 36.8992 40.5892 34.2649 44.0671C32.7707 46.0402 31.4106 47.7066 30.5336 48.7567C30.219 49.1331 29.9129 49.4949 29.6241 49.8309C28.3362 48.3313 25.0098 44.3533 21.8726 39.747C19.835 36.7573 18.2221 34.0116 17.0778 31.5855C15.7185 28.7152 15.0024 26.205 15.0084 24.3281C15.0084 20.4266 16.5292 16.7579 19.289 13.9976C22.0506 11.239 25.7209 9.71875 29.6241 9.71875H29.6267C37.4822 9.71875 43.8959 15.8598 44.2268 23.6999C44.2466 24.1743 44.6472 24.5421 45.1219 24.5223C45.5956 24.5026 45.9644 24.1012 45.9446 23.6277C45.8543 21.4991 45.3599 19.4434 44.4744 17.5184Z" fill="#58595B"/>
<path d="M38.1329 15.8203C37.5887 15.2763 36.9895 14.7822 36.3524 14.3516C35.7084 13.9168 35.0207 13.5438 34.3079 13.2422C32.8239 12.6148 31.2472 12.2969 29.6223 12.2969C27.9974 12.2969 26.4207 12.6148 24.9368 13.2422C24.224 13.5438 23.5363 13.9168 22.8923 14.3516C22.2553 14.7822 21.656 15.2763 21.1109 15.8203C20.5667 16.3652 20.0724 16.9641 19.6416 17.6009C19.2065 18.2446 18.8334 18.9321 18.5317 19.6445C17.9041 21.1278 17.5859 22.7039 17.5859 24.3281C17.5859 25.9523 17.904 27.5284 18.5317 29.0117C18.8334 29.7241 19.2065 30.4116 19.6416 31.0553C20.0723 31.6921 20.5667 32.2911 21.1109 32.8351C21.656 33.3799 22.2553 33.8741 22.8923 34.3046C23.5363 34.7386 24.2241 35.1124 24.9368 35.4141C26.4207 36.0414 27.9974 36.3594 29.6223 36.3594C31.2472 36.3594 32.824 36.0414 34.3079 35.4141C35.0207 35.1124 35.7084 34.7386 36.3524 34.3046C36.9894 33.8741 37.5887 33.3799 38.1329 32.8351C38.678 32.2911 39.1723 31.6921 39.603 31.0553C40.0372 30.4116 40.4112 29.7241 40.713 29.0117C41.3406 27.5284 41.6587 25.9523 41.6587 24.3281C41.6587 22.7039 41.3406 21.1278 40.713 19.6445C40.4112 18.9321 40.0372 18.2446 39.603 17.6009C39.1723 16.9641 38.6779 16.3652 38.1329 15.8203ZM36.9171 31.6199C34.9681 33.5673 32.3769 34.6406 29.6223 34.6406C26.8676 34.6406 24.2763 33.5673 22.3274 31.6199C20.3792 29.6717 19.3054 27.0816 19.3054 24.3281C19.3054 21.5747 20.3792 18.9845 22.3274 17.0355C24.2764 15.089 26.8677 14.0165 29.6223 14.0156C32.3769 14.0165 34.9681 15.089 36.9171 17.0355C38.8654 18.9845 39.9391 21.5747 39.9391 24.3281C39.9391 27.0816 38.8654 29.6717 36.9171 31.6199Z" fill="#58595B"/>
<path d="M32.3209 20.5658L30.397 16.7246C30.2513 16.4337 29.9538 16.25 29.6283 16.25C29.3027 16.25 29.0052 16.4337 28.8595 16.7246L26.9356 20.5658L22.6285 21.1825C22.3031 21.229 22.0328 21.457 21.932 21.7697C21.8313 22.0824 21.9177 22.4252 22.1547 22.6529L25.2639 25.6392L24.5304 29.8527C24.4744 30.1745 24.6057 30.5002 24.8692 30.6932C25.1328 30.8862 25.483 30.9133 25.773 30.763L29.6283 28.766L33.4835 30.763C33.6081 30.8276 33.7438 30.8595 33.879 30.8595C34.0584 30.8595 34.237 30.8033 34.3873 30.6933C34.6508 30.5002 34.7821 30.1745 34.7261 29.8528L33.9926 25.6393L37.1018 22.6529C37.3388 22.4253 37.4252 22.0825 37.3245 21.7698C37.2238 21.457 36.9534 21.2291 36.628 21.1826L32.3209 20.5658ZM32.4715 24.7165C32.2654 24.9145 32.1711 25.2019 32.2201 25.4835L32.7346 28.4394L30.0237 27.0351C29.8997 26.9708 29.7639 26.9386 29.6282 26.9386C29.4924 26.9386 29.3566 26.9708 29.2326 27.0351L26.5217 28.4394L27.0362 25.4835C27.0852 25.2019 26.991 24.9145 26.7848 24.7165L24.6167 22.6341L27.6247 22.2035C27.9037 22.1635 28.1454 21.9894 28.2716 21.7375L29.6282 19.029L30.9848 21.7375C31.1109 21.9894 31.3527 22.1635 31.6316 22.2035L34.6396 22.6341L32.4715 24.7165Z" fill="#E2B061"/>
<path d="M44.6371 28.3472C45.1119 28.3472 45.4968 27.9624 45.4968 27.4878C45.4968 27.0132 45.1119 26.6284 44.6371 26.6284C44.1623 26.6284 43.7773 27.0132 43.7773 27.4878C43.7773 27.9624 44.1623 28.3472 44.6371 28.3472Z" fill="#58595B"/>
</svg>
