<svg width="166" height="24" viewBox="0 0 166 24" fill="none" xmlns="http://www.w3.org/2000/svg">
<path d="M13.4558 23.1294L4.68714 4.10121V19.2134C4.68714 20.6063 4.84513 21.4736 5.13479 21.8153C5.5561 22.2883 6.18808 22.5249 7.08337 22.5249H7.87334V23.1294H0.0263322V22.5249H0.8163C1.76426 22.5249 2.4489 22.2358 2.84388 21.6576C3.08087 21.2896 3.21253 20.5012 3.21253 19.2134V4.44288C3.21253 3.44416 3.10721 2.70826 2.87022 2.26147C2.71222 1.94608 2.42257 1.65698 2.00125 1.44673C1.57993 1.23647 0.921629 1.13135 0 1.13135V0.526855H6.42507L14.6407 18.2146L22.7247 0.526855H29.1498V1.13135H28.3598C27.3855 1.13135 26.7009 1.42044 26.3059 1.99865C26.0689 2.3666 25.9373 3.15506 25.9373 4.44288V19.2134C25.9373 20.6063 26.0953 21.4736 26.4112 21.8153C26.8326 22.2883 27.4645 22.5249 28.3598 22.5249H29.1498V23.1294H19.5385V22.5249H20.3285C21.3028 22.5249 21.9874 22.2358 22.3561 21.6576C22.5931 21.2896 22.7247 20.5012 22.7247 19.2134V4.10121L13.9824 23.1294H13.4558Z" fill="#58595B"/>
<path d="M43.5953 0.000488281C46.5445 0.000488281 49.0987 1.10433 51.2317 3.3383C53.3909 5.57227 54.4705 8.35816 54.4705 11.696C54.4705 15.1389 53.3909 17.9774 51.2053 20.2639C49.0197 22.5504 46.4129 23.6543 43.3056 23.6543C40.1984 23.6543 37.5652 22.5504 35.4323 20.3427C33.2994 18.1351 32.2461 15.2703 32.2461 11.7485C32.2461 8.1479 33.4837 5.2306 35.9326 2.94407C38.0919 0.972924 40.6461 0.000488281 43.5953 0.000488281ZM43.2793 1.20946C41.2517 1.20946 39.6191 1.97164 38.4078 3.46971C36.8806 5.33573 36.1169 8.06906 36.1169 11.6697C36.1169 15.3492 36.9069 18.2139 38.4868 20.185C39.6981 21.7094 41.3044 22.4453 43.3056 22.4453C45.4386 22.4453 47.2028 21.6043 48.5721 19.9485C49.9677 18.2927 50.6523 15.6645 50.6523 12.1165C50.6523 8.25303 49.8887 5.36201 48.3614 3.46971C47.1502 1.97164 45.4649 1.20946 43.2793 1.20946Z" fill="#58595B"/>
<path d="M80.1634 23.1289H74.107L66.4443 12.5635C65.865 12.5898 65.4173 12.5898 65.0487 12.5898C64.8907 12.5898 64.759 12.5898 64.5747 12.5898C64.3904 12.5898 64.2324 12.5635 64.048 12.5635V19.134C64.048 20.5532 64.206 21.4468 64.522 21.7885C64.9433 22.2879 65.5753 22.5244 66.4179 22.5244H67.3132V23.1289H57.5966V22.5244H58.4393C59.3872 22.5244 60.0719 22.209 60.4932 21.5782C60.7302 21.2366 60.8355 20.4218 60.8355 19.134V4.52123C60.8355 3.10201 60.6775 2.20842 60.3615 1.86675C59.9139 1.36739 59.2819 1.13086 58.4129 1.13086H57.5703V0.526367H65.865C68.2612 0.526367 70.0518 0.710341 71.1841 1.05201C72.3164 1.39367 73.2907 2.05073 74.0806 2.99688C74.8706 3.94303 75.2656 5.04687 75.2656 6.36097C75.2656 7.75392 74.8179 8.96289 73.8963 9.98788C72.9747 11.0129 71.5791 11.7225 69.6831 12.1693L74.3703 18.6609C75.4499 20.159 76.3715 21.1315 77.1352 21.6308C77.8988 22.1302 78.8994 22.4193 80.137 22.577V23.1289H80.1634ZM64.0744 11.5122C64.285 11.5122 64.4694 11.5122 64.6274 11.5122C64.7853 11.5122 64.917 11.5122 65.0223 11.5122C67.1816 11.5122 68.8142 11.0392 69.9201 10.1193C71.0261 9.17314 71.5791 7.99046 71.5791 6.54495C71.5791 5.12572 71.1314 3.99559 70.2625 3.10201C69.3672 2.20842 68.2085 1.78791 66.7339 1.78791C66.0756 1.78791 65.2067 1.89303 64.1007 2.10329V11.5122H64.0744Z" fill="#58595B"/>
<path d="M88.2053 1.76122V10.6971H93.1821C94.4724 10.6971 95.3413 10.5131 95.7627 10.1189C96.342 9.61953 96.658 8.69966 96.7369 7.41184H97.3426V15.2964H96.7369C96.579 14.1926 96.421 13.483 96.263 13.1676C96.0523 12.7734 95.7363 12.4843 95.2887 12.2477C94.841 12.0375 94.1301 11.9061 93.1821 11.9061H88.2053V19.3701C88.2053 20.3689 88.258 20.9733 88.337 21.2099C88.416 21.4201 88.574 21.6041 88.811 21.7355C89.0216 21.8669 89.4693 21.9195 90.0749 21.9195H93.9194C95.2097 21.9195 96.1313 21.8407 96.7106 21.6567C97.2899 21.4727 97.8429 21.131 98.3696 20.6054C99.0542 19.9221 99.7652 18.8708 100.502 17.4778H101.161L99.2122 23.1547H81.7539V22.524H82.5439C83.0705 22.524 83.5972 22.3926 84.0711 22.1298C84.4398 21.9458 84.6768 21.683 84.8084 21.3413C84.9401 20.9733 84.9928 20.2637 84.9928 19.1599V4.46826C84.9928 3.02275 84.8348 2.15545 84.5451 1.81379C84.1501 1.36699 83.4655 1.15674 82.5439 1.15674H81.7539V0.552246H99.2122L99.4755 5.51954H98.8172C98.5802 4.33685 98.3169 3.52211 98.0272 3.07532C97.7376 2.62852 97.3163 2.28686 96.7633 2.05032C96.3156 1.89263 95.5257 1.7875 94.3934 1.7875H88.2053V1.76122Z" fill="#58595B"/>
<path d="M118.843 15.5589H110.074L108.547 19.1333C108.178 20.0006 107.968 20.6576 107.968 21.1044C107.968 21.4461 108.126 21.7615 108.468 22.0243C108.784 22.2871 109.495 22.4448 110.601 22.5237V23.1281H103.465V22.5237C104.413 22.366 105.018 22.1294 105.308 21.8666C105.887 21.341 106.493 20.2371 107.204 18.6076L115.183 0H115.762L123.662 18.8179C124.294 20.3423 124.873 21.3147 125.4 21.7615C125.926 22.2083 126.637 22.4711 127.559 22.5237V23.1281H118.606V22.5237C119.501 22.4711 120.107 22.3397 120.449 22.0769C120.765 21.814 120.923 21.4987 120.923 21.1307C120.923 20.6314 120.712 19.8692 120.265 18.8179L118.843 15.5589ZM118.369 14.3237L114.524 5.17755L110.575 14.3237H118.369Z" fill="#58595B"/>
<path d="M128.654 0.526367H134.816L148.667 17.5045V4.46867C148.667 3.07572 148.509 2.20842 148.193 1.86675C147.771 1.39367 147.139 1.15714 146.244 1.15714H145.454V0.552651H153.354V1.15714H152.564C151.616 1.15714 150.931 1.44624 150.536 2.02444C150.299 2.39239 150.168 3.18085 150.168 4.46867V23.5494H149.562L134.579 5.28341V19.2129C134.579 20.6058 134.737 21.4731 135.027 21.8148C135.448 22.2879 136.106 22.5244 136.975 22.5244H137.765V23.1289H129.866V22.5244H130.655C131.63 22.5244 132.314 22.2353 132.709 21.6571C132.946 21.2891 133.078 20.5007 133.078 19.2129V3.46995C132.42 2.70778 131.919 2.20842 131.577 1.9456C131.235 1.70906 130.734 1.47252 130.076 1.26227C129.76 1.15714 129.26 1.10457 128.602 1.10457V0.526367H128.654Z" fill="#58595B"/>
<path d="M165.576 22.523V23.1275H155.859V22.523H156.649C157.597 22.523 158.256 22.2602 158.677 21.7083C158.94 21.3403 159.072 20.4993 159.072 19.1326V4.51985C159.072 3.36344 158.993 2.62755 158.861 2.2596C158.756 1.9705 158.519 1.73396 158.177 1.54999C157.676 1.28717 157.176 1.15576 156.649 1.15576H155.859V0.55127H165.576V1.15576H164.76C163.838 1.15576 163.153 1.41857 162.732 1.9705C162.442 2.33844 162.311 3.17947 162.311 4.54613V19.1589C162.311 20.3153 162.39 21.0512 162.521 21.4192C162.627 21.7083 162.864 21.9448 163.232 22.1288C163.706 22.3916 164.207 22.523 164.76 22.523H165.576Z" fill="#58595B"/>
</svg>
