<svg width="64" height="20" viewBox="0 0 64 20" fill="none" xmlns="http://www.w3.org/2000/svg">
<path fill-rule="evenodd" clip-rule="evenodd" d="M0.0288148 0.724394C0.0140719 0.741871 0.00199001 0.770851 0.00199001 0.788798C0.00199001 0.806767 0.0140719 0.827332 0.0288148 0.834515C0.0502746 0.844943 0.0502746 0.85018 0.0288148 0.860608C-0.00582137 0.877458 -0.0111863 18.7273 0.0234498 18.7273C0.0353815 18.7273 0.0449097 18.787 0.0449097 18.8615C0.0449097 18.9361 0.0353815 18.9958 0.0234498 18.9958C0.0116469 18.9958 0.00199001 19.0361 0.00199001 19.0853V19.1748H2.70593H5.40987V13.7371C5.40987 10.1268 5.41708 8.29931 5.43133 8.29931C5.44313 8.29931 5.45279 8.28394 5.45279 8.26516C5.45279 8.24636 5.49599 8.18594 5.5488 8.1309L5.64479 8.03078H5.82778C5.93544 8.03078 6.01074 8.04 6.01074 8.05315C6.01074 8.06546 6.03006 8.07553 6.05366 8.07553C6.08051 8.07553 6.09658 8.09046 6.09658 8.11534C6.09658 8.13725 6.11589 8.16968 6.1395 8.18742C6.16311 8.20517 6.18242 8.23759 6.18242 8.2595C6.18242 8.28138 6.19208 8.29931 6.20388 8.29931C6.21568 8.29931 6.22534 8.32952 6.22534 8.36644C6.22534 8.40337 6.235 8.43357 6.2468 8.43357C6.2586 8.43357 6.26826 8.46378 6.26826 8.50071C6.26826 8.53763 6.27792 8.56784 6.28972 8.56784C6.30152 8.56784 6.31118 8.59805 6.31118 8.63497C6.31118 8.6719 6.32084 8.70211 6.33264 8.70211C6.34444 8.70211 6.3541 8.74239 6.3541 8.79162C6.3541 8.84085 6.36376 8.88113 6.37556 8.88113C6.38736 8.88113 6.39702 8.91134 6.39702 8.94826C6.39702 8.98518 6.40668 9.01539 6.41848 9.01539C6.43028 9.01539 6.43994 9.0456 6.43994 9.08253C6.43994 9.11945 6.4496 9.14966 6.4614 9.14966C6.4732 9.14966 6.48286 9.18994 6.48286 9.23917C6.48286 9.2884 6.49251 9.32868 6.50432 9.32868C6.51612 9.32868 6.52578 9.35889 6.52578 9.39581C6.52578 9.43274 6.53543 9.46294 6.54724 9.46294C6.55904 9.46294 6.5687 9.49316 6.5687 9.53008C6.5687 9.567 6.57835 9.59721 6.59016 9.59721C6.60196 9.59721 6.61162 9.62742 6.61162 9.66434C6.61162 9.70127 6.62127 9.73148 6.63308 9.73148C6.64488 9.73148 6.65454 9.77176 6.65454 9.82099C6.65454 9.87022 6.66419 9.9105 6.676 9.9105C6.6878 9.9105 6.69746 9.94071 6.69746 9.97763C6.69746 10.0146 6.70711 10.0448 6.71892 10.0448C6.73072 10.0448 6.74038 10.075 6.74038 10.1119C6.74038 10.1488 6.75003 10.179 6.76184 10.179C6.77364 10.179 6.7833 10.2193 6.7833 10.2685C6.7833 10.3178 6.79295 10.3581 6.80476 10.3581C6.81656 10.3581 6.82622 10.3782 6.82622 10.4028C6.82622 10.4274 6.83587 10.4476 6.84767 10.4476C6.85948 10.4476 6.86913 10.4878 6.86913 10.5371C6.86913 10.5863 6.87879 10.6266 6.89059 10.6266C6.9024 10.6266 6.91205 10.6669 6.91205 10.7161C6.91205 10.7653 6.92171 10.8056 6.93351 10.8056C6.94532 10.8056 6.95497 10.8257 6.95497 10.8504C6.95497 10.875 6.96463 10.8951 6.97643 10.8951C6.98824 10.8951 6.99789 10.9354 6.99789 10.9846C6.99789 11.0339 7.00755 11.0741 7.01935 11.0741C7.03116 11.0741 7.04081 11.1043 7.04081 11.1413C7.04081 11.1782 7.05047 11.2084 7.06227 11.2084C7.07408 11.2084 7.08373 11.2386 7.08373 11.2755C7.08373 11.3125 7.09339 11.3427 7.10519 11.3427C7.117 11.3427 7.12665 11.3829 7.12665 11.4322C7.12665 11.4814 7.13631 11.5217 7.14811 11.5217C7.15992 11.5217 7.16957 11.5519 7.16957 11.5888C7.16957 11.6257 7.17923 11.656 7.19103 11.656C7.20284 11.656 7.21249 11.6862 7.21249 11.7231C7.21249 11.76 7.22215 11.7902 7.23395 11.7902C7.24575 11.7902 7.25541 11.8305 7.25541 11.8797C7.25541 11.929 7.26507 11.9692 7.27687 11.9692C7.28867 11.9692 7.29833 11.9994 7.29833 12.0364C7.29833 12.0733 7.30799 12.1035 7.31979 12.1035C7.33159 12.1035 7.34125 12.1337 7.34125 12.1706C7.34125 12.2076 7.35091 12.2378 7.36271 12.2378C7.37451 12.2378 7.38417 12.2781 7.38417 12.3273C7.38417 12.3765 7.39383 12.4168 7.40563 12.4168C7.41743 12.4168 7.42709 12.4369 7.42709 12.4615C7.42709 12.4862 7.43675 12.5063 7.44855 12.5063C7.46035 12.5063 7.47001 12.5365 7.47001 12.5734C7.47001 12.6104 7.47967 12.6406 7.49147 12.6406C7.50327 12.6406 7.51293 12.6808 7.51293 12.7301C7.51293 12.7793 7.52259 12.8196 7.53439 12.8196C7.54619 12.8196 7.55585 12.8498 7.55585 12.8867C7.55585 12.9236 7.56551 12.9539 7.57731 12.9539C7.58911 12.9539 7.59877 12.9841 7.59877 13.021C7.59877 13.0579 7.60843 13.0881 7.62023 13.0881C7.63203 13.0881 7.64169 13.1284 7.64169 13.1776C7.64169 13.2269 7.65135 13.2671 7.66315 13.2671C7.67495 13.2671 7.68461 13.3074 7.68461 13.3567C7.68461 13.4059 7.69426 13.4462 7.70607 13.4462C7.71787 13.4462 7.72753 13.4663 7.72753 13.4909C7.72753 13.5155 7.73719 13.5357 7.74899 13.5357C7.76079 13.5357 7.77045 13.576 7.77045 13.6252C7.77045 13.6744 7.7801 13.7147 7.79191 13.7147C7.80371 13.7147 7.81337 13.7449 7.81337 13.7818C7.81337 13.8187 7.82302 13.849 7.83483 13.849C7.84663 13.849 7.85629 13.8792 7.85629 13.9161C7.85629 13.953 7.86594 13.9832 7.87775 13.9832C7.88955 13.9832 7.89921 14.0235 7.89921 14.0727C7.89921 14.122 7.90886 14.1622 7.92067 14.1622C7.93247 14.1622 7.94213 14.1925 7.94213 14.2294C7.94213 14.2663 7.95178 14.2965 7.96359 14.2965C7.97539 14.2965 7.98505 14.3167 7.98505 14.3413C7.98505 14.3659 7.9947 14.386 8.00651 14.386C8.01831 14.386 8.02797 14.4263 8.02797 14.4755C8.02797 14.5248 8.03762 14.565 8.04943 14.565C8.06123 14.565 8.07088 14.5953 8.07088 14.6322C8.07088 14.6691 8.08054 14.6993 8.09235 14.6993C8.10415 14.6993 8.1138 14.7396 8.1138 14.7888C8.1138 14.8381 8.12346 14.8783 8.13527 14.8783C8.14707 14.8783 8.15672 14.9085 8.15672 14.9455C8.15672 14.9824 8.16638 15.0126 8.17818 15.0126C8.18999 15.0126 8.19964 15.0327 8.19964 15.0574C8.19964 15.082 8.2093 15.1021 8.2211 15.1021C8.23291 15.1021 8.24256 15.1424 8.24256 15.1916C8.24256 15.2408 8.25222 15.2811 8.26402 15.2811C8.27583 15.2811 8.28548 15.3214 8.28548 15.3706C8.28548 15.4199 8.29514 15.4601 8.30694 15.4601C8.31875 15.4601 8.3284 15.4904 8.3284 15.5273C8.3284 15.5642 8.33806 15.5944 8.34986 15.5944C8.36167 15.5944 8.37132 15.6246 8.37132 15.6615C8.37132 15.6985 8.38098 15.7287 8.39278 15.7287C8.40459 15.7287 8.41424 15.769 8.41424 15.8182C8.41424 15.8674 8.4239 15.9077 8.4357 15.9077C8.44751 15.9077 8.45716 15.9379 8.45716 15.9748C8.45716 16.0118 8.46682 16.042 8.47862 16.042C8.49043 16.042 8.50008 16.0722 8.50008 16.1091C8.50008 16.146 8.50974 16.1762 8.52154 16.1762C8.53334 16.1762 8.543 16.2165 8.543 16.2657C8.543 16.315 8.55266 16.3553 8.56446 16.3553C8.57626 16.3553 8.58592 16.3855 8.58592 16.4224C8.58592 16.4593 8.59558 16.4895 8.60738 16.4895C8.61918 16.4895 8.62884 16.5197 8.62884 16.5567C8.62884 16.5936 8.6385 16.6238 8.6503 16.6238C8.6621 16.6238 8.67176 16.654 8.67176 16.6909C8.67176 16.7278 8.68142 16.758 8.69322 16.758C8.70502 16.758 8.71468 16.7983 8.71468 16.8476C8.71468 16.8968 8.72434 16.9371 8.73614 16.9371C8.74794 16.9371 8.7576 16.9572 8.7576 16.9818C8.7576 17.0064 8.76726 17.0266 8.77906 17.0266C8.79086 17.0266 8.80052 17.0669 8.80052 17.1161C8.80052 17.1653 8.81018 17.2056 8.82198 17.2056C8.83378 17.2056 8.84344 17.2358 8.84344 17.2727C8.84344 17.3097 8.8531 17.3399 8.8649 17.3399C8.8767 17.3399 8.88636 17.3701 8.88636 17.407C8.88636 17.4439 8.89602 17.4741 8.90782 17.4741C8.91962 17.4741 8.92928 17.5144 8.92928 17.5636C8.92928 17.6129 8.93894 17.6532 8.95074 17.6532C8.96254 17.6532 8.9722 17.6934 8.9722 17.7427C8.9722 17.7919 8.98186 17.8322 8.99366 17.8322C9.00546 17.8322 9.01512 17.8523 9.01512 17.8769C9.01512 17.9015 9.02477 17.9217 9.03658 17.9217C9.04838 17.9217 9.05804 17.962 9.05804 18.0112C9.05804 18.0604 9.06769 18.1007 9.0795 18.1007C9.0913 18.1007 9.10096 18.1309 9.10096 18.1678C9.10096 18.2048 9.11061 18.235 9.12242 18.235C9.13422 18.235 9.14388 18.2652 9.14388 18.3021C9.14388 18.339 9.15353 18.3692 9.16534 18.3692C9.17714 18.3692 9.1868 18.4095 9.1868 18.4587C9.1868 18.508 9.19645 18.5483 9.20826 18.5483C9.22006 18.5483 9.22972 18.5785 9.22972 18.6154C9.22972 18.6523 9.23937 18.6825 9.25118 18.6825C9.26298 18.6825 9.27264 18.7127 9.27264 18.7497C9.27264 18.7866 9.28229 18.8168 9.2941 18.8168C9.3059 18.8168 9.31556 18.8571 9.31556 18.9063C9.31556 18.9555 9.32521 18.9958 9.33702 18.9958C9.34882 18.9958 9.35847 19.0217 9.35847 19.0533C9.35847 19.1812 9.2542 19.1748 11.342 19.1748H13.2642V19.1077C13.2642 19.0708 13.2738 19.0406 13.2856 19.0406C13.2974 19.0406 13.3071 19.0104 13.3071 18.9734C13.3071 18.9365 13.3167 18.9063 13.3285 18.9063C13.3403 18.9063 13.35 18.8761 13.35 18.8392C13.35 18.8022 13.3597 18.772 13.3715 18.772C13.3833 18.772 13.3929 18.7318 13.3929 18.6825C13.3929 18.6333 13.4026 18.593 13.4144 18.593C13.4262 18.593 13.4358 18.5729 13.4358 18.5483C13.4358 18.5236 13.4455 18.5035 13.4573 18.5035C13.4691 18.5035 13.4788 18.4632 13.4788 18.414C13.4788 18.3648 13.4884 18.3245 13.5002 18.3245C13.512 18.3245 13.5217 18.2943 13.5217 18.2574C13.5217 18.2204 13.5313 18.1902 13.5431 18.1902C13.5549 18.1902 13.5646 18.16 13.5646 18.1231C13.5646 18.0862 13.5743 18.056 13.5861 18.056C13.5979 18.056 13.6075 18.0257 13.6075 17.9888C13.6075 17.9519 13.6172 17.9217 13.629 17.9217C13.6408 17.9217 13.6504 17.8814 13.6504 17.8322C13.6504 17.7829 13.6601 17.7427 13.6719 17.7427C13.6837 17.7427 13.6934 17.7024 13.6934 17.6532C13.6934 17.6039 13.703 17.5636 13.7148 17.5636C13.7266 17.5636 13.7363 17.5435 13.7363 17.5189C13.7363 17.4943 13.7459 17.4741 13.7577 17.4741C13.7695 17.4741 13.7792 17.4339 13.7792 17.3846C13.7792 17.3354 13.7889 17.2951 13.8007 17.2951C13.8125 17.2951 13.8221 17.2649 13.8221 17.228C13.8221 17.1911 13.8318 17.1608 13.8436 17.1608C13.8554 17.1608 13.865 17.1306 13.865 17.0937C13.865 17.0568 13.8747 17.0266 13.8865 17.0266C13.8983 17.0266 13.908 16.9863 13.908 16.9371C13.908 16.8878 13.9176 16.8476 13.9294 16.8476C13.9412 16.8476 13.9509 16.8174 13.9509 16.7804C13.9509 16.7435 13.9605 16.7133 13.9723 16.7133C13.9841 16.7133 13.9938 16.6831 13.9938 16.6462C13.9938 16.6092 14.0035 16.579 14.0153 16.579C14.0271 16.579 14.0367 16.5387 14.0367 16.4895C14.0367 16.4403 14.0464 16.4 14.0582 16.4C14.07 16.4 14.0796 16.3799 14.0796 16.3553C14.0796 16.3306 14.0893 16.3105 14.1011 16.3105C14.1129 16.3105 14.1226 16.2702 14.1226 16.221C14.1226 16.1718 14.1322 16.1315 14.144 16.1315C14.1558 16.1315 14.1655 16.0912 14.1655 16.042C14.1655 15.9927 14.1751 15.9525 14.1869 15.9525C14.1987 15.9525 14.2084 15.9323 14.2084 15.9077C14.2084 15.8831 14.2181 15.8629 14.2299 15.8629C14.2417 15.8629 14.2513 15.8227 14.2513 15.7734C14.2513 15.7242 14.261 15.6839 14.2728 15.6839C14.2846 15.6839 14.2942 15.6537 14.2942 15.6168C14.2942 15.5799 14.3039 15.5497 14.3157 15.5497C14.3275 15.5497 14.3372 15.5194 14.3372 15.4825C14.3372 15.4456 14.3468 15.4154 14.3586 15.4154C14.3704 15.4154 14.3801 15.3852 14.3801 15.3483C14.3801 15.3113 14.3897 15.2811 14.4015 15.2811C14.4133 15.2811 14.423 15.2408 14.423 15.1916C14.423 15.1424 14.4327 15.1021 14.4445 15.1021C14.4563 15.1021 14.4659 15.0719 14.4659 15.035C14.4659 14.998 14.4756 14.9678 14.4874 14.9678C14.4992 14.9678 14.5088 14.9376 14.5088 14.9007C14.5088 14.8638 14.5185 14.8336 14.5303 14.8336C14.5421 14.8336 14.5518 14.7933 14.5518 14.7441C14.5518 14.6948 14.5614 14.6546 14.5732 14.6546C14.585 14.6546 14.5947 14.6243 14.5947 14.5874C14.5947 14.5505 14.6043 14.5203 14.6161 14.5203C14.6279 14.5203 14.6376 14.4901 14.6376 14.4532C14.6376 14.4162 14.6472 14.386 14.6591 14.386C14.6709 14.386 14.6805 14.3457 14.6805 14.2965C14.6805 14.2473 14.6902 14.207 14.702 14.207C14.7138 14.207 14.7234 14.1869 14.7234 14.1622C14.7234 14.1376 14.7331 14.1175 14.7449 14.1175C14.7567 14.1175 14.7664 14.0772 14.7664 14.028C14.7664 13.9787 14.776 13.9385 14.7878 13.9385C14.7996 13.9385 14.8093 13.8982 14.8093 13.849C14.8093 13.7997 14.8189 13.7594 14.8307 13.7594C14.8425 13.7594 14.8522 13.7292 14.8522 13.6923C14.8522 13.6554 14.8618 13.6252 14.8736 13.6252C14.8855 13.6252 14.8951 13.595 14.8951 13.5581C14.8951 13.5211 14.9048 13.4909 14.9166 13.4909C14.9284 13.4909 14.938 13.4506 14.938 13.4014C14.938 13.3522 14.9477 13.3119 14.9595 13.3119C14.9713 13.3119 14.9809 13.2918 14.9809 13.2671C14.9809 13.2425 14.9906 13.2224 15.0024 13.2224C15.0142 13.2224 15.0239 13.1922 15.0239 13.1553C15.0239 13.1183 15.0335 13.0881 15.0453 13.0881C15.0571 13.0881 15.0668 13.0478 15.0668 12.9986C15.0668 12.9494 15.0764 12.9091 15.0882 12.9091C15.1001 12.9091 15.1097 12.889 15.1097 12.8643C15.1097 12.8397 15.1194 12.8196 15.1312 12.8196C15.143 12.8196 15.1526 12.7793 15.1526 12.7301C15.1526 12.6808 15.1623 12.6406 15.1741 12.6406C15.1859 12.6406 15.1955 12.6003 15.1955 12.5511C15.1955 12.5018 15.2052 12.4615 15.217 12.4615C15.2288 12.4615 15.2385 12.4313 15.2385 12.3944C15.2385 12.3575 15.2481 12.3273 15.2599 12.3273C15.2717 12.3273 15.2814 12.2971 15.2814 12.2601C15.2814 12.2232 15.291 12.193 15.3028 12.193C15.3146 12.193 15.3243 12.1527 15.3243 12.1035C15.3243 12.0543 15.334 12.014 15.3458 12.014C15.3576 12.014 15.3672 11.9838 15.3672 11.9469C15.3672 11.9099 15.3769 11.8797 15.3887 11.8797C15.4005 11.8797 15.4101 11.8495 15.4101 11.8126C15.4101 11.7757 15.4198 11.7455 15.4316 11.7455C15.4434 11.7455 15.4531 11.7153 15.4531 11.6783C15.4531 11.6414 15.4627 11.6112 15.4745 11.6112C15.4863 11.6112 15.496 11.581 15.496 11.5441C15.496 11.5071 15.5056 11.4769 15.5174 11.4769C15.5292 11.4769 15.5389 11.4467 15.5389 11.4098C15.5389 11.3729 15.5486 11.3427 15.5604 11.3427C15.5722 11.3427 15.5818 11.3024 15.5818 11.2532C15.5818 11.2039 15.5915 11.1636 15.6033 11.1636C15.6151 11.1636 15.6247 11.1334 15.6247 11.0965C15.6247 11.0596 15.6344 11.0294 15.6462 11.0294C15.658 11.0294 15.6677 10.9992 15.6677 10.9622C15.6677 10.9253 15.6773 10.8951 15.6891 10.8951C15.7009 10.8951 15.7106 10.8548 15.7106 10.8056C15.7106 10.7564 15.7202 10.7161 15.732 10.7161C15.7438 10.7161 15.7535 10.6859 15.7535 10.649C15.7535 10.612 15.7632 10.5818 15.775 10.5818C15.7868 10.5818 15.7964 10.5516 15.7964 10.5147C15.7964 10.4778 15.8061 10.4476 15.8179 10.4476C15.8297 10.4476 15.8393 10.4073 15.8393 10.3581C15.8393 10.3088 15.849 10.2685 15.8608 10.2685C15.8726 10.2685 15.8823 10.2383 15.8823 10.2014C15.8823 10.1645 15.8919 10.1343 15.9037 10.1343C15.9155 10.1343 15.9252 10.1041 15.9252 10.0671C15.9252 10.0302 15.9348 10 15.9466 10C15.9584 10 15.9681 9.95973 15.9681 9.9105C15.9681 9.86127 15.9778 9.82099 15.9896 9.82099C16.0014 9.82099 16.011 9.79078 16.011 9.75385C16.011 9.71693 16.0207 9.68672 16.0325 9.68672C16.0443 9.68672 16.0539 9.65651 16.0539 9.61959C16.0539 9.58267 16.0636 9.55246 16.0754 9.55246C16.0872 9.55246 16.0969 9.51218 16.0969 9.46294C16.0969 9.41371 16.1065 9.37344 16.1183 9.37344C16.1301 9.37344 16.1398 9.3533 16.1398 9.32868C16.1398 9.30406 16.1494 9.28393 16.1612 9.28393C16.173 9.28393 16.1827 9.24364 16.1827 9.19441C16.1827 9.14518 16.1924 9.1049 16.2042 9.1049C16.216 9.1049 16.2256 9.06462 16.2256 9.01539C16.2256 8.96616 16.2353 8.92588 16.2471 8.92588C16.2589 8.92588 16.2685 8.90574 16.2685 8.88113C16.2685 8.85651 16.2782 8.83637 16.29 8.83637C16.3018 8.83637 16.3115 8.79609 16.3115 8.74686C16.3115 8.69763 16.3211 8.65735 16.3329 8.65735C16.3447 8.65735 16.3544 8.62714 16.3544 8.59022C16.3544 8.5533 16.364 8.52309 16.3758 8.52309C16.3876 8.52309 16.3973 8.48281 16.3973 8.43357C16.3973 8.38434 16.407 8.34406 16.4188 8.34406C16.4306 8.34406 16.4402 8.32392 16.4402 8.29931C16.4402 8.27469 16.4499 8.25455 16.4617 8.25455C16.4735 8.25455 16.4831 8.239 16.4831 8.21998C16.4831 8.1752 16.5787 8.07553 16.6217 8.07553C16.6399 8.07553 16.6548 8.06546 16.6548 8.05315C16.6548 8.04011 16.7263 8.03078 16.8265 8.03078C16.9266 8.03078 16.9982 8.04011 16.9982 8.05315C16.9982 8.06546 17.0131 8.07553 17.0313 8.07553C17.0743 8.07553 17.1699 8.1752 17.1699 8.21998C17.1699 8.239 17.1795 8.25455 17.1913 8.25455C17.2038 8.25455 17.2128 8.32914 17.2128 8.43357C17.2128 8.53801 17.2217 8.6126 17.2342 8.6126C17.246 8.6126 17.2557 8.64281 17.2557 8.67973C17.2557 8.71665 17.246 8.74686 17.2342 8.74686C17.1996 8.74686 17.205 18.9883 17.2396 19.0051C17.2611 19.0156 17.2611 19.0208 17.2396 19.0312C17.2249 19.0384 17.2128 19.0737 17.2128 19.1096V19.1748H19.8952H22.5777V9.93288V0.690918H19.5519C17.549 0.690918 16.5261 0.698482 16.5261 0.713296C16.5261 0.726342 16.4545 0.735673 16.3544 0.735673C16.2542 0.735673 16.1827 0.745005 16.1827 0.758051C16.1827 0.770359 16.1441 0.780428 16.0969 0.780428C16.0496 0.780428 16.011 0.790498 16.011 0.802806C16.011 0.815114 15.9724 0.825184 15.9252 0.825184C15.878 0.825184 15.8393 0.835254 15.8393 0.847561C15.8393 0.859869 15.82 0.869939 15.7964 0.869939C15.7728 0.869939 15.7535 0.880009 15.7535 0.892317C15.7535 0.904624 15.7342 0.914694 15.7106 0.914694C15.687 0.914694 15.6677 0.924764 15.6677 0.937072C15.6677 0.949379 15.6483 0.959449 15.6247 0.959449C15.6011 0.959449 15.5818 0.969519 15.5818 0.981827C15.5818 0.994135 15.555 1.0042 15.5222 1.0042C15.4872 1.0042 15.4498 1.02269 15.4316 1.04896C15.4146 1.07358 15.3856 1.09372 15.3672 1.09372C15.3488 1.09372 15.3199 1.11386 15.3028 1.13847C15.2858 1.16309 15.2586 1.18323 15.2423 1.18323C15.2261 1.18323 15.1857 1.21344 15.1526 1.25036C15.1196 1.28728 15.0817 1.31749 15.0686 1.31749C15.0351 1.31749 14.6376 1.73577 14.6376 1.771C14.6376 1.78691 14.6183 1.81443 14.5947 1.83218C14.5711 1.84992 14.5518 1.88235 14.5518 1.90426C14.5518 1.92914 14.5357 1.94406 14.5088 1.94406C14.4762 1.94406 14.4659 1.95899 14.4659 2.00625C14.4659 2.04277 14.4482 2.08175 14.423 2.10071C14.3994 2.11845 14.3801 2.15088 14.3801 2.17279C14.3801 2.19467 14.3704 2.2126 14.3586 2.2126C14.3468 2.2126 14.3372 2.24281 14.3372 2.27973C14.3372 2.31665 14.3275 2.34686 14.3157 2.34686C14.3039 2.34686 14.2942 2.37707 14.2942 2.41399C14.2942 2.45092 14.2846 2.48113 14.2728 2.48113C14.261 2.48113 14.2513 2.51134 14.2513 2.54826C14.2513 2.58518 14.2417 2.61539 14.2299 2.61539C14.2181 2.61539 14.2084 2.65567 14.2084 2.7049C14.2084 2.75413 14.1987 2.79441 14.1869 2.79441C14.1751 2.79441 14.1655 2.81455 14.1655 2.83917C14.1655 2.86379 14.1558 2.88392 14.144 2.88392C14.1322 2.88392 14.1226 2.91413 14.1226 2.95106C14.1226 2.98798 14.1129 3.01819 14.1011 3.01819C14.0893 3.01819 14.0796 3.06854 14.0796 3.13008C14.0796 3.19162 14.07 3.24197 14.0582 3.24197C14.0464 3.24197 14.0367 3.26211 14.0367 3.28672C14.0367 3.31134 14.0271 3.33148 14.0153 3.33148C14.0035 3.33148 13.9938 3.36169 13.9938 3.39861C13.9938 3.43553 13.9841 3.46574 13.9723 3.46574C13.9605 3.46574 13.9509 3.50602 13.9509 3.55525C13.9509 3.60448 13.9412 3.64476 13.9294 3.64476C13.9176 3.64476 13.908 3.67497 13.908 3.7119C13.908 3.74882 13.8983 3.77903 13.8865 3.77903C13.8747 3.77903 13.865 3.81931 13.865 3.86854C13.865 3.91777 13.8554 3.95805 13.8436 3.95805C13.8318 3.95805 13.8221 3.98826 13.8221 4.02518C13.8221 4.06211 13.8125 4.09232 13.8007 4.09232C13.7889 4.09232 13.7792 4.12253 13.7792 4.15945C13.7792 4.19637 13.7695 4.22658 13.7577 4.22658C13.7459 4.22658 13.7363 4.25679 13.7363 4.29372C13.7363 4.33064 13.7266 4.36085 13.7148 4.36085C13.703 4.36085 13.6934 4.40113 13.6934 4.45036C13.6934 4.49959 13.6837 4.53987 13.6719 4.53987C13.6601 4.53987 13.6504 4.57008 13.6504 4.607C13.6504 4.64392 13.6408 4.67413 13.629 4.67413C13.6172 4.67413 13.6075 4.70434 13.6075 4.74127C13.6075 4.77819 13.5979 4.8084 13.5861 4.8084C13.5743 4.8084 13.5646 4.84868 13.5646 4.89791C13.5646 4.94714 13.5549 4.98742 13.5431 4.98742C13.5313 4.98742 13.5217 5.01763 13.5217 5.05455C13.5217 5.09148 13.512 5.12169 13.5002 5.12169C13.4884 5.12169 13.4788 5.1519 13.4788 5.18882C13.4788 5.22574 13.4691 5.25595 13.4573 5.25595C13.4455 5.25595 13.4358 5.28616 13.4358 5.32309C13.4358 5.36001 13.4262 5.39022 13.4144 5.39022C13.4026 5.39022 13.3929 5.4305 13.3929 5.47973C13.3929 5.52896 13.3833 5.56924 13.3715 5.56924C13.3597 5.56924 13.35 5.59945 13.35 5.63637C13.35 5.6733 13.3403 5.70351 13.3285 5.70351C13.3167 5.70351 13.3071 5.74378 13.3071 5.79302C13.3071 5.84225 13.2974 5.88253 13.2856 5.88253C13.2738 5.88253 13.2642 5.90267 13.2642 5.92728C13.2642 5.9519 13.2545 5.97204 13.2427 5.97204C13.2309 5.97204 13.2212 6.00225 13.2212 6.03917C13.2212 6.07609 13.2116 6.1063 13.1998 6.1063C13.188 6.1063 13.1783 6.14658 13.1783 6.19581C13.1783 6.24504 13.1687 6.28532 13.1569 6.28532C13.1451 6.28532 13.1354 6.30546 13.1354 6.33008C13.1354 6.35469 13.1257 6.37483 13.1139 6.37483C13.1021 6.37483 13.0925 6.41511 13.0925 6.46434C13.0925 6.51358 13.0828 6.55385 13.071 6.55385C13.0592 6.55385 13.0496 6.59413 13.0496 6.64337C13.0496 6.6926 13.0399 6.73288 13.0281 6.73288C13.0163 6.73288 13.0066 6.76309 13.0066 6.80001C13.0066 6.83693 12.997 6.86714 12.9852 6.86714C12.9734 6.86714 12.9637 6.89735 12.9637 6.93427C12.9637 6.9712 12.9541 7.00141 12.9423 7.00141C12.9305 7.00141 12.9208 7.04169 12.9208 7.09092C12.9208 7.14015 12.9111 7.18043 12.8993 7.18043C12.8875 7.18043 12.8779 7.21064 12.8779 7.24756C12.8779 7.28448 12.8682 7.31469 12.8564 7.31469C12.8446 7.31469 12.835 7.3449 12.835 7.38183C12.835 7.41875 12.8253 7.44896 12.8135 7.44896C12.8017 7.44896 12.792 7.48924 12.792 7.53847C12.792 7.5877 12.7824 7.62798 12.7706 7.62798C12.7588 7.62798 12.7491 7.65819 12.7491 7.69511C12.7491 7.73204 12.7395 7.76225 12.7277 7.76225C12.7159 7.76225 12.7062 7.79246 12.7062 7.82938C12.7062 7.8663 12.6966 7.89651 12.6847 7.89651C12.6729 7.89651 12.6633 7.92672 12.6633 7.96364C12.6633 8.00057 12.6536 8.03078 12.6418 8.03078C12.63 8.03078 12.6204 8.06099 12.6204 8.09791C12.6204 8.13483 12.6107 8.16504 12.5989 8.16504C12.5871 8.16504 12.5774 8.19525 12.5774 8.23218C12.5774 8.2691 12.5678 8.29931 12.556 8.29931C12.5442 8.29931 12.5345 8.33959 12.5345 8.38882C12.5345 8.43805 12.5249 8.47833 12.5131 8.47833C12.5013 8.47833 12.4916 8.50854 12.4916 8.54546C12.4916 8.58239 12.482 8.6126 12.4701 8.6126C12.4583 8.6126 12.4487 8.64281 12.4487 8.67973C12.4487 8.71665 12.439 8.74686 12.4272 8.74686C12.4154 8.74686 12.4058 8.78714 12.4058 8.83637C12.4058 8.8856 12.3961 8.92588 12.3843 8.92588C12.3725 8.92588 12.3629 8.94602 12.3629 8.97064C12.3629 8.99525 12.3532 9.01539 12.3414 9.01539C12.3296 9.01539 12.3199 9.05567 12.3199 9.1049C12.3199 9.15413 12.3103 9.19441 12.2985 9.19441C12.2867 9.19441 12.277 9.23469 12.277 9.28393C12.277 9.33316 12.2674 9.37344 12.2556 9.37344C12.2437 9.37344 12.2341 9.39357 12.2341 9.41819C12.2341 9.44281 12.2244 9.46294 12.2126 9.46294C12.2008 9.46294 12.1912 9.50323 12.1912 9.55246C12.1912 9.60169 12.1815 9.64197 12.1697 9.64197C12.1579 9.64197 12.1483 9.68225 12.1483 9.73148C12.1483 9.78071 12.1386 9.82099 12.1268 9.82099C12.115 9.82099 12.1053 9.84113 12.1053 9.86574C12.1053 9.89036 12.0957 9.9105 12.0839 9.9105C12.0721 9.9105 12.0624 9.95078 12.0624 10C12.0624 10.0492 12.0528 10.0895 12.041 10.0895C12.0292 10.0895 12.0195 10.1197 12.0195 10.1567C12.0195 10.1936 12.0098 10.2238 11.998 10.2238C11.9862 10.2238 11.9766 10.254 11.9766 10.2909C11.9766 10.3278 11.9669 10.3581 11.9551 10.3581C11.9433 10.3581 11.9337 10.3983 11.9337 10.4476C11.9337 10.4968 11.924 10.5371 11.9122 10.5371C11.9004 10.5371 11.8907 10.5673 11.8907 10.6042C11.8907 10.6411 11.8811 10.6713 11.8693 10.6713C11.8575 10.6713 11.8478 10.7015 11.8478 10.7385C11.8478 10.7754 11.8382 10.8056 11.8264 10.8056C11.8146 10.8056 11.8049 10.8358 11.8049 10.8727C11.8049 10.9097 11.7952 10.9399 11.7834 10.9399C11.7716 10.9399 11.762 10.9801 11.762 11.0294C11.762 11.0786 11.7523 11.1189 11.7405 11.1189C11.7287 11.1189 11.7191 11.1491 11.7191 11.186C11.7191 11.2229 11.7094 11.2532 11.6976 11.2532C11.6858 11.2532 11.6761 11.2834 11.6761 11.3203C11.6761 11.3572 11.6665 11.3874 11.6547 11.3874C11.6429 11.3874 11.6332 11.4277 11.6332 11.4769C11.6332 11.5262 11.6236 11.5664 11.6118 11.5664C11.6 11.5664 11.5903 11.5866 11.5903 11.6112C11.5903 11.6358 11.5806 11.656 11.5688 11.656C11.557 11.656 11.5474 11.6761 11.5474 11.7007C11.5474 11.7253 11.5377 11.7455 11.5259 11.7455C11.5141 11.7455 11.5045 11.7613 11.5045 11.7806C11.5045 11.8258 11.4528 11.8797 11.4094 11.8797C11.3909 11.8797 11.3757 11.8898 11.3757 11.9021C11.3757 11.9144 11.3512 11.9245 11.3213 11.9245C11.2609 11.9245 11.1182 11.7914 11.1182 11.735C11.1182 11.7161 11.1085 11.7007 11.0967 11.7007C11.0849 11.7007 11.0753 11.6705 11.0753 11.6336C11.0753 11.5967 11.0656 11.5664 11.0538 11.5664C11.042 11.5664 11.0323 11.5362 11.0323 11.4993C11.0323 11.4624 11.0227 11.4322 11.0109 11.4322C10.9991 11.4322 10.9894 11.412 10.9894 11.3874C10.9894 11.3628 10.9798 11.3427 10.968 11.3427C10.9562 11.3427 10.9465 11.3024 10.9465 11.2532C10.9465 11.2039 10.9368 11.1636 10.925 11.1636C10.9132 11.1636 10.9036 11.1334 10.9036 11.0965C10.9036 11.0596 10.8939 11.0294 10.8821 11.0294C10.8703 11.0294 10.8607 10.9992 10.8607 10.9622C10.8607 10.9253 10.851 10.8951 10.8392 10.8951C10.8274 10.8951 10.8177 10.8548 10.8177 10.8056C10.8177 10.7564 10.8081 10.7161 10.7963 10.7161C10.7845 10.7161 10.7748 10.6859 10.7748 10.649C10.7748 10.612 10.7652 10.5818 10.7534 10.5818C10.7416 10.5818 10.7319 10.5516 10.7319 10.5147C10.7319 10.4778 10.7222 10.4476 10.7104 10.4476C10.6986 10.4476 10.689 10.4073 10.689 10.3581C10.689 10.3088 10.6793 10.2685 10.6675 10.2685C10.6557 10.2685 10.6461 10.2383 10.6461 10.2014C10.6461 10.1645 10.6364 10.1343 10.6246 10.1343C10.6128 10.1343 10.6031 10.1041 10.6031 10.0671C10.6031 10.0302 10.5935 10 10.5817 10C10.5699 10 10.5602 9.95973 10.5602 9.9105C10.5602 9.86127 10.5506 9.82099 10.5388 9.82099C10.527 9.82099 10.5173 9.79078 10.5173 9.75385C10.5173 9.71693 10.5076 9.68672 10.4958 9.68672C10.484 9.68672 10.4744 9.65651 10.4744 9.61959C10.4744 9.58267 10.4647 9.55246 10.4529 9.55246C10.4411 9.55246 10.4315 9.51218 10.4315 9.46294C10.4315 9.41371 10.4218 9.37344 10.41 9.37344C10.3982 9.37344 10.3885 9.34323 10.3885 9.3063C10.3885 9.26938 10.3789 9.23917 10.3671 9.23917C10.3553 9.23917 10.3456 9.20896 10.3456 9.17204C10.3456 9.13511 10.336 9.1049 10.3242 9.1049C10.3124 9.1049 10.3027 9.07469 10.3027 9.03777C10.3027 9.00085 10.293 8.97064 10.2812 8.97064C10.2694 8.97064 10.2598 8.93036 10.2598 8.88113C10.2598 8.8319 10.2501 8.79162 10.2383 8.79162C10.2265 8.79162 10.2169 8.77148 10.2169 8.74686C10.2169 8.72225 10.2072 8.70211 10.1954 8.70211C10.1836 8.70211 10.1739 8.66183 10.1739 8.6126C10.1739 8.56337 10.1643 8.52309 10.1525 8.52309C10.1407 8.52309 10.131 8.48281 10.131 8.43357C10.131 8.38434 10.1214 8.34406 10.1096 8.34406C10.0978 8.34406 10.0881 8.32392 10.0881 8.29931C10.0881 8.27469 10.0785 8.25455 10.0666 8.25455C10.0548 8.25455 10.0452 8.21427 10.0452 8.16504C10.0452 8.11581 10.0355 8.07553 10.0237 8.07553C10.0119 8.07553 10.0023 8.03525 10.0023 7.98602C10.0023 7.93679 9.99261 7.89651 9.98081 7.89651C9.96901 7.89651 9.95935 7.87637 9.95935 7.85176C9.95935 7.82714 9.94969 7.807 9.93789 7.807C9.92609 7.807 9.91643 7.76672 9.91643 7.71749C9.91643 7.66826 9.90677 7.62798 9.89497 7.62798C9.88317 7.62798 9.87351 7.59777 9.87351 7.56085C9.87351 7.52392 9.86385 7.49371 9.85205 7.49371C9.84025 7.49371 9.83059 7.4635 9.83059 7.42658C9.83059 7.38966 9.82093 7.35945 9.80913 7.35945C9.79733 7.35945 9.78767 7.32924 9.78767 7.29232C9.78767 7.25539 9.77802 7.22518 9.76621 7.22518C9.75441 7.22518 9.74475 7.19497 9.74475 7.15805C9.74475 7.12113 9.7351 7.09092 9.72329 7.09092C9.71149 7.09092 9.70183 7.05064 9.70183 7.00141C9.70183 6.95218 9.69217 6.9119 9.68037 6.9119C9.66857 6.9119 9.65891 6.87162 9.65891 6.82239C9.65891 6.77316 9.64926 6.73288 9.63745 6.73288C9.62565 6.73288 9.61599 6.70267 9.61599 6.66574C9.61599 6.62882 9.60634 6.59861 9.59453 6.59861C9.58273 6.59861 9.57307 6.5684 9.57307 6.53148C9.57307 6.49455 9.56342 6.46434 9.55161 6.46434C9.53981 6.46434 9.53015 6.43413 9.53015 6.39721C9.53015 6.36029 9.5205 6.33008 9.50869 6.33008C9.49689 6.33008 9.48723 6.2898 9.48723 6.24057C9.48723 6.19134 9.47758 6.15106 9.46577 6.15106C9.45397 6.15106 9.44431 6.13092 9.44431 6.1063C9.44431 6.08169 9.43466 6.06155 9.42285 6.06155C9.41105 6.06155 9.40139 6.02127 9.40139 5.97204C9.40139 5.92281 9.39174 5.88253 9.37993 5.88253C9.36813 5.88253 9.35847 5.85232 9.35847 5.81539C9.35847 5.77847 9.34882 5.74826 9.33702 5.74826C9.32521 5.74826 9.31556 5.71805 9.31556 5.68113C9.31556 5.6442 9.3059 5.61399 9.2941 5.61399C9.28229 5.61399 9.27264 5.57372 9.27264 5.52448C9.27264 5.47525 9.26298 5.43497 9.25118 5.43497C9.23937 5.43497 9.22972 5.40476 9.22972 5.36784C9.22972 5.33092 9.22006 5.30071 9.20826 5.30071C9.19645 5.30071 9.1868 5.2705 9.1868 5.23358C9.1868 5.19665 9.17714 5.16644 9.16534 5.16644C9.15353 5.16644 9.14388 5.12616 9.14388 5.07693C9.14388 5.0277 9.13422 4.98742 9.12242 4.98742C9.11061 4.98742 9.10096 4.95721 9.10096 4.92029C9.10096 4.88337 9.0913 4.85316 9.0795 4.85316C9.06769 4.85316 9.05804 4.82295 9.05804 4.78602C9.05804 4.7491 9.04838 4.71889 9.03658 4.71889C9.02477 4.71889 9.01512 4.67861 9.01512 4.62938C9.01512 4.58015 9.00546 4.53987 8.99366 4.53987C8.98186 4.53987 8.9722 4.50966 8.9722 4.47274C8.9722 4.43581 8.96254 4.4056 8.95074 4.4056C8.93894 4.4056 8.92928 4.38546 8.92928 4.36085C8.92928 4.33623 8.91962 4.31609 8.90782 4.31609C8.89602 4.31609 8.88636 4.26574 8.88636 4.2042C8.88636 4.14267 8.8767 4.09232 8.8649 4.09232C8.8531 4.09232 8.84344 4.07218 8.84344 4.04756C8.84344 4.02295 8.83378 4.00281 8.82198 4.00281C8.81018 4.00281 8.80052 3.96253 8.80052 3.9133C8.80052 3.86406 8.79086 3.82379 8.77906 3.82379C8.76726 3.82379 8.7576 3.79358 8.7576 3.75665C8.7576 3.71973 8.74794 3.68952 8.73614 3.68952C8.72434 3.68952 8.71468 3.65931 8.71468 3.62239C8.71468 3.58546 8.70502 3.55525 8.69322 3.55525C8.68142 3.55525 8.67176 3.52504 8.67176 3.48812C8.67176 3.4512 8.6621 3.42099 8.6503 3.42099C8.6385 3.42099 8.62884 3.38071 8.62884 3.33148C8.62884 3.28225 8.61918 3.24197 8.60738 3.24197C8.59558 3.24197 8.58592 3.21176 8.58592 3.17483C8.58592 3.13791 8.57626 3.1077 8.56446 3.1077C8.55266 3.1077 8.543 3.07749 8.543 3.04057C8.543 3.00364 8.53334 2.97344 8.52154 2.97344C8.50974 2.97344 8.50008 2.93316 8.50008 2.88392C8.50008 2.83469 8.49043 2.79441 8.47862 2.79441C8.46682 2.79441 8.45716 2.7642 8.45716 2.72728C8.45716 2.69036 8.44751 2.66015 8.4357 2.66015C8.4239 2.66015 8.41424 2.62994 8.41424 2.59302C8.41424 2.55609 8.40459 2.52588 8.39278 2.52588C8.38098 2.52588 8.37132 2.49567 8.37132 2.45875C8.37132 2.42183 8.36167 2.39162 8.34986 2.39162C8.33806 2.39162 8.3284 2.36141 8.3284 2.32448C8.3284 2.28756 8.31875 2.25735 8.30694 2.25735C8.29514 2.25735 8.28548 2.23721 8.28548 2.2126C8.28548 2.18798 8.27583 2.16784 8.26402 2.16784C8.25222 2.16784 8.24256 2.14992 8.24256 2.12803C8.24256 2.10612 8.22325 2.0737 8.19964 2.05595C8.17604 2.03821 8.15672 2.00578 8.15672 1.98387C8.15672 1.96199 8.14707 1.94406 8.13527 1.94406C8.12346 1.94406 8.1138 1.92798 8.1138 1.90828C8.1138 1.88861 8.08483 1.84428 8.04943 1.8098C8.01402 1.77532 7.98505 1.73586 7.98505 1.72215C7.98505 1.68988 7.67126 1.36225 7.64036 1.36225C7.62744 1.36225 7.57976 1.32197 7.53439 1.27274C7.48902 1.22351 7.43881 1.18323 7.42278 1.18323C7.40675 1.18323 7.37973 1.16309 7.36271 1.13847C7.34569 1.11386 7.3146 1.09372 7.29359 1.09372C7.2726 1.09372 7.25541 1.08365 7.25541 1.07134C7.25541 1.05903 7.2361 1.04896 7.21249 1.04896C7.18889 1.04896 7.16957 1.03889 7.16957 1.02658C7.16957 1.01427 7.15026 1.0042 7.12665 1.0042C7.10305 1.0042 7.08373 0.994135 7.08373 0.981827C7.08373 0.969519 7.06442 0.959449 7.04081 0.959449C7.01721 0.959449 6.99789 0.949379 6.99789 0.937072C6.99789 0.924764 6.97858 0.914694 6.95497 0.914694C6.93137 0.914694 6.91205 0.904624 6.91205 0.892317C6.91205 0.880009 6.88308 0.869939 6.84767 0.869939C6.81227 0.869939 6.7833 0.859869 6.7833 0.847561C6.7833 0.835254 6.74467 0.825184 6.69746 0.825184C6.65025 0.825184 6.61162 0.815114 6.61162 0.802806C6.61162 0.790498 6.57299 0.780428 6.52578 0.780428C6.47857 0.780428 6.43994 0.770359 6.43994 0.758051C6.43994 0.744781 6.36125 0.735673 6.2468 0.735673C6.13235 0.735673 6.05366 0.726566 6.05366 0.713296C6.05366 0.698482 5.04022 0.691209 3.05465 0.691769C0.491832 0.692507 0.0517339 0.69725 0.0288148 0.724394ZM25.2387 9.93288V19.1748H28.05C29.9098 19.1748 30.8612 19.1673 30.8612 19.1525C30.8612 19.1401 30.8998 19.1301 30.9471 19.1301C30.9943 19.1301 31.0329 19.12 31.0329 19.1077C31.0329 19.0954 31.0522 19.0853 31.0758 19.0853C31.0994 19.0853 31.1187 19.0753 31.1187 19.0629C31.1187 19.0506 31.1574 19.0406 31.2046 19.0406C31.2518 19.0406 31.2904 19.0305 31.2904 19.0182C31.2904 19.0059 31.3097 18.9958 31.3333 18.9958C31.3569 18.9958 31.3763 18.9857 31.3763 18.9734C31.3763 18.9611 31.3934 18.9511 31.4144 18.9511C31.4354 18.9511 31.4665 18.9309 31.4836 18.9063C31.5006 18.8817 31.5317 18.8615 31.5527 18.8615C31.5737 18.8615 31.5909 18.8515 31.5909 18.8392C31.5909 18.8269 31.6063 18.8168 31.6252 18.8168C31.644 18.8168 31.6865 18.7866 31.7196 18.7497C31.7527 18.7127 31.7905 18.6825 31.8037 18.6825C31.835 18.6825 32.1059 18.4 32.1059 18.3674C32.1059 18.3537 32.1349 18.3142 32.1703 18.2797C32.2057 18.2452 32.2347 18.2009 32.2347 18.1812C32.2347 18.1616 32.2443 18.1455 32.2561 18.1455C32.2679 18.1455 32.2776 18.1253 32.2776 18.1007C32.2776 18.0761 32.2872 18.056 32.299 18.056C32.3108 18.056 32.3205 18.0358 32.3205 18.0112C32.3205 17.9866 32.3301 17.9664 32.3419 17.9664C32.3538 17.9664 32.3634 17.9463 32.3634 17.9217C32.3634 17.8971 32.3731 17.8769 32.3849 17.8769C32.3967 17.8769 32.4063 17.8568 32.4063 17.8322C32.4063 17.8076 32.416 17.7874 32.4278 17.7874C32.4396 17.7874 32.4492 17.7673 32.4492 17.7427C32.4492 17.7181 32.4589 17.6979 32.4707 17.6979C32.4825 17.6979 32.4922 17.6778 32.4922 17.6532C32.4922 17.6285 32.5018 17.6084 32.5136 17.6084C32.5254 17.6084 32.5351 17.5883 32.5351 17.5636C32.5351 17.539 32.5447 17.5189 32.5565 17.5189C32.5684 17.5189 32.578 17.4909 32.578 17.4567C32.578 17.4202 32.5957 17.3812 32.6209 17.3622C32.6461 17.3433 32.6638 17.3043 32.6638 17.2678C32.6638 17.2336 32.6735 17.2056 32.6853 17.2056C32.6971 17.2056 32.7068 17.1776 32.7068 17.1434C32.7068 17.1069 32.7245 17.0679 32.7497 17.049C32.7733 17.0312 32.7926 16.9988 32.7926 16.9769C32.7926 16.955 32.8023 16.9371 32.8141 16.9371C32.8259 16.9371 32.8355 16.9069 32.8355 16.8699C32.8355 16.833 32.8452 16.8028 32.857 16.8028C32.8688 16.8028 32.8784 16.7827 32.8784 16.758C32.8784 16.7334 32.8881 16.7133 32.8999 16.7133C32.9117 16.7133 32.9214 16.6932 32.9214 16.6685C32.9214 16.6439 32.931 16.6238 32.9428 16.6238C32.9546 16.6238 32.9643 16.6036 32.9643 16.579C32.9643 16.5544 32.9739 16.5343 32.9857 16.5343C32.9975 16.5343 33.0072 16.5141 33.0072 16.4895C33.0072 16.4649 33.0169 16.4448 33.0287 16.4448C33.0405 16.4448 33.0501 16.4246 33.0501 16.4C33.0501 16.3754 33.0598 16.3553 33.0716 16.3553C33.0834 16.3553 33.093 16.3351 33.093 16.3105C33.093 16.2859 33.1027 16.2657 33.1145 16.2657C33.1263 16.2657 33.136 16.2355 33.136 16.1986C33.136 16.1617 33.1456 16.1315 33.1574 16.1315C33.1692 16.1315 33.1789 16.1113 33.1789 16.0867C33.1789 16.0621 33.1885 16.042 33.2003 16.042C33.2121 16.042 33.2218 16.0218 33.2218 15.9972C33.2218 15.9726 33.2315 15.9525 33.2433 15.9525C33.2551 15.9525 33.2647 15.9323 33.2647 15.9077C33.2647 15.8831 33.2744 15.8629 33.2862 15.8629C33.298 15.8629 33.3076 15.8428 33.3076 15.8182C33.3076 15.7936 33.3173 15.7734 33.3291 15.7734C33.3409 15.7734 33.3506 15.7454 33.3506 15.7112C33.3506 15.6747 33.3683 15.6357 33.3935 15.6168C33.4187 15.5978 33.4364 15.5589 33.4364 15.5223C33.4364 15.4881 33.4461 15.4601 33.4579 15.4601C33.4697 15.4601 33.4793 15.44 33.4793 15.4154C33.4793 15.3908 33.489 15.3706 33.5008 15.3706C33.5126 15.3706 33.5222 15.3505 33.5222 15.3259C33.5222 15.3013 33.5319 15.2811 33.5437 15.2811C33.5555 15.2811 33.5652 15.261 33.5652 15.2364C33.5652 15.2118 33.5748 15.1916 33.5866 15.1916C33.5984 15.1916 33.6081 15.1636 33.6081 15.1294C33.6081 15.0929 33.6258 15.0539 33.651 15.035C33.6746 15.0172 33.6939 14.9848 33.6939 14.9629C33.6939 14.941 33.7036 14.9231 33.7154 14.9231C33.7272 14.9231 33.7368 14.8929 33.7368 14.856C33.7368 14.819 33.7465 14.7888 33.7583 14.7888C33.7701 14.7888 33.7798 14.7687 33.7798 14.7441C33.7798 14.7194 33.7894 14.6993 33.8012 14.6993C33.813 14.6993 33.8227 14.6792 33.8227 14.6546C33.8227 14.6299 33.8323 14.6098 33.8441 14.6098C33.8559 14.6098 33.8656 14.5897 33.8656 14.565C33.8656 14.5404 33.8753 14.5203 33.8871 14.5203C33.8989 14.5203 33.9085 14.5001 33.9085 14.4755C33.9085 14.4509 33.9182 14.4308 33.93 14.4308C33.9418 14.4308 33.9514 14.4106 33.9514 14.386C33.9514 14.3614 33.9611 14.3413 33.9729 14.3413C33.9847 14.3413 33.9944 14.3133 33.9944 14.2791C33.9944 14.2426 34.0121 14.2036 34.0373 14.1846C34.0625 14.1657 34.0802 14.1267 34.0802 14.0902C34.0802 14.056 34.0899 14.028 34.1017 14.028C34.1135 14.028 34.1231 14.0078 34.1231 13.9832C34.1231 13.9586 34.1328 13.9385 34.1446 13.9385C34.1564 13.9385 34.166 13.9183 34.166 13.8937C34.166 13.8691 34.1757 13.849 34.1875 13.849C34.1993 13.849 34.209 13.8288 34.209 13.8042C34.209 13.7796 34.2186 13.7594 34.2304 13.7594C34.2422 13.7594 34.2519 13.7292 34.2519 13.6923C34.2519 13.6554 34.2615 13.6252 34.2733 13.6252C34.2851 13.6252 34.2948 13.6073 34.2948 13.5854C34.2948 13.5635 34.3141 13.531 34.3377 13.5133C34.3629 13.4943 34.3806 13.4554 34.3806 13.4188C34.3806 13.3846 34.3903 13.3567 34.4021 13.3567C34.4139 13.3567 34.4236 13.3365 34.4236 13.3119C34.4236 13.2873 34.4332 13.2671 34.445 13.2671C34.4568 13.2671 34.4665 13.247 34.4665 13.2224C34.4665 13.1978 34.4761 13.1776 34.4879 13.1776C34.4997 13.1776 34.5094 13.1575 34.5094 13.1329C34.5094 13.1083 34.5191 13.0881 34.5309 13.0881C34.5427 13.0881 34.5523 13.0601 34.5523 13.0259C34.5523 12.9894 34.57 12.9504 34.5952 12.9315C34.6189 12.9137 34.6382 12.8735 34.6382 12.842C34.6382 12.8104 34.6574 12.7702 34.6811 12.7525C34.7063 12.7335 34.724 12.6945 34.724 12.658C34.724 12.6238 34.7337 12.5958 34.7455 12.5958C34.7573 12.5958 34.7669 12.5757 34.7669 12.5511C34.7669 12.5264 34.7766 12.5063 34.7884 12.5063C34.8002 12.5063 34.8098 12.4862 34.8098 12.4615C34.8098 12.4369 34.8195 12.4168 34.8313 12.4168C34.8431 12.4168 34.8527 12.3967 34.8527 12.372C34.8527 12.3474 34.8624 12.3273 34.8742 12.3273C34.886 12.3273 34.8957 12.2971 34.8957 12.2601C34.8957 12.2232 34.9053 12.193 34.9171 12.193C34.9289 12.193 34.9386 12.1729 34.9386 12.1483C34.9386 12.1236 34.9482 12.1035 34.96 12.1035C34.9719 12.1035 34.9815 12.0834 34.9815 12.0587C34.9815 12.0341 34.9912 12.014 35.003 12.014C35.0148 12.014 35.0244 11.9939 35.0244 11.9692C35.0244 11.9446 35.0341 11.9245 35.0459 11.9245C35.0577 11.9245 35.0673 11.9043 35.0673 11.8797C35.0673 11.8551 35.077 11.835 35.0888 11.835C35.1006 11.835 35.1103 11.8148 35.1103 11.7902C35.1103 11.7656 35.1199 11.7455 35.1317 11.7455C35.1435 11.7455 35.1532 11.7253 35.1532 11.7007C35.1532 11.6761 35.1628 11.656 35.1746 11.656C35.1865 11.656 35.1961 11.628 35.1961 11.5938C35.1961 11.5572 35.2138 11.5183 35.239 11.4993C35.2642 11.4804 35.2819 11.4414 35.2819 11.4049C35.2819 11.3707 35.2916 11.3427 35.3034 11.3427C35.3152 11.3427 35.3249 11.3225 35.3249 11.2979C35.3249 11.2733 35.3345 11.2532 35.3463 11.2532C35.3581 11.2532 35.3678 11.233 35.3678 11.2084C35.3678 11.1838 35.3774 11.1636 35.3892 11.1636C35.401 11.1636 35.4107 11.1435 35.4107 11.1189C35.4107 11.0943 35.4204 11.0741 35.4322 11.0741C35.444 11.0741 35.4536 11.054 35.4536 11.0294C35.4536 11.0048 35.4633 10.9846 35.4751 10.9846C35.4869 10.9846 35.4965 10.9645 35.4965 10.9399C35.4965 10.9153 35.5062 10.8951 35.518 10.8951C35.5298 10.8951 35.5395 10.8649 35.5395 10.828C35.5395 10.7911 35.5491 10.7608 35.5609 10.7608C35.5727 10.7608 35.5824 10.7407 35.5824 10.7161C35.5824 10.6915 35.592 10.6713 35.6038 10.6713C35.6156 10.6713 35.6253 10.6512 35.6253 10.6266C35.6253 10.602 35.635 10.5818 35.6468 10.5818C35.6586 10.5818 35.6682 10.5617 35.6682 10.5371C35.6682 10.5125 35.6779 10.4923 35.6897 10.4923C35.7015 10.4923 35.7111 10.4722 35.7111 10.4476C35.7111 10.4229 35.7208 10.4028 35.7326 10.4028C35.7444 10.4028 35.7541 10.3827 35.7541 10.3581C35.7541 10.3334 35.7637 10.3133 35.7755 10.3133C35.7873 10.3133 35.797 10.2831 35.797 10.2462C35.797 10.2092 35.8066 10.179 35.8184 10.179C35.8302 10.179 35.8399 10.1589 35.8399 10.1343C35.8399 10.1097 35.8496 10.0895 35.8614 10.0895C35.8732 10.0895 35.8828 10.0694 35.8828 10.0448C35.8828 10.0201 35.8925 10 35.9043 10C35.9161 10 35.9257 9.97987 35.9257 9.95525C35.9257 9.93064 35.9354 9.9105 35.9472 9.9105C35.959 9.9105 35.9687 9.89036 35.9687 9.86574C35.9687 9.84113 35.9783 9.82099 35.9901 9.82099C36.0019 9.82099 36.0116 9.80085 36.0116 9.77623C36.0116 9.75162 36.0212 9.73148 36.033 9.73148C36.0448 9.73148 36.0545 9.70348 36.0545 9.66929C36.0545 9.63277 36.0722 9.59379 36.0974 9.57483C36.121 9.55709 36.1403 9.52466 36.1403 9.50276C36.1403 9.48087 36.15 9.46294 36.1618 9.46294C36.1736 9.46294 36.1833 9.43274 36.1833 9.39581C36.1833 9.35889 36.1929 9.32868 36.2047 9.32868C36.2165 9.32868 36.2262 9.30854 36.2262 9.28393C36.2262 9.25931 36.2358 9.23917 36.2476 9.23917C36.2594 9.23917 36.2691 9.21903 36.2691 9.19441C36.2691 9.1698 36.2788 9.14966 36.2906 9.14966C36.3024 9.14966 36.312 9.12166 36.312 9.08747C36.312 9.05095 36.3297 9.01197 36.3549 8.99302C36.3785 8.97527 36.3979 8.94285 36.3979 8.92094C36.3979 8.89905 36.4075 8.88113 36.4193 8.88113C36.4311 8.88113 36.4408 8.85092 36.4408 8.81399C36.4408 8.77707 36.4504 8.74686 36.4622 8.74686C36.474 8.74686 36.4837 8.72672 36.4837 8.70211C36.4837 8.67749 36.4934 8.65735 36.5052 8.65735C36.517 8.65735 36.5266 8.63721 36.5266 8.6126C36.5266 8.58798 36.5363 8.56784 36.5481 8.56784C36.5599 8.56784 36.5695 8.5477 36.5695 8.52309C36.5695 8.49847 36.5792 8.47833 36.591 8.47833C36.6028 8.47833 36.6125 8.45819 36.6125 8.43357C36.6125 8.40896 36.6221 8.38882 36.6339 8.38882C36.6457 8.38882 36.6554 8.35861 36.6554 8.32169C36.6554 8.28476 36.665 8.25455 36.6768 8.25455C36.6886 8.25455 36.6983 8.23441 36.6983 8.2098C36.6983 8.18518 36.708 8.16504 36.7198 8.16504C36.7316 8.16504 36.7412 8.1449 36.7412 8.12029C36.7412 8.09567 36.7509 8.07553 36.7627 8.07553C36.7745 8.07553 36.7841 8.06009 36.7841 8.04123C36.7841 7.98484 36.9268 7.85176 36.9873 7.85176C37.0172 7.85176 37.0417 7.84169 37.0417 7.82938C37.0417 7.81707 37.0803 7.807 37.1275 7.807C37.1747 7.807 37.2133 7.81707 37.2133 7.82938C37.2133 7.84169 37.2326 7.85176 37.2563 7.85176C37.2799 7.85176 37.2992 7.86183 37.2992 7.87413C37.2992 7.88644 37.3143 7.89651 37.3329 7.89651C37.3763 7.89651 37.4279 7.9504 37.4279 7.99562C37.4279 8.01496 37.4376 8.03078 37.4494 8.03078C37.4612 8.03078 37.4709 8.05092 37.4709 8.07553C37.4709 8.10015 37.4805 8.12029 37.4923 8.12029C37.5066 8.12029 37.5138 9.97018 37.5138 13.6252C37.5138 17.2802 37.5066 19.1301 37.4923 19.1301C37.4805 19.1301 37.4709 19.1401 37.4709 19.1525C37.4709 19.1672 38.3793 19.1748 40.1533 19.1748H42.8358V9.93288V0.690918H40.1319C38.3436 0.690918 37.4279 0.698504 37.4279 0.713296C37.4279 0.726073 37.3635 0.735673 37.2777 0.735673C37.1919 0.735673 37.1275 0.745273 37.1275 0.758051C37.1275 0.770359 37.1082 0.780428 37.0846 0.780428C37.061 0.780428 37.0417 0.790498 37.0417 0.802806C37.0417 0.815114 37.003 0.825184 36.9558 0.825184C36.9086 0.825184 36.87 0.835254 36.87 0.847561C36.87 0.859869 36.8431 0.869939 36.8103 0.869939C36.7753 0.869939 36.7379 0.888423 36.7198 0.914694C36.7027 0.93931 36.6716 0.959449 36.6506 0.959449C36.6296 0.959449 36.6125 0.969519 36.6125 0.981827C36.6125 0.994135 36.5931 1.0042 36.5695 1.0042C36.5459 1.0042 36.5266 1.01427 36.5266 1.02658C36.5266 1.03889 36.5112 1.04896 36.4923 1.04896C36.4734 1.04896 36.4309 1.07917 36.3979 1.11609C36.3648 1.15302 36.3223 1.18323 36.3034 1.18323C36.2845 1.18323 36.2691 1.1933 36.2691 1.2056C36.2691 1.21791 36.2498 1.22798 36.2262 1.22798C36.1976 1.22798 36.1833 1.24291 36.1833 1.27274C36.1833 1.30257 36.1689 1.31749 36.1403 1.31749C36.1157 1.31749 36.0974 1.33242 36.0974 1.35251C36.0974 1.37178 36.0491 1.43656 35.9901 1.49651C35.9311 1.55646 35.8828 1.61722 35.8828 1.63154C35.8828 1.64586 35.8539 1.6858 35.8184 1.72029C35.783 1.75477 35.7541 1.7991 35.7541 1.81877C35.7541 1.83846 35.7444 1.85455 35.7326 1.85455C35.7208 1.85455 35.7111 1.88476 35.7111 1.92169C35.7111 1.95861 35.7015 1.98882 35.6897 1.98882C35.6779 1.98882 35.6682 2.00896 35.6682 2.03358C35.6682 2.05819 35.6586 2.07833 35.6468 2.07833C35.635 2.07833 35.6253 2.09847 35.6253 2.12309C35.6253 2.1477 35.6156 2.16784 35.6038 2.16784C35.592 2.16784 35.5824 2.19805 35.5824 2.23497C35.5824 2.2719 35.5727 2.30211 35.5609 2.30211C35.5491 2.30211 35.5395 2.32225 35.5395 2.34686C35.5395 2.37148 35.5298 2.39162 35.518 2.39162C35.5062 2.39162 35.4965 2.41176 35.4965 2.43637C35.4965 2.46099 35.4869 2.48113 35.4751 2.48113C35.4633 2.48113 35.4536 2.50127 35.4536 2.52588C35.4536 2.5505 35.444 2.57064 35.4322 2.57064C35.4204 2.57064 35.4107 2.59078 35.4107 2.61539C35.4107 2.64001 35.401 2.66015 35.3892 2.66015C35.3774 2.66015 35.3678 2.68029 35.3678 2.7049C35.3678 2.72952 35.3581 2.74966 35.3463 2.74966C35.3345 2.74966 35.3249 2.7698 35.3249 2.79441C35.3249 2.81903 35.3152 2.83917 35.3034 2.83917C35.2916 2.83917 35.2819 2.85931 35.2819 2.88392C35.2819 2.90854 35.2723 2.92868 35.2605 2.92868C35.2487 2.92868 35.239 2.94882 35.239 2.97344C35.239 2.99805 35.2294 3.01819 35.2176 3.01819C35.2058 3.01819 35.1961 3.0484 35.1961 3.08532C35.1961 3.12225 35.1865 3.15246 35.1746 3.15246C35.1628 3.15246 35.1532 3.1726 35.1532 3.19721C35.1532 3.22183 35.1435 3.24197 35.1317 3.24197C35.1199 3.24197 35.1103 3.26211 35.1103 3.28672C35.1103 3.31134 35.1006 3.33148 35.0888 3.33148C35.077 3.33148 35.0673 3.35162 35.0673 3.37623C35.0673 3.40085 35.0577 3.42099 35.0459 3.42099C35.0341 3.42099 35.0244 3.44113 35.0244 3.46574C35.0244 3.49036 35.0148 3.5105 35.003 3.5105C34.9912 3.5105 34.9815 3.53064 34.9815 3.55525C34.9815 3.57987 34.9719 3.60001 34.96 3.60001C34.9482 3.60001 34.9386 3.63022 34.9386 3.66714C34.9386 3.70406 34.9289 3.73427 34.9171 3.73427C34.9053 3.73427 34.8957 3.75441 34.8957 3.77903C34.8957 3.80365 34.886 3.82379 34.8742 3.82379C34.8624 3.82379 34.8527 3.84392 34.8527 3.86854C34.8527 3.89316 34.8431 3.9133 34.8313 3.9133C34.8195 3.9133 34.8098 3.93344 34.8098 3.95805C34.8098 3.98267 34.8002 4.00281 34.7884 4.00281C34.7766 4.00281 34.7669 4.02295 34.7669 4.04756C34.7669 4.07218 34.7573 4.09232 34.7455 4.09232C34.7337 4.09232 34.724 4.11246 34.724 4.13707C34.724 4.16169 34.7143 4.18183 34.7025 4.18183C34.6907 4.18183 34.6811 4.20197 34.6811 4.22658C34.6811 4.2512 34.6714 4.27134 34.6596 4.27134C34.6478 4.27134 34.6382 4.29933 34.6382 4.33352C34.6382 4.37004 34.6204 4.40903 34.5952 4.42798C34.57 4.44693 34.5523 4.48592 34.5523 4.52244C34.5523 4.55663 34.5427 4.58462 34.5309 4.58462C34.5191 4.58462 34.5094 4.60476 34.5094 4.62938C34.5094 4.65399 34.4997 4.67413 34.4879 4.67413C34.4761 4.67413 34.4665 4.69427 34.4665 4.71889C34.4665 4.74351 34.4568 4.76365 34.445 4.76365C34.4332 4.76365 34.4236 4.78378 34.4236 4.8084C34.4236 4.83302 34.4139 4.85316 34.4021 4.85316C34.3903 4.85316 34.3806 4.8733 34.3806 4.89791C34.3806 4.92253 34.371 4.94267 34.3592 4.94267C34.3474 4.94267 34.3377 4.96281 34.3377 4.98742C34.3377 5.01204 34.3281 5.03218 34.3163 5.03218C34.3045 5.03218 34.2948 5.06239 34.2948 5.09931C34.2948 5.13623 34.2851 5.16644 34.2733 5.16644C34.2615 5.16644 34.2519 5.18658 34.2519 5.2112C34.2519 5.23581 34.2422 5.25595 34.2304 5.25595C34.2186 5.25595 34.209 5.27609 34.209 5.30071C34.209 5.32532 34.1993 5.34546 34.1875 5.34546C34.1757 5.34546 34.166 5.3656 34.166 5.39022C34.166 5.41483 34.1564 5.43497 34.1446 5.43497C34.1328 5.43497 34.1231 5.45511 34.1231 5.47973C34.1231 5.50434 34.1135 5.52448 34.1017 5.52448C34.0899 5.52448 34.0802 5.54462 34.0802 5.56924C34.0802 5.59385 34.0705 5.61399 34.0587 5.61399C34.0469 5.61399 34.0373 5.63413 34.0373 5.65875C34.0373 5.68337 34.0276 5.70351 34.0158 5.70351C34.004 5.70351 33.9944 5.7315 33.9944 5.76569C33.9944 5.80221 33.9766 5.84119 33.9514 5.86015C33.9262 5.8791 33.9085 5.91808 33.9085 5.9546C33.9085 5.9888 33.8989 6.01679 33.8871 6.01679C33.8753 6.01679 33.8656 6.03693 33.8656 6.06155C33.8656 6.08616 33.8559 6.1063 33.8441 6.1063C33.8323 6.1063 33.8227 6.12644 33.8227 6.15106C33.8227 6.17567 33.813 6.19581 33.8012 6.19581C33.7894 6.19581 33.7798 6.22381 33.7798 6.258C33.7798 6.29452 33.762 6.3335 33.7368 6.35246C33.7116 6.37141 33.6939 6.41039 33.6939 6.44691C33.6939 6.48111 33.6843 6.5091 33.6725 6.5091C33.6607 6.5091 33.651 6.52924 33.651 6.55385C33.651 6.57847 33.6413 6.59861 33.6295 6.59861C33.6177 6.59861 33.6081 6.61875 33.6081 6.64337C33.6081 6.66798 33.5984 6.68812 33.5866 6.68812C33.5748 6.68812 33.5652 6.70826 33.5652 6.73288C33.5652 6.75749 33.5555 6.77763 33.5437 6.77763C33.5319 6.77763 33.5222 6.79777 33.5222 6.82239C33.5222 6.847 33.5126 6.86714 33.5008 6.86714C33.489 6.86714 33.4793 6.88728 33.4793 6.9119C33.4793 6.93651 33.4697 6.95665 33.4579 6.95665C33.4461 6.95665 33.4364 6.97679 33.4364 7.00141C33.4364 7.02602 33.4267 7.04616 33.4149 7.04616C33.4031 7.04616 33.3935 7.07637 33.3935 7.1133C33.3935 7.15022 33.3838 7.18043 33.372 7.18043C33.3602 7.18043 33.3506 7.19835 33.3506 7.22024C33.3506 7.24215 33.3312 7.27457 33.3076 7.29232C33.2824 7.31127 33.2647 7.35025 33.2647 7.38677C33.2647 7.42097 33.2551 7.44896 33.2433 7.44896C33.2315 7.44896 33.2218 7.4691 33.2218 7.49371C33.2218 7.51833 33.2121 7.53847 33.2003 7.53847C33.1885 7.53847 33.1789 7.55861 33.1789 7.58323C33.1789 7.60784 33.1692 7.62798 33.1574 7.62798C33.1456 7.62798 33.136 7.65819 33.136 7.69511C33.136 7.73204 33.1263 7.76225 33.1145 7.76225C33.1027 7.76225 33.093 7.78239 33.093 7.807C33.093 7.83162 33.0834 7.85176 33.0716 7.85176C33.0598 7.85176 33.0501 7.8719 33.0501 7.89651C33.0501 7.92113 33.0405 7.94127 33.0287 7.94127C33.0169 7.94127 33.0072 7.96141 33.0072 7.98602C33.0072 8.01064 32.9975 8.03078 32.9857 8.03078C32.9739 8.03078 32.9643 8.05092 32.9643 8.07553C32.9643 8.10015 32.9546 8.12029 32.9428 8.12029C32.931 8.12029 32.9214 8.14043 32.9214 8.16504C32.9214 8.18966 32.9117 8.2098 32.8999 8.2098C32.8881 8.2098 32.8784 8.24001 32.8784 8.27693C32.8784 8.31385 32.8688 8.34406 32.857 8.34406C32.8452 8.34406 32.8355 8.3642 32.8355 8.38882C32.8355 8.41343 32.8259 8.43357 32.8141 8.43357C32.8023 8.43357 32.7926 8.45371 32.7926 8.47833C32.7926 8.50295 32.783 8.52309 32.7711 8.52309C32.7593 8.52309 32.7497 8.54322 32.7497 8.56784C32.7497 8.59246 32.74 8.6126 32.7282 8.6126C32.7164 8.6126 32.7068 8.63274 32.7068 8.65735C32.7068 8.68197 32.6971 8.70211 32.6853 8.70211C32.6735 8.70211 32.6638 8.72225 32.6638 8.74686C32.6638 8.77148 32.6542 8.79162 32.6424 8.79162C32.6306 8.79162 32.6209 8.81176 32.6209 8.83637C32.6209 8.86099 32.6113 8.88113 32.5995 8.88113C32.5877 8.88113 32.578 8.90127 32.578 8.92588C32.578 8.9505 32.5684 8.97064 32.5565 8.97064C32.5447 8.97064 32.5351 8.99078 32.5351 9.01539C32.5351 9.04001 32.5254 9.06015 32.5136 9.06015C32.5018 9.06015 32.4922 9.09036 32.4922 9.12728C32.4922 9.1642 32.4825 9.19441 32.4707 9.19441C32.4589 9.19441 32.4492 9.21455 32.4492 9.23917C32.4492 9.26378 32.4396 9.28393 32.4278 9.28393C32.416 9.28393 32.4063 9.30406 32.4063 9.32868C32.4063 9.3533 32.3967 9.37344 32.3849 9.37344C32.3731 9.37344 32.3634 9.39357 32.3634 9.41819C32.3634 9.44281 32.3538 9.46294 32.3419 9.46294C32.3301 9.46294 32.3205 9.48308 32.3205 9.5077C32.3205 9.53232 32.3108 9.55246 32.299 9.55246C32.2872 9.55246 32.2776 9.5726 32.2776 9.59721C32.2776 9.62183 32.2679 9.64197 32.2561 9.64197C32.2443 9.64197 32.2347 9.66996 32.2347 9.70415C32.2347 9.74067 32.2169 9.77966 32.1917 9.79861C32.1665 9.81756 32.1488 9.85654 32.1488 9.89306C32.1488 9.92726 32.1392 9.95525 32.1274 9.95525C32.1156 9.95525 32.1059 9.97539 32.1059 10C32.1059 10.0246 32.0962 10.0448 32.0844 10.0448C32.0726 10.0448 32.063 10.0649 32.063 10.0895C32.063 10.1141 32.0533 10.1343 32.0415 10.1343C32.0297 10.1343 32.0201 10.1544 32.0201 10.179C32.0201 10.2036 32.0104 10.2238 31.9986 10.2238C31.9868 10.2238 31.9771 10.2439 31.9771 10.2685C31.9771 10.2932 31.9675 10.3133 31.9557 10.3133C31.9439 10.3133 31.9342 10.3435 31.9342 10.3804C31.9342 10.4174 31.9246 10.4476 31.9128 10.4476C31.901 10.4476 31.8913 10.4677 31.8913 10.4923C31.8913 10.5169 31.8816 10.5371 31.8698 10.5371C31.858 10.5371 31.8484 10.5572 31.8484 10.5818C31.8484 10.6064 31.8387 10.6266 31.8269 10.6266C31.8151 10.6266 31.8055 10.6467 31.8055 10.6713C31.8055 10.696 31.7958 10.7161 31.784 10.7161C31.7722 10.7161 31.7625 10.7362 31.7625 10.7608C31.7625 10.7855 31.7529 10.8056 31.7411 10.8056C31.7293 10.8056 31.7196 10.8257 31.7196 10.8504C31.7196 10.875 31.71 10.8951 31.6982 10.8951C31.6864 10.8951 31.6767 10.9153 31.6767 10.9399C31.6767 10.9645 31.667 10.9846 31.6552 10.9846C31.6434 10.9846 31.6338 11.0048 31.6338 11.0294C31.6338 11.054 31.6241 11.0741 31.6123 11.0741C31.6005 11.0741 31.5909 11.1021 31.5909 11.1363C31.5909 11.1728 31.5731 11.2118 31.5479 11.2308C31.5227 11.2497 31.505 11.2887 31.505 11.3252C31.505 11.3594 31.4954 11.3874 31.4836 11.3874C31.4718 11.3874 31.4621 11.4076 31.4621 11.4322C31.4621 11.4568 31.4524 11.4769 31.4406 11.4769C31.4288 11.4769 31.4192 11.4971 31.4192 11.5217C31.4192 11.5463 31.4095 11.5664 31.3977 11.5664C31.3859 11.5664 31.3763 11.592 31.3763 11.6231C31.3763 11.6862 31.2486 11.835 31.1946 11.835C31.1765 11.835 31.1617 11.845 31.1617 11.8574C31.1617 11.8697 31.1238 11.8797 31.0776 11.8797C31.0314 11.8797 30.9879 11.8923 30.981 11.9077C30.971 11.9301 30.966 11.9301 30.956 11.9077C30.9491 11.8923 30.9174 11.8797 30.8856 11.8797C30.8524 11.8797 30.8146 11.8607 30.7968 11.835C30.7798 11.8104 30.7487 11.7902 30.7277 11.7902C30.7054 11.7902 30.6895 11.7737 30.6895 11.7504C30.6895 11.7285 30.6702 11.6961 30.6466 11.6783C30.6039 11.6462 30.6037 11.6204 30.6037 6.2375C30.6037 1.93252 30.5982 0.826258 30.5769 0.815852C30.5554 0.805424 30.5554 0.800188 30.5769 0.78976C30.5916 0.782577 30.6037 0.757402 30.6037 0.733816C30.6037 0.691768 30.5505 0.690918 27.9212 0.690918H25.2387V9.93288ZM7.64169 1.47413C7.64169 1.48644 7.63203 1.49651 7.62023 1.49651C7.60843 1.49651 7.59877 1.48644 7.59877 1.47413C7.59877 1.46183 7.60843 1.45176 7.62023 1.45176C7.63203 1.45176 7.64169 1.46183 7.64169 1.47413ZM7.72753 1.56365C7.72753 1.57595 7.71787 1.58602 7.70607 1.58602C7.69426 1.58602 7.68461 1.57595 7.68461 1.56365C7.68461 1.55134 7.69426 1.54127 7.70607 1.54127C7.71787 1.54127 7.72753 1.55134 7.72753 1.56365ZM8.02797 1.92169C8.02797 1.93399 8.01831 1.94406 8.00651 1.94406C7.9947 1.94406 7.98505 1.93399 7.98505 1.92169C7.98505 1.90938 7.9947 1.89931 8.00651 1.89931C8.01831 1.89931 8.02797 1.90938 8.02797 1.92169ZM45.6685 14.1974C45.6685 18.5423 45.6728 19.2496 45.6992 19.2771C45.7254 19.3045 46.112 19.3091 48.3816 19.3091H51.0335V16.2657V13.2224H54.2954C56.4557 13.2224 57.5572 13.2148 57.5572 13.2C57.5572 13.1866 57.6431 13.1776 57.7718 13.1776C57.9006 13.1776 57.9864 13.1687 57.9864 13.1553C57.9864 13.1422 58.058 13.1329 58.1581 13.1329C58.2583 13.1329 58.3298 13.1235 58.3298 13.1105C58.3298 13.0982 58.3781 13.0881 58.4371 13.0881C58.4961 13.0881 58.5444 13.0781 58.5444 13.0657C58.5444 13.0534 58.5734 13.0434 58.6088 13.0434C58.6442 13.0434 58.6732 13.0333 58.6732 13.021C58.6732 13.0087 58.7118 12.9986 58.759 12.9986C58.8062 12.9986 58.8448 12.9885 58.8448 12.9762C58.8448 12.9639 58.8738 12.9539 58.9092 12.9539C58.9446 12.9539 58.9736 12.9438 58.9736 12.9315C58.9736 12.9192 59.0026 12.9091 59.038 12.9091C59.0734 12.9091 59.1024 12.899 59.1024 12.8867C59.1024 12.8744 59.141 12.8643 59.1882 12.8643C59.2354 12.8643 59.274 12.8543 59.274 12.842C59.274 12.8297 59.2933 12.8196 59.317 12.8196C59.3406 12.8196 59.3599 12.8095 59.3599 12.7972C59.3599 12.7849 59.3888 12.7748 59.4243 12.7748C59.4597 12.7748 59.4886 12.7648 59.4886 12.7525C59.4886 12.7401 59.5176 12.7301 59.553 12.7301C59.5884 12.7301 59.6174 12.72 59.6174 12.7077C59.6174 12.6954 59.6367 12.6853 59.6603 12.6853C59.6839 12.6853 59.7032 12.6753 59.7032 12.6629C59.7032 12.6506 59.7225 12.6406 59.7462 12.6406C59.7698 12.6406 59.7891 12.6305 59.7891 12.6182C59.7891 12.6059 59.8084 12.5958 59.832 12.5958C59.8556 12.5958 59.8749 12.5857 59.8749 12.5734C59.8749 12.5611 59.8942 12.5511 59.9178 12.5511C59.9414 12.5511 59.9607 12.541 59.9607 12.5287C59.9607 12.5164 59.9801 12.5063 60.0037 12.5063C60.0273 12.5063 60.0466 12.4962 60.0466 12.4839C60.0466 12.4716 60.0638 12.4615 60.0848 12.4615C60.1058 12.4615 60.1369 12.4414 60.1539 12.4168C60.1709 12.3922 60.202 12.372 60.223 12.372C60.244 12.372 60.2612 12.362 60.2612 12.3497C60.2612 12.3374 60.2784 12.3273 60.2994 12.3273C60.3204 12.3273 60.3515 12.3071 60.3685 12.2825C60.3855 12.2579 60.4145 12.2378 60.4329 12.2378C60.4513 12.2378 60.4802 12.2176 60.4972 12.193C60.5143 12.1684 60.5432 12.1483 60.5616 12.1483C60.58 12.1483 60.609 12.1281 60.626 12.1035C60.643 12.0789 60.672 12.0587 60.6904 12.0587C60.7088 12.0587 60.7377 12.0386 60.7548 12.014C60.7718 11.9894 60.7988 11.9692 60.8148 11.9692C60.8309 11.9692 60.8811 11.929 60.9264 11.8797C60.9718 11.8305 61.0242 11.7902 61.0428 11.7902C61.0624 11.7902 61.0767 11.7713 61.0767 11.7455C61.0767 11.72 61.091 11.7007 61.1099 11.7007C61.1282 11.7007 61.2098 11.6302 61.2913 11.5441C61.3727 11.4579 61.4543 11.3874 61.4726 11.3874C61.4909 11.3874 61.5059 11.3718 61.5059 11.3526C61.5059 11.3335 61.5638 11.2585 61.6346 11.186C61.7054 11.1135 61.7634 11.0386 61.7634 11.0194C61.7634 10.9996 61.7818 10.9846 61.8063 10.9846C61.8313 10.9846 61.8492 10.9697 61.8492 10.9488C61.8492 10.9292 61.8782 10.8848 61.9136 10.8504C61.949 10.8159 61.978 10.7756 61.978 10.7608C61.978 10.7461 62.0069 10.7058 62.0424 10.6713C62.0778 10.6369 62.1067 10.5947 62.1067 10.5778C62.1067 10.5608 62.126 10.5324 62.1497 10.5147C62.1733 10.4969 62.1926 10.4667 62.1926 10.4476C62.1926 10.4284 62.2119 10.3982 62.2355 10.3804C62.2591 10.3627 62.2784 10.3325 62.2784 10.3133C62.2784 10.2941 62.2977 10.2639 62.3213 10.2462C62.3449 10.2284 62.3642 10.196 62.3642 10.1741C62.3642 10.1522 62.3739 10.1343 62.3857 10.1343C62.3975 10.1343 62.4072 10.1141 62.4072 10.0895C62.4072 10.0649 62.4168 10.0448 62.4286 10.0448C62.4404 10.0448 62.4501 10.0268 62.4501 10.005C62.4501 9.98304 62.4694 9.95062 62.493 9.93288C62.5166 9.91513 62.5359 9.88271 62.5359 9.8608C62.5359 9.83891 62.5456 9.82099 62.5574 9.82099C62.5692 9.82099 62.5788 9.79299 62.5788 9.7588C62.5788 9.72228 62.5966 9.6833 62.6218 9.66434C62.647 9.64539 62.6647 9.60641 62.6647 9.56989C62.6647 9.5357 62.6743 9.5077 62.6861 9.5077C62.6979 9.5077 62.7076 9.48756 62.7076 9.46294C62.7076 9.43833 62.7173 9.41819 62.7291 9.41819C62.7409 9.41819 62.7505 9.39805 62.7505 9.37344C62.7505 9.34882 62.7602 9.32868 62.772 9.32868C62.7838 9.32868 62.7934 9.29847 62.7934 9.26155C62.7934 9.22462 62.8031 9.19441 62.8149 9.19441C62.8267 9.19441 62.8364 9.18434 62.8364 9.17204C62.8364 9.15716 59.9607 9.14966 54.2524 9.14966H45.6685V14.1974ZM31.9771 10.5594C31.9771 10.5718 31.9675 10.5818 31.9557 10.5818C31.9439 10.5818 31.9342 10.5718 31.9342 10.5594C31.9342 10.5471 31.9439 10.5371 31.9557 10.5371C31.9675 10.5371 31.9771 10.5471 31.9771 10.5594ZM31.8484 10.8727C31.8484 10.885 31.8387 10.8951 31.8269 10.8951C31.8151 10.8951 31.8055 10.885 31.8055 10.8727C31.8055 10.8604 31.8151 10.8504 31.8269 10.8504C31.8387 10.8504 31.8484 10.8604 31.8484 10.8727ZM61.2913 11.4098C61.2913 11.4221 61.2816 11.4322 61.2698 11.4322C61.258 11.4322 61.2483 11.4221 61.2483 11.4098C61.2483 11.3975 61.258 11.3874 61.2698 11.3874C61.2816 11.3874 61.2913 11.3975 61.2913 11.4098ZM11.7191 11.6336C11.7191 11.6459 11.7094 11.656 11.6976 11.656C11.6858 11.656 11.6761 11.6459 11.6761 11.6336C11.6761 11.6213 11.6858 11.6112 11.6976 11.6112C11.7094 11.6112 11.7191 11.6213 11.7191 11.6336ZM34.1231 13.7818C34.1231 13.7941 34.1135 13.8042 34.1017 13.8042C34.0899 13.8042 34.0802 13.7941 34.0802 13.7818C34.0802 13.7695 34.0899 13.7594 34.1017 13.7594C34.1135 13.7594 34.1231 13.7695 34.1231 13.7818ZM33.4364 15.3035C33.4364 15.3158 33.4267 15.3259 33.4149 15.3259C33.4031 15.3259 33.3935 15.3158 33.3935 15.3035C33.3935 15.2912 33.4031 15.2811 33.4149 15.2811C33.4267 15.2811 33.4364 15.2912 33.4364 15.3035Z" fill="#30AA23"/>
<path fill-rule="evenodd" clip-rule="evenodd" d="M45.3828 0.922243C45.3828 1.06245 45.3915 1.15357 45.4048 1.15357C45.417 1.15357 45.4267 1.20965 45.4267 1.27975C45.4267 1.34984 45.4365 1.40592 45.4487 1.40592C45.4608 1.40592 45.4706 1.42485 45.4706 1.44798C45.4706 1.47112 45.4805 1.49004 45.4926 1.49004C45.5048 1.49004 45.5145 1.54613 45.5145 1.61622C45.5145 1.68631 45.5243 1.7424 45.5365 1.7424C45.5486 1.7424 45.5585 1.78025 45.5585 1.82651C45.5585 1.87278 45.5683 1.91063 45.5804 1.91063C45.5925 1.91063 45.6024 1.93902 45.6024 1.97372C45.6024 2.00842 45.6122 2.03681 45.6243 2.03681C45.6364 2.03681 45.6463 2.07466 45.6463 2.12093C45.6463 2.16719 45.6562 2.20505 45.6682 2.20505C45.6803 2.20505 45.6902 2.22397 45.6902 2.24711C45.6902 2.27024 45.7001 2.28917 45.7121 2.28917C45.7242 2.28917 45.7341 2.31756 45.7341 2.35225C45.7341 2.38695 45.744 2.41534 45.7561 2.41534C45.7681 2.41534 45.778 2.44373 45.778 2.47843C45.778 2.51313 45.7879 2.54152 45.8 2.54152C45.812 2.54152 45.8219 2.56991 45.8219 2.60461C45.8219 2.63931 45.8318 2.6677 45.8439 2.6677C45.856 2.6677 45.8658 2.68662 45.8658 2.70976C45.8658 2.73289 45.8757 2.75182 45.8878 2.75182C45.8999 2.75182 45.9097 2.78021 45.9097 2.8149C45.9097 2.8496 45.9196 2.87799 45.9317 2.87799C45.9438 2.87799 45.9537 2.89692 45.9537 2.92005C45.9537 2.94319 45.9635 2.96211 45.9756 2.96211C45.9877 2.96211 45.9976 2.97896 45.9976 2.99952C45.9976 3.02011 46.0173 3.05058 46.0415 3.06726C46.0672 3.08507 46.0854 3.12171 46.0854 3.15603C46.0854 3.18816 46.0953 3.21447 46.1073 3.21447C46.1194 3.21447 46.1293 3.23339 46.1293 3.25653C46.1293 3.27966 46.1392 3.29858 46.1513 3.29858C46.1633 3.29858 46.1732 3.31543 46.1732 3.336C46.1732 3.35658 46.193 3.38706 46.2171 3.40373C46.2413 3.42041 46.261 3.45088 46.261 3.47147C46.261 3.49204 46.2709 3.50888 46.283 3.50888C46.2951 3.50888 46.3049 3.52781 46.3049 3.55094C46.3049 3.57407 46.3148 3.593 46.3269 3.593C46.339 3.593 46.3489 3.60984 46.3489 3.63041C46.3489 3.651 46.3686 3.68147 46.3928 3.69815C46.4169 3.71482 46.4367 3.7453 46.4367 3.76588C46.4367 3.78645 46.4466 3.80329 46.4586 3.80329C46.4707 3.80329 46.4806 3.82014 46.4806 3.84071C46.4806 3.86129 46.5003 3.89177 46.5245 3.90844C46.5486 3.92512 46.5684 3.9516 46.5684 3.9673C46.5684 3.98301 46.6079 4.03222 46.6562 4.07668C46.7045 4.12114 46.744 4.17034 46.744 4.18605C46.744 4.20176 46.7638 4.22824 46.788 4.24492C46.8121 4.26159 46.8319 4.28998 46.8319 4.308C46.8319 4.32603 46.8516 4.35442 46.8758 4.37109C46.8999 4.38777 46.9197 4.41824 46.9197 4.43883C46.9197 4.46221 46.9361 4.47624 46.9636 4.47624C46.9892 4.47624 47.0075 4.49027 47.0075 4.50987C47.0075 4.52835 47.0372 4.57001 47.0734 4.60242C47.1096 4.63482 47.1392 4.67243 47.1392 4.68597C47.1392 4.72124 47.196 4.77065 47.2365 4.77065C47.2555 4.77065 47.271 4.78493 47.271 4.80237C47.271 4.83782 47.8941 5.4436 47.9305 5.4436C47.9433 5.4436 48.0219 5.50984 48.1053 5.59081C48.1886 5.67177 48.27 5.73802 48.286 5.73802C48.302 5.73802 48.3294 5.75694 48.3468 5.78007C48.3642 5.80321 48.3919 5.82213 48.4083 5.82213C48.4247 5.82213 48.476 5.85999 48.5224 5.90625C48.5689 5.95252 48.6202 5.99037 48.6366 5.99037C48.653 5.99037 48.6807 6.0093 48.6981 6.03243C48.7155 6.05556 48.7451 6.07449 48.7639 6.07449C48.7828 6.07449 48.8124 6.09341 48.8298 6.11655C48.8472 6.13968 48.879 6.15861 48.9005 6.15861C48.922 6.15861 48.9396 6.16807 48.9396 6.17964C48.9396 6.1912 48.9572 6.20067 48.9787 6.20067C49.0001 6.20067 49.032 6.21959 49.0494 6.24272C49.0668 6.26586 49.0964 6.28478 49.1152 6.28478C49.134 6.28478 49.1637 6.30371 49.1811 6.32684C49.1985 6.34998 49.2303 6.3689 49.2518 6.3689C49.2733 6.3689 49.2909 6.37837 49.2909 6.38993C49.2909 6.4015 49.3106 6.41096 49.3348 6.41096C49.3589 6.41096 49.3787 6.42042 49.3787 6.43199C49.3787 6.44356 49.3963 6.45302 49.4178 6.45302C49.4393 6.45302 49.4711 6.47195 49.4885 6.49508C49.5059 6.51821 49.5377 6.53714 49.5592 6.53714C49.5807 6.53714 49.5983 6.5466 49.5983 6.55817C49.5983 6.56973 49.618 6.5792 49.6422 6.5792C49.6663 6.5792 49.6861 6.58866 49.6861 6.60023C49.6861 6.61179 49.7058 6.62126 49.73 6.62126C49.7541 6.62126 49.7739 6.63072 49.7739 6.64229C49.7739 6.65385 49.7937 6.66332 49.8178 6.66332C49.842 6.66332 49.8617 6.67278 49.8617 6.68435C49.8617 6.69591 49.8815 6.70538 49.9056 6.70538C49.9298 6.70538 49.9495 6.71484 49.9495 6.7264C49.9495 6.73797 49.9693 6.74743 49.9934 6.74743C50.0176 6.74743 50.0374 6.7569 50.0374 6.76846C50.0374 6.78003 50.0571 6.78949 50.0813 6.78949C50.1054 6.78949 50.1252 6.79896 50.1252 6.81052C50.1252 6.82209 50.1526 6.83155 50.1862 6.83155C50.222 6.83155 50.2603 6.84892 50.2789 6.87361C50.2975 6.8983 50.3357 6.91567 50.3715 6.91567C50.4051 6.91567 50.4326 6.92513 50.4326 6.9367C50.4326 6.94827 50.4622 6.95773 50.4984 6.95773C50.5346 6.95773 50.5643 6.96719 50.5643 6.97876C50.5643 6.99033 50.584 6.99979 50.6082 6.99979C50.6324 6.99979 50.6521 7.00925 50.6521 7.02082C50.6521 7.03238 50.6818 7.04185 50.718 7.04185C50.7542 7.04185 50.7838 7.05131 50.7838 7.06288C50.7838 7.07444 50.8135 7.08391 50.8497 7.08391C50.8859 7.08391 50.9156 7.09337 50.9156 7.10494C50.9156 7.1165 50.9353 7.12597 50.9595 7.12597C50.9836 7.12597 51.0034 7.13543 51.0034 7.147C51.0034 7.15856 51.033 7.16803 51.0693 7.16803C51.1055 7.16803 51.1351 7.17749 51.1351 7.18906C51.1351 7.20062 51.1747 7.21008 51.223 7.21008C51.2713 7.21008 51.3108 7.21955 51.3108 7.23111C51.3108 7.24268 51.3305 7.25214 51.3547 7.25214C51.3788 7.25214 51.3986 7.26161 51.3986 7.27317C51.3986 7.28474 51.4381 7.2942 51.4864 7.2942C51.5347 7.2942 51.5742 7.30367 51.5742 7.31523C51.5742 7.3268 51.6138 7.33626 51.6621 7.33626C51.7104 7.33626 51.7499 7.34573 51.7499 7.35729C51.7499 7.36886 51.7894 7.37832 51.8377 7.37832C51.886 7.37832 51.9255 7.38779 51.9255 7.39935C51.9255 7.41092 51.965 7.42038 52.0133 7.42038C52.0616 7.42038 52.1012 7.42984 52.1012 7.44141C52.1012 7.4531 52.1597 7.46244 52.2329 7.46244C52.3061 7.46244 52.3646 7.47178 52.3646 7.48347C52.3646 7.49504 52.4042 7.5045 52.4525 7.5045C52.5008 7.5045 52.5403 7.51396 52.5403 7.52553C52.5403 7.53722 52.5988 7.54656 52.672 7.54656C52.7452 7.54656 52.8037 7.5559 52.8037 7.56759C52.8037 7.58033 52.8989 7.58862 53.0452 7.58862C53.1916 7.58862 53.2868 7.5969 53.2868 7.60965C53.2868 7.62226 53.3746 7.63068 53.5063 7.63068C53.638 7.63068 53.7259 7.63909 53.7259 7.65171C53.7259 7.68224 53.8516 7.67755 53.8668 7.64645C53.877 7.62542 53.8821 7.62542 53.8924 7.64645C53.9025 7.66737 54.9274 7.67274 58.9092 7.67274H63.9132V7.60965C63.9132 7.57495 63.923 7.54656 63.9351 7.54656C63.9473 7.54656 63.9571 7.49047 63.9571 7.42038C63.9571 7.35029 63.9668 7.2942 63.979 7.2942C63.9932 7.2942 64.001 7.04185 64.001 6.5792C64.001 6.11655 63.9932 5.86419 63.979 5.86419C63.967 5.86419 63.9571 5.81688 63.9571 5.75904C63.9571 5.70121 63.9472 5.6539 63.9351 5.6539C63.9229 5.6539 63.9132 5.59781 63.9132 5.52772C63.9132 5.45763 63.9034 5.40154 63.8912 5.40154C63.8791 5.40154 63.8693 5.35423 63.8693 5.29639C63.8693 5.23856 63.8594 5.19125 63.8473 5.19125C63.8352 5.19125 63.8254 5.16286 63.8254 5.12816C63.8254 5.09346 63.8155 5.06507 63.8034 5.06507C63.7913 5.06507 63.7814 5.02722 63.7814 4.98095C63.7814 4.93469 63.7716 4.89683 63.7595 4.89683C63.7474 4.89683 63.7375 4.85898 63.7375 4.81271C63.7375 4.76645 63.7276 4.7286 63.7156 4.7286C63.7035 4.7286 63.6936 4.70967 63.6936 4.68654C63.6936 4.6634 63.6837 4.64448 63.6717 4.64448C63.6596 4.64448 63.6497 4.61609 63.6497 4.58139C63.6497 4.54669 63.6398 4.5183 63.6278 4.5183C63.6157 4.5183 63.6058 4.48991 63.6058 4.45521C63.6058 4.42051 63.5959 4.39212 63.5838 4.39212C63.5718 4.39212 63.5619 4.3732 63.5619 4.35006C63.5619 4.32693 63.552 4.308 63.5399 4.308C63.5279 4.308 63.518 4.28908 63.518 4.26594C63.518 4.24281 63.5081 4.22389 63.496 4.22389C63.4839 4.22389 63.4741 4.19758 63.4741 4.16544C63.4741 4.13112 63.4559 4.09449 63.4302 4.07668C63.4044 4.05887 63.3862 4.02223 63.3862 3.98791C63.3862 3.95578 63.3764 3.92947 63.3643 3.92947C63.3522 3.92947 63.3423 3.91263 63.3423 3.89206C63.3423 3.87147 63.3226 3.841 63.2984 3.82432C63.2743 3.80765 63.2545 3.77718 63.2545 3.75659C63.2545 3.73602 63.2446 3.71918 63.2326 3.71918C63.2205 3.71918 63.2106 3.70025 63.2106 3.67712C63.2106 3.65398 63.2007 3.63506 63.1886 3.63506C63.1766 3.63506 63.1667 3.61821 63.1667 3.59765C63.1667 3.57706 63.1469 3.54659 63.1228 3.52991C63.0986 3.51323 63.0789 3.48484 63.0789 3.46682C63.0789 3.4488 63.0591 3.42041 63.035 3.40373C63.0108 3.38706 62.991 3.35658 62.991 3.336C62.991 3.31543 62.9812 3.29858 62.9691 3.29858C62.957 3.29858 62.9471 3.28346 62.9471 3.26496C62.9471 3.24647 62.9175 3.20481 62.8813 3.17241C62.845 3.14 62.8154 3.10215 62.8154 3.08829C62.8154 3.07443 62.7858 3.03658 62.7495 3.00417C62.7133 2.97176 62.6837 2.93437 62.6837 2.92113C62.6837 2.90786 62.6145 2.83167 62.53 2.75182C62.4455 2.67197 62.3763 2.59653 62.3763 2.58421C62.3763 2.54941 62.0959 2.28917 62.0584 2.28917C62.0396 2.28917 62.025 2.2707 62.025 2.24711C62.025 2.22296 62.0104 2.20505 61.9907 2.20505C61.9717 2.20505 61.9082 2.15773 61.8494 2.0999C61.7905 2.04207 61.7309 1.99475 61.7169 1.99475C61.7028 1.99475 61.6636 1.96636 61.6298 1.93166C61.596 1.89696 61.5565 1.86857 61.542 1.86857C61.5275 1.86857 61.488 1.84018 61.4542 1.80549C61.4203 1.77079 61.3768 1.7424 61.3575 1.7424C61.3382 1.7424 61.3224 1.73293 61.3224 1.72137C61.3224 1.7098 61.3048 1.70034 61.2834 1.70034C61.2619 1.70034 61.2301 1.68141 61.2127 1.65828C61.1952 1.63515 61.1656 1.61622 61.1468 1.61622C61.128 1.61622 61.0983 1.59729 61.0809 1.57416C61.0635 1.55103 61.0339 1.5321 61.0151 1.5321C60.9962 1.5321 60.9666 1.51317 60.9492 1.49004C60.9318 1.46691 60.9 1.44798 60.8785 1.44798C60.857 1.44798 60.8394 1.43852 60.8394 1.42695C60.8394 1.41539 60.8197 1.40592 60.7955 1.40592C60.7714 1.40592 60.7516 1.39646 60.7516 1.38489C60.7516 1.37333 60.7318 1.36386 60.7077 1.36386C60.6835 1.36386 60.6638 1.3544 60.6638 1.34283C60.6638 1.33127 60.6363 1.32181 60.6028 1.32181C60.5669 1.32181 60.5287 1.30443 60.5101 1.27975C60.4927 1.25661 60.4609 1.23769 60.4394 1.23769C60.4179 1.23769 60.4003 1.22822 60.4003 1.21666C60.4003 1.20509 60.3707 1.19563 60.3344 1.19563C60.2982 1.19563 60.2686 1.18616 60.2686 1.1746C60.2686 1.16303 60.2488 1.15357 60.2247 1.15357C60.2005 1.15357 60.1808 1.14411 60.1808 1.13254C60.1808 1.12097 60.1511 1.11151 60.1149 1.11151C60.0787 1.11151 60.049 1.10205 60.049 1.09048C60.049 1.07891 60.0194 1.06945 59.9832 1.06945C59.9469 1.06945 59.9173 1.05999 59.9173 1.04842C59.9173 1.03685 59.8975 1.02739 59.8734 1.02739C59.8492 1.02739 59.8295 1.01793 59.8295 1.00636C59.8295 0.994795 59.7998 0.985332 59.7636 0.985332C59.7274 0.985332 59.6977 0.975869 59.6977 0.964302C59.6977 0.952736 59.6483 0.943273 59.588 0.943273C59.5276 0.943273 59.4782 0.93381 59.4782 0.922243C59.4782 0.910677 59.4584 0.901214 59.4343 0.901214C59.4101 0.901214 59.3904 0.89175 59.3904 0.880184C59.3904 0.868618 59.341 0.859155 59.2806 0.859155C59.2202 0.859155 59.1708 0.849691 59.1708 0.838125C59.1708 0.826117 59.1049 0.817095 59.0171 0.817095C58.9293 0.817095 58.8634 0.808074 58.8634 0.796066C58.8634 0.7845 58.814 0.775036 58.7537 0.775036C58.6933 0.775036 58.6439 0.765573 58.6439 0.754007C58.6439 0.741073 58.5341 0.732977 58.3585 0.732977C58.1828 0.732977 58.073 0.724881 58.073 0.711948C58.073 0.697984 55.9434 0.690918 51.7279 0.690918H45.3828V0.922243Z" fill="#0096DF"/>
</svg>
