<svg width="52" height="47" viewBox="0 0 52 47" fill="none" xmlns="http://www.w3.org/2000/svg">
<path d="M31.9991 34.4736H29.1485C28.7278 34.4736 28.3867 34.8147 28.3867 35.2354C28.3867 35.6562 28.7278 35.9971 29.1485 35.9971H31.9991C32.4198 35.9971 32.7608 35.6562 32.7608 35.2354C32.7608 34.8147 32.4198 34.4736 31.9991 34.4736Z" fill="#E2B061"/>
<path d="M48.7759 26.3191L44.6279 24.7191L42.513 22.6042C42.3773 22.4684 42.2023 22.3949 42.0235 22.3834V20.7006C43.0203 19.6378 43.7298 18.292 44.0161 16.7758C44.1938 16.7839 44.3733 16.7695 44.5503 16.7334C45.5638 16.5259 46.2995 15.5855 46.2995 14.4975V13.9421C46.2995 13.3127 46.0443 12.735 45.6286 12.3219C46.3013 8.66354 45.7473 5.68221 44.0193 3.68676C42.3478 1.75673 39.6549 0.834212 36.2321 1.01936C33.0697 1.1903 31.0283 2.64532 30.3815 3.17762C30.0275 3.21967 29.4244 3.34398 28.814 3.71022C27.9679 4.21784 26.9595 5.28417 26.9595 7.48133C26.9595 9.39806 27.2658 10.9983 27.4876 11.9062C26.7442 12.2684 26.2468 13.0533 26.2468 13.9506V14.4974C26.2468 15.5854 26.9825 16.5258 27.996 16.7333C28.173 16.7695 28.3526 16.7838 28.5302 16.7757C28.8165 18.2919 29.5261 19.6377 30.5228 20.7005V22.3833C30.3441 22.3948 30.169 22.4683 30.0333 22.6041L27.9184 24.719L23.7704 26.319C23.4115 26.4573 23.0688 26.6368 22.7517 26.8522C22.4037 27.0886 22.3133 27.5623 22.5497 27.9103C22.697 28.1272 22.9366 28.244 23.1804 28.244C23.3277 28.244 23.4766 28.2013 23.6078 28.1123C23.8289 27.9621 24.0681 27.8369 24.3186 27.7403L28.1682 26.2554L31.1116 30.6705C31.4764 31.2178 32.0612 31.5689 32.7158 31.6337C32.7886 31.641 32.8614 31.6445 32.9338 31.6445C33.3127 31.6445 33.6804 31.5449 34.0058 31.3607L33.3741 45.6883C33.3556 46.1086 33.6813 46.4643 34.1016 46.4828C34.113 46.4833 34.1244 46.4835 34.1358 46.4835C34.541 46.4835 34.8782 46.1641 34.8962 45.7553L35.4824 32.4563H37.0638L37.65 45.7553C37.668 46.1642 38.0052 46.4835 38.4104 46.4835C38.4218 46.4835 38.4332 46.4833 38.4446 46.4828C38.8648 46.4643 39.1906 46.1086 39.1721 45.6883L38.5404 31.3607C38.8659 31.5449 39.2334 31.6445 39.6125 31.6445C39.6848 31.6445 39.7576 31.641 39.8304 31.6337C40.485 31.5689 41.0697 31.2178 41.4346 30.6705L44.378 26.2554L48.2276 27.7403C48.7675 27.9485 49.2323 28.2807 49.5977 28.6952L46.964 31.3289C46.0125 32.2804 45.4885 33.5455 45.4885 34.891V45.7219C45.4885 46.1426 45.8295 46.4836 46.2502 46.4836C46.6709 46.4836 47.012 46.1426 47.012 45.7219V34.891C47.012 33.9525 47.3775 33.0699 48.0412 32.4061L50.3526 30.0947C50.4455 30.4353 50.4888 30.7933 50.4742 31.1593L49.8842 45.691C49.8671 46.1114 50.1941 46.466 50.6144 46.4831C50.6249 46.4835 50.6354 46.4837 50.6458 46.4837C51.0522 46.4837 51.3898 46.1627 51.4064 45.753L51.9966 31.2209C52.083 29.0653 50.7887 27.0954 48.7759 26.3191ZM30.0214 16.4617C29.887 15.7303 29.2098 15.1987 28.4788 15.2529C28.421 15.257 28.3615 15.253 28.3016 15.2408C27.9987 15.1788 27.7703 14.8592 27.7703 14.4975V13.9505C27.7703 13.5972 28.0064 13.2789 28.3078 13.2259C28.5621 13.1812 28.8057 13.2746 28.9597 13.4756C29.0996 13.6579 29.2862 13.7883 29.4991 13.8525C29.8111 13.9467 30.1551 13.8914 30.4196 13.7047C30.896 13.3684 31.3162 12.9576 31.6688 12.4835C31.9198 12.1459 31.8495 11.6687 31.512 11.4178C31.1743 11.1667 30.6973 11.2369 30.4462 11.5745C30.2704 11.8109 30.0718 12.0255 29.8531 12.2155C29.6116 12.0089 29.3294 11.8596 29.0271 11.7744C28.8313 11.0246 28.483 9.41837 28.483 7.48112C28.483 6.31445 28.8426 5.49472 29.5518 5.04479C30.1053 4.69368 30.691 4.67966 30.6906 4.67956C30.8853 4.67956 31.0748 4.60288 31.2162 4.46912C31.2348 4.45165 33.1073 2.71387 36.3141 2.5405C39.2496 2.38206 41.5157 3.12308 42.8674 4.68393C44.2298 6.25716 44.6835 8.67248 44.1913 11.6956C43.9873 11.6883 43.7639 11.7038 43.5416 11.7409L42.826 10.0222C42.6799 9.67157 42.2974 9.48226 41.93 9.57803C41.8592 9.59652 34.8247 11.3798 31.8751 7.70761C31.6118 7.37966 31.1324 7.32725 30.8042 7.59071C30.4763 7.85417 30.4239 8.33356 30.6874 8.66161C33.6994 12.4116 39.6759 11.5958 41.6654 11.198L42.2188 12.527C42.4568 13.0983 43.0656 13.4103 43.6656 13.2688C43.9119 13.2108 44.1472 13.2095 44.2356 13.227C44.5436 13.2883 44.7759 13.5955 44.7759 13.9419V14.4974C44.7759 14.8592 44.5475 15.1787 44.2446 15.2407C44.1848 15.253 44.125 15.257 44.0674 15.2528C43.3365 15.1995 42.6593 15.7301 42.5248 16.4617C41.9707 19.4786 39.3415 21.6683 36.2731 21.6683C33.2047 21.6683 30.5755 19.4786 30.0214 16.4617ZM33.4005 29.9267C33.2074 30.1199 32.9828 30.1294 32.866 30.1178C32.7493 30.1063 32.5308 30.0529 32.3793 29.8256L29.4141 25.3779L30.6066 24.1854L35.1587 28.1686L33.4005 29.9267ZM35.5496 30.933L35.5957 29.886L36.273 29.2087L36.9503 29.886L36.9964 30.933H35.5496ZM36.2731 27.1192L32.0463 23.4207V21.9628C33.2752 22.7444 34.7292 23.1918 36.2731 23.1918C37.817 23.1918 39.2711 22.7444 40.5 21.9628V23.4207L36.2731 27.1192ZM40.1671 29.8256C40.0155 30.053 39.797 30.1063 39.6804 30.1178C39.5635 30.1294 39.3389 30.1199 39.1458 29.9266L37.3876 28.1685L41.9397 24.1853L43.1322 25.3778L40.1671 29.8256Z" fill="#58595B"/>
<path d="M24.1567 30.3109L20.4371 28.6874L18.4039 26.6541C18.2677 26.5178 18.0926 26.4447 17.9144 26.4333V25.235C19.6521 24.0931 20.9236 22.277 21.3322 20.113C21.5323 20.1219 21.7343 20.1027 21.9334 20.0557C22.9081 19.825 23.6155 18.8909 23.6155 17.8346V17.2793C23.6155 16.5076 23.2326 15.8134 22.6394 15.4061C22.8139 14.7149 22.9028 14.0077 22.9028 13.2958C22.9028 10.14 21.197 7.36037 18.6256 5.76438C18.5982 3.1305 16.3501 0.995605 13.5892 0.995605C10.8284 0.995605 8.58027 3.1305 8.55284 5.76438C5.98163 7.36037 4.27574 10.1401 4.27574 13.2958C4.27574 14.0056 4.36411 14.7107 4.53758 15.4C3.94464 15.8053 3.56306 16.5027 3.56306 17.2876V17.8346C3.56306 18.8909 4.27046 19.825 5.24518 20.0557C5.44425 20.1028 5.64616 20.1219 5.84634 20.113C6.25494 22.277 7.52663 24.0931 9.26431 25.235V26.4333C9.08606 26.4447 8.91096 26.5178 8.77476 26.6541L6.74154 28.6874L3.02213 30.3109C1.12967 31.137 -0.0830121 33.0781 0.00443519 35.1412L0.454266 45.754C0.471633 46.1633 0.80893 46.4836 1.21478 46.4836C1.22565 46.4836 1.23662 46.4833 1.24759 46.4828C1.66797 46.4651 1.99419 46.1099 1.97642 45.6895L1.52649 35.0766C1.49754 34.3928 1.67528 33.7292 2.00943 33.1581L4.00873 35.5573C4.64057 36.3155 4.98843 37.2765 4.98843 38.2633V45.7218C4.98843 46.1425 5.32948 46.4836 5.75016 46.4836C6.17084 46.4836 6.5119 46.1425 6.5119 45.7218V38.2633C6.5119 36.9208 6.0385 35.6135 5.17906 34.5821L3.05362 32.0315C3.2343 31.907 3.42636 31.7967 3.63162 31.7071L6.87316 30.2921L9.16386 34.0103C9.39004 34.3774 9.764 34.6264 10.19 34.6934C10.2665 34.7055 10.3433 34.7114 10.4198 34.7114C10.7681 34.7114 11.1073 34.588 11.3762 34.3584L12.8278 33.1199V45.7217C12.8278 46.1424 13.1689 46.4835 13.5895 46.4835C14.0102 46.4835 14.3513 46.1424 14.3513 45.7217V33.1201L15.8027 34.3586C16.0717 34.5882 16.4109 34.7116 16.7592 34.7116C16.8356 34.7116 16.9124 34.7056 16.989 34.6936C17.415 34.6266 17.7889 34.3776 18.0151 34.0105L20.3058 30.2922L23.5474 31.7072C23.7525 31.7968 23.9447 31.9071 24.1254 32.0316L21.9999 34.5822C21.1405 35.6135 20.6671 36.9209 20.6671 38.2634V45.7219C20.6671 46.1426 21.0081 46.4837 21.4288 46.4837C21.8495 46.4837 22.1906 46.1426 22.1906 45.7219V38.2634C22.1906 37.2766 22.5385 36.3156 23.1703 35.5574L25.1696 33.1582C25.5037 33.7293 25.6814 34.3929 25.6525 35.0767L25.2027 45.6896C25.1849 46.1099 25.5111 46.4651 25.9315 46.4829C25.9425 46.4835 25.9533 46.4837 25.9643 46.4837C26.3702 46.4837 26.7075 46.1635 26.7248 45.7541L27.1747 35.1413C27.262 33.0782 26.0492 31.137 24.1567 30.3109ZM13.5894 2.51908C15.21 2.51908 16.5773 3.55291 16.9816 4.95369C15.93 4.55677 14.7858 4.33851 13.5894 4.33851C12.3931 4.33851 11.2489 4.55677 10.1973 4.95369C10.6016 3.55291 11.9688 2.51908 13.5894 2.51908ZM7.33762 19.799C7.20335 19.0674 6.525 18.5361 5.79515 18.5901C5.73046 18.5947 5.66363 18.5892 5.59619 18.5731C5.30571 18.5044 5.08664 18.1869 5.08664 17.8346V17.2876C5.08664 16.9343 5.32278 16.616 5.62412 16.5631C5.87844 16.5184 6.12189 16.6118 6.27586 16.8126C6.41572 16.995 6.60229 17.1254 6.81548 17.1898C7.12738 17.2841 7.47158 17.2287 7.73586 17.0419C8.20498 16.7108 8.61977 16.3072 8.96875 15.8425C9.22134 15.5061 9.1534 15.0285 8.81701 14.776C8.48053 14.5234 8.00307 14.5914 7.75048 14.9278C7.57772 15.1578 7.38322 15.3669 7.16933 15.5527C6.84341 15.274 6.44375 15.0995 6.01982 15.0466C5.87387 14.4729 5.79922 13.8861 5.79922 13.2959C5.79922 9.19697 9.29386 5.86208 13.5894 5.86208C17.8849 5.86208 21.3796 9.19687 21.3796 13.2959C21.3796 13.885 21.3053 14.4705 21.1599 15.0432C20.9594 15.0592 20.7557 15.092 20.5671 15.1409L19.9944 14.6701C19.7067 14.4334 19.3445 14.315 18.978 14.3369C17.8583 14.403 12.1242 14.5544 9.18224 11.0336C8.91249 10.7108 8.43219 10.6677 8.10931 10.9375C7.78644 11.2072 7.74347 11.6876 8.01323 12.0104C9.46419 13.7469 11.5923 14.9211 14.3383 15.5004C16.4408 15.9439 18.3098 15.9009 19.0421 15.8591L19.9354 16.5937C20.1813 16.7959 20.5261 16.8245 20.8015 16.6642C20.9307 16.5938 21.3633 16.5266 21.5521 16.5643C21.8602 16.6255 22.0924 16.9329 22.0924 17.2793V17.8346C22.0924 18.187 21.8733 18.5045 21.5828 18.5731C21.5155 18.5891 21.4485 18.5949 21.3838 18.59C20.6544 18.537 19.9756 19.0674 19.8413 19.7989C19.2871 22.8159 16.6579 25.0056 13.5895 25.0056C10.5211 25.0056 7.89176 22.8159 7.33762 19.799ZM10.4309 33.1625L8.13978 29.4436L9.31346 28.2699L12.4679 31.4243L10.4309 33.1625ZM13.5894 30.3913L10.7879 27.5898V26.0139C11.6625 26.3468 12.6075 26.5291 13.5894 26.5291C14.5714 26.5291 15.5164 26.3468 16.391 26.014V27.5898L13.5894 30.3913ZM16.748 33.1625L14.711 31.4243L17.8654 28.2699L19.0391 29.4436L16.748 33.1625Z" fill="#58595B"/>
<path d="M10.7395 37.8335H8.60158C8.1809 37.8335 7.83984 38.1746 7.83984 38.5952C7.83984 39.0159 8.1809 39.357 8.60158 39.357H10.7395C11.1602 39.357 11.5013 39.0159 11.5013 38.5952C11.5013 38.1746 11.1602 37.8335 10.7395 37.8335Z" fill="#E2B061"/>
</svg>
