<svg width="44" height="45" viewBox="0 0 44 45" fill="none" xmlns="http://www.w3.org/2000/svg">
<path d="M27.8661 0C27.4614 0 27.1328 0.328544 27.1328 0.733316C27.1328 1.13809 27.4614 1.46663 27.8661 1.46663C35.9535 1.46663 42.533 8.04619 42.533 16.1335C42.533 16.5383 42.8616 16.8669 43.2664 16.8669C43.6719 16.8669 43.9997 16.5383 43.9997 16.1335C43.9997 7.23742 36.7623 0 27.8661 0Z" fill="#E2B061"/>
<path d="M27.8661 4.40039C27.4614 4.40039 27.1328 4.72893 27.1328 5.13371C27.1328 5.53848 27.4614 5.86702 27.8661 5.86702C33.5275 5.86702 38.133 10.4724 38.133 16.1339C38.133 16.5386 38.4615 16.8672 38.8663 16.8672C39.2718 16.8672 39.5996 16.5386 39.5996 16.1339C39.5996 9.6644 34.3364 4.40039 27.8661 4.40039Z" fill="#E2B061"/>
<path d="M27.8661 8.80029C27.4614 8.80029 27.1328 9.12884 27.1328 9.53361C27.1328 9.93838 27.4614 10.2669 27.8661 10.2669C31.1009 10.2669 33.7329 12.8989 33.7329 16.1337C33.7329 16.5385 34.0615 16.867 34.4662 16.867C34.8718 16.867 35.1995 16.5385 35.1995 16.1337C35.1995 12.0901 31.9097 8.80029 27.8661 8.80029Z" fill="#E2B061"/>
<path d="M39.6834 27.5193C37.688 27.2568 35.7204 26.7669 33.8357 26.0651C32.0104 25.3808 29.9365 25.8223 28.5475 27.1929L26.2294 29.5059C21.3688 26.64 17.3083 22.5876 14.4358 17.7365L16.7554 15.4221C18.1267 14.0383 18.5696 11.9666 17.884 10.1457C17.1808 8.26397 16.6901 6.30079 16.4261 4.30236C16.0748 1.82509 13.9298 -0.00901389 11.4225 0.00052532H5.00649C4.85687 0.00052532 4.70725 0.00783012 4.55918 0.0210647C3.22661 0.141379 2.02029 0.772771 1.16296 1.79802C0.305724 2.82396 -0.100595 4.12198 0.0211803 5.46469C0.731808 12.144 3.04184 18.6539 6.69759 24.286C10.0167 29.4986 14.5319 34.005 19.7496 37.3139C25.3715 40.9527 31.8637 43.2577 38.5394 43.9814C38.6905 43.9947 38.8422 44.0012 38.9948 44.0012C38.9992 44.0012 39.0035 44.0012 39.0087 44.0012C41.772 43.9894 44.0101 41.7366 43.9991 38.9814V32.5874C44.0571 30.0523 42.206 27.8743 39.6834 27.5193ZM42.5324 32.561C42.5324 32.5669 42.5324 32.5735 42.5324 32.5793V38.9851C42.5397 40.9344 40.9565 42.5272 39.0036 42.5353C38.8892 42.5309 38.7792 42.5309 38.6824 42.522C32.2481 41.8238 25.9764 39.5974 20.5402 36.0788C15.4977 32.8807 11.1387 28.5305 7.93107 23.4924C4.39701 18.0482 2.16621 11.7605 1.48051 5.321C1.39543 4.38083 1.68221 3.4642 2.28868 2.73888C2.89515 2.01356 3.748 1.56702 4.69109 1.48194C4.79594 1.4724 4.90087 1.46724 5.0064 1.46724H11.429C11.4408 1.46724 11.4525 1.46724 11.4643 1.46724C13.2214 1.46724 14.7269 2.76896 14.9726 4.50105C15.2505 6.60209 15.7675 8.6745 16.5103 10.6611C16.9951 11.9489 16.682 13.4127 15.7161 14.3873L12.9998 17.0977C12.7651 17.3316 12.7167 17.6925 12.8803 17.98C15.9882 23.436 20.521 27.9593 25.9866 31.0606C26.2741 31.2242 26.6334 31.1743 26.8667 30.9418L29.58 28.2343C30.5605 27.2671 32.0293 26.9554 33.3215 27.4394C35.3103 28.1801 37.3864 28.6971 39.4845 28.9728C41.2666 29.2236 42.5771 30.7658 42.5324 32.561Z" fill="#58595B"/>
<path d="M10.9997 2.93359H5.00608C4.94446 2.93359 4.88362 2.93652 4.82277 2.94236C4.07553 3.00982 3.6186 3.43367 3.41329 3.67937C3.24829 3.8766 2.87136 4.41492 2.93736 5.15417C3.2146 7.75536 3.71614 10.2861 4.42969 12.6768C4.52499 12.9944 4.81615 13.2004 5.13224 13.2004C5.20193 13.2004 5.27232 13.1909 5.3427 13.1697C5.73063 13.0538 5.95141 12.6454 5.83547 12.2574C5.14762 9.95325 4.66361 7.51121 4.39737 5.01125C4.38053 4.82502 4.50153 4.6644 4.53892 4.61894C4.59907 4.54709 4.73322 4.42317 5.00608 4.4004H10.9982C10.999 4.4004 10.999 4.4004 10.999 4.4004C11.4038 4.4004 11.7323 4.07263 11.7323 3.66777C11.733 3.26283 11.4045 2.93359 10.9997 2.93359Z" fill="#E2B061"/>
<path d="M40.3339 32.2676C39.9291 32.2676 39.6005 32.5961 39.6005 33.0009L39.5998 38.9842C39.6005 39.1492 39.5375 39.3047 39.4223 39.4205C39.3071 39.5364 39.1546 39.6002 39.0095 39.6009L38.942 39.5994C36.4362 39.3274 34.0147 38.8448 31.745 38.165C31.3585 38.0484 30.9486 38.2692 30.832 38.6571C30.7153 39.045 30.9361 39.4535 31.324 39.5701C33.6788 40.2756 36.189 40.7758 38.7968 41.0589C38.857 41.0647 38.9795 41.0676 38.9971 41.0676C39.5522 41.0654 40.0729 40.8476 40.4638 40.4538C40.8546 40.0593 41.0688 39.5357 41.0666 38.9813L41.0673 33.0009C41.0673 32.5961 40.7387 32.2676 40.3339 32.2676Z" fill="#E2B061"/>
</svg>
