<svg width="140" height="139" viewBox="0 0 140 139" fill="none" xmlns="http://www.w3.org/2000/svg">
<path d="M68.284 1.19666C69.315 0.477668 70.685 0.477668 71.716 1.19666L80.465 7.29782C81.1715 7.79046 82.0556 7.95572 82.8923 7.75155L93.2545 5.2229C94.4756 4.92492 95.7531 5.4198 96.4548 6.46269L102.409 15.3124C102.89 16.0269 103.654 16.5004 104.508 16.6123L115.084 17.9977C116.331 18.1609 117.343 19.0838 117.621 20.3098L119.976 30.7128C120.166 31.5528 120.708 32.2705 121.464 32.6833L130.825 37.7956C131.929 38.3981 132.539 39.6244 132.355 40.8678L130.793 51.4192C130.667 52.2711 130.913 53.1362 131.469 53.7942L138.352 61.9429C139.163 62.9032 139.289 64.2673 138.668 65.3603L133.4 74.635C132.975 75.3839 132.892 76.2794 133.172 77.0937L136.646 87.1784C137.056 88.3669 136.681 89.6845 135.707 90.4794L127.445 97.2248C126.778 97.7695 126.377 98.5746 126.344 99.4352L125.94 110.094C125.893 111.35 125.067 112.443 123.872 112.833L113.731 116.138C112.912 116.405 112.247 117.011 111.906 117.801L107.679 127.594C107.181 128.748 106.016 129.47 104.761 129.401L94.1109 128.82C93.2509 128.773 92.4122 129.098 91.8084 129.712L84.3294 137.317C83.448 138.213 82.1014 138.464 80.9558 137.947L71.2346 133.558C70.4497 133.203 69.5503 133.203 68.7654 133.558L59.0442 137.947C57.8986 138.464 56.552 138.213 55.6706 137.317L48.1916 129.712C47.5878 129.098 46.7491 128.773 45.8891 128.82L35.2387 129.401C33.9836 129.47 32.8188 128.748 32.3207 127.594L28.094 117.801C27.7527 117.011 27.088 116.405 26.2692 116.138L16.1279 112.833C14.9328 112.443 14.1072 111.35 14.0596 110.094L13.656 99.4352C13.6234 98.5746 13.2225 97.7695 12.5553 97.2248L4.2928 90.4794C3.31909 89.6845 2.94418 88.3669 3.35358 87.1784L6.82754 77.0937C7.10804 76.2794 7.02506 75.3839 6.59971 74.635L1.33183 65.3603C0.711036 64.2673 0.837439 62.9032 1.6485 61.9429L8.53089 53.7942C9.08661 53.1362 9.33274 52.2711 9.20664 51.4192L7.64489 40.8678C7.46084 39.6244 8.07148 38.3981 9.17467 37.7956L18.536 32.6833C19.2919 32.2705 19.8339 31.5528 20.024 30.7128L22.3793 20.3098C22.6569 19.0838 23.6693 18.1609 24.9156 17.9977L35.4916 16.6123C36.3455 16.5004 37.1102 16.0269 37.591 15.3124L43.5452 6.4627C44.2469 5.4198 45.5244 4.92491 46.7455 5.2229L57.1077 7.75155C57.9444 7.95572 58.8285 7.79046 59.535 7.29782L68.284 1.19666Z" fill="#E2B061"/>
</svg>
