<svg width="45" height="43" viewBox="0 0 45 43" fill="none" xmlns="http://www.w3.org/2000/svg">
<path d="M22.9805 41.5664C22.8235 41.4102 22.6056 41.3203 22.3835 41.3203C22.1613 41.3203 21.9435 41.4102 21.7865 41.5664C21.6294 41.7226 21.5391 41.9393 21.5391 42.1602C21.5391 42.381 21.6293 42.5977 21.7865 42.7539C21.9435 42.9101 22.1613 43 22.3835 43C22.6056 43 22.8235 42.9101 22.9805 42.7539C23.1375 42.5977 23.228 42.381 23.228 42.1602C23.228 41.9393 23.1376 41.7226 22.9805 41.5664Z" fill="#58595B"/>
<path d="M39.5125 27.4688L36.6956 26.7995V25.6882C38.2592 24.7053 39.3006 22.972 39.3006 21.0004V17.8705C39.3006 14.8141 36.8003 12.3276 33.727 12.3276C32.0691 12.3276 30.5789 13.052 29.557 14.1983C28.6621 11.1158 25.7996 8.85498 22.416 8.85498H22.4159C19.0267 8.85498 16.1604 11.123 15.2704 14.213C14.2483 13.0582 12.7526 12.3276 11.0876 12.3276C8.01433 12.3276 5.51406 14.8142 5.51406 17.8705V21.0004C5.51406 22.9721 6.55544 24.7054 8.11904 25.6882V26.7995L5.3021 27.4688C2.64484 28.1 0.789062 30.4384 0.789062 33.1552V38.8007C0.789062 39.2645 1.16721 39.6405 1.63352 39.6405H8.38606V42.1601C8.38606 42.6239 8.76421 42.9999 9.23052 42.9999H18.4946C18.9609 42.9999 19.339 42.6239 19.339 42.1601C19.339 41.6962 18.9609 41.3202 18.4946 41.3202H14.7246V37.6239C14.7246 37.1601 14.3465 36.7841 13.8802 36.7841C13.4139 36.7841 13.0357 37.1601 13.0357 37.6239V41.3202H10.0749V37.531C10.0749 34.6828 12.02 32.23 14.8051 31.5663L18.9584 30.5764L21.6308 36.623C21.7656 36.9279 22.0688 37.1249 22.4037 37.1249H22.4038C22.7387 37.1249 23.042 36.928 23.1768 36.6231L25.8465 30.5853L29.9877 31.5692C32.7754 32.2314 34.7222 34.6847 34.7222 37.535V38.4721C34.679 38.5731 34.655 38.684 34.655 38.8006C34.655 38.9172 34.679 39.0282 34.7222 39.1291V41.3202H31.7786V37.6239C31.7786 37.1601 31.4005 36.7841 30.9342 36.7841C30.4679 36.7841 30.0897 37.1601 30.0897 37.6239V41.3202H25.954C25.4877 41.3202 25.1095 41.6962 25.1095 42.1601C25.1095 42.6239 25.4877 42.9999 25.954 42.9999H35.5666C36.0329 42.9999 36.4111 42.6239 36.4111 42.1601V39.6405H43.1808C43.6472 39.6405 44.0253 39.2645 44.0253 38.8007V33.1552C44.0253 30.4384 42.1695 28.1 39.5125 27.4688ZM33.7269 14.0073C35.8689 14.0073 37.6116 15.7404 37.6116 17.8705V18.0785V18.1629H35.1962C33.3716 18.1629 31.5788 17.6864 29.9987 16.7834C30.4721 15.1808 31.9642 14.0073 33.7269 14.0073ZM29.8422 20.8633C29.8452 20.7776 29.8473 18.6051 29.8473 18.6051C31.5074 19.4171 33.3376 19.8427 35.1962 19.8427H37.6116V21.0005C37.6116 23.1306 35.8689 24.8637 33.7269 24.8637C31.5849 24.8637 29.8422 23.1306 29.8422 21.0004V20.8633ZM16.6733 16.2457C16.6733 13.0966 19.2494 10.5348 22.4159 10.5348C25.5823 10.5348 28.1584 13.0967 28.1584 16.2457V16.3552L25.0242 14.5239C24.6686 14.3161 24.2141 14.3943 23.9492 14.7086C22.7315 16.1538 20.9456 16.9827 19.0495 16.9827H16.6733V16.2457ZM7.2028 18.0786V17.8705C7.2028 15.7403 8.94551 14.0073 11.0875 14.0073C12.8501 14.0073 14.3423 15.1808 14.8156 16.7834C13.2355 17.6864 11.4427 18.163 9.61812 18.163H7.2028V18.0786ZM7.2028 21.0004V19.8426H9.61821C11.4787 19.8426 13.3108 19.4163 14.9722 18.6027V21.0004C14.9722 23.1306 13.2294 24.8637 11.0875 24.8637C8.94551 24.8637 7.2028 23.1306 7.2028 21.0004ZM8.38606 37.531V37.9608H5.85581V34.2295C5.85581 33.7657 5.47766 33.3897 5.01135 33.3897C4.54504 33.3897 4.16689 33.7657 4.16689 34.2295V37.9608H2.47798V33.1552C2.47798 31.2189 3.80057 29.5524 5.69426 29.1025L8.37103 28.4665L10.118 32.6283C9.0254 33.9783 8.38606 35.6894 8.38606 37.531ZM11.0876 30.5781L9.80517 27.5229C9.80661 27.5028 9.80779 27.4827 9.80779 27.4624V26.3943C10.219 26.4907 10.6471 26.5433 11.0875 26.5433C11.5259 26.5433 11.952 26.4911 12.3616 26.3955V27.4092C12.3607 27.425 12.3602 27.4408 12.3602 27.4566C12.3602 27.483 12.3628 27.5093 12.3653 27.5356L11.0876 30.5781ZM14.4116 29.9329C13.913 30.0517 13.4364 30.2171 12.984 30.421L13.8065 28.4623L16.4836 29.1003C16.6913 29.1498 16.8936 29.2152 17.0895 29.2947L14.4116 29.9329ZM18.6032 28.1824C18.073 27.8553 17.4913 27.6132 16.8773 27.4669L14.0505 26.7933V25.6918C14.7535 25.2512 15.3506 24.6589 15.7958 23.9612C16.4324 25.1982 17.4095 26.234 18.6032 26.9466V28.1824ZM24.5127 29.4291L22.404 34.1983L20.2921 29.4198V27.6877C20.9653 27.8878 21.6781 27.9957 22.4158 27.9957C23.1437 27.9957 23.8474 27.8905 24.5127 27.6956V29.4291ZM22.4159 26.3161C19.2493 26.316 16.6733 23.7541 16.6733 20.6051V18.6625H19.0494C21.2048 18.6625 23.2477 17.8153 24.7569 16.3159L28.1534 18.3004V20.8022C28.0483 23.8601 25.5159 26.3161 22.4159 26.3161ZM26.2016 26.9623H26.2017C27.4027 26.2523 28.3866 25.2156 29.0282 23.9759C29.4723 24.6672 30.0659 25.2542 30.7639 25.6918V26.7933L27.9371 27.4669C27.3193 27.6141 26.7344 27.8585 26.2016 28.1885V26.9623ZM30.38 29.9356L27.7094 29.3011C27.9101 29.2187 28.1176 29.1511 28.3307 29.1003L31.0014 28.4639L31.8273 30.4313C31.369 30.2237 30.8859 30.0558 30.38 29.9356ZM32.4473 27.5481C32.4507 27.5176 32.4531 27.487 32.4531 27.4563C32.4531 27.4484 32.453 27.4405 32.4528 27.4327V26.3955C32.8623 26.4912 33.2884 26.5433 33.7269 26.5433C34.1673 26.5433 34.5954 26.4907 35.0066 26.3942V27.4623C35.0066 27.4776 35.0077 27.4926 35.0085 27.5077L33.7192 30.5781L32.4473 27.5481ZM42.3364 37.9608H40.6475V34.2295C40.6475 33.7657 40.2693 33.3897 39.803 33.3897C39.3367 33.3897 38.9586 33.7657 38.9586 34.2295V37.9608H36.4111V37.535C36.4111 35.6959 35.7739 33.9871 34.6843 32.6383L36.4368 28.465L39.1201 29.1025C41.0138 29.5524 42.3364 31.2189 42.3364 33.1552V37.9608Z" fill="#58595B"/>
<path d="M20.1719 19.6675C20.0149 19.5112 19.797 19.4214 19.5749 19.4214C19.3528 19.4214 19.135 19.5112 18.9779 19.6675C18.8208 19.8237 18.7305 20.0404 18.7305 20.2612C18.7305 20.4821 18.8207 20.6988 18.9779 20.855C19.135 21.0112 19.3528 21.1011 19.5749 21.1011C19.7979 21.1011 20.0149 21.0112 20.1719 20.855C20.3298 20.6988 20.4194 20.4821 20.4194 20.2612C20.4194 20.0404 20.3298 19.8237 20.1719 19.6675Z" fill="#58595B"/>
<path d="M25.8203 19.6675C25.6633 19.5112 25.4455 19.4214 25.2234 19.4214C25.0013 19.4214 24.7834 19.5112 24.6263 19.6675C24.4693 19.8237 24.3789 20.0404 24.3789 20.2612C24.3789 20.4821 24.4692 20.6988 24.6263 20.855C24.7835 21.0112 25.0013 21.1011 25.2234 21.1011C25.4455 21.1011 25.6633 21.0112 25.8203 20.855C25.9782 20.6988 26.0678 20.4821 26.0678 20.2612C26.0678 20.0404 25.9782 19.8237 25.8203 19.6675Z" fill="#58595B"/>
<path d="M24.0338 22.4945C23.704 22.1665 23.1694 22.1665 22.8395 22.4945C22.5898 22.7428 22.1835 22.7428 21.9338 22.4945C21.604 22.1665 21.0694 22.1665 20.7395 22.4945C20.4097 22.8225 20.4097 23.3543 20.7395 23.6823C21.1937 24.1339 21.7901 24.3597 22.3866 24.3597C22.9831 24.3597 23.5796 24.134 24.0337 23.6823C24.3636 23.3543 24.3636 22.8225 24.0338 22.4945Z" fill="#58595B"/>
<path d="M35.7049 4.53516H35.1257C34.6594 4.53516 34.2812 4.91115 34.2812 5.375C34.2812 5.83885 34.6594 6.21484 35.1257 6.21484H35.7049C36.1712 6.21484 36.5494 5.83885 36.5494 5.375C36.5494 4.91115 36.1712 4.53516 35.7049 4.53516Z" fill="#E2B061"/>
<path d="M39.8026 4.53516H39.2234C38.7571 4.53516 38.3789 4.91115 38.3789 5.375C38.3789 5.83885 38.757 6.21484 39.2234 6.21484H39.8026C40.2689 6.21484 40.647 5.83885 40.647 5.375C40.647 4.91115 40.2689 4.53516 39.8026 4.53516Z" fill="#E2B061"/>
<path d="M37.4616 6.28467C36.9953 6.28467 36.6172 6.66067 36.6172 7.12451V7.70056C36.6172 8.1644 36.9953 8.5404 37.4616 8.5404C37.928 8.5404 38.3061 8.1644 38.3061 7.70056V7.12451C38.3061 6.66067 37.928 6.28467 37.4616 6.28467Z" fill="#E2B061"/>
<path d="M37.4616 2.20972C36.9953 2.20972 36.6172 2.58571 36.6172 3.04956V3.62561C36.6172 4.08945 36.9953 4.46545 37.4616 4.46545C37.928 4.46545 38.3061 4.08945 38.3061 3.62561V3.04956C38.3061 2.58571 37.928 2.20972 37.4616 2.20972Z" fill="#E2B061"/>
<path d="M5.54077 4.53516H4.96165C4.49534 4.53516 4.11719 4.91115 4.11719 5.375C4.11719 5.83885 4.49534 6.21484 4.96165 6.21484H5.54077C6.00708 6.21484 6.38523 5.83885 6.38523 5.375C6.38523 4.91115 6.00708 4.53516 5.54077 4.53516Z" fill="#E2B061"/>
<path d="M9.64234 4.53516H9.06321C8.5969 4.53516 8.21875 4.91115 8.21875 5.375C8.21875 5.83885 8.59681 6.21484 9.06321 6.21484H9.64234C10.1086 6.21484 10.4868 5.83885 10.4868 5.375C10.4868 4.91115 10.1086 4.53516 9.64234 4.53516Z" fill="#E2B061"/>
<path d="M7.30149 6.28467C6.83518 6.28467 6.45703 6.66067 6.45703 7.12451V7.70056C6.45703 8.1644 6.8351 8.5404 7.30149 8.5404C7.7678 8.5404 8.14595 8.1644 8.14595 7.70056V7.12451C8.14595 6.66067 7.7678 6.28467 7.30149 6.28467Z" fill="#E2B061"/>
<path d="M7.30149 2.20972C6.83518 2.20972 6.45703 2.58571 6.45703 3.04956V3.62561C6.45703 4.08945 6.8351 4.46545 7.30149 4.46545C7.7678 4.46545 8.14595 4.08945 8.14595 3.62561V3.04956C8.14595 2.58571 7.7678 2.20972 7.30149 2.20972Z" fill="#E2B061"/>
<path d="M22.407 3.19873C21.9406 3.19873 21.5625 3.57473 21.5625 4.03857V6.2482C21.5625 6.71205 21.9406 7.08805 22.407 7.08805C22.8733 7.08805 23.2514 6.71205 23.2514 6.2482V4.03857C23.2514 3.57473 22.8733 3.19873 22.407 3.19873Z" fill="#E2B061"/>
<path d="M23.0039 0.246074C22.8469 0.0898632 22.6291 0 22.407 0C22.1849 0 21.967 0.0898632 21.8099 0.246074C21.6528 0.402285 21.5625 0.618964 21.5625 0.839843C21.5625 1.06072 21.6528 1.2774 21.8099 1.43361C21.9671 1.58982 22.1849 1.67969 22.407 1.67969C22.6291 1.67969 22.8469 1.58982 23.0039 1.43361C23.1611 1.2774 23.2514 1.06072 23.2514 0.839843C23.2514 0.618964 23.1611 0.402285 23.0039 0.246074Z" fill="#E2B061"/>
<path d="M19.4469 3.36928L18.2112 2.14026C17.8813 1.8123 17.3468 1.8123 17.0169 2.14026C16.6871 2.46821 16.6871 3 17.0169 3.32805L18.2527 4.55707C18.4176 4.72109 18.6337 4.80306 18.8498 4.80306C19.0659 4.80306 19.282 4.72109 19.4469 4.55707C19.7767 4.22911 19.7767 3.69733 19.4469 3.36928Z" fill="#E2B061"/>
<path d="M27.7968 2.09411C27.467 1.76615 26.9324 1.76615 26.6025 2.09411L25.3254 3.36421C24.9957 3.69217 24.9957 4.22396 25.3254 4.552C25.4905 4.71602 25.7065 4.79799 25.9226 4.79799C26.1388 4.79799 26.3548 4.71602 26.5198 4.552L27.7968 3.2819C28.1266 2.95395 28.1266 2.42216 27.7968 2.09411Z" fill="#E2B061"/>
</svg>
