<svg width="36" height="35" viewBox="0 0 36 35" fill="none" xmlns="http://www.w3.org/2000/svg">
<path d="M33.71 0.813965H18.8961C18.8213 0.813963 18.7472 0.828699 18.678 0.857331C18.6089 0.885964 18.5461 0.927933 18.4932 0.980841C18.4403 1.03375 18.3983 1.09656 18.3697 1.16569C18.341 1.23482 18.3263 1.30891 18.3263 1.38373V1.9535H10.3496C10.2747 1.9535 10.2006 1.96823 10.1315 1.99687C10.0624 2.0255 9.99958 2.06747 9.94667 2.12038C9.89377 2.17328 9.8518 2.2361 9.82316 2.30522C9.79453 2.37435 9.77979 2.44844 9.7798 2.52327H3.07707L0.91832 1.44389C0.831455 1.40046 0.734927 1.37995 0.637904 1.38431C0.540881 1.38867 0.446584 1.41776 0.363967 1.46882C0.281351 1.51988 0.213158 1.59121 0.165865 1.67604C0.118571 1.76087 0.0937471 1.85638 0.09375 1.9535V9.93024C0.0937465 10.0274 0.11857 10.1229 0.165863 10.2077C0.213157 10.2925 0.28135 10.3639 0.363966 10.4149C0.446583 10.466 0.54088 10.4951 0.637904 10.4994C0.734927 10.5038 0.831455 10.4833 0.91832 10.4398L3.07707 9.36048H4.08212V13.9186C4.08211 14.0311 4.11541 14.1411 4.17783 14.2347L6.28415 17.3941L2.56996 25.8837H0.663517C0.588694 25.8837 0.514603 25.8985 0.445474 25.9271C0.376346 25.9557 0.313534 25.9977 0.260626 26.0506C0.207718 26.1035 0.165749 26.1663 0.137117 26.2355C0.108484 26.3046 0.0937478 26.3787 0.09375 26.4535V34.4302C0.0937478 34.5051 0.108484 34.5792 0.137117 34.6483C0.165749 34.7174 0.207718 34.7802 0.260626 34.8331C0.313534 34.886 0.376346 34.928 0.445474 34.9566C0.514603 34.9853 0.588694 35 0.663517 35H19.1632C20.7011 34.9991 22.2007 34.5199 23.4542 33.6288C24.7077 32.7376 25.6529 31.4787 26.159 30.0264L29.1191 21.5162L31.3967 15.2529C31.4194 15.1904 31.431 15.1246 31.431 15.0582V11.0698H33.71C33.7849 11.0698 33.8589 11.055 33.9281 11.0264C33.9972 10.9978 34.06 10.9558 34.1129 10.9029C34.1658 10.85 34.2078 10.7872 34.2364 10.7181C34.2651 10.6489 34.2798 10.5748 34.2798 10.5V1.38373C34.2798 1.30891 34.2651 1.23482 34.2364 1.16569C34.2078 1.09656 34.1658 1.03375 34.1129 0.980841C34.06 0.927933 33.9972 0.885964 33.9281 0.857331C33.8589 0.828699 33.7849 0.813963 33.71 0.813965ZM18.3865 14.7432L20.5531 19.0765L18.3564 24.788C18.2312 25.1097 18.0121 25.3862 17.7275 25.5816C17.443 25.7771 17.1062 25.8823 16.761 25.8837H12.3438L14.8639 19.8354L14.8633 19.8352C14.8644 19.8327 14.8659 19.8305 14.8669 19.8279L17.146 14.1302C17.1729 14.0629 17.1868 13.9911 17.1868 13.9186V9.93024H18.3263V14.4884C18.3263 14.5768 18.3469 14.6641 18.3865 14.7432ZM18.3263 3.09303V8.79071H10.9193V3.09303H18.3263ZM1.23328 2.87541L2.37282 3.44516V8.43859L1.23328 9.00834V2.87541ZM3.51235 8.22094V3.6628H9.7798V8.22094H7.69415L7.61611 7.51857C7.56608 7.06824 7.34548 6.65416 6.99963 6.36143C6.65377 6.06869 6.20894 5.91953 5.75653 5.94458C5.30411 5.96964 4.87847 6.16701 4.56706 6.49615C4.25565 6.82528 4.08212 7.26118 4.08212 7.71429V8.22094H3.51235ZM5.22166 7.71429C5.22165 7.5525 5.28362 7.39685 5.39481 7.27933C5.506 7.1618 5.65798 7.09133 5.81953 7.08238C5.98107 7.07343 6.13991 7.12669 6.2634 7.23121C6.38689 7.33574 6.46567 7.48359 6.48353 7.64439L6.93444 11.7025C6.94362 11.7851 6.97079 11.8647 7.01402 11.9358C7.05725 12.0068 7.1155 12.0675 7.18468 12.1136C7.63284 12.4117 8.00028 12.816 8.25425 13.2906C8.50822 13.7651 8.64083 14.2952 8.64026 14.8334V15.0582H9.7798V14.8334C9.78057 14.1536 9.62377 13.4829 9.32171 12.8739C9.01965 12.265 8.58055 11.7343 8.03888 11.3236L7.82076 9.36048H9.21003V11.0698H10.3496V9.93024H11.4891V11.0698H12.6286V9.93024H13.7682V11.0698H14.9077V9.93024H16.0472V13.8089L14.0038 18.9174L7.29245 16.8523L5.22166 13.7461V7.71429ZM7.24921 18.0313L13.5706 19.9763L11.1092 25.8837H3.81376L7.24921 18.0313ZM25.0827 29.652C24.6545 30.8809 23.8546 31.9462 22.794 32.7002C21.7334 33.4542 20.4645 33.8597 19.1632 33.8605H1.23328V27.0233H16.761C17.3363 27.0209 17.8976 26.8455 18.3718 26.5198C18.8461 26.1941 19.2113 25.7332 19.42 25.1971L21.516 19.7475L27.8499 21.6964L25.0827 29.652ZM30.2914 14.9578L28.2318 20.6217L21.5757 18.5736L19.4658 14.3539V11.0698H21.1751V13.9186H22.3147V6.51164C22.3147 6.36053 22.3747 6.21561 22.4816 6.10875C22.5884 6.0019 22.7333 5.94187 22.8844 5.94187C23.0356 5.94187 23.1805 6.0019 23.2873 6.10875C23.3942 6.21561 23.4542 6.36053 23.4542 6.51164V10.5H24.5938V5.3721C24.5938 5.22099 24.6538 5.07607 24.7606 4.96922C24.8675 4.86237 25.0124 4.80234 25.1635 4.80234C25.3146 4.80234 25.4596 4.86237 25.5664 4.96922C25.6733 5.07607 25.7333 5.22099 25.7333 5.3721V10.5H26.8728V6.51164C26.8728 6.36053 26.9328 6.21561 27.0397 6.10875C27.1466 6.0019 27.2915 5.94187 27.4426 5.94187C27.5937 5.94187 27.7386 6.0019 27.8455 6.10875C27.9523 6.21561 28.0124 6.36053 28.0124 6.51164V10.5H29.1519V8.79071C29.1519 8.6396 29.2119 8.49467 29.3188 8.38782C29.4256 8.28097 29.5705 8.22094 29.7217 8.22094C29.8728 8.22094 30.0177 8.28097 30.1245 8.38782C30.2314 8.49467 30.2914 8.6396 30.2914 8.79071V14.9578ZM33.1403 9.93024H31.431V8.79071C31.4311 8.51723 31.3655 8.24772 31.2398 8.00482C31.1141 7.76193 30.932 7.55276 30.7087 7.39488C30.4854 7.237 30.2274 7.13503 29.9565 7.09754C29.6856 7.06005 29.4097 7.08813 29.1519 7.17942V6.51164C29.1521 6.2327 29.0839 5.95796 28.9534 5.71142C28.8229 5.46489 28.634 5.25406 28.4033 5.09736C28.1725 4.94066 27.9069 4.84285 27.6296 4.81249C27.3523 4.78212 27.0718 4.82012 26.8126 4.92317C26.7141 4.56123 26.4993 4.24174 26.2013 4.01397C25.9033 3.7862 25.5386 3.6628 25.1635 3.6628C24.7884 3.6628 24.4238 3.7862 24.1257 4.01397C23.8277 4.24174 23.6129 4.56123 23.5145 4.92317C23.2552 4.82012 22.9747 4.78212 22.6975 4.81249C22.4202 4.84285 22.1545 4.94066 21.9238 5.09736C21.693 5.25406 21.5041 5.46489 21.3736 5.71142C21.2431 5.95796 21.175 6.2327 21.1751 6.51164V9.93024H19.4658V1.9535H33.1403V9.93024Z" fill="#58595B"/>
<rect x="35.0938" width="0.813953" height="11.3953" fill="#E2B061"/>
</svg>
