<svg width="82" height="82" viewBox="0 0 82 82" fill="none" xmlns="http://www.w3.org/2000/svg">
<path d="M33.5502 30.676C33.403 30.5288 33.1988 30.4441 32.9906 30.4441C32.7825 30.4441 32.5783 30.5288 32.4311 30.676C32.284 30.8232 32.1992 31.0274 32.1992 31.2355C32.1992 31.4437 32.2839 31.6479 32.4311 31.7951C32.5783 31.9423 32.7825 32.0269 32.9906 32.0269C33.1988 32.0269 33.403 31.9423 33.5502 31.7951C33.6973 31.6479 33.7821 31.4437 33.7821 31.2355C33.7821 31.0274 33.6974 30.8232 33.5502 30.676Z" fill="#58595B"/>
<path d="M61.0279 24.0479L60.0492 23.0682L61.0275 22.0899C61.3366 21.7808 61.3366 21.2797 61.0275 20.9706C60.7184 20.6615 60.2174 20.6615 59.9082 20.9706L58.9305 21.9482L57.9663 20.9828C57.8179 20.8344 57.6167 20.7508 57.4068 20.7507L44.0116 20.7433C44.0108 20.7433 44.0101 20.7433 44.0094 20.7433C42.9517 20.7433 41.9572 21.1551 41.2093 21.9031L34.5249 28.5875C34.2158 28.8965 34.2158 29.3977 34.5249 29.7068C34.834 30.0159 35.335 30.0159 35.6442 29.7068L42.3286 23.0224C42.7776 22.5734 43.3744 22.3262 44.0094 22.3262C44.0099 22.3262 44.0104 22.3262 44.0107 22.3262L57.0781 22.3335L57.8114 23.0676L54.8749 26.0041C53.6297 25.2583 51.988 25.4209 50.9161 26.4927C50.3038 27.1051 49.9666 27.9192 49.9666 28.7852C49.9666 29.6512 50.3038 30.4653 50.9161 31.0777C51.5481 31.7097 52.3784 32.0258 53.2087 32.0258C54.0389 32.0258 54.8691 31.7097 55.5012 31.0777C56.5714 30.0075 56.7352 28.3691 55.9932 27.1245L58.9301 24.1876L59.6764 24.9347L59.6691 37.9843C59.6687 38.6187 59.4215 39.2152 58.9728 39.6639L39.6602 58.9764C39.2112 59.4254 38.6142 59.6726 37.9794 59.6726C37.3445 59.6726 36.7475 59.4254 36.2985 58.9764L23.0174 45.6952C22.5684 45.2462 22.3211 44.6493 22.3211 44.0144C22.3211 43.3795 22.5684 42.7825 23.0174 42.3336L31.5485 33.8024C31.8576 33.4934 31.8576 32.9923 31.5485 32.6831C31.2394 32.3741 30.7384 32.3741 30.4292 32.6831L21.8981 41.2142C21.1502 41.9621 20.7383 42.9566 20.7383 44.0144C20.7383 45.0721 21.1502 46.0666 21.8981 46.8145L35.1792 60.0957C35.9512 60.8677 36.9652 61.2537 37.9794 61.2537C38.9935 61.2537 40.0075 60.8677 40.7795 60.0957L60.0921 40.7831C60.8394 40.0357 61.2513 39.042 61.2519 37.9851L61.2593 24.6076C61.2595 24.3977 61.1762 24.1963 61.0279 24.0479ZM54.3819 29.9583C54.0685 30.2717 53.6518 30.4443 53.2087 30.4443C52.7654 30.4443 52.3488 30.2717 52.0354 29.9583C51.3884 29.3114 51.3884 28.2587 52.0354 27.6118C52.359 27.2883 52.7837 27.1266 53.2087 27.1266C53.3687 27.1266 53.5287 27.1496 53.6833 27.1955L52.7699 28.109C52.4608 28.418 52.4608 28.9192 52.7699 29.2283C52.9244 29.3829 53.127 29.4601 53.3295 29.4601C53.532 29.4601 53.7345 29.3829 53.8891 29.2283L54.8 28.3174C54.9646 28.8808 54.8254 29.5149 54.3819 29.9583Z" fill="#58595B"/>
<path d="M54.5472 36.6725L45.324 27.4493C44.1022 26.2274 42.114 26.2276 40.8924 27.4493L26.2968 42.0449C25.7049 42.6367 25.3789 43.4237 25.3789 44.2607C25.3789 45.0977 25.7048 45.8847 26.2967 46.4765L35.52 55.6996C36.1119 56.2915 36.8988 56.6175 37.7358 56.6175C38.5728 56.6175 39.3598 56.2916 39.9515 55.6997L54.5472 41.1041C55.1391 40.5122 55.465 39.7253 55.465 38.8883C55.465 38.0513 55.1391 37.2644 54.5472 36.6725ZM53.4279 39.9847L38.8323 54.5806C38.5395 54.8734 38.15 55.0347 37.7359 55.0347C37.3217 55.0347 36.9322 54.8734 36.6394 54.5805L27.416 45.3573C27.1231 45.0644 26.9618 44.675 26.9618 44.2607C26.9618 43.8465 27.1231 43.4571 27.416 43.1642L42.0117 28.5686C42.314 28.2662 42.7111 28.1151 43.1082 28.1151C43.5053 28.1151 43.9024 28.2663 44.2047 28.5686L53.4279 37.7918C53.7208 38.0847 53.8821 38.4741 53.8821 38.8883C53.8821 39.3025 53.7208 39.6919 53.4279 39.9847Z" fill="#58595B"/>
<path d="M38.5331 49.6916L34.4683 45.6267C34.1592 45.3179 33.6583 45.3177 33.349 45.6267C33.0399 45.9357 33.0399 46.4369 33.349 46.746L37.4139 50.8109C37.5685 50.9654 37.771 51.0427 37.9735 51.0427C38.176 51.0427 38.3786 50.9654 38.5331 50.8109C38.8422 50.5019 38.8422 50.0008 38.5331 49.6916Z" fill="#58595B"/>
<path d="M32.2962 43.4585C32.1491 43.3113 31.9456 43.2266 31.7367 43.2266C31.5286 43.2266 31.3252 43.3112 31.1772 43.4585C31.03 43.6057 30.9453 43.8098 30.9453 44.0188C30.9453 44.2269 31.0299 44.4311 31.1772 44.5783C31.3244 44.7255 31.5286 44.8102 31.7367 44.8102C31.9457 44.8102 32.1491 44.7255 32.2962 44.5783C32.4442 44.4303 32.5289 44.2269 32.5289 44.0188C32.5289 43.8098 32.4442 43.6064 32.2962 43.4585Z" fill="#58595B"/>
<path d="M36.3878 42.6153L37.6348 41.3683L36.8371 40.5706L37.4331 39.9746L38.2308 40.7723L39.0468 39.9563L38.2491 39.1586L38.946 38.4618L39.7436 39.2595L42.9344 36.0687L44.6582 37.7924C45.4589 38.5932 45.8898 39.3481 45.951 40.0571C46.0182 40.7723 45.7431 41.4386 45.1258 42.056C44.5023 42.6794 43.8024 42.9576 43.0261 42.8903C42.2559 42.817 41.4613 42.3708 40.6422 41.5517L39.872 40.7815L39.056 41.5975L40.5688 43.1104L39.9729 43.7064L38.46 42.1935L37.213 43.4405L36.3878 42.6153ZM40.5688 40.0847L41.2198 40.7356C41.7761 41.2919 42.2987 41.6311 42.7877 41.7534C43.2828 41.8818 43.7688 41.7075 44.2456 41.2308C44.6612 40.8151 44.8415 40.3781 44.7865 39.9196C44.7315 39.4612 44.432 38.9599 43.888 38.4159L43.0628 37.5907L40.5688 40.0847Z" fill="#E2B061"/>
</svg>
