<svg width="46" height="46" viewBox="0 0 46 46" fill="none" xmlns="http://www.w3.org/2000/svg">
<path d="M15.3321 0C8.98079 0 3.83203 5.14876 3.83203 11.5V19.9334C3.83539 22.8959 6.23621 25.2967 9.19871 25.3001H9.96538V23.7667H9.19871C7.08271 23.7642 5.36786 22.0494 5.36537 19.9334V11.5C5.36537 5.99554 9.82757 1.53334 15.3321 1.53334C20.8365 1.53334 25.2988 5.99554 25.2988 11.5V19.9334C25.2963 22.0494 23.5814 23.7642 21.4654 23.7667H20.6987V25.3001H21.4654C24.4279 25.2967 26.8287 22.8959 26.8321 19.9334V11.5C26.8321 5.14876 21.6833 0 15.3321 0Z" fill="#58595B"/>
<path d="M6.31655 36.132L6.87698 35.2496L5.58208 34.4277L5.02165 35.3109C3.32664 37.982 3.45247 41.4213 5.33828 43.9613V45.9998H6.87162V43.6998C6.87171 43.5257 6.81249 43.3566 6.70372 43.2207C5.07378 41.183 4.91824 38.3351 6.31655 36.132Z" fill="#58595B"/>
<path d="M42.1672 0H32.2005C30.0845 0.00249167 28.3697 1.71734 28.3672 3.83334V11.5C28.3697 13.616 30.0845 15.3309 32.2005 15.3334H33.7339V18.4C33.7338 18.7101 33.9205 18.9897 34.2069 19.1084C34.3 19.1473 34.3997 19.167 34.5005 19.1667C34.7039 19.1667 34.8988 19.0858 35.0426 18.9421L38.6513 15.3334H42.1672C44.2832 15.3309 45.9981 13.616 46.0006 11.5V3.83334C45.9981 1.71734 44.2832 0.00249167 42.1672 0ZM44.4672 11.5C44.4672 12.7703 43.4375 13.8 42.1672 13.8H38.3339C38.1305 13.8 37.9356 13.8809 37.7918 14.0247L35.2672 16.5493V14.5667C35.2672 14.1433 34.9239 13.8 34.5005 13.8H32.2005C30.9303 13.8 29.9005 12.7703 29.9005 11.5V3.83334C29.9005 2.56307 30.9303 1.53334 32.2005 1.53334H42.1672C43.4375 1.53334 44.4672 2.56307 44.4672 3.83334V11.5Z" fill="#58595B"/>
<path d="M37.5659 3.83325H32.1992V5.36659H37.5659V3.83325Z" fill="#E2B061"/>
<path d="M42.1682 3.83325H39.1016V5.36659H42.1682V3.83325Z" fill="#E2B061"/>
<path d="M42.1659 6.8999H32.1992V8.43324H42.1659V6.8999Z" fill="#E2B061"/>
<path d="M37.5659 9.96655H32.1992V11.4999H37.5659V9.96655Z" fill="#E2B061"/>
<path d="M25.6444 35.3109L25.084 34.4277L23.7891 35.2496L24.3495 36.1328C25.7479 38.3355 25.5924 41.1833 23.9623 43.2207C23.8536 43.3566 23.7943 43.5257 23.7944 43.6998V45.9998H25.3278V43.9613C27.2136 41.4213 27.3394 37.982 25.6444 35.3109Z" fill="#58595B"/>
<path d="M45.2334 26.0667H38.3334C35.4569 26.07 33.0946 28.3407 32.9775 31.2149L30.6667 35.3748V32.2C30.6634 29.2375 28.2626 26.8367 25.3001 26.8333H22.4979L22.4772 26.8172L22.4634 26.8333H20.7001C19.8532 26.8333 19.1667 26.1469 19.1667 25.3V23.496C21.5356 22.1283 22.9964 19.602 23.0001 16.8667V10.7333C22.9989 9.46304 22.6828 8.21289 22.0801 7.0947C21.8869 6.73897 21.4505 6.59455 21.0834 6.76503L8.10675 12.8708C7.83804 12.9973 7.66659 13.2676 7.66669 13.5646V16.8667C7.67033 19.602 9.13112 22.1283 11.5 23.496V25.3C11.5 26.1469 10.8136 26.8333 9.96669 26.8333H5.36668C2.40418 26.8367 0.00335418 29.2375 0 32.2V46.0001H1.53334V32.2C1.53583 30.084 3.25067 28.3692 5.36668 28.3667H7.80622L14.7101 38.0129C14.8519 38.2112 15.0796 38.3301 15.3234 38.3334H15.3334C15.5747 38.3334 15.8019 38.2197 15.9467 38.0267L23.2301 28.3667H25.3001C27.4161 28.3692 29.1309 30.084 29.1334 32.2V38.3334C29.1338 38.7568 29.4774 39.0998 29.9007 39.0994C30.1789 39.0991 30.435 38.9483 30.5701 38.7052L34.1842 32.2H38.5795L31.1045 46.0001H32.8487L40.3268 32.2H40.6334C43.5959 32.1967 45.9968 29.7959 46.0001 26.8333C46.0001 26.41 45.6568 26.0667 45.2334 26.0667ZM9.20002 16.8667V14.0515L21.0382 8.48084C21.3213 9.19806 21.4667 9.96223 21.4667 10.7333V16.8667C21.4667 20.254 18.7207 23 15.3334 23C11.946 23 9.20002 20.254 9.20002 16.8667ZM15.3495 36.2726L12.9835 32.9667H17.8411L15.3495 36.2726ZM19.0011 31.4334H11.8834L9.68839 28.3667H9.96669C11.6604 28.3667 13.0334 26.9937 13.0334 25.3V24.1799C14.5305 24.6511 16.1363 24.6511 17.6334 24.1799V25.3C17.6334 26.9937 19.0064 28.3667 20.7001 28.3667H21.3134L19.0011 31.4334ZM40.6334 30.6667H34.5768C34.9433 28.8829 36.5124 27.602 38.3334 27.6H44.3901C44.0235 29.3838 42.4545 30.6647 40.6334 30.6667Z" fill="#58595B"/>
</svg>
