<svg width="47" height="47" viewBox="0 0 47 47" fill="none" xmlns="http://www.w3.org/2000/svg">
<path d="M30.6714 25.3062C28.1372 25.3062 26.0703 27.373 26.0703 29.9072C26.0703 32.4414 28.1372 34.5083 30.6714 34.5083C33.2056 34.5083 35.2725 32.4414 35.2725 29.9072C35.2725 27.373 33.2146 25.3062 30.6714 25.3062ZM30.6714 32.9716C28.9819 32.9716 27.607 31.5967 27.607 29.9072C27.607 28.2178 28.9819 26.8428 30.6714 26.8428C32.3608 26.8428 33.7358 28.2178 33.7358 29.9072C33.7448 31.5967 32.3698 32.9716 30.6714 32.9716Z" fill="#E2B061"/>
<path d="M32.2065 32.9712V36.1434L31.1012 35.4065C30.8406 35.2358 30.5081 35.2358 30.2475 35.4065L29.1422 36.1434V32.9712H27.6055V37.5723C27.6055 37.8508 27.7582 38.1115 28.0099 38.2463C28.2615 38.381 28.558 38.3631 28.8007 38.2103L30.6788 36.9612L32.557 38.2103C32.6828 38.2912 32.8356 38.3361 32.9794 38.3361C33.1052 38.3361 33.231 38.3092 33.3388 38.2463C33.5905 38.1115 33.7432 37.8508 33.7432 37.5723V32.9712H32.2065Z" fill="#E2B061"/>
<path d="M27.6066 7.66602H17.6406V9.2027H27.6066V7.66602Z" fill="#58595B"/>
<path d="M35.2803 12.2666H10.7383V13.8033H35.2803V12.2666Z" fill="#58595B"/>
<path d="M27.6059 16.8677H10.7383V18.4044H27.6059V16.8677Z" fill="#58595B"/>
<path d="M35.2729 16.8672H30.6719V18.4039H35.2729V16.8672Z" fill="#58595B"/>
<path d="M35.2803 21.4688H10.7383V23.0054H35.2803V21.4688Z" fill="#58595B"/>
<path d="M19.9404 26.0698H10.7383V27.6065H19.9404V26.0698Z" fill="#58595B"/>
<path d="M14.5755 29.907H10.7383V31.4437H14.5755V29.907Z" fill="#58595B"/>
<path d="M19.9412 29.9072H17.6406V31.4439H19.9412V29.9072Z" fill="#58595B"/>
<path d="M42.1732 0C40.0613 0 38.3359 1.71642 38.3359 3.83722V5.37391C38.3359 5.79627 38.6774 6.13776 39.0998 6.13776H45.2375C45.6599 6.13776 46.0014 5.79627 46.0014 5.37391V3.83722C46.0104 1.71642 44.294 0 42.1732 0ZM44.4737 4.60107H39.8726V3.83722C39.8726 2.57013 40.9061 1.53669 42.1732 1.53669C43.4402 1.53669 44.4737 2.57013 44.4737 3.83722V4.60107Z" fill="#58595B"/>
<path d="M42.1725 0H9.96495C7.85313 0 6.13672 1.71642 6.13672 3.83722V40.6458H7.6734V3.83722C7.6734 2.57013 8.70685 1.53669 9.97394 1.53669H39.1171C38.6318 2.17473 38.3532 2.97452 38.3532 3.83722V42.1825C38.3532 43.4496 37.3198 44.483 36.0527 44.483H6.90057V46.0107H36.0437C38.1555 46.0107 39.8809 44.2943 39.8809 42.1735V3.83722C39.8809 2.57013 40.9143 1.53669 42.1814 1.53669C42.6038 1.53669 42.9453 1.1952 42.9453 0.772836C42.9453 0.350472 42.6038 0 42.1725 0Z" fill="#58595B"/>
<path d="M36.0447 44.4741C34.7776 44.4741 33.7442 43.4407 33.7442 42.1736V40.6369C33.7442 40.2145 33.4027 39.873 32.9803 39.873H0.76385C0.341486 39.873 0 40.2145 0 40.6369V42.1736C0 44.2944 1.71642 46.0108 3.83722 46.0108H36.0447C36.4671 46.0108 36.8086 45.6693 36.8086 45.247C36.8086 44.8156 36.4671 44.4741 36.0447 44.4741ZM3.83722 44.4741C2.57013 44.4741 1.53669 43.4407 1.53669 42.1736V41.4097H32.2075V42.1736C32.2075 43.0363 32.4951 43.8361 32.9714 44.4741H3.83722Z" fill="#58595B"/>
</svg>
